<svg width="24" height="24" viewBox="0 0 24 24" fill="none" xmlns="http://www.w3.org/2000/svg">
<rect width="24" height="24" rx="12" fill="#2D7CF2"/>
<path d="M10.5634 6H13.4366L13.1662 13.9944H10.8338L10.5634 6ZM12 18C11.493 18 11.0817 17.8535 10.7662 17.5606C10.4507 17.2563 10.293 16.8676 10.293 16.3944C10.293 15.9099 10.4507 15.5211 10.7662 15.2282C11.0817 14.9239 11.493 14.7718 12 14.7718C12.5071 14.7718 12.9183 14.9239 13.2338 15.2282C13.5493 15.5211 13.7071 15.9099 13.7071 16.3944C13.7071 16.8676 13.5493 17.2563 13.2338 17.5606C12.9183 17.8535 12.5071 18 12 18Z" fill="white"/>
</svg>
