<?xml version="1.0" encoding="utf-8"?><svg viewBox="0 0 36 36" xmlns="http://www.w3.org/2000/svg" xmlns:xlink="http://www.w3.org/1999/xlink"><style>:root>svg{display:none}:root>svg:target{display:block}</style><svg viewBox="0 0 24 24" id="Frame_5" xmlns="http://www.w3.org/2000/svg"><rect width="24" height="24" rx="12"/><path d="M10.563 6h2.874l-.27 7.994h-2.333L10.564 6zM12 18c-.507 0-.918-.146-1.234-.44-.315-.304-.473-.692-.473-1.166 0-.484.158-.873.473-1.166.316-.304.727-.456 1.234-.456s.918.152 1.234.456c.315.293.473.682.473 1.166 0 .474-.158.862-.473 1.167-.316.293-.727.439-1.234.439z"/></svg><svg viewBox="0 0 10 12" id="Subtract" xmlns="http://www.w3.org/2000/svg"><path fill-rule="evenodd" clip-rule="evenodd" d="M1.557 9.607C2.462 10.852 3.61 11.65 5 12c1.39-.35 2.537-1.147 3.442-2.392C9.347 8.363 9.8 6.98 9.8 5.46V1.8L5 0 .2 1.8v3.66c0 1.52.452 2.902 1.357 4.147zm5.941-6.23l-.724-.319-2.151 4.879-1.425-1.764-.616.498 2.241 2.772 2.675-6.066z"/></svg><svg viewBox="0 0 36 36" id="android" xmlns="http://www.w3.org/2000/svg"><path d="M9 21.75a1.5 1.5 0 11-3 0V15a1.5 1.5 0 013 0v6.75zm21 0a1.5 1.5 0 11-3 0V15a1.5 1.5 0 113 0v6.75zM16.5 30a1.5 1.5 0 11-3 0v-6.75a1.5 1.5 0 113 0V30zm6 0a1.5 1.5 0 11-3 0v-6.75a1.5 1.5 0 113 0V30z"/><path d="M10.5 13.5v11.25a1.5 1.5 0 001.5 1.5h12a1.5 1.5 0 001.5-1.5V13.5h-15zM18 6c-4.5 0-7.241 2.734-7.5 6h15c-.26-3.266-3-6-7.5-6zm-3 4.198a.75.75 0 110-1.5.75.75 0 010 1.5zm6 0a.75.75 0 110-1.5.75.75 0 010 1.5zM22.5 5.25l-1.25 1.874M13.5 5.25l1 1.561"/></svg><svg viewBox="0 0 14 9" id="ar" xmlns="http://www.w3.org/2000/svg"><path d="M13 1.025l-6 6-6-6"/></svg><svg viewBox="0 0 24 28" id="copy" xmlns="http://www.w3.org/2000/svg"><path d="M16.32.667h-5.192c-2.352 0-4.216 0-5.673.197-1.502.203-2.716.63-3.674 1.59C.823 3.417.397 4.637.196 6.144 0 7.607 0 9.477 0 11.839v7.784a4.82 4.82 0 002.97 4.456c-.09-1.214-.09-2.914-.09-4.33v-6.68c0-1.708 0-3.18.157-4.36.17-1.264.551-2.474 1.53-3.457.978-.983 2.185-1.365 3.444-1.536 1.173-.157 2.64-.157 4.342-.157h4.094c1.701 0 3.165 0 4.34.157A4.802 4.802 0 0016.32.666z"/><path d="M4.8 13.196c0-3.635 0-5.452 1.125-6.581 1.124-1.13 2.934-1.13 6.555-1.13h3.84c3.62 0 5.43 0 6.556 1.13C24 7.744 24 9.56 24 13.196v6.427c0 3.634 0 5.452-1.124 6.581-1.125 1.13-2.936 1.13-6.556 1.13h-3.84c-3.62 0-5.43 0-6.555-1.13S4.8 23.257 4.8 19.623v-6.427z"/></svg><svg viewBox="0 0 36 36" id="ios" xmlns="http://www.w3.org/2000/svg"><path d="M25.497 30.417c-1.454 1.424-3.041 1.2-4.57.525-1.616-.69-3.1-.72-4.806 0-2.136.93-3.263.66-4.54-.525-7.239-7.544-6.17-19.033 2.048-19.453 2.003.105 3.397 1.11 4.57 1.2 1.75-.36 3.426-1.395 5.295-1.26 2.24.18 3.931 1.08 5.044 2.7-4.628 2.805-3.53 8.969.712 10.694-.846 2.25-1.943 4.484-3.768 6.134l.015-.015zM18.05 10.874C17.827 7.53 20.512 4.77 23.598 4.5c.43 3.87-3.471 6.75-5.548 6.374z"/></svg></svg>