<svg xmlns="http://www.w3.org/2000/svg" viewBox="0 0 1230.52 500"><g id="Bradesco"><path d="M927.55,289.15,915.35,284c-7.06-2.92-11.21-5.36-11.21-10,0-7.07,6.34-8.53,14.63-8.53a90.48,90.48,0,0,1,28.53,4.63,59.21,59.21,0,0,0,0-22.68c-7.32-3.9-21-5.85-32.92-5.85-23.4,0-41.2,12.68-41.2,31.7,0,17.06,7.31,25.6,27.79,33.89l9.51,3.9c9,3.66,11.71,5.85,11.71,11.7,0,8.78-8.78,10.24-16.1,10.24-12.19,0-21.45-2.44-33.16-6.58a48.53,48.53,0,0,0,0,23.65c10,5.37,23.66,7.07,38,7.07,23.16,0,41.69-12.19,41.69-34.13C952.66,305,944.86,296.46,927.55,289.15ZM711.28,330.84a42.69,42.69,0,0,1-12.93,1.71c-20,0-27.79-13.17-27.79-32.19,0-21.21,7.8-34.13,27.55-34.13a46.79,46.79,0,0,1,13.16,1.7v62.91Zm0-113.62V243.8a60.76,60.76,0,0,0-15.85-1.71c-33.4,0-56.08,22.44-56.08,58.27,0,36.58,22.19,56.81,56.81,56.81,15.85,0,31.45-2.19,45.35-6.82V192.6c-8.54,3.17-17.56,7.55-25.11,13.65C712.5,209.42,711.28,212.59,711.28,217.22Zm-117,115.08a82.64,82.64,0,0,1-12.92,1.22c-13.9,0-21.45-4.14-21.45-13.9S567.43,306,581.32,306c4.64,0,10,.48,12.92.73ZM576,241.6a126.77,126.77,0,0,0-32.68,3.66c-1.95,6.83-1.7,16.83,0,23.89a108.35,108.35,0,0,1,27.8-3.17c15.61,0,23.16,6.35,23.16,19.26v1.22c-4.63-.48-10.24-1-14.14-1-25.84,0-48,9.27-48,34.14,0,28,20,37.54,49,37.54a148.9,148.9,0,0,0,42.18-6.58V287.45c0-30.24-16.34-45.11-47.3-45.85Zm445.7,90.7c-15.11,0-25.11-11.95-25.11-32.91,0-20,8-32.92,25.35-32.92,7.32,0,12.44,1.22,19.26,3.9a64.62,64.62,0,0,1,10.74-21.21c-9.52-4.87-18.78-7.56-33.9-7.56-33.4,0-52.66,23.66-52.66,57.79,0,35.36,19.75,57.78,53.88,57.78,12.44,0,23.9-2.19,33.16-7.31a69.54,69.54,0,0,1-11.46-21.21c-8.53,3.41-12.19,3.65-19.26,3.65ZM788.32,286.22c2.2-13.41,10.24-21.46,22.44-21.46,13.65,0,19,9.27,19.5,21.46Zm22.92-44.62c-32.67,0-52.66,22-52.66,58.52s21.21,57.05,57.54,57.05c12.44,0,25.85-2.19,34.38-6.33a54.37,54.37,0,0,0,0-23.41c-11.22,3.17-20.72,5.12-31.21,5.12-16.83,0-28.53-6.34-31-24.14h68.76c1-2.68,1.22-11.7,1.22-15.36,0-32.92-18.53-51.45-47.06-51.45Zm295,91.19c-16.81,0-21.94-13.65-21.94-33.16,0-19,5.13-33.65,21.94-33.65,17.32,0,22.19,14.15,22.19,33.65C1128.46,320.11,1122.85,332.79,1106.26,332.79Zm0-91.19c-33.89,0-52.9,23.17-52.9,58,0,35.36,20,57.54,52.9,57.54,34.14,0,53.15-22.67,53.15-57.54,0-35.11-19-58-53.15-58Zm-922.1,26.2-20.68,11.9v76.22l22.22,0a4,4,0,0,0,4-3.95V270.64C189.66,267.52,186.65,266.39,184.16,267.8Zm-30-109a294.91,294.91,0,0,0-48.6,4.22,92.31,92.31,0,0,1,72.9-35.36c21.85,0,43.7,8.23,58.4,20.49,2.66,2.21,4.7,2.41,6.74.4s1.84-4-.41-6.63c-19.19-22.3-47.37-37.37-80.66-36.77C119,106,82.07,133.53,68,171.71a185.27,185.27,0,0,0-35.12,14.66C30,188,29,190,30,192.4c1,2.21,3.07,3,5.92,2.21,9-2.62,18.18-4.83,27.77-6.83a78.46,78.46,0,0,0-1.63,15.67c-.82,35.16,18,68.51,47,86.8,2.86,1.81,5.31,1.81,6.94-.41s1.43-4.21-1-6.43c-18.38-16.47-28.59-41-28.59-65.29a86.09,86.09,0,0,1,7.15-34.76c9.59-.81,20-1.41,31.45-1.41,74.33,0,137,24.51,137,56.66,0,16.27-20.63,32.55-45.13,43.4-5.92,2.61-6.54,4.41-5.72,7,.82,2.41,3.47,3.21,6.54,2.21,42.88-14.06,75.35-37.17,75.35-65.1,0-38-61.26-67.3-138.86-67.3ZM138.31,297.14V353.4a2.55,2.55,0,0,0,2.55,2.55h15.65V283.71l-15.63,9a4.81,4.81,0,0,0-2.57,4.44Zm381.81-54.07c-14.38,0-22.67,5.6-30.48,15.6a76.52,76.52,0,0,0-3.41-14.38c-2.93-1-8.05-1.22-12.43-1.22a57.24,57.24,0,0,0-12.2,1.22V354.73c3.66,1,9.76,1.22,15.12,1.22a85.18,85.18,0,0,0,15.12-1.22V300.85c0-21.45,11.21-32.92,26.33-32.92a68.36,68.36,0,0,1,10,.49,63.33,63.33,0,0,0,.49-24.38A43.22,43.22,0,0,0,520.12,243.07ZM382.61,332.55c-3.17,0-8.05,0-11.46-1.22V270.62c4.14-2.2,10-3.42,17.55-3.42,15.12,0,23.17,10.49,23.17,30.24,0,20.72-9.51,35.11-29.26,35.11Zm11.21-90.46c-8.78,0-17.31,1.95-22.67,4.64V192.6c-8.53,3.17-17.56,7.55-25.12,13.65-3.9,3.17-5.11,6.34-5.11,11V350.84c8,3.41,24.38,6.33,40,6.33,39.5,0,62.18-24.13,62.18-59,0-34.62-16.1-56.08-49.26-56.08"/></g></svg>