<svg xmlns="http://www.w3.org/2000/svg" viewBox="0 0 1230.52 500"><defs><style>.cls-1{fill-rule:evenodd;}</style></defs><g id="Bradesco"><path class="cls-1" d="M421.37,211.64l-26.06,64.94h36.06l-9.88-65.22ZM283.31,360.7,390.22,140.61H471L516.12,360.7h-71l-5.22-29.32H371.08L355.24,360.7Zm266.39,0,31-220.09h71.5l-31,220.09Zm475.54-149.34-26.17,65.22h36.06l-9.89-65.22ZM887.07,360.7,994,140.61h80.8l45.08,220.09h-71l-5.22-29.32H974.83L959,360.7ZM729,257.79h89.59L880,359.47h-89.6L729,257.79Z"/><path class="cls-1" d="M738.31,242.17h92.6l80.43-101.24H818.73L738.31,242.17Zm-92.6,117.92h92.6L818.73,257.6h-92.6Z"/><path class="cls-1" d="M679.1,139.7h86.43l59.21,102.47H738.31L679.1,139.7Zm-393.66,8.8-6.88,64.73c-26.36-36.36-87.44-11.27-92.23,34-6.1,57.48,52.68,70.89,84.68,37l-6.9,64.88A154.32,154.32,0,0,1,236,360a115,115,0,0,1-27.47,4,106.68,106.68,0,0,1-31.19-3.59,76.18,76.18,0,0,1-25.3-12.26,89.89,89.89,0,0,1-31.33-40.32q-9.65-24.58-6.35-55.56A136.13,136.13,0,0,1,127,206.71a131.72,131.72,0,0,1,27.42-37.51,116.78,116.78,0,0,1,36-24.46A113.64,113.64,0,0,1,232.77,136a104.72,104.72,0,0,1,26.75,2.81,119.87,119.87,0,0,1,25.92,9.67Z"/></g></svg>