<svg xmlns="http://www.w3.org/2000/svg" viewBox="0 0 1230.52 500"><defs><style>.cls-1{fill-rule:evenodd;}</style></defs><g id="Kotak"><g id="layer1"><g id="g394"><g id="path380"><path class="cls-1" d="M497.45,239.48l96.64-40.76,93.67,41.79L593.94,92.57Zm.29,45.18,96.49,55.91,98.43-55.91L595.23,420.41Z"/></g><g id="path382"><polygon class="cls-1" points="594.54 218.66 493.88 261.02 594.54 316.93 692.36 262.21 594.54 218.66"/></g></g><path d="M593.27,474.19c-120,0-217.7-97.66-217.7-217.7s97.66-217.7,217.7-217.7S811,136.45,811,256.49,713.31,474.19,593.27,474.19Zm0-411.66c-106.95,0-194,87-194,194s87,194,194,194,194-87,194-194S700.22,62.53,593.27,62.53Z"/></g></g></svg>