<svg xmlns="http://www.w3.org/2000/svg" viewBox="0 0 1230.52 500"><defs><style>.cls-1{fill-rule:evenodd;}</style></defs><g id="GiroPay"><g id="layer1"><path class="cls-1" d="M755.54,274.92c0,14.24-7,24-18.71,24-10.3,0-18.89-9.79-18.89-22.83,0-13.39,7.55-23.34,18.89-23.34C748.85,252.78,755.54,263.08,755.54,274.92Z"/><path class="cls-1" d="M848.35,280.43c-10.48,0-18.71,3.24-18.71,11.82,0,6.19,5.49,9.79,12.7,9.79,11.67,0,19-10.64,19-21.11C857.45,280.75,853,280.43,848.35,280.43Zm0,0c-10.48,0-18.71,3.24-18.71,11.82,0,6.19,5.49,9.79,12.7,9.79,11.67,0,19-10.64,19-21.11C857.45,280.75,853,280.43,848.35,280.43Zm0,0c-10.48,0-18.71,3.24-18.71,11.82,0,6.19,5.49,9.79,12.7,9.79,11.67,0,19-10.64,19-21.11C857.45,280.75,853,280.43,848.35,280.43Zm0,0c-10.48,0-18.71,3.24-18.71,11.82,0,6.19,5.49,9.79,12.7,9.79,11.67,0,19-10.64,19-21.11C857.45,280.75,853,280.43,848.35,280.43Zm143-182.25H292.51A64,64,0,0,0,228.39,162V390.05a64,64,0,0,0,64.12,63.81H991.37a64,64,0,0,0,64.12-63.81V162A64,64,0,0,0,991.37,98.18ZM660.94,427.77H294.8a40,40,0,0,1-40.09-39.88V164.18a40,40,0,0,1,40.09-39.87H660.94Zm85.68-105.15c-10.81,0-22.49-3.94-28.34-14.58h-.34v48.57H687.06V231.16h28.48v16.13h.34c6.2-12.53,19.24-18.2,33.3-18.2,24.73,0,38.28,23.52,38.28,45.14C787.46,300.66,773.22,322.62,746.62,322.62Zm117-2.05c-.19-4.82-.69-9.43-.69-14.08h-.35c-7,11.18-15.62,16.13-28.32,16.13-17.68,0-33.46-8.73-33.46-28.14,0-27.28,29.7-30.55,46.16-30.55a90.07,90.07,0,0,1,14.42,1.22c-.18-12.19-9.28-15.46-20.42-15.46-10,0-19.93,1.89-28.48,6.7L812,235.45c11-4.47,22.49-6.36,35.7-6.36,22.83,0,42.56,9.79,42.56,37.08v33.29a109.75,109.75,0,0,0,1.71,21.11ZM968.8,314.4c-8.75,22.48-15.43,44.28-43.76,44.28a89.77,89.77,0,0,1-19.21-2.07l2-23.51A36.92,36.92,0,0,0,920.06,335c7.56,0,13.39-4.47,15.63-12.37l-36.21-91.46h33.28L952,289.51h.34l18.36-58.35h30.9ZM829.64,292.25c0,6.19,5.49,9.79,12.7,9.79,11.67,0,19-10.64,19-21.11-3.94-.18-8.41-.5-13-.5C837.87,280.43,829.64,283.67,829.64,292.25Zm18.71-11.82c-10.48,0-18.71,3.24-18.71,11.82,0,6.19,5.49,9.79,12.7,9.79,11.67,0,19-10.64,19-21.11C857.45,280.75,853,280.43,848.35,280.43Zm0,0c-10.48,0-18.71,3.24-18.71,11.82,0,6.19,5.49,9.79,12.7,9.79,11.67,0,19-10.64,19-21.11C857.45,280.75,853,280.43,848.35,280.43Z"/><path id="_47303032" data-name=" 47303032" class="cls-1" d="M330.15,275.1c0-12.19,6-22.32,17.52-22.32,13.89,0,19.72,11.15,19.72,21.11,0,13.73-8.75,23-19.72,23C338.4,296.88,330.15,289,330.15,275.1Zm67.11-43.94h-28v16.13H369c-6.54-11-17.19-18.2-30.39-18.2-27.8,0-40.33,19.92-40.33,46.52,0,26.43,15.28,45,39.8,45,12.37,0,22.67-4.82,30-15.28h.35v4.82c0,17.49-9.61,25.9-27.45,25.9-12.88,0-20.78-2.74-30.21-7.37L309.23,353a103.81,103.81,0,0,0,34.15,5.66c36,0,53.88-11.84,53.88-48.57Zm52.21-37.24h-30.9v22.65h30.9ZM418.59,320.57h30.88V231.16H418.59Zm116.89-90.45a67.4,67.4,0,0,0-10.46-1c-13.39,0-21.11,7.21-26.43,18.54h-.35V231.16H470.1v89.41H501V282.82c0-17.51,8.08-28,22.49-28,3.61,0,7,0,10.46,1ZM588.67,301c-14.24,0-20.07-11.85-20.07-25.05,0-13.39,5.83-25.24,20.07-25.24s20.09,11.85,20.09,25.24C608.76,289.16,602.93,301,588.67,301Zm0,21.61c29.52,0,52-17.14,52-46.66,0-29.71-22.49-46.87-52-46.87s-52,17.16-52,46.87C536.68,305.48,559.16,322.62,588.67,322.62Z"/></g></g></svg>