<svg xmlns="http://www.w3.org/2000/svg" viewBox="0 0 1230.52 500"><g id="Icici_bank" data-name="Icici bank"><g id="layer1"><g id="g651"><path id="path150" d="M266.73,356.18h37l29-108.19H296.14Z"/><path id="path152" d="M456.58,356.18h37l29-108.19h-37Z"/><path id="path154" d="M646.77,356.18h36.67L712.13,248h-37Z"/><path id="path156" d="M422.09,285h37c5.08-24.31-10.52-36.65-46.83-36.65-42.11,0-70.41,20.69-80.21,55.9-8.36,32.66,8.71,52.27,48.26,52.27,39.93,0,63.52-12.33,73.34-40.29h-37c-5.45,12.33-14.88,18.5-27.94,18.5-17.8,0-25.06-10.88-19.62-31.57,5.81-21.42,19.62-33.4,37.4-33.4,11.61,0,16.69,5.08,15.6,15.24Z"/><path id="path158" d="M612.3,285h37c5.08-24.31-10.9-36.65-47.21-36.65-41.74,0-70.41,20.69-79.84,55.9-8.71,32.66,8.34,52.27,47.91,52.27s63.16-12.33,73.32-40.29h-37c-5.1,12.33-14.9,18.5-28,18.5-17.78,0-25-10.88-19.25-31.57,5.46-21.42,19.25-33.4,37-33.4,11.63,0,17.07,5.08,16,15.24Z"/><path d="M256.63,160.32c-14.77-19.08-41.27-21.88-63.23-15.81-26.3,7.27-50.2,24.62-69.33,43.61-49.35,49-70.42,116.16-46.83,149.9,8.14,11.3,20.26,17.4,34.64,18.66l-.88-.13c9.8.36,17.8-10.55,24.33-25.06q1.83-4.15,3.37-8.21a283.43,283.43,0,0,0,10.06-33.54c4.72-20.68,5.08-35.2,2.54-38.46-4-5.1-12.7-4-22.88,1.81-5.08,2.91-11.61,1.09-4-8.34,8-9.44,38.82-31.95,49.71-35.58,12.36-3.27,26.14,1.45,21.43,14.88-2.28,6.77-23.43,62.27-25.73,92.07-1,13.31,1.71,21.5,11.58,17.91l-1.12.83a199,199,0,0,0,30.51-25.14c19.35-19.35,36.19-42.41,46.26-68.27C266.67,216.87,274.23,183.06,256.63,160.32Zm-76.3,36.15c-6.17-5.81-2.52-18.53,7.27-28.69,10.17-9.79,23.23-13.06,28.67-7.25a9.26,9.26,0,0,1,2.9,6.89v1.09c-.36,6.17-4,13.79-10.52,20.32C198.85,198.26,185.79,201.89,180.33,196.47Z"/><path id="path166" d="M767.66,339.11,776,307.9h20.32V291.21h-15.6L788,264.7h8.35V248.36h-27.6L740.07,356.54h56.26V339.11Zm28.67-31.21h4c18.53,0,27.23,3.27,23.61,16-2.91,11.25-12,15.24-27.6,15.24v17.43c15.26,0,26.51-1.45,37.76-9.09A36.42,36.42,0,0,0,849.34,326c4-14.87-2.55-25.05-19.61-27.21,16-2.9,26.15-11.27,29.39-24.33,2.91-9.8.37-17.05-6.53-21.77-5.8-4-15.6-4.37-28.66-4.37h-27.6V264.7H810.5c17.42,0,25.4,2.18,22.86,13.07-3.27,10.52-12.7,13.44-30.48,13.44h-6.55Z"/><path id="path168" d="M898,280.69v13.4a12.56,12.56,0,0,0-6.53,7.64H869.66c3.61-10.52,13.43-17.8,28.31-21Zm0,63.52a31.21,31.21,0,0,1-8.35,1.08c-9.8,0-14.15-4-12-11.26,2.17-8.35,8.71-11.25,20.32-12.34V309c-25.06,1.81-38.85,8.35-43.2,24.67-4,14.88,5.46,24.7,25.05,24.7A48.88,48.88,0,0,0,898,355.09ZM919,321.69l-.36,1.09c-2.9,11.25-10.54,18.89-20.7,21.43v10.88A46.78,46.78,0,0,0,912.48,346l-1.81,10.52h21.79c1.09-5.09,2.17-10.9,3.63-16.71l8.34-30.48a27.46,27.46,0,0,0,1.09-7.62V298.1c-.72-12.35-11.25-18.88-30.84-18.88A111,111,0,0,0,898,280.69v13.4c3.26-1.79,7.25-2.52,12.35-2.52,11.23,0,15.61,5.06,12.32,16l-.34,1.09H910.67c-4.34,0-8.71.36-12.7.36v12.7Z"/><path id="path170" d="M952.05,356.54h22.16l10.52-38.84c3.63-13.79,16.33-23.61,29.75-23.61,13.07,0,17.8,7.64,13.45,22.88l-10.54,39.57h22.15l12.34-46.1c5.08-19.59-4.72-31.22-26.49-31.22-14.17,0-25.42,5.08-35.22,15.24L992.71,281H970.58c-2.18,12-3.63,19.25-4.38,22.15Z"/><path id="path172" d="M1059.13,356.54h21.79l10.89-40.66,29.41,40.66h30.12l-33.4-43.2L1163,281H1135l-41.75,30.14,16.69-62.8h-21.77Z"/></g></g></g></svg>