<svg xmlns="http://www.w3.org/2000/svg" viewBox="0 0 1230.52 500"><g id="InovaPay"><path d="M250.13,305.69c0-15.79,0-31.58.05-47.36,0-3.2-1.11-4.94-4.19-6-21.73-7.77-43.4-15.69-65.09-23.57-4-1.48-6.22-4.37-6.22-8.12a8.15,8.15,0,0,1,5-7.55,9.49,9.49,0,0,1,7.14,0c6.27,2.28,12.62,4.34,18.77,6.87,5.86,2.41,10.39-1.06,11.61-4.62,1.56-4.53-.84-8.85-6-10.73l-74.61-27.08c-4.83-1.75-7.34-5.67-6.39-9.87,1.22-5.41,6.18-7.92,11.87-5.87q22,7.9,43.91,15.9c6.62,2.41,13.23,4.84,19.86,7.21,5.14,1.84,9.73-.06,11.36-4.64,1.56-4.42-.77-8.77-5.75-10.6-7.66-2.83-15.34-5.6-23-8.41-5.23-1.91-7.57-6.32-5.87-11,1.61-4.46,6.36-6.47,11.41-4.66,11,3.91,21.87,7.94,32.83,11.86,4.68,1.67,9.26-.44,10.81-4.81a8,8,0,0,0-4.44-10.06c-1.78-.83-3.67-1.42-5.5-2.13-5-1.93-7.16-6.45-5.38-11,1.7-4.41,6.27-6.32,11.18-4.56q24.76,8.92,49.5,17.92L363,171.85c10.55,3.83,15.59,11,15.59,22.19q0,25.52,0,51c0,9.89-5.27,17.51-14.56,20.94-11.18,4.12-22.38,8.18-33.57,12.28-3.81,1.4-4.49,2.36-4.51,6.45,0,6,0,12,0,18,0,9.74-5.41,17.36-14.6,20.57q-7,2.46-14.15,4.75c-2.89.93-4.26,2.74-4.22,5.83.08,6.67.18,13.35,0,20-.27,9.05-4.38,15.9-12.81,19.55-8.25,3.58-16,2.19-22.87-3.63-5.12-4.36-7.16-10.21-7.17-16.8Q250.1,329.37,250.13,305.69Zm16.76-1V352a19.55,19.55,0,0,0,.05,2.54,4.46,4.46,0,0,0,3.51,3.94,4.32,4.32,0,0,0,5.07-2.12,7.94,7.94,0,0,0,1-4.33c0-6.3,0-12.59,0-18.88,0-9.62,5.31-17.2,14.35-20.42,5-1.79,10.1-3.47,15.17-5.17a4.32,4.32,0,0,0,3.36-4.77c-.18-6.1-.06-12.21-.06-18.32,0-10.85,5.07-18.06,15.31-21.82,11.1-4.06,22.18-8.15,33.3-12.15,2.76-1,4.06-2.66,4-5.65-.12-6-.14-12,0-18,.05-2-.63-2.74-2.41-3.39q-61.12-22.11-122.22-44.34c-2.69-1-3.05-.76-3.05,2.2,0,15,0,30.05,0,45.08a5.08,5.08,0,0,0,3.73,5.31c4.52,1.56,9,3.17,13.53,4.78q15.38,5.47,15.39,21.72ZM249.83,165.81c.9.36,1.31.55,1.74.7l70.86,25.74c12.43,4.51,24.86,9,37.26,13.59,1.79.66,2.34.44,2.22-1.51-.13-2.15,0-4.32,0-6.48,0-8.94.94-8.37-8.22-11.69q-42.72-15.47-85.41-31c-1.94-.7-3.8-1.12-5.58.31C258.5,158.81,254.35,162.17,249.83,165.81Z"/><path d="M645.68,249.75c0,23.55-18.26,41.14-42.64,41.12s-42.59-17.62-42.59-41.19c0-24,18.22-41.06,43.78-41C627.64,208.68,645.69,226.58,645.68,249.75ZM629,249.9c-.1-1.42-.16-2.55-.26-3.67a25.77,25.77,0,0,0-50-6.19c-3.83,11-.74,23.81,7.66,30.56s18.08,8,28,3.39C624.56,269.21,628.63,260.43,629,249.9Z"/><path d="M521,259.32V248q0-15.93,0-31.85c0-4.37,1.75-6.1,6.16-6.16,1.79,0,3.58-.09,5.36,0,3.12.22,4.84,2,4.84,5.08q0,34.66,0,69.33a4.63,4.63,0,0,1-2.51,4.39c-3.42,1.91-9.57.62-11.94-2.5l-33.69-44.45c-.34-.44-.69-.86-1.08-1.35-.86.75-.44,1.64-.44,2.39q0,19.86,0,39.73c0,5.32-1.54,6.84-6.89,6.86-9.12,0-9.57-.41-9.57-9.48V216.3c0-4.61,1.66-6.07,6.22-6.41,4.2-.31,6.95,1.2,9.48,4.61,10.66,14.41,21.6,28.63,32.44,42.92C519.76,257.87,520.14,258.27,521,259.32Z"/><path d="M833.05,249.55q0-17,0-34.08c0-3.2,1.56-5.37,4.5-5.38,9.94,0,19.93-1,29.81.73,14.62,2.56,24.15,14.47,23.75,29.37s-10.6,26.14-25.3,28.16a84.7,84.7,0,0,1-13.78.49c-2,0-2.79.32-2.68,2.55.21,4.22.09,8.45.06,12.67,0,3.39-1.74,5.21-5.15,5.39a58.44,58.44,0,0,1-5.92,0q-5.28-.24-5.29-5.54Q833,266.73,833.05,249.55Zm16.37-10.35c0,4.69,0,9.37,0,14.06,0,1.25.22,1.9,1.67,1.84,3.47-.14,6.94.15,10.41-.29,7.53-1,12.4-6.13,12.83-13.65.53-9.16-3.24-14.86-11-16.82-3.89-1-7.85-.29-11.77-.59-1.86-.15-2.14.6-2.1,2.23C849.49,230.38,849.42,234.79,849.42,239.2Z"/><path d="M695.19,265.93c3.58-9.3,6.95-18,10.32-26.75,3.2-8.31,6.46-16.59,9.58-24.93,1.1-3,3-4.39,6.15-4.3,1.5,0,3,0,4.51,0,4.61.18,6.82,3.4,5.11,7.69-4.47,11.23-9,22.42-13.57,33.62L703.7,284.89c-1.54,3.78-2.7,4.56-6.8,4.59-8.38.07-8.38.07-11.5-7.66L660,219c-2.46-6.11-.41-9.07,6.26-9.08h2.26c4.24,0,5.37.81,6.91,4.81q9.4,24.39,18.78,48.78C694.46,264.15,694.71,264.76,695.19,265.93Z"/><path d="M935.21,233.54c-3.75,9.69-7.22,18.65-10.69,27.63-3.1,8-6.25,16.05-9.26,24.12-1.11,3-3,4.34-6.18,4.2-1.5-.06-3,0-4.51,0-4.74-.12-6.8-3.16-5.05-7.55q7.2-18,14.49-36,6.36-15.76,12.76-31.51c1.49-3.68,2.65-4.47,6.54-4.51,9.09-.09,8.52-.15,11.68,7.69q12.76,31.67,25.62,63.29c2.31,5.71.32,8.55-5.92,8.55-1,0-2.07,0-3.1,0-3.15.15-5-1.27-6.15-4.24-6.27-16.25-12.66-32.46-19-48.68C936.13,235.8,935.81,235,935.21,233.54Z"/><path d="M773.87,233.49c-3.39,8.77-6.54,16.87-9.66,25q-5.12,13.23-10.21,26.48c-1.4,3.64-2.63,4.49-6.51,4.54-1.41,0-2.83.06-4.24,0-4.59-.21-6.73-3.46-5-7.77q6-15,12.08-30,7.49-18.49,15-37c1.59-3.95,2.74-4.77,6.94-4.8h3.38c4,0,5.2.83,6.74,4.64l26.7,65.89c2.41,6,.39,9-6,9h-2.25c-4.11,0-5.27-.77-6.76-4.59q-9.29-23.67-18.54-47.36C775,236.4,774.57,235.27,773.87,233.49Z"/><path d="M1008.34,248.46c5.91-11.51,11.87-23,17.65-34.51,1.47-2.92,3.48-4.25,6.68-4,1.21.09,2.44,0,3.66,0,6,0,8.05,3.37,5.26,8.58-5,9.34-10,18.65-15.07,28-3,5.52-5.94,11.06-9,16.56a8.24,8.24,0,0,0-1.08,4.26c.06,5.35,0,10.71,0,16.06,0,4.28-1.74,6-5.94,6.09-1.78,0-3.57.07-5.36,0-3.43-.16-5.11-1.91-5.15-5.35a97.83,97.83,0,0,1,.06-10.42c.56-5.87-1.2-10.88-4.05-15.94-7.35-13.07-14.33-26.34-21.42-39.55-2.54-4.71-.42-7.84,4.91-8.34,6.2-.59,10,1.26,12.65,7.35,4.32,9.85,9.68,19.25,14.6,28.83C1007.19,246.87,1007.38,247.84,1008.34,248.46Z"/><path d="M439.68,250q0,16.75,0,33.53c0,4.16-1.64,5.86-5.73,6-1.78,0-3.57.06-5.35,0-3.54-.14-5.32-1.92-5.37-5.5-.07-5.73,0-11.46,0-17.19q0-24.93,0-49.87c0-5.51,1.47-6.95,7-7,9,0,9.42.36,9.42,9.32Z"/><path d="M160.8,133.83c3.12.8,6.91,1.63,10,4a8,8,0,0,1,2.21,9.91,8.16,8.16,0,0,1-8.86,4.55,29.57,29.57,0,0,1-8.18-2.95,8.25,8.25,0,0,1-4-9.38C153,136.34,156.38,133.76,160.8,133.83Z"/><path d="M150,211.73a8.32,8.32,0,1,1,16.64.22,8.32,8.32,0,0,1-16.64-.22Z"/><path d="M273.15,213.52c.51.15,1.32.36,2.11.65q8.06,2.93,16.1,5.9c3.32,1.23,4.65,3.49,3.73,6.2s-3.53,3.6-6.78,2.42q-8.58-3.13-17.12-6.36a4.25,4.25,0,0,1-3-5.1C268.67,214.79,270.33,213.58,273.15,213.52Z"/><path d="M262,212.48a4.35,4.35,0,0,1-5.67,4.44,67.68,67.68,0,0,1-8.7-3.2,4.16,4.16,0,0,1-2.2-5.65,4.43,4.43,0,0,1,5.51-2.68c2.77.87,5.48,1.93,8.18,3A4.19,4.19,0,0,1,262,212.48Z"/></g></svg>