<svg xmlns="http://www.w3.org/2000/svg" viewBox="0 0 1230.52 500"><defs><style>.cls-1{fill-rule:evenodd;}</style></defs><g id="InovaPay"><path class="cls-1" d="M569,338.73l-.79,0-.76,0-.77,0-1.26.06-1.22.05L563,339l-1.17.07-1.17.13-1.13.12-1.12.16-1.07.17-1.16.17-1.09.2-1.1.24-1.06.24-1,.27-1,.29-1,.29-1,.34L548,342l-.87.38-.87.37-.81.43-.79.44-.78.42-.7.48-.69.51-.67.51-.61.54-.6.55-.54.6-.49.62-.46.65-.41.65-.39.7-.34.71-.29.73-.27.77-.21.78-.14.82-.13.86-.07.86,0,.9,0,.8.05.76.07.77.14.75.15.7.17.66.24.68.22.61.27.6.32.59.34.55.36.54.39.51.45.46.42.48.49.44.48.38.55.39.52.35.6.33.58.3.61.29.66.26.65.2.7.21.7.18.73.12.73.14.76.1.77.05.8.05h1.74l.91-.06.92-.09.87-.14.87-.15L557,369l1.63-.48.82-.27.78-.32.77-.31.73-.35.71-.4.72-.39.66-.44.66-.43.65-.47.63-.5.6-.47.56-.53.56-.54.53-.55.49-.56.49-.56.46-.58.43-.6.41-.61.39-.59.36-.63.32-.62.3-.63.28-.63.12-.27.08-.25.09-.21.08-.3.09-.34.06-.24.14-.65.12-.64.07-.67.08-.65,0-.68L573,351V338.73Zm0,0-.79,0-.76,0-.77,0-1.26.06-1.22.05L563,339l-1.17.07-1.17.13-1.13.12-1.12.16-1.07.17-1.16.17-1.09.2-1.1.24-1.06.24-1,.27-1,.29-1,.29-1,.34L548,342l-.87.38-.87.37-.81.43-.79.44-.78.42-.7.48-.69.51-.67.51-.61.54-.6.55-.54.6-.49.62-.46.65-.41.65-.39.7-.34.71-.29.73-.27.77-.21.78-.14.82-.13.86-.07.86,0,.9,0,.8.05.76.07.77.14.75.15.7.17.66.24.68.22.61.27.6.32.59.34.55.36.54.39.51.45.46.42.48.49.44.48.38.55.39.52.35.6.33.58.3.61.29.66.26.65.2.7.21.7.18.73.12.73.14.76.1.77.05.8.05h1.74l.91-.06.92-.09.87-.14.87-.15L557,369l1.63-.48.82-.27.78-.32.77-.31.73-.35.71-.4.72-.39.66-.44.66-.43.65-.47.63-.5.6-.47.56-.53.56-.54.53-.55.49-.56.49-.56.46-.58.43-.6.41-.61.39-.59.36-.63.32-.62.3-.63.28-.63.12-.27.08-.25.09-.21.08-.3.09-.34.06-.24.14-.65.12-.64.07-.67.08-.65,0-.68L573,351V338.73ZM755.33,108.6l-.27-3.5-.43-3.44L754,98.27l-.77-3.33-.92-3.29-1.09-3.2-1.19-3.13-1.37-3-1.52-3-1.63-2.89-1.76-2.79-1.88-2.73-2-2.6-2.12-2.48-2.28-2.4-2.35-2.28L730.62,59l-2.57-2.06L725.4,55l-2.77-1.8-2.86-1.67L716.84,50l-3-1.36-3.08-1.24-3.16-1.09-3.25-.92-3.3-.78-3.36-.6-3.42-.44-3.43-.29-3.54-.07H414.77l-3.52.07-3.46.29-3.42.44-3.35.6-3.32.78-3.22.92-3.16,1.09-3.1,1.24-3,1.36-2.93,1.53-2.84,1.67L376.62,55,374,56.89,371.38,59l-2.47,2.18-2.35,2.28-2.28,2.4-2.13,2.48-2,2.6-1.93,2.73-1.77,2.79-1.63,2.89-1.5,3-1.38,3-1.2,3.13-1.08,3.2-.92,3.29L348,98.27l-.6,3.39L347,105.1l-.29,3.5-.07,3.56V387.87l.07,3.54.29,3.49.42,3.45.6,3.39.76,3.34.92,3.28,1.08,3.18,1.2,3.13,1.38,3.08,1.5,2.95,1.63,2.89,1.77,2.79,1.93,2.71,2,2.58,2.13,2.52,2.28,2.4,2.35,2.28,2.47,2.16,2.58,2,2.66,1.93,2.79,1.77,2.84,1.66,2.93,1.52,3,1.39,3.1,1.23,3.16,1.07,3.22.94,3.32.78,3.35.59,3.42.43,3.46.29,3.52.08h272.5l3.54-.08,3.43-.29,3.42-.43,3.36-.59,3.3-.78,3.25-.94,3.16-1.07,3.08-1.23,3-1.39,2.93-1.52,2.86-1.66L725.4,445l2.65-1.93,2.57-2,2.49-2.16,2.35-2.28,2.28-2.4,2.12-2.52,2-2.58,1.88-2.71,1.76-2.79,1.63-2.89,1.52-2.95,1.37-3.08,1.19-3.13,1.09-3.18.92-3.28.77-3.34.59-3.39.43-3.45.27-3.49.09-3.54V112.16ZM412.44,387.82H380.65V249.94h31.79Zm265.71-137.9h30l-27,27.87H659Zm-185,137.41-1.55.59-1.6.57-.83.25-.85.26-.89.23-1,.21-1,.2-1.09.19-1.16.15-1.24.14-1.33.1-1.46.07-1.57,0-1.66,0-1,0-1,0-1-.05-1.94-.2-.94-.1-.95-.17-.92-.17-.92-.19-.9-.21-.89-.2-.86-.26-1.71-.54-.81-.29-.82-.34-.77-.31-.78-.35-.75-.36-.73-.37-.71-.41-.7-.39-.68-.41-1.29-.89-.63-.46-.6-.46-.58-.47-.54-.5-.53-.47-.51-.53-.51-.51-.55-.6-.52-.64-.51-.65-.5-.68-.47-.72-.46-.73-.45-.75-.4-.76-.41-.78-.39-.82-.36-.83-.36-.89-.32-.87-.31-.92-.3-.92-.29-.95-.26-1-.22-1-.24-1-.2-1-.21-1.07-.17-1.07-.15-1.13-.14-1.1-.12-1.16-.1-1.18-.1-1.19-.08-1.2-.06-1.21v-1.28l0-1.26V308h-14.5V284.45h14.5V249.94h30.86v34.51h19.73V308H473.13v37.79l0,1.12.05,1.09.05,1.09.09,1,.08,1,.14,1,.12.93.19.89.18.87.22.8.23.8.28.74.31.7.34.7.36.63.39.61.43.58.45.51.51.49.52.45.59.44.61.36.63.34.68.3.75.26.77.2.82.19.86.15.92.11.95.05,1,0,1.15,0,1.07-.07,1-.09.9-.13.79-.12.64-.16.53-.15.41-.15Zm108.9.49H576.22l-3.47-10.74h-.36l-.66.79-.68.75-.74.71-.73.7-.75.7-.78.68-.82.64-.85.62-.83.59-.9.6-.89.54-.92.55-1,.51-1,.47-1,.46-1,.44-1,.41-1,.41-1.07.38-1.07.32-1.11.32-1.12.27-1.12.28-1.14.25-1.18.21-1.19.17-1.19.17-1.19.12-1.23.1-1.22.05-1.28,0-1.26,0-2.09-.05-2.06-.13-2-.22-1.93-.33-1.84-.37-1.82-.48-1.7-.54-1.65-.62-1.61-.68-1.55-.74-1.47-.82-1.41-.89-1.33-.93-1.27-1-1.21-1-1.14-1.09-1.07-1.14-1-1.19-1-1.21-.86-1.26-.8-1.29-.74-1.33-.69-1.34-.58-1.36-.55-1.4-.46-1.43-.39-1.44-.32-1.45-.26-1.45-.18-1.48-.09-1.46,0-1.48.07-2.45.2-2.4.39-2.32.51-2.21.65-2.18.8-2.05.93-2,1-1.91,1.23-1.83,1.34-1.79,1.45-1.68,1.61-1.6,1.71-1.55,1.87-1.45,2-1.36,2.09-1.29,2.22-1.23,2.36-1.14,2.45-1.05,2.55-1,2.68-.9,2.82-.82,2.88-.77,3-.64,3.11-.6,3.23-.47,3.32-.45,3.44-.34,3.52-.25,3.63-.19,3.72-.08,3.81-.06v-1.56l-.05-.49,0-.51-.1-.55-.14-.54-.15-.57-.17-.57-.24-.6-.27-.59-.31-.58-.35-.6-.38-.63-.44-.59-.49-.57-.55-.59-.59-.58-.63-.53-.74-.56-.76-.51-.82-.49L564,306l-.93-.44-1-.41-1.11-.39-1.14-.34-1.22-.31-1.31-.26-1.4-.23-1.43-.16-1.53-.13-1.63-.07-1.69,0h-1l-1.09,0-1,.07-1.08.08-1,.09-1.08.12-1.09.13-1,.15-1.08.19-1,.17-1.07.22-1.06.22-1,.24-1,.26-1,.25-1,.29-1,.27-1,.33-1,.32-.95.32-.94.33-.93.37-.91.36-.9.36-.87.35-.85.4-.81.39-.79.39-.78.39-.73.41-.71.41-.69.42-6-20.32.77-.44.8-.44.83-.44.87-.45.92-.44,1-.42,1-.45,1-.4,1.06-.45,1.1-.4,1.11-.43,1.19-.39,1.19-.38,1.23-.39,1.27-.37,1.31-.34,1.35-.34,1.39-.36,1.4-.29,1.43-.31,1.48-.27,1.51-.25,1.53-.24,1.57-.22,1.62-.19,1.63-.19,1.65-.15,1.68-.1,1.72-.1,1.76-.07,1.8-.07h1.8l3.22.07,3.1.17,3,.29,2.84.39,2.7.51,2.59.61,2.47.72,2.33.81,2.23.91,2.07,1,2,1.09,1.86,1.19,1.77,1.26,1.66,1.36,1.57,1.41,1.43,1.5,1.31,1.58,1.26,1.65,1.12,1.72,1.06,1.77.93,1.84.87,1.89.75,1.94.7,2,.58,2,.47,2.09.44,2.16.34,2.18.24,2.23.19,2.24.12,2.29,0,2.31Zm119.27,0H696.17l-4-14.68-.41.61-.43.59-.49.65-.53.65-.58.68-.56.7-.66.71-.68.73-.72.75-.73.72-.8.73-.83.7-.9.66-.92.68-1,.65-1,.64-1.05.62-1.09.63-1.16.56-1.19.56-1.26.53-1.27.51-1.37.49-1.36.46-.73.22-.73.2L669,389l-.75.15-.77.19-.78.12-.8.15-.8.1-.82.14-.83.08-.85.07-.87.09-.87.05-.86,0-.89,0h-2l-1.06-.05-1,0-1-.06-1-.11-1-.11-1-.12-1-.16-1-.15-.95-.2-.92-.23-.94-.22-.9-.23-.92-.29-.87-.28-.88-.32-.89-.32-.83-.34-.85-.39-.82-.4-.78-.44-.8-.42-.77-.48-.76-.49-.75-.51-.73-.55-.7-.56-.7-.6-.68-.59-1.33-1.29-.62-.7-.62-.7-.59-.73-.58-.75-.58-.77-.54-.78-.55-.82-.51-.86-.49-.85-.48-.91-.49-.9-.43-.93-.44-1-.43-1-.39-1-.41-1-.35-1-.34-1.06-.33-1.1-.3-1.14-.28-1.18-.28-1.19-.23-1.21-.2-1.24-.2-1.26-.16-1.32-.17-1.31-.12-1.38-.1-1.4-.07-1.41-.06-1.43-.06-1.46V284.45h31v54.67l0,1.5.05,1.45.08,1.41.12,1.38.16,1.34.18,1.29.23,1.25.25,1.2.29,1.18.32,1.12.38,1.09.39,1,.46,1,.46,1,.51.9.56.85.6.8.61.75.68.73.7.65.73.61.8.58.81.51.87.44.9.41.94.36,1,.32,1,.22,1.07.22,1.12.12,1.14.09h2.16l.9-.06.94-.09,1.73-.31.86-.2.81-.24.79-.29.76-.27.75-.34.7-.36.73-.37.66-.41.67-.41.61-.47.61-.46.58-.5.56-.49.55-.51.51-.51.47-.55.5-.58.44-.56.42-.58.41-.56.39-.59.36-.6.32-.56.62-1.19.29-.6.22-.59.29-.73.22-.77.19-.78.11-.82.12-.83.09-.85,0-.89V284.5h31.48Zm-153.1-49.07-.76,0-.77,0-1.26.06-1.22.05L563,339l-1.17.07-1.17.13-1.13.12-1.12.16-1.07.17-1.16.17-1.09.2-1.1.24-1.06.24-1,.27-1,.29-1,.29-1,.34L548,342l-.87.38-.87.37-.81.43-.79.44-.78.42-.7.48-.69.51-.67.51-.61.54-.6.55-.54.6-.49.62-.46.65-.41.65-.39.7-.34.71-.29.73-.27.77-.21.78-.14.82-.13.86-.07.86,0,.9,0,.8.05.76.07.77.14.75.15.7.17.66.24.68.22.61.27.6.32.59.34.55.36.54.39.51.45.46.42.48.49.44.48.38.55.39.52.35.6.33.58.3.61.29.66.26.65.2.7.21.7.18.73.12.73.14.76.1.77.05.8.05h1.74l.91-.06.92-.09.87-.14.87-.15L557,369l1.63-.48.82-.27.78-.32.77-.31.73-.35.71-.4.72-.39.66-.44.66-.43.65-.47.63-.5.6-.47.56-.53.56-.54.53-.55.49-.56.49-.56.46-.58.43-.6.41-.61.39-.59.36-.63.32-.62.3-.63.28-.63.12-.27.08-.25.09-.21.08-.3.09-.34.06-.24.14-.65.12-.64.07-.67.08-.65,0-.68L573,351V338.73h-4Zm.79,0-.79,0-.76,0-.77,0-1.26.06-1.22.05L563,339l-1.17.07-1.17.13-1.13.12-1.12.16-1.07.17-1.16.17-1.09.2-1.1.24-1.06.24-1,.27-1,.29-1,.29-1,.34L548,342l-.87.38-.87.37-.81.43-.79.44-.78.42-.7.48-.69.51-.67.51-.61.54-.6.55-.54.6-.49.62-.46.65-.41.65-.39.7-.34.71-.29.73-.27.77-.21.78-.14.82-.13.86-.07.86,0,.9,0,.8.05.76.07.77.14.75.15.7.17.66.24.68.22.61.27.6.32.59.34.55.36.54.39.51.45.46.42.48.49.44.48.38.55.39.52.35.6.33.58.3.61.29.66.26.65.2.7.21.7.18.73.12.73.14.76.1.77.05.8.05h1.74l.91-.06.92-.09.87-.14.87-.15L557,369l1.63-.48.82-.27.78-.32.77-.31.73-.35.71-.4.72-.39.66-.44.66-.43.65-.47.63-.5.6-.47.56-.53.56-.54.53-.55.49-.56.49-.56.46-.58.43-.6.41-.61.39-.59.36-.63.32-.62.3-.63.28-.63.12-.27.08-.25.09-.21.08-.3.09-.34.06-.24.14-.65.12-.64.07-.67.08-.65,0-.68L573,351V338.73Zm0,0-.79,0-.76,0-.77,0-1.26.06-1.22.05L563,339l-1.17.07-1.17.13-1.13.12-1.12.16-1.07.17-1.16.17-1.09.2-1.1.24-1.06.24-1,.27-1,.29-1,.29-1,.34L548,342l-.87.38-.87.37-.81.43-.79.44-.78.42-.7.48-.69.51-.67.51-.61.54-.6.55-.54.6-.49.62-.46.65-.41.65-.39.7-.34.71-.29.73-.27.77-.21.78-.14.82-.13.86-.07.86,0,.9,0,.8.05.76.07.77.14.75.15.7.17.66.24.68.22.61.27.6.32.59.34.55.36.54.39.51.45.46.42.48.49.44.48.38.55.39.52.35.6.33.58.3.61.29.66.26.65.2.7.21.7.18.73.12.73.14.76.1.77.05.8.05h1.74l.91-.06.92-.09.87-.14.87-.15L557,369l1.63-.48.82-.27.78-.32.77-.31.73-.35.71-.4.72-.39.66-.44.66-.43.65-.47.63-.5.6-.47.56-.53.56-.54.53-.55.49-.56.49-.56.46-.58.43-.6.41-.61.39-.59.36-.63.32-.62.3-.63.28-.63.12-.27.08-.25.09-.21.08-.3.09-.34.06-.24.14-.65.12-.64.07-.67.08-.65,0-.68L573,351V338.73Z"/></g></svg>