<svg xmlns="http://www.w3.org/2000/svg" viewBox="0 0 1230.52 500"><defs><style>.cls-1{fill:#231f20;}</style></defs><g id="KheloCard"><path class="cls-1" d="M108,171.32h21.09v78.8h.73c4.36-6.3,8.72-12.12,12.85-17.46l49.94-61.34h26.19l-59.16,69.34,63.76,94.08h-25l-53.82-80.25-15.52,17.94v62.31H108Z"/><path class="cls-1" d="M241.14,162.6h21.33v73.22H263a39.57,39.57,0,0,1,15.27-15,44,44,0,0,1,21.82-6.06c15.76,0,41,9.7,41,50.19v69.83H319.69V267.33c0-18.91-7-34.91-27.15-34.91-13.82,0-24.73,9.7-28.61,21.34-1.22,2.91-1.46,6.06-1.46,10.18v70.8H241.14Z"/><path class="cls-1" d="M387.58,279.94c.49,28.85,18.92,40.74,40.25,40.74,15.28,0,24.49-2.67,32.49-6.07L464,329.89c-7.52,3.39-20.37,7.27-39,7.27-36.12,0-57.7-23.76-57.7-59.16s20.85-63.28,55-63.28c38.3,0,48.49,33.7,48.49,55.28a80.71,80.71,0,0,1-.73,9.94Zm62.56-15.27c.24-13.58-5.58-34.67-29.58-34.67-21.58,0-31,19.88-32.73,34.67Z"/><path class="cls-1" d="M497.18,162.6h21.33V334.74H497.18Z"/><path class="cls-1" d="M660.59,275.09c0,43.4-30.06,62.31-58.43,62.31-31.76,0-56.25-23.27-56.25-60.37,0-39.28,25.7-62.31,58.19-62.31C637.8,214.72,660.59,239.21,660.59,275.09Zm-93.1,1.22c0,25.7,14.79,45.09,35.64,45.09,20.37,0,35.64-19.15,35.64-45.58,0-19.88-9.94-45.1-35.15-45.1S567.49,254,567.49,276.31Z"/><path class="cls-1" d="M802.44,329.41c-7.76,3.87-23.28,7.75-43.16,7.75-46.06,0-80.74-29.09-80.74-82.67,0-51.16,34.68-85.83,85.35-85.83,20.36,0,33.21,4.36,38.79,7.27l-5.09,17.21c-8-3.87-19.4-6.78-33-6.78-38.31,0-63.77,24.48-63.77,67.4,0,40,23,65.7,62.79,65.7,12.85,0,26-2.66,34.43-6.79Z"/><path class="cls-1" d="M891.42,334.74,889.73,320H889c-6.55,9.21-19.15,17.45-35.88,17.45-23.76,0-35.89-16.72-35.89-33.7,0-28.36,25.22-43.88,70.56-43.64v-2.42c0-9.7-2.67-27.16-26.67-27.16a58.5,58.5,0,0,0-30.55,8.73l-4.85-14.06c9.7-6.31,23.76-10.43,38.55-10.43,35.88,0,44.61,24.49,44.61,48v43.88c0,10.19.49,20.13,1.94,28.13Zm-3.15-59.89c-23.27-.48-49.7,3.64-49.7,26.43,0,13.82,9.21,20.37,20.13,20.37,15.27,0,25-9.7,28.36-19.64a22.25,22.25,0,0,0,1.21-6.79Z"/><path class="cls-1" d="M943.32,254c0-13.82-.24-25.7-1-36.61H961l.72,23h1c5.34-15.76,18.19-25.7,32.49-25.7a22.82,22.82,0,0,1,6.06.73v20.12a32.32,32.32,0,0,0-7.27-.72c-15,0-25.7,11.39-28.61,27.39a60.68,60.68,0,0,0-1,9.95v62.55H943.32Z"/><path class="cls-1" d="M1121.53,162.6V304.43c0,10.43.24,22.31,1,30.31h-19.15l-1-20.37h-.48c-6.55,13.1-20.86,23-40,23-28.37,0-50.19-24-50.19-59.64-.24-39,24-63,52.62-63,17.94,0,30.06,8.49,35.39,17.94h.49V162.6Zm-21.34,102.55a37.58,37.58,0,0,0-1-9c-3.15-13.58-14.79-24.73-30.79-24.73-22.07,0-35.16,19.4-35.16,45.34,0,23.76,11.64,43.4,34.67,43.4,14.31,0,27.4-9.46,31.28-25.46a36.88,36.88,0,0,0,1-9.21Z"/></g></svg>