<svg xmlns="http://www.w3.org/2000/svg" viewBox="0 0 1230.52 500"><g id="Loterias"><path d="M670.14,273.79c3,14.45.68,26.8-9.92,36.51-10.35,9.5-22.56,12.14-35.72,7.22S603.17,303,602,288.88c-1-12.45-.63-25-.72-37.55-.09-13.81.08-27.63-.08-41.45-.05-3.74,1.09-5,4.95-4.94,25.38.16,50.77,0,76.15.12,18.6.12,33.22,12.86,35.74,30.72,2.36,16.68-7.9,33.4-24.26,38-5.49,1.57-11.63.91-17.48,1.05C674.49,274.92,672.65,274.26,670.14,273.79Z"/><path d="M521.56,124.28c-1.6-8-1.59-16.52,2.34-24.69,6.62-13.76,22.24-22.29,36.39-19.77,16.5,2.94,28.09,14.86,29.84,30.8a88,88,0,0,1,.54,9.6c.05,23,0,45.93.09,68.89,0,3.72-1,5-4.9,5-25.7-.15-51.39.06-77.08-.14-18.47-.14-33.33-13.69-34.93-31.31-1.67-18.39,9.86-34.69,27.92-38.17C508,123.27,514.69,124.28,521.56,124.28Z"/><path d="M670.85,125c6.82,0,14-1.15,20.67.23,16.94,3.5,28.55,20.67,26.41,37.41-2.28,17.88-16.6,31-34.22,31.06-25.55.11-51.09,0-76.63.12-4.05,0-5.24-1.36-5.21-5.28.13-24.42,0-48.84.11-73.26.13-19.11,13-33.76,31.86-35.32,20.8-1.72,35.84,14.79,37,31C671.12,115.63,670.85,120.41,670.85,125Z"/><path d="M521.64,274.67c-6.8,0-13.41.89-19.7-.17-17.26-2.9-29.13-18.95-27.95-36.68,1.14-17.2,15.32-31.63,32.7-31.95,26.32-.48,52.67-.15,79-.26,3.43,0,4.39,1.52,4.38,4.69-.09,25.37.18,50.75-.2,76.12-.29,18.66-15.73,32.94-34.56,32.84s-33.86-14.61-34.25-33.21C521,282.09,521.45,278.13,521.64,274.67Z"/><path d="M403.83,421.93c-1,5.13-2.19,10.23-2.8,15.4-.56,4.71-2.16,6.67-7.47,6.55-17.49-.41-35-.16-52.5-.16h-5.7c1.2-6.83,2.29-13.19,3.45-19.54,4.47-24.41,8.92-48.82,13.54-73.19.24-1.3,1.85-3.31,2.86-3.33,10.56-.25,21.13-.15,32.44-.15-2.07,11.49-4,22.44-6,33.37s-4.06,22-6.3,34h17.4a45.58,45.58,0,0,1,7.21.1c1.71.28,3.27,1.43,5.15,2.3-.06.27.5-.74.36-1.65-3.63-22.43,17.14-39.38,32.53-41,5.82-.6,12-.76,17.63.47,19.78,4.29,29.15,23.46,22.1,44.07-7.28,21.29-32.36,33.06-53.34,24.87-8.79-3.43-15.13-9.51-18.25-18.62-.4-1.18-.91-2.32-1.36-3.47Zm46.94-12.77c.1-5.45-2.6-8.64-7.36-8.67-5.23-.05-9.6,5-9.65,11.13,0,5.09,2.65,8.14,7.28,8.26C446.71,420,450.65,415.7,450.77,409.16Z"/><path d="M764.31,384.63c1.62-8.62,1.62-8.62,10.33-8.62H796c-1.7,9.59-3.25,18.5-4.87,27.4-2.12,11.65-4.46,23.26-6.37,34.94-.66,4.07-2.13,5.67-6.44,5.47-7.8-.35-15.64-.1-23.84-.1l1.35-7.05-1.92-1.75c-.86,1.67-1.36,3.71-2.65,4.94-10.37,9.91-26,8.41-34.49-3.12-5.82-7.88-6.68-16.93-5.66-26.15a46.61,46.61,0,0,1,13.36-28.11c10.49-10.69,29.77-13.08,38.29,1.29C763,384.1,763.52,384.2,764.31,384.63Zm-5.07,25.12c0-5.63-2.83-8.8-7.89-8.74-5.32.07-9,4.54-9.09,10.9,0,5.43,2.78,8.6,7.57,8.52C755.27,420.33,759.21,415.86,759.24,409.75Z"/><path d="M607.75,413.7H563.26c-.59,4.83.59,8.59,4.62,10.6a8.36,8.36,0,0,0,10.53-2.18c2.32-2.75,4.72-2.71,7.67-2,5.91,1.37,11.85,2.64,18.41,4.09-4.31,8.39-10.19,14.61-18.45,18.42a41.92,41.92,0,0,1-29.59,2.31c-16.61-4.64-25.43-20.73-21.55-38.78A40.69,40.69,0,0,1,585.38,375C602.6,379.51,610.8,393.33,607.75,413.7ZM565.35,401h16.19c-.47-5.72-2.57-8.15-6.7-8.29C570.07,392.5,566.52,395.57,565.35,401Z"/><path d="M492.55,400.2l-8.31-.36c1.44-7.66,2.67-15,4.36-22.24.2-.83,2.91-1.5,4.46-1.5,3.15,0,4.69-1.09,4.93-4.4.21-2.85,1.49-5.65,1.5-8.48,0-5.75,3-6.69,8-6.47,8,.35,15.94.09,24.36.09-1.06,6.51-2,12.3-3,18.57l9.41,1.17c-1.45,7.89-2.84,15.48-4.19,22.82a6,6,0,0,1-1.35.53c-8.77.39-8.7.4-10.27,9.25-1.84,10.39-3.75,20.77-5.82,31.12-.25,1.24-1.71,3.18-2.64,3.2-9.41.24-18.82.14-29.07.14C487.49,428.81,490,414.74,492.55,400.2Z"/><path d="M789.85,435c4-6.59,7.67-12.73,11.3-18.77,4.11,2.7,7.73,5.32,11.6,7.5a13.83,13.83,0,0,0,6.39,1.73,5.81,5.81,0,0,0,4.15-2.31c.39-.58-.89-2.91-2-3.76a32.3,32.3,0,0,0-6.22-3.62c-8.61-4.2-14.43-10.21-13.43-20.6.9-9.39,7.61-16.88,17.83-19.87,13.23-3.87,25.2-.5,37.23,6.47L846.5,399.2c-2.52-1.68-4.51-3.36-6.79-4.4a16.22,16.22,0,0,0-6.43-1.42,4.22,4.22,0,0,0-3,2.36c-.3.71.69,2.45,1.57,3.05a39.39,39.39,0,0,0,6.37,3.34c7.34,3.22,12.79,7.77,13.27,16.6.52,9.81-2.76,17.59-11.22,22.91-7.29,4.57-15.42,5.51-23.66,4.53C806.87,445,798.19,441,789.85,435Z"/><path d="M646.76,384.57c7-9.2,14.83-12.94,25.62-9.51-1.56,8.75-3.12,17.48-4.72,26.4-3.33-.52-6.28-1.23-9.27-1.41-8.12-.49-11.64,1.91-13.46,9.8-1.89,8.25-3.35,16.62-4.79,25-1.54,8.88-1.43,8.89-10.61,8.89h-22.3c1.64-9.24,3.14-17.84,4.71-26.44,2.16-11.81,4.52-23.58,6.47-35.41.72-4.36,2.25-6.28,7-6,7.31.46,14.66.12,22.31.12C647.42,378.91,647.17,381,646.76,384.57Z"/><path d="M709.9,376.08c-1.53,8.61-2.86,16.3-4.28,24-2.47,13.39-4.93,26.78-7.58,40.14-.26,1.3-1.84,3.3-2.86,3.33-9.28.26-18.57.15-28.79.15,1.09-6.14,2.05-11.71,3.07-17.27,2.84-15.6,5.66-31.21,8.66-46.78.26-1.32,1.84-3.37,2.85-3.4C690.25,376,699.54,376.08,709.9,376.08Z"/><path d="M698.62,339.67c9.71,0,16.58,6,16.66,14.69.08,9.47-8.21,17-18.79,17.09-9.75.08-16.47-5.92-16.54-14.75C679.88,347,687.84,339.72,698.62,339.67Z"/></g></svg>