<svg id="Layer_1" data-name="Layer 1" xmlns="http://www.w3.org/2000/svg" viewBox="0 0 500 260"><defs><style>.cls-1{fill:#000;}</style></defs><path class="cls-1" d="M295.5,134.38q0-23.67,0-47.34c0-.65.13-.83.89-.83,12.72,0,25.45-.08,38.17.05a60.4,60.4,0,0,1,29,7.66,22.58,22.58,0,0,1,11.17,14.41,37.52,37.52,0,0,1,1.36,7.16c0,.39.26.48.57.61a55.45,55.45,0,0,1,10.91,5.7c5.69,4,10.1,8.94,12.39,15.24a28.3,28.3,0,0,1,1.35,10.53,27.25,27.25,0,0,1-1.19,8,29.47,29.47,0,0,1-8,12.05c-4.87,4.67-10.9,7.71-17.38,10.1a81.32,81.32,0,0,1-21.95,4.73c-2.36.19-4.73.26-7.1.25q-24.66,0-49.32,0c-.68,0-.86-.16-.86-.78q0-23.79,0-47.56Zm18.36,12.19c0,6.26,0,12.52,0,18.79,0,.57.09.77.8.77,9.65,0,19.29,0,28.94,0a66.94,66.94,0,0,0,19.05-3,33.78,33.78,0,0,0,13.58-7.3c4.86-4.54,5.71-11.24,1.88-16.29a22.29,22.29,0,0,0-8.22-6.56A60.85,60.85,0,0,0,344.33,127c-9.92-.2-19.84,0-29.77-.08-.65,0-.71.21-.71.7C313.87,134,313.86,140.26,313.86,146.57Zm19.07-36.16H347.7a78.85,78.85,0,0,1,10.18.76c.38,0,.9.29,1.12,0s-.1-.69-.25-1a14,14,0,0,0-6.39-6.42c-6.27-3.41-13.22-4.75-20.42-5-5.57-.16-11.16,0-16.74-.06-.59,0-.69.15-.69.65,0,3.42,0,6.83,0,10.25,0,.6.13.81.86.81C321.21,110.4,327.07,110.41,332.93,110.41Z"/><path class="cls-1" d="M253.86,157.21v-1.38q0-34.35,0-68.69c0-.72.22-.84.95-.84q8.34,0,16.67,0c.56,0,.75.09.75.66q0,47.49,0,95c0,.6-.15.76-.82.75q-8.29,0-16.59,0a1.33,1.33,0,0,1-1.09-.45q-17-17.62-34-35.22l-34-35.25c-.09-.1-.14-.25-.33-.27-.15.21-.07.44-.07.65q0,34.9,0,69.79c0,.61-.15.76-.82.75q-8.84,0-17.65,0c-.61,0-.75-.15-.75-.69q0-47.52,0-95c0-.5.11-.66.7-.65q9.09,0,18.18,0a1.21,1.21,0,0,1,1,.39q12.43,12.94,24.9,25.88l25.77,26.75,16.48,17.13Z"/><path class="cls-1" d="M124.44,134.46q0-23.72,0-47.41c0-.73.23-.84,1-.84q8.26,0,16.52,0c.67,0,.82.15.82.76q0,47.55,0,95.1c0,.51-.12.65-.7.64q-8.4,0-16.81,0c-.64,0-.77-.14-.77-.71Q124.46,158.24,124.44,134.46Z"/><path class="cls-1" d="M138.71,51h20.17q0,8,0,16v1.52h-7l-2.14,0h-.83q-.41,0-.81,0h-9.28V53.21a6.2,6.2,0,0,0-.07-1.51V51m-4.13-5c-.78,0-.91.26-.89.87,0,1.53,0,3.07,0,4.61,0,.27.06.55-.14.8.34.18.21.48.21.74V72.4c0,1-.07,1.12.56,1.12h13.72c.25,0,.5,0,.75,0,1,0,2,0,3,0h5.62l5.66,0h0c.59,0,.79-.19.75-.7s0-.87,0-1.31q0-12.39,0-24.77c0-.61-.17-.74-.82-.74H134.58Z"/><path class="cls-1" d="M133.57,52.29c.34.18.21.48.21.74V72.4c0,1.28-.12,1.12,1.2,1.12h13.08c.25,0,.5,0,.75,0,0,1.84,0,3.67,0,5.5,0,.49-.12.69-.71.69q-14.42,0-28.83,0c-.43,0-.71,0-.7-.54,0-3,0-6,0-8.94,0-5.75,0-11.5,0-17.26,0-.56.15-.72.79-.72C124.13,52.29,128.85,52.28,133.57,52.29Z"/></svg>