<svg xmlns="http://www.w3.org/2000/svg" viewBox="0 0 1230.52 500"><g id="Paypal"><g id="layer1"><path d="M408.62,250.6c0,41.25-33.15,74.69-74,74.69s-74-33.44-74-74.69,33.15-74.73,74-74.73S408.62,209.32,408.62,250.6Z"/><path d="M888.68,101.17c-41.47,5.9-64.12,32.89-86.79,62.12L732.43,252.7,796.63,335c20.1,25.78-18.22,56.21-38.32,30.43l-56.8-72.91-55.9,72c-20.05,25.83-58.44-4.53-38.39-30.36l63.24-81.43-26.39-33.89,30.16-40.52,27.16,34.57,62.09-80c10.67-13.76,20.51-24.07,30.94-31.76H187.88V401.41H359.14c48.89-2.25,73.52-31.39,98.2-63.16l69.46-89.44L462.6,166.5c-20.1-25.79,18.22-56.22,38.32-30.46L557.72,209l55.87-72c20.08-25.83,58.46,4.53,38.39,30.36l-63.22,81.43,26.4,33.91L585,323.21l-27.13-34.59-62.11,80c-11.17,14.38-21.4,25-32.39,32.81H1073V101.17ZM458.27,250.6c0,68.92-55.38,124.79-123.67,124.79S210.91,319.52,210.91,250.6,266.29,125.78,334.6,125.78,458.27,181.65,458.27,250.6ZM924.18,375.39c-68.31,0-123.66-55.87-123.66-124.79s55.35-124.82,123.66-124.82,123.67,55.87,123.67,124.82S992.47,375.39,924.18,375.39Zm0-199.52c-40.88,0-74,33.45-74,74.73s33.15,74.69,74,74.69,74-33.44,74-74.69S965.07,175.87,924.18,175.87Z"/><path id="path8308" d="M187.88,76c0-27.23,21.89-49.31,48.87-49.31h787.5c27,0,48.84,22.08,48.84,49.31v1.56H187.88V76"/><path id="path8312" d="M1073.09,425v1.23c0,27.22-21.86,49.31-48.84,49.31H236.75c-27,0-48.87-22.09-48.87-49.31V425h885.21"/><path id="path8316" d="M334.6,175.87c-40.88,0-74,33.45-74,74.73s33.15,74.69,74,74.69,74-33.44,74-74.69S375.47,175.87,334.6,175.87Zm589.58,0c-40.88,0-74,33.45-74,74.73s33.15,74.69,74,74.69,74-33.44,74-74.69S965.07,175.87,924.18,175.87Zm-589.58,0c-40.88,0-74,33.45-74,74.73s33.15,74.69,74,74.69,74-33.44,74-74.69S375.47,175.87,334.6,175.87Zm589.58,0c-40.88,0-74,33.45-74,74.73s33.15,74.69,74,74.69,74-33.44,74-74.69S965.07,175.87,924.18,175.87Zm0,0c-40.88,0-74,33.45-74,74.73s33.15,74.69,74,74.69,74-33.44,74-74.69S965.07,175.87,924.18,175.87Zm-589.58,0c-40.88,0-74,33.45-74,74.73s33.15,74.69,74,74.69,74-33.44,74-74.69S375.47,175.87,334.6,175.87Zm554.08-74.7c-41.47,5.9-64.12,32.89-86.79,62.12L732.43,252.7,796.63,335c20.1,25.78-18.22,56.21-38.32,30.43l-56.8-72.91-55.9,72c-20.05,25.83-58.44-4.53-38.39-30.36l63.24-81.43-26.39-33.89,30.16-40.52,27.16,34.57,62.09-80c10.67-13.76,20.51-24.07,30.94-31.76H187.88V401.41H359.14c48.89-2.25,73.52-31.39,98.2-63.16l69.46-89.44L462.6,166.5c-20.1-25.79,18.22-56.22,38.32-30.46L557.72,209l55.87-72c20.08-25.83,58.46,4.53,38.39,30.36l-63.22,81.43,26.4,33.91L585,323.21l-27.13-34.59-62.11,80c-11.17,14.38-21.4,25-32.39,32.81h609.75V101.17ZM458.27,250.6c0,68.92-55.38,124.79-123.67,124.79S210.91,319.52,210.91,250.6,266.29,125.78,334.6,125.78,458.27,181.65,458.27,250.6ZM924.18,375.39c-68.31,0-123.66-55.87-123.66-124.79s55.35-124.82,123.66-124.82,123.67,55.87,123.67,124.82S992.47,375.39,924.18,375.39Zm0-199.52c-40.88,0-74,33.45-74,74.73s33.15,74.69,74,74.69,74-33.44,74-74.69S965.07,175.87,924.18,175.87Zm-589.58,0c-40.88,0-74,33.45-74,74.73s33.15,74.69,74,74.69,74-33.44,74-74.69S375.47,175.87,334.6,175.87Zm0,0c-40.88,0-74,33.45-74,74.73s33.15,74.69,74,74.69,74-33.44,74-74.69S375.47,175.87,334.6,175.87Zm589.58,0c-40.88,0-74,33.45-74,74.73s33.15,74.69,74,74.69,74-33.44,74-74.69S965.07,175.87,924.18,175.87Zm0,0c-40.88,0-74,33.45-74,74.73s33.15,74.69,74,74.69,74-33.44,74-74.69S965.07,175.87,924.18,175.87Zm-589.58,0c-40.88,0-74,33.45-74,74.73s33.15,74.69,74,74.69,74-33.44,74-74.69S375.47,175.87,334.6,175.87Zm0,0c-40.88,0-74,33.45-74,74.73s33.15,74.69,74,74.69,74-33.44,74-74.69S375.47,175.87,334.6,175.87Zm589.58,0c-40.88,0-74,33.45-74,74.73s33.15,74.69,74,74.69,74-33.44,74-74.69S965.07,175.87,924.18,175.87Z"/></g></g></svg>