<svg id="pay4fun" xmlns="http://www.w3.org/2000/svg" viewBox="0 0 1230.52 500"><g id="BRANCO"><path d="M254.57,196.89c-6.71-3.9-14.15-4.87-22.82-4.87-13.59,0-26.4,4.59-38,15.69l1.75-10.78a4.22,4.22,0,0,0-4.17-4.91H163.3a4.22,4.22,0,0,0-4.16,3.5L131.84,350.3a4.22,4.22,0,0,0,4.16,5h28a4.23,4.23,0,0,0,4.16-3.49L177.55,299c2.93,3.58,7.75,6.44,12.75,8.66a39,39,0,0,0,16,3.35,65.78,65.78,0,0,0,31.49-7.51,66.64,66.64,0,0,0,23.36-20.68,81.17,81.17,0,0,0,12.91-29.9,72.92,72.92,0,0,0,1.72-15.31q0-13.77-5.6-24.3A40.39,40.39,0,0,0,254.57,196.89Zm-13,54.27a37.93,37.93,0,0,1-6.7,14.64,35.64,35.64,0,0,1-12.1,10.29,33.28,33.28,0,0,1-15.65,3.78,22.79,22.79,0,0,1-12-3,18.86,18.86,0,0,1-7.42-8,24.61,24.61,0,0,1-2.49-11.15,30.53,30.53,0,0,1,.67-6.59,35.61,35.61,0,0,1,6.56-14,40.35,40.35,0,0,1,12.25-10.95,29.32,29.32,0,0,1,15-4.22q11.21,0,17,5.93t5.79,15.7A35.57,35.57,0,0,1,241.56,251.16Z"/><path d="M557,192H528.89a4.24,4.24,0,0,0-3.67,2.11L484.32,265l-12.25-69.48a4.23,4.23,0,0,0-4.16-3.5H442.8a4.23,4.23,0,0,0-4.17,5l19.6,111.19a4.25,4.25,0,0,1-.49,2.84l-21.9,38a4.23,4.23,0,0,0,3.67,6.34h28.1a4.24,4.24,0,0,0,3.67-2.11l89.38-154.82A4.23,4.23,0,0,0,557,192Z"/><path d="M423.58,192.19H400.42a4.2,4.2,0,0,0-3.65,2.1l-7.23,12.42c-6.63-10.32-16.72-14.57-30.1-14.57-12.05,0-23,1.58-33.06,6.59a69.35,69.35,0,0,0-25.05,21,75.19,75.19,0,0,0-13.44,30.55A66.44,66.44,0,0,0,286.54,263a48.53,48.53,0,0,0,6.55,25.29,45.76,45.76,0,0,0,17.83,17.17,51.19,51.19,0,0,0,24.87,6.12c5.93,0,15.59-1.34,20.89-3.47,6.24-2.5,9.2-3,14.62-7.58l4.46,8.72a4.23,4.23,0,0,0,3.76,2.31h19.87a9.74,9.74,0,0,0,9.59-8.05l18.74-106.3A4.21,4.21,0,0,0,423.58,192.19Zm-47.23,59.08a35.3,35.3,0,0,1-6.74,14.39,39.11,39.11,0,0,1-12.39,10.62,30.88,30.88,0,0,1-15,4,23.31,23.31,0,0,1-11.62-2.82,19.56,19.56,0,0,1-7.75-7.79,23.45,23.45,0,0,1-2.73-11.48,36.33,36.33,0,0,1,7.7-21.84A37.14,37.14,0,0,1,340.14,226a31.15,31.15,0,0,1,14.39-3.68,22.83,22.83,0,0,1,11.81,3,20.72,20.72,0,0,1,7.89,8.17A24.07,24.07,0,0,1,377,245.07,27.28,27.28,0,0,1,376.35,251.27Z"/><path d="M979.64,192.07h-28a4.24,4.24,0,0,0-4.18,3.51s-7.62,43.2-10.58,60c-2.41,13.65-12.41,22-23.47,22.08a36.51,36.51,0,0,1-5.16-.31c-8.82-1.19-14.77-8.23-13.22-17l10.72-60.82a6.36,6.36,0,0,0-6.26-7.47H875.8a6.37,6.37,0,0,0-6.27,5.25l-13.6,77.19c-3.32,18.8,20.71,36.06,39.81,36.06,26.88,0,33.58-12.09,33.58-12.09l-1.25,7.12a4.23,4.23,0,0,0,4.17,5h28a4.22,4.22,0,0,0,4.17-3.51l19.4-110A4.24,4.24,0,0,0,979.64,192.07Z"/><path d="M986.75,310.57h28a4.24,4.24,0,0,0,4.18-3.51l10.58-60c2.41-13.66,12.41-22,23.47-22.09a36.51,36.51,0,0,1,5.16.31c8.81,1.19,14.77,8.24,13.22,17l-10.72,60.83a6.36,6.36,0,0,0,6.26,7.47h23.69a6.37,6.37,0,0,0,6.27-5.26l13.6-77.18c3.32-18.81-20.72-36.07-39.82-36.07-26.87,0-33.57,12.1-33.57,12.1l1.25-7.12a4.25,4.25,0,0,0-4.18-5h-28a4.24,4.24,0,0,0-4.18,3.51l-19.39,110A4.24,4.24,0,0,0,986.75,310.57Z"/><path d="M850.21,192H830.55a45.81,45.81,0,0,0-45.11,37.85l-2.61,14.83H763.05a4.24,4.24,0,0,0-4.17,3.49l-4.16,23.65a4.23,4.23,0,0,0,4.16,5h18.3l-6.87,38.08a10.58,10.58,0,0,1-10.41,8.73H749a4.23,4.23,0,0,0-4.16,3.5l-4.11,23.23a4.21,4.21,0,0,0,4.16,4.95l16.15,0A46.32,46.32,0,0,0,806.67,317l7.08-40.2,23,0a4.2,4.2,0,0,0,4.15-3.5l4.17-23.65a4.22,4.22,0,0,0-4.18-4.95l-21.5,0,1.73-9.76a11.9,11.9,0,0,1,11.67-9.82l13,0a4.2,4.2,0,0,0,4.15-3.48L854.35,197A4.2,4.2,0,0,0,850.21,192Z"/><g id="Logo"><path d="M713.75,290.32H598.05v32.59h51.59a4.35,4.35,0,0,1,4.35,4.34v23.86a4.34,4.34,0,0,0,4.34,4.34h30.43a4.35,4.35,0,0,0,4.34-4.34V327.23a4.34,4.34,0,0,1,4.34-4.34h16.32a4.35,4.35,0,0,0,4.35-4.35V294.66A4.36,4.36,0,0,0,713.75,290.32Z"/><path d="M706.54,174.94,679,159a8.69,8.69,0,0,0-11.86,3.18L612,257.77a8.68,8.68,0,0,0,7.52,13h53.43a8.69,8.69,0,0,0,7.52-4.35L715,206.59A23.17,23.17,0,0,0,706.54,174.94Zm-22,14.29,5.73,3.3-9.75,16.89-5.73-3.31Zm-13.46-2.76a4.35,4.35,0,0,1,5.93-1.59l1.88,1.09-9.75,16.89-5.64-3.26Zm16.27,37a4.35,4.35,0,0,1-5.94,1.59l-20.7-11.95a4.35,4.35,0,0,1-1.59-5.93l1.12-1.94,28.23,16.3Zm12-20.7-7.58,13.13-5.56-3.22L696,195.8l1.8,1A4.34,4.34,0,0,1,699.35,202.77Z"/><path d="M555.45,262.87l67.16-116.34a17.36,17.36,0,0,1,23.73-6.36l3.84,2.22a4.33,4.33,0,0,1,1.59,5.93l-80.2,138.9a4.35,4.35,0,0,1-5.93,1.59l-3.84-2.22A17.36,17.36,0,0,1,555.45,262.87Z"/></g></g></svg>