<svg id="Layer_1" data-name="Layer 1" xmlns="http://www.w3.org/2000/svg" viewBox="0 0 500 260"><defs><style>.cls-1{fill:#000;}</style></defs><path class="cls-1" d="M409.88,109.31A21.46,21.46,0,0,0,389.64,95h-.2A21.37,21.37,0,0,0,374,101.54,21.43,21.43,0,0,0,358.51,95h-.19a21.25,21.25,0,0,0-14,5.18V98.5a3.16,3.16,0,0,0-3.15-2.93H326.85a3.18,3.18,0,0,0-3.18,3.18h0v77.92a3.17,3.17,0,0,0,3.18,3.17H341.2a3.15,3.15,0,0,0,3.11-2.73V121.17l0-.57a5.23,5.23,0,0,1,5-4.79h2.64a5.29,5.29,0,0,1,5,5.36l.06,55.67a3.18,3.18,0,0,0,3.18,3.18h14.34a3.16,3.16,0,0,0,3.14-3v-55.9a5.26,5.26,0,0,1,5-5.35h2.64a5.23,5.23,0,0,1,5,5.35l.06,55.6a3.17,3.17,0,0,0,3.17,3.17h14.35a3.18,3.18,0,0,0,3.18-3.17h0V116.9a19.91,19.91,0,0,0-1.09-7.59M312.75,95.78h-8.23V82.45a2.89,2.89,0,0,0-2.87-2.91,2.76,2.76,0,0,0-.57.06c-9.09,2.5-7.27,15.11-23.88,16.18h-1.6a3.17,3.17,0,0,0-.69.08h0a3.18,3.18,0,0,0-2.49,3.1v14.35a3.19,3.19,0,0,0,3.2,3.15h8.66l0,60.84a3.15,3.15,0,0,0,3.14,3.16h14.18a3.16,3.16,0,0,0,3.14-3.14V116.48h8a3.18,3.18,0,0,0,3.18-3.17h0V99a3.18,3.18,0,0,0-3.14-3.18"/><path class="cls-1" d="M261.11,95.78H246.77A3.18,3.18,0,0,0,243.61,99v29.65a3.37,3.37,0,0,1-3.37,3.31h-6a3.36,3.36,0,0,1-3.37-3.35L230.81,99a3.17,3.17,0,0,0-3.17-3.18H213.29A3.18,3.18,0,0,0,210.13,99v32.52c0,12.34,8.8,21.14,21.16,21.14,0,0,9.28,0,9.57.06a3.35,3.35,0,0,1,0,6.64l-.24,0-21,.08a3.18,3.18,0,0,0-3.16,3.18V177a3.16,3.16,0,0,0,3.16,3.16h23.47c12.36,0,21.16-8.8,21.16-21.16V99a3.18,3.18,0,0,0-3.18-3.18h0M122.24,122.07v8.86a3.35,3.35,0,0,1-3.36,3.36h-9.11V116.56h9.11a3.35,3.35,0,0,1,3.36,3.35Zm1.27-26.29H92.13a3.12,3.12,0,0,0-3.1,3.1v78A3.08,3.08,0,0,0,91.92,180h14.62a3.17,3.17,0,0,0,3.17-3.17l.06-21.81h13.74c11.48,0,19.47-8,19.47-19.51V115.32c0-11.54-8-19.54-19.47-19.54m58.27,60V158a3.27,3.27,0,0,1-3.39,3.15h-6A3.27,3.27,0,0,1,169,158V145.71a3.28,3.28,0,0,1,3.38-3.13h6a3.27,3.27,0,0,1,3.39,3.15Zm-2.3-59.9H159.59a3.1,3.1,0,0,0-3.2,3v13.47a3.31,3.31,0,0,0,3.39,3.16h18.94a3.32,3.32,0,0,1,2.87,3v1.86a3.18,3.18,0,0,1-2.78,2.94h-9.39c-12.49,0-21.39,8.31-21.39,20v16.68c0,11.57,7.66,19.82,20.05,19.82h26a8.2,8.2,0,0,0,8.46-7.9V117.4c0-13.2-6.8-21.54-23.08-21.54"/></svg>