<svg xmlns="http://www.w3.org/2000/svg" xmlns:xlink="http://www.w3.org/1999/xlink" viewBox="0 0 1230.52 500"><defs><style>.cls-1{fill:url(#linear-gradient);}.cls-2{fill:url(#linear-gradient-2);}.cls-3{fill:url(#linear-gradient-3);}.cls-4{fill:url(#linear-gradient-4);}.cls-5{fill:url(#linear-gradient-5);}.cls-6{mask:url(#mask);}.cls-7{fill:#020202;}</style><linearGradient id="linear-gradient" x1="122.93" y1="-652.24" x2="225.19" y2="-754.39" gradientTransform="matrix(1, 0, 0, -1, 0, -538)" gradientUnits="userSpaceOnUse"><stop offset="0" stop-color="#ff4081"/><stop offset="1" stop-color="#ffa73f"/></linearGradient><linearGradient id="linear-gradient-2" x1="261.64" y1="-823.47" x2="125.32" y2="-934.1" gradientTransform="matrix(1, 0, 0, -1, 0, -538)" gradientUnits="userSpaceOnUse"><stop offset="0" stop-color="#ffa73f"/><stop offset="1" stop-color="#ff4081"/></linearGradient><linearGradient id="linear-gradient-3" x1="230.76" y1="-807.03" x2="69.03" y2="-785.77" xlink:href="#linear-gradient-2"/><linearGradient id="linear-gradient-4" x1="277.74" y1="-579.21" x2="277.74" y2="-742.74" xlink:href="#linear-gradient"/><linearGradient id="linear-gradient-5" x1="278.6" y1="-835.86" x2="278.6" y2="-996.87" xlink:href="#linear-gradient-2"/><mask id="mask" x="68.2" y="41.21" width="259.3" height="417.66" maskUnits="userSpaceOnUse"><g id="mask0"><path class="cls-1" d="M239.38,210.53Q218.41,177,215,141,184.47,116,117.71,116.4a132,132,0,0,0,8,53.67h-.45a106.23,106.23,0,0,0,19,30,1.44,1.44,0,0,0,.14.49,1.49,1.49,0,0,0,.31.4,65,65,0,0,0,9.29,8.49q29.35,22.78,69.57,28.21A53.75,53.75,0,0,1,239.38,210.53Z"/><path class="cls-2" d="M154,316h-.45q-19,29.1-24.32,83.25,29.25,4.49,53.94-2.68a103.37,103.37,0,0,0,38.45-21.48v-.46l2.65-2.68h.49Q251.14,343.65,260,301.5a52.87,52.87,0,0,1-21.5-12.66Q197.93,315.6,154,316Z"/><path class="cls-3" d="M145.11,220.68a102.17,102.17,0,0,1-8.39-7.6q-31,8.49-68.52,38.93a122.59,122.59,0,0,0,39.35,37.14A94.07,94.07,0,0,0,150,301.69h4q39.57-.39,75.68-24.05a53.72,53.72,0,0,1-7.5-25.61Q177.91,246.06,145.11,220.68Z"/><path class="cls-4" d="M303.16,204.72q20.89-32.59,23.63-67.28v-.89a75.51,75.51,0,0,0,.45-8.5,96.46,96.46,0,0,0-12.81-47q-12.33-22.33-36.6-39.83h-.1Q253.4,58.63,241,81.05a96.53,96.53,0,0,0-12.81,47,75.21,75.21,0,0,0,.45,8.49v.89q2.63,33.45,22.22,65a52,52,0,0,1,52.28,2.32Z"/><path class="cls-5" d="M321.92,363v-.45q-4.12-33-22.89-64.69A52.08,52.08,0,0,1,275,303.74h-1q-9.66,46.31-39.07,77.61a.36.36,0,0,0-.18,0,.34.34,0,0,0-.16.1.38.38,0,0,0-.09.15.4.4,0,0,0,0,.19.37.37,0,0,1,0,.18.38.38,0,0,1-.09.15.39.39,0,0,1-.16.1.36.36,0,0,1-.18,0q6.65,34.46,41.11,76.61a129.13,129.13,0,0,0,36.25-40.27A98.08,98.08,0,0,0,323.25,381a4.82,4.82,0,0,1-.88-2.68A52.46,52.46,0,0,0,321.92,363Z"/></g></mask></defs><g id="Piastrix"><path d="M428,323a8,8,0,1,1-15.93,0V179.2a7.68,7.68,0,0,1,8-8H460.9A52,52,0,0,1,487.46,178a46.06,46.06,0,0,1,18.38,18.41q6.54,11.66,6.54,26.79a53.39,53.39,0,0,1-6.54,26.59A46.37,46.37,0,0,1,487.46,268a53.23,53.23,0,0,1-26.56,6.55H428Zm32.89-63.81a37.89,37.89,0,0,0,18.59-4.5,32.82,32.82,0,0,0,12.66-12.89,36.58,36.58,0,0,0,4.7-18.61,37,37,0,0,0-4.7-18.81,32.43,32.43,0,0,0-12.66-13.09,36.54,36.54,0,0,0-18.59-4.71H428v72.61Z"/><path d="M538.38,227.06a7.7,7.7,0,0,1,8-8,7.1,7.1,0,0,1,5.52,2.25,7.79,7.79,0,0,1,2.24,5.73V323a7.79,7.79,0,0,1-2.24,5.73,7.1,7.1,0,0,1-5.52,2.25,7.7,7.7,0,0,1-8-8Zm8-51.54a10.93,10.93,0,0,1,7.76,3.07,10.42,10.42,0,0,1,3.27,8,11.26,11.26,0,0,1-19.2,8,11.25,11.25,0,0,1-3.06-8,10.41,10.41,0,0,1,3.26-8A11.21,11.21,0,0,1,546.35,175.52Z"/><path d="M645,218.06a55.72,55.72,0,0,1,28.81,7.57,52.61,52.61,0,0,1,20.42,20.45,57,57,0,0,1,7.56,29v48.07a7.54,7.54,0,0,1-2.24,5.52,7.75,7.75,0,0,1-5.72,2.25,8.12,8.12,0,0,1-5.72-2,7.75,7.75,0,0,1-2.25-5.72V310.91a51.55,51.55,0,0,1-18.18,15.55A53.58,53.58,0,0,1,643.4,332a55,55,0,0,1-28.19-7.36,56,56,0,0,1-19.82-20.45,59.68,59.68,0,0,1-7.15-29.05,58.21,58.21,0,0,1,7.36-29A54.42,54.42,0,0,1,616,225.63,56.77,56.77,0,0,1,645,218.06Zm0,99.6a40.73,40.73,0,0,0,21-5.52A39.17,39.17,0,0,0,680.78,297a43.89,43.89,0,0,0,5.52-21.89,42.76,42.76,0,0,0-5.52-21.68,38.86,38.86,0,0,0-14.71-15.34,39.66,39.66,0,0,0-21-5.72,41,41,0,0,0-36.16,21.06,44.1,44.1,0,0,0-5.31,21.68A45.27,45.27,0,0,0,608.87,297a40.72,40.72,0,0,0,14.92,15.13A41.85,41.85,0,0,0,645,317.66Z"/><path d="M771,218.06q13.47,0,23.49,4.7a40.54,40.54,0,0,1,16.14,12.68,9.3,9.3,0,0,1,1.63,4.71,6.24,6.24,0,0,1-3.27,5.52,6.54,6.54,0,0,1-3.88,1,9.36,9.36,0,0,1-7.15-3.07q-10-11.44-27.37-11.45-11.24,0-18,4.71-6.74,4.5-6.74,11.45a13.9,13.9,0,0,0,6.33,11.86q6.33,4.29,22.47,7,21.87,3.68,31.26,12.06a26,26,0,0,1,9.39,20.46,26.62,26.62,0,0,1-5.71,16.77,35.84,35.84,0,0,1-15.53,11.45A59.43,59.43,0,0,1,771.43,332a69.81,69.81,0,0,1-24.31-4.29,47.29,47.29,0,0,1-18.79-12.07,7.52,7.52,0,0,1-2-4.71,7.77,7.77,0,0,1,3.27-6.13,8.35,8.35,0,0,1,5.1-1.84,7.54,7.54,0,0,1,5.93,2.86,31.47,31.47,0,0,0,12.87,8.8,50.89,50.89,0,0,0,18,3.06q14.31,0,21.45-4.91t7.36-12.88q0-7.37-7.15-12.27t-22.68-7.36q-20-3.28-30-11.25-9.79-8.19-9.8-19.64,0-14.92,11.44-23.11Q753.66,218.07,771,218.06Z"/><path d="M891.77,315.21a6.83,6.83,0,0,1,5.31,2.25,8.2,8.2,0,0,1,2,5.73,7.22,7.22,0,0,1-2.45,5.52,8.73,8.73,0,0,1-6.13,2.25h-4.29a37.23,37.23,0,0,1-19.4-5.11,38.31,38.31,0,0,1-13.49-14.12,43.11,43.11,0,0,1-4.7-20.24V236.88H835.39a7.66,7.66,0,0,1-5.31-1.84,7.08,7.08,0,0,1-1.84-4.91,6.62,6.62,0,0,1,1.84-4.91,7.15,7.15,0,0,1,5.31-2.05h13.27v-31.7a8.19,8.19,0,0,1,2.05-5.72,8,8,0,0,1,13.68,5.72v31.7h23.09a6.47,6.47,0,0,1,5.1,2.05,6.26,6.26,0,0,1,2,4.91,6.69,6.69,0,0,1-2,4.91,6.9,6.9,0,0,1-5.1,1.84H864.39v54.61q0,10.42,6.13,17.18a20.6,20.6,0,0,0,15.73,6.54Z"/><path d="M975.19,217.86c5.72,0,10.22.74,13.48,2.25,3.41,1.49,5.11,3.61,5.11,6.34a6.49,6.49,0,0,1-.2,1.84,6.12,6.12,0,0,1-2.66,3.88,8.91,8.91,0,0,1-4.7,1c-1.22,0-3.34-.13-6.34-.4a41.84,41.84,0,0,0-4.9-.21q-15.32,0-25.12,8.18-9.6,8.19-9.6,21.27v61.16a7.78,7.78,0,1,1-15.53,0V226.85a7.78,7.78,0,1,1,15.53,0v9a40.68,40.68,0,0,1,15.11-13.29A42.85,42.85,0,0,1,975.19,217.86Z"/><path d="M1021.56,227.06a7.7,7.7,0,0,1,8-8,7.11,7.11,0,0,1,5.52,2.25,7.79,7.79,0,0,1,2.24,5.73V323a7.79,7.79,0,0,1-2.24,5.73,7.11,7.11,0,0,1-5.52,2.25,7.7,7.7,0,0,1-8-8Zm8-51.54a10.94,10.94,0,0,1,7.76,3.07,10.42,10.42,0,0,1,3.27,8,11.27,11.27,0,0,1-19.21,8,11.25,11.25,0,0,1-3.06-8,10.42,10.42,0,0,1,3.27-8A11.19,11.19,0,0,1,1029.53,175.52Z"/><path d="M1160.07,318.69a9.05,9.05,0,0,1,2.25,5.52,6.42,6.42,0,0,1-2.25,4.91,6.82,6.82,0,0,1-4.69,1.84,9,9,0,0,1-4.09-.82,8.6,8.6,0,0,1-3.07-2.86l-33.5-42.75-34.73,44a6.43,6.43,0,0,1-5.51,2.46,7.15,7.15,0,0,1-5.31-2,7.07,7.07,0,0,1-1.84-4.91,7.92,7.92,0,0,1,2-5.52l35.34-44.18-33.5-42.54a7.92,7.92,0,0,1-2-5.52,7.38,7.38,0,0,1,1.83-5.11,6.77,6.77,0,0,1,5.32-2,8,8,0,0,1,5.92,2.46l32.89,42.33,32.48-41.11c1.91-2.45,4.15-3.68,6.74-3.68a6.49,6.49,0,0,1,5.11,2,6.7,6.7,0,0,1,2,4.91,9.51,9.51,0,0,1-2.25,5.93l-33.9,42.13Z"/><path d="M261.37,212.47c-.67.22-1.37.4-2,.69A38.79,38.79,0,0,0,240,230.63a39.57,39.57,0,0,0-4.1,25.89c.21,1.17.42,2.33.71,3.48s.65,2.32,1.05,3.49a41.31,41.31,0,0,0,14.53,19.41c.57.38,1.12.77,1.72,1.13a38.69,38.69,0,0,0,3.89,2.14c.93.47,1.87.93,2.85,1.33a39.35,39.35,0,0,0,14.45,2.84c.46,0,.89-.13,1.34-.14v-.14a43.53,43.53,0,0,0,15.19-3.49,39.75,39.75,0,0,0,20.19-20.13,40.49,40.49,0,0,0,1.71-28.64,40,40,0,0,0-17.65-22.45,39.19,39.19,0,0,0-28-4.73c-.57.12-1.12.21-1.72.35A38,38,0,0,0,261.37,212.47Z"/><g class="cls-6"><path class="cls-7" d="M148.43,307.68c-31.15-.85-66.59-27.45-80-49.79,0,0,39.46-33.44,68.32-38.29,18.63,19.14,59,36.51,85.27,38.29a57.51,57.51,0,0,0,7.83,25.54C204.51,299.17,179.57,308.53,148.43,307.68Z"/><path class="cls-7" d="M118,122.32s63.83-3.58,97.19,24.85c2.72,22.64,8.51,43.59,24.51,68.43-7.83,7.66-13.79,18.38-15.83,27.57C195.23,239.94,119.66,223.26,118,122.32Z"/><path class="cls-7" d="M259.91,307.73c-3.91,16.8-11.06,49.82-45.78,79.61s-84.6,17.7-84.6,17.7,2.9-52.42,24.34-83.23c28.6,2.89,69.79-15.49,84.94-27.07C244.43,302.57,251.4,306.26,259.91,307.73Z"/><path class="cls-7" d="M251,208C188,99,278.64,47,278.64,47,362.28,108,316,194,303,210,274,194,251,208,251,208Z"/><path class="cls-7" d="M299.23,304.11c15.83,28.25,23.49,48.85,23.83,84.25.28,29.39-25.44,57.66-40.14,70.43H270.25c-13.34-16.15-34-51.56-36.08-70.75,6.51-6.57,31.11-32.78,40-78.15A49.78,49.78,0,0,0,299.23,304.11Z"/></g><path class="cls-7" d="M303,210c-29-16-52-2-52-2C188,99,278.64,47,278.64,47,362.28,108,316,194,303,210Z"/><path class="cls-7" d="M239.66,215.6c-7.83,7.66-13.79,18.38-15.83,27.57-28.6-3.23-104.17-19.91-105.87-120.85,0,0,63.83-3.58,97.19,24.85C217.87,169.81,223.66,190.76,239.66,215.6Z"/><path class="cls-7" d="M229.87,283.43c-25.36,15.74-50.3,25.1-81.44,24.25s-66.59-27.45-80-49.79c0,0,39.46-33.44,68.32-38.29,18.63,19.14,59,36.51,85.27,38.29A57.51,57.51,0,0,0,229.87,283.43Z"/><path class="cls-7" d="M259.91,307.73c-3.91,16.8-11.06,49.82-45.78,79.61s-84.6,17.7-84.6,17.7,2.9-52.42,24.34-83.23c28.6,2.89,69.79-15.49,84.94-27.07C244.43,302.57,251.4,306.26,259.91,307.73Z"/><path class="cls-7" d="M323.06,388.36c.28,29.39-25.44,57.66-40.14,70.43a80,80,0,0,1-7.33,5.78,58.4,58.4,0,0,1-5.34-5.78c-13.34-16.15-34-51.56-36.08-70.75,6.51-6.57,31.11-32.78,40-78.15a49.78,49.78,0,0,0,25-5.78C315.06,332.36,322.72,353,323.06,388.36Z"/></g></svg>