<svg xmlns="http://www.w3.org/2000/svg" viewBox="0 0 1230.52 500"><g id="Paypal"><path d="M329.29,346.37h45.44V214H329.29ZM390.4,123.86H359.85v30.56H390.4ZM218.82,138.75H175v38.39h40.74c25.85,0,40.74,12.53,40.74,36S241.54,250,215.69,250H175V177.92H129.51V346.37H175v-58H218c52.49,0,83-28.2,83-76.78C301.09,166.17,271.32,138.75,218.82,138.75ZM421,93.31H329.29V185H421Zm-14.89,76H345V108.19h61.11Zm266.38-30.55H630.93v38.39H670.1c25.86,0,40.74,12.53,40.74,36S696,250,670.1,250H630.93V177.92H585.49V346.37h45.44v-58h41.52c52.5,0,83-28.2,83-76.78C755.5,166.17,725,138.75,672.45,138.75ZM1054,187.32,1014.83,286l-39.17-98.72h-47l62.68,159.05L967,406.69h47.79L1101,187.32Zm-203.7-.78c-27.42,0-48.57,6.27-72.08,18l14.1,31.34c16.46-9.4,32.91-14.1,47.8-14.1,21.93,0,32.9,9.4,32.9,26.63v3.14H829.15c-39.18,0-60.33,18-60.33,47.79,0,29,20.37,49.36,54.84,49.36,21.94,0,37.61-7.84,50.15-21.16V344.8h44.65V241.38C916.9,207.69,892.61,186.54,850.3,186.54Zm26.64,106.55c-4.7,13.32-18,24.29-36.82,24.29-15.67,0-25.07-7.84-25.07-20.37s8.61-18,25.85-18h36Zm-386.25,18.8c-21.94,0-37.61-17.23-37.61-43.09,0-25.07,15.67-42.3,37.61-42.3,15.67,0,27.42,6.26,36,17.23l30.55-21.93c-14.1-21.16-38.39-33.69-68.94-33.69-47.79-.79-80.7,32.12-80.7,80.69s32.91,80.7,80.7,80.7c32.9,0,57.19-13.32,70.51-35.26l-31.34-21.15C519.68,305.63,507.14,311.89,490.69,311.89Z"/></g></svg>