<svg xmlns="http://www.w3.org/2000/svg" viewBox="0 0 1230.52 500"><g id="InovaPay"><path d="M250.26,374.15c0-17.56.13-35.11-.1-52.67,0-3.75,1.36-5.2,4.71-5.47,1.85-.14,3.71-.25,5.56-.25,14.29,0,28.57-.15,42.85.08,12.39.2,23.22,4.35,31.13,14.32,6.75,8.52,7.22,18.54,6.21,28.83-1.72,17.52-14.39,29.29-33.36,31.42-8.55,1-17.09.74-25.64.64-6-.06-7.17,1.2-7.06,7.3.18,9.12-.29,18.26.55,27.36.36,4-1.5,5.87-5.4,6-5.28.16-10.55.15-15.83-.18-3-.19-3.7-1.45-3.68-4.29C250.32,409.54,250.26,391.84,250.26,374.15Zm41.23-36.94c-4,0-7.27,0-10.56,0-4.78,0-5.86,1-5.89,5.71q-.07,10.27,0,20.55c0,5,1,6,6,6,7.27,0,14.55.34,21.82-.37,7.44-.73,12.88-5.44,13-12.73.2-10.91-2.15-15.89-10.21-18.29C300.79,336.6,295.76,337.46,291.49,337.21Z"/><path d="M503.31,405.76q0-27.84,0-55.67c0-5.62,1.06-6.64,6.77-6.76,3.43-.07,6.86-.13,10.28,0,2.67.13,5.28.29,7.06,3.06s4.52,1.8,6.65.16c9.27-7.11,27.46-5.19,36.83,4,6.54,6.39,9.58,14.78,11.61,23.41,4.5,19.12,1,36.61-12.59,51.19-9,9.61-22.77,11.67-34.71,6.2-.91-.41-1.76-1-2.68-1.33-3.49-1.36-4.74-.64-4.83,3.22-.14,6.38,0,12.77-.05,19.16s-1.52,8.52-7.67,10.66c-3.76,1.31-7.56,2.5-11.36,3.73-4.21,1.35-5.22.78-5.27-3.64-.12-10.71-.05-21.41-.06-32.12ZM526,388.11h.19a64.37,64.37,0,0,1,0,7.22c-1.09,9.58,1,13.82,11.44,18.34a14.31,14.31,0,0,0,18.57-7.32c5.32-11.84,5.22-23.76.26-35.66a14.28,14.28,0,0,0-16.51-8.39c-8.91,1.91-14,7.26-13.91,14.77C526,380.75,526,384.43,526,388.11Z"/><path d="M750.27,316.73c9.44.27,20.44-.7,31.33,1.53,15.85,3.23,25.27,13.14,27,29.38,1.55,14.67-1.91,27.54-15.14,36.09-6.55,4.24-14.06,5.38-21.65,5.71-7.27.32-14.56.24-21.85.24-6.05,0-7.83,1.69-7.84,7.9,0,9,0,18,0,27,0,4.94-1.21,6.07-6.08,6.07-3.15,0-6.3-.1-9.43,0s-4.59-1.21-4.93-4.1a37.78,37.78,0,0,1-.3-4.25q0-48.63,0-97.26c0-7.9.42-8.32,8.09-8.32Zm9.38,19.53c-3.7,0-7.41,0-11.11,0s-5.72,1.75-5.77,5.38c-.1,7.71-.13,15.42,0,23.13.08,3.74,2.11,6.37,6.06,6.41,7.56.08,15.14.5,22.67-.63,9.67-1.44,15.31-8.65,14.69-18.76-.56-8.89-7.48-15.34-16.71-15.52C766.23,336.21,762.94,336.26,759.65,336.26Z"/><path d="M422.59,388.27q0,17.72,0,35.41c0,7.17-1.32,8.41-8.59,8.28-1.84,0-3.69-.11-5.52,0-4.42.29-8.1-.18-9.84-5.33-1.13-3.36-3.32-.89-4.64.21-9.74,8.18-20.81,8.41-31.75,4-10.75-4.31-15-13.58-15.55-24.91-.74-15.42-.18-30.81.06-46.22.05-3.12-.11-6.25,0-9.37.17-4.41,1.69-5.83,6.05-5.89,3.15-.05,6.29-.05,9.44,0,5.43.08,6.81,1.42,6.82,6.9.05,14.13,0,28.27,0,42.41,0,4.28.19,8.6,2.77,12.29a14.23,14.23,0,0,0,16.17,5.59c6.95-2.08,10.94-7,11-14,.1-13.85,0-27.71,0-41.56,0-1.43,0-2.85,0-4.28.18-6.47,1.05-7.3,7.6-7.34,3,0,6-.05,9,0,5.39.11,6.85,1.51,6.88,6.95C422.64,363.71,422.59,376,422.59,388.27Z"/><path d="M524,264.92H513.65c-.18-3.44-.35-6.89-.57-10.34-.21-3.23-1.27-6.65-.53-9.63,1-4.17.25-8.23.53-12.31.57-8.32-1.54-16.72.42-25.07.25-1.07.41-2.58-.14-3.33-2.2-3-1.11-6.61-.84-9.35.68-6.87-.75-13.76.44-20.46.78-4.34-1.26-8.7.68-12.88l54,0a7.5,7.5,0,0,1,0,.82c-.73.43-1.85,1-.94,1.86,6.16,5.62,3.11,12.71,3.66,19.34.24,2.83-1.89,5.45-.42,7.84,1.71,2.76.54,5.57.31,8.05-.38,4,.18,7.9-.09,11.85-.24,3.56,1.32,7.27-1.52,10.42a1.9,1.9,0,0,0-.16,2.34c-4.86.06-9.71.11-14.57.19-9.69.16-16.07,6.46-16.26,16.1-.06,3.43,0,6.86,0,10.28-.15,7.28-5.19,12.8-12.52,13.84Z"/><path d="M678.52,395c-7.15,0-14.3-.06-21.45,0-6.3.08-7.68,2.45-4.84,8,5.8,11.4,17,15.59,28.9,9.68,11-5.47,9.06-4.46,16.15,5.12,2.81,3.81,2.43,5.49-1.72,8-13.75,8.19-28.29,10.3-43.46,4.52-13.16-5-20.48-14.88-22.78-28.64-1.82-10.94-2.46-21.86,1.61-32.45,5.69-14.83,16.32-24.07,32.26-25.74s29.31,3.53,37.73,18.08c5.2,9,5.62,19,5.53,29,0,3.42-2.51,4.42-5.62,4.41C693.39,394.92,686,395,678.52,395Zm-10.78-15.07v-.09c3.82,0,7.65,0,11.48,0,2.42,0,3.61-1.29,3.49-3.8A14.65,14.65,0,0,0,668.1,362.1c-7.69-.19-15.36,6-16.24,13-.38,3,.86,4.67,3.93,4.72C659.77,379.93,663.76,379.88,667.74,379.88Z"/><path d="M844.58,343.79c7.68,0,13.86.57,19.91,2.62,9.91,3.34,15.15,10.37,16.25,20.42.8,7.34.52,14.75.55,22.15,0,11.51-.7,23,.34,34.55.58,6.36,0,6.63-6.28,7.45a38,38,0,0,1-7.67.37c-2.1-.15-4.37-.36-5.49-2.64-1.79-3.67-4.37-3.47-7.42-1.67-6.25,3.67-12.83,6-20.28,5.61-25.88-1.4-32.19-26-23.3-41,5.59-9.47,15.13-13,25.62-14.08,5.75-.59,11.37.46,16.89,2.08,2.57.76,5.12,1.06,7.1-1.31s.86-4.75,0-7.23c-2.61-7.58-8.37-10.37-15.83-10.69-5.66-.24-11,1.16-16.31,3-2.49.85-5.29,2.26-7.45-.55-2.27-3-3.77-6.39-3.46-10.2.19-2.25,2.32-3.1,4.15-3.91C829.55,345.27,837.5,343.27,844.58,343.79Zm-.11,49.12a40.72,40.72,0,0,0-4.28,0c-4.34.45-8.82,4-9.83,7.84-1.19,4.6-.41,8.56,3.5,11.85,6.75,5.69,21.24,2.82,25-5.14,3.11-6.6,1-11.31-5.91-13.66A22.11,22.11,0,0,0,844.47,392.91Z"/><path d="M513.64,161.55c-1.94,4.18.1,8.54-.68,12.88-1.19,6.7.24,13.59-.44,20.46-.27,2.74-1.36,6.37.84,9.35.55.75.39,2.26.14,3.33-2,8.35.15,16.75-.42,25.07-.28,4.08.51,8.14-.53,12.31-.74,3,.32,6.4.53,9.63.22,3.45.39,6.9.57,10.34-2.28.06-4.56.21-6.84.17-10.08-.17-16.16-6.23-16.21-16.38-.08-16,0-32,0-47.93q0-58.41,0-116.84c0-11.91,9-22.51,19.66-22.77,0,1.43-1.44,3,.37,4.25,2.3,1.63,1.93,4.08,2.3,6.46.71,4.63-3.74,8.83-.89,13.51-5.48,7.42-2.82,16-3.37,24.11-.13,1.85,1.56,1.1,2.44,1.51,2.05,5,1.4,10.42,1.63,15.66.11,2.49.62,4.38,2.7,5.77-5.23,4.36-7.59,9.8-6.88,16.7.39,3.77.06,7.6.05,11.41C510,162.31,512,161.13,513.64,161.55Z"/><path d="M645.75,224.06H582.28c-.07-2.47-.79-5,1.92-6.85,1-.71.29-1.93-.77-2.31-5-1.75-.6-8.12-5-10.09a7.43,7.43,0,0,1,.79-1c3.46-3,1.93-6.39.25-9.21-1-1.66-1.17-2.07.33-3.23,1.86-1.43,3.14-2.84,2.12-6a10.49,10.49,0,0,1,0-6.44c2.44-5.37-.39-9.58-2.2-14.09h0c.86-2.32.16-3.2-2.4-3.09-2.33.11-4.73.57-7-.36a4.36,4.36,0,0,1,0-.51c1.71-.06,3.42-.19,5.13-.19l133.39,0c1.86,0,3.71-.14,5.56-.21-1.4,1.77-3.4.59-5.08,1-7,0-13.94-.19-20.9,0-11.05.28-22.14-1-33.15.82-5.35-1.61-10.75,1.05-16.1-.2-.31,1.41-1.82-1.09-2.2.75a1.85,1.85,0,0,0,1.26,2.35c1.94.49,2.14,1.69,2.24,3.36.05.84-1,2.23.45,2.6,2,.51,0-2.44,2.25-2.36,0,5.74.11,11.48-.07,17.21,0,1.46-.69,3.24-3,2.59a1.66,1.66,0,0,0-2.25,1.35c-.24,1.41,1.2,1.24,2,1.64,1.42.68,3.83.57,3.3,3.07-1.1,5.17.45,10.34-.18,15.51-.21,1.73.28,3.53.44,5.3h.48c.13-1.16.27-2.32.29-2.49-.9.93,4.7,4.14-.84,5.36-.32.07-1.72,2.58,1,3C645.61,221.59,645.54,223,645.75,224.06Z"/><path d="M899.16,345.17c1.63-.52,3.42.41,5.25.34a7.94,7.94,0,0,1,8.61,6.27c4.35,15.91,10.79,31.19,14.32,47.34a21,21,0,0,0,1.11,3.67,3.48,3.48,0,0,0,3.82,2.14c1.66-.18,2.2-1.29,2.65-2.84,4.87-16.8,10.28-33.43,16-50,2.07-6,3.45-7,10-7,2.42,0,4.86-.27,7.26-.07,4.42.37,5.22,1.61,3.75,5.83q-5,14.5-10.22,28.94-12.13,33.7-24.36,67.36c-1.65,4.54-3.48,9-5.37,13.46-1.4,3.27-3.8,4.65-7.54,4a31.2,31.2,0,0,0-7.67-.19c-4.63.31-5.92-1.08-4.39-5.26,2.16-5.87,4.13-11.83,6.71-17.51a17.6,17.6,0,0,0,.44-14.07q-13.66-36.54-27.55-73C888.71,346.16,889.41,345,899.16,345.17Z"/><path d="M709.25,161.55c1.68-.42,3.68.76,5.08-1a103.68,103.68,0,0,1,0-10.58c.71-7.12-1.25-13-6.93-17.55,1.68-2.1,4.35-4.57,3.89-6.77-1-5,1.06-9.83-.37-14.64,2.8.31,3.59-1,3.4-3.68a66.17,66.17,0,0,1,0-9.34c.44-6.41-1.72-11.59-6.81-15.54,1.76-1.1,1.35-2.8.05-3.33-3.8-1.57-3-4.42-2.68-7.33.19-2,.51-4.16-.15-5.91-1-2.62-.17-4,1.92-5.26H711c.23,1.74,1.2.65,1.92.51a21.54,21.54,0,0,1,19.4,21.72q.16,59.73,0,119.48c-.06,13-11.27,24-27.29,21.73-.52-3.19,1.89-5.24,3.17-7.68.69-1.29,1.3-2.39,0-3.31-4-2.78-3-6.92-3.16-10.8-.28-6.61-.41-13.35,2.86-19.25,2.07-3.76,3.42-7.35,3.11-11.6-.13-1.8.68-3.88-1-5.25S708.85,163.18,709.25,161.55Z"/><path d="M709.25,161.55c-.4,1.63-1,3.17.69,4.61s.84,3.45,1,5.25c.31,4.25-1,7.84-3.11,11.6-3.27,5.9-3.14,12.64-2.86,19.25.16,3.88-.86,8,3.16,10.8,1.33.92.72,2,0,3.31-1.28,2.44-3.69,4.49-3.17,7.68H657.78c-1-3.58-3.21-6.6-3.28-10.75,0-2.13,0-3.43,1.24-5s3.74-3.23-.34-4.45c-.65-.19-.73-1-.71-1.79.13-7.38-.81-14.77.47-22.13a3.77,3.77,0,0,0-.23-1.68c-1.76-5.34-.46-10.62.27-15.92,11-1.78,22.1-.54,33.15-.82C695.31,161.36,702.28,161.53,709.25,161.55Z"/><path d="M617.34,368.86q0,28,0,56.06c0,6.59-.83,7.4-7.33,7.43-4,0-8,0-12,0-3.34,0-5-1.65-5-4.95,0-2.71,0-5.42,0-8.13V323c0-8.17.49-8.91,8-12,3.29-1.35,6.52-2.86,9.88-4,4.81-1.59,6.35-.49,6.44,4.53.12,6.27,0,12.55,0,18.83Z"/><path d="M435.68,388.27c0-12.56,0-25.13,0-37.7,0-4.91,1.53-6.39,6.41-6.49,4-.09,8,.08,12-.08,3.18-.13,5.24,1,6,4.18.84,3.48,2.81,3.32,4.84,1.26,7.24-7.37,16-8,25.38-6,4.64,1,6,3.07,5,7.69-1,4.31-2.17,8.57-3.2,12.86-.61,2.54-2.26,3.43-4.7,3.39-3.85-.07-7.71-.18-11.56-.14-10.05.1-15.35,5.36-15.38,15.36-.06,13.86,0,27.71,0,41.56,0,7.68-.54,8.19-8.32,8.21-3.29,0-6.58.08-9.87,0-5.19-.18-6.55-1.57-6.57-6.79C435.65,413.12,435.68,400.7,435.68,388.27Z"/><path d="M512,85.39c-2.85-4.68,1.6-8.88.89-13.51-.37-2.38,0-4.83-2.3-6.46-1.81-1.27-.4-2.82-.37-4.25,1.12-.82,2.42-.71,3.7-.71l89.41,0a10.73,10.73,0,0,1,1.27.15c0,.18,0,.36,0,.54-5.55,0-11.09-.09-16.63.09-2.46.08-5.1-.94-7.4.81-1.15-1.6-2.7-.12-4-.26-2.35-.26-7.44-2.88-5.91,3.71.05.22-.26.5-.34.77-1.46,4.66.36,9.14.81,13.69-15,.06-29.92.26-44.88.09C520.64,80,516,81.51,512,85.39Z"/><path d="M604.59,61.17c0-.18,0-.36,0-.54,12.25-.07,24.49-.19,36.73-.18,21.79,0,43.57.1,65.36.16-2.09,1.23-2.91,2.64-1.92,5.26.66,1.75.34,3.94.15,5.91-.27,2.91-1.12,5.76,2.68,7.33,1.3.53,1.71,2.23-.05,3.33a26.64,26.64,0,0,0-11.47-2.34c-12.77.06-25.54-.06-38.31-.12-.9-1.57-1.13-3.43-2.63-4.77-2.23-2-3.67-4.22.25-6.15.69-.34,1.56-1.16.76-2-1.11-1.23-1.84-2.31-1.22-4.12.28-.82-.68-1.28-1.74-1.21-3.32.19-6.68-.68-10,.38-1.27-1.38-2.94-.82-4.44-.83C627.38,61.17,616,61.18,604.59,61.17Z"/><path d="M655.2,162.35c-.73,5.3-2,10.58-.27,15.92a3.77,3.77,0,0,1,.23,1.68c-1.28,7.36-.34,14.75-.47,22.13,0,.82.06,1.6.71,1.79,4.08,1.22,1.52,2.95.34,4.45s-1.28,2.85-1.24,5c.07,4.15,2.29,7.17,3.28,10.75h-12c-.21-1.06-.14-2.47-1.47-2.68-2.69-.4-1.29-2.91-1-3,5.54-1.22-.06-4.43.84-5.36,0,.17-.16,1.33-.29,2.49h-.48c-.16-1.77-.65-3.57-.44-5.3.63-5.17-.92-10.34.18-15.51.53-2.5-1.88-2.39-3.3-3.07-.83-.4-2.27-.23-2-1.64a1.66,1.66,0,0,1,2.25-1.35c2.3.65,2.94-1.13,3-2.59.18-5.73.07-11.47.07-17.21-2.29-.08-.24,2.87-2.25,2.36-1.45-.37-.4-1.76-.45-2.6-.1-1.67-.3-2.87-2.24-3.36a1.85,1.85,0,0,1-1.26-2.35c.38-1.84,1.89.66,2.2-.75C644.45,163.4,649.85,160.74,655.2,162.35Z"/><path d="M579.7,164.92c1.81,4.51,4.64,8.72,2.2,14.09a10.49,10.49,0,0,0,0,6.44c1,3.11-.26,4.52-2.12,6-1.5,1.16-1.31,1.57-.33,3.23,1.68,2.82,3.21,6.24-.25,9.21a7.43,7.43,0,0,0-.79,1c4.45,2,.08,8.34,5,10.09,1.06.38,1.81,1.6.77,2.31-2.71,1.83-2,4.38-1.92,6.85H568.53a1.9,1.9,0,0,1,.16-2.34c2.84-3.15,1.28-6.86,1.52-10.42.27-3.95-.29-7.87.09-11.85.23-2.48,1.4-5.29-.31-8.05-1.47-2.39.66-5,.42-7.84-.55-6.63,2.5-13.72-3.66-19.34-.91-.83.21-1.43.94-1.86.27-.29.55-.58.82-.88a4.07,4.07,0,0,0,0-.5h.88c0,.16,0,.33.05.49q.31.79.75.06l.06-.05c2.29.93,4.69.47,7,.36,2.56-.11,3.26.77,2.4,3.09-.34.31-1.1.49-.32,1.11C579.49,165.66,579.59,165.29,579.7,164.92Z"/><path d="M712.88,61.12c-.72.14-1.69,1.23-1.92-.51C711.69,60.41,712.39,60.35,712.88,61.12Z"/><path d="M524,264.92l1.18-.46Z"/><path d="M513.64,161.55c-1.68-.42-3.67.76-5.08-1,2,.07,4,.19,6,.2q26.58.12,53.16.21a4.19,4.19,0,0,0,0,.5l-.08.07Z"/><path d="M568.51,161.47c-.27.3-.55.59-.82.88a7.5,7.5,0,0,0,0-.82l.08-.07.39,0Z"/><path d="M570.23,130.32h-1.65q-1.32-2.1-2.64,0h-1.65c-.16-1.73-1.64-1-2.32-1-12.58.79-25.16.25-37.74.42-1,0-2-.14-2.82.63l-6,2c-2.08-1.39-2.59-3.28-2.7-5.77-.23-5.24.42-10.61-1.63-15.66h59.18c.36,2.76.82,5.48-.69,8.15a3.19,3.19,0,0,0,.39,2.78C571.94,124.72,571.15,127.49,570.23,130.32Z"/><path d="M569.42,161h.83a4.36,4.36,0,0,0,0,.51l-.06.05q-.37,0-.75-.06C569.45,161.3,569.43,161.13,569.42,161Z"/><path d="M707.44,132.41l-6-2c-5.17-1.43-10.45-.5-15.67-.58-10.07-.15-20.15,0-30.22,0l-.06.37-.37,0c0-.45,0-.89.05-1.33a39.72,39.72,0,0,1-.12-11.42c.26-2.3-1.12-5,1.84-6.5H711c1.43,4.81-.67,9.68.37,14.64C711.79,127.84,709.12,130.31,707.44,132.41Z"/><path d="M645.74,80H580.58c-.07-4.85,1-9.76-.88-14.5h0c.93-1,1.58-2,.86-3.43,2.3-1.75,4.94-.73,7.4-.81,5.54-.18,11.08-.08,16.63-.09,11.39,0,22.79,0,34.18.06,1.5,0,3.17-.55,4.44.83-1.25.55-3-.23-4.05,1.46,1.3,1.1,4,.52,3.53,3.55-2.18-1.2-4.3-2-2.94,1.85h0c-4.32,5-4.15,5.72,2,8.81C643.13,78.41,644.42,79.23,645.74,80Z"/><path d="M580.56,62.07c.72,1.39.07,2.44-.86,3.43-.12-.62-.08-1.36-1-1.3a.41.41,0,0,0-.27.27c0,.94.68.92,1.3,1,1.93,4.74.81,9.65.88,14.5h-9.47c-.45-4.55-2.27-9-.81-13.69.08-.27.39-.55.34-.77-1.53-6.59,3.56-4,5.91-3.71C577.86,62,579.41,60.47,580.56,62.07Z"/><path d="M639.75,68.92c-1.36-3.82.76-3,2.94-1.85.45-3-2.23-2.45-3.53-3.55,1-1.69,2.8-.91,4.05-1.46,3.29-1.06,6.65-.19,10-.38,1.06-.07,2,.39,1.74,1.21-.62,1.81.11,2.89,1.22,4.12.8.89-.07,1.71-.76,2-3.92,1.93-2.48,4.14-.25,6.15,1.5,1.34,1.73,3.2,2.63,4.77h-12c-1.32-.75-2.61-1.57-4-2.25-6.18-3.09-6.35-3.79-2-8.81.23.29-.38,1.18.64.9Z"/><path d="M579.7,164.92c-.11.37-.21.74-.32,1.11-.78-.62,0-.8.32-1.11Z"/><path d="M567.7,161h.84a4.07,4.07,0,0,1,0,.5h-.39l-.39,0A4.19,4.19,0,0,1,567.7,161Z"/><path d="M569.47,161.46q.38,0,.75.06Q569.78,162.26,569.47,161.46Z"/><path d="M570.23,130.32c.92-2.83,1.71-5.6-.29-8.39a3.19,3.19,0,0,1-.39-2.78c1.51-2.67,1.05-5.39.69-8.15h72.94c-.6,3.4-3.18.66-4.49,1.49-.89.56-2-.93-2.6.63a1.78,1.78,0,0,0,.77,2.18c1.85,1.63,3.4,3.22,1.75,6-.39.66.27,1.88.16,2.8-.32,3,3.13,3.75,3.57,6.25Z"/><path d="M642.34,130.32c-.44-2.5-3.89-3.26-3.57-6.25.11-.92-.55-2.14-.16-2.8,1.65-2.75.1-4.34-1.75-6a1.78,1.78,0,0,1-.77-2.18c.58-1.56,1.71-.07,2.6-.63,1.31-.83,3.89,1.91,4.49-1.49h13.73c-3,1.52-1.58,4.2-1.84,6.5a39.72,39.72,0,0,0,.12,11.42l-.85,1.33h-.85c-.12-.25-.23-.5-.34-.75l-.23.72-.09-.1-1-.37-.4-.17.33.23c0,.17,0,.34,0,.51h-1.67c-.15-.46,0-1.47-.94-.53l-.77,0c-.31-.47-.61-.47-.91,0l-.76,0c-1-.35-2.11-1.31-2.67.53Z"/><path d="M655.57,129.87c10.07,0,20.15-.19,30.22,0,5.22.08,10.5-.85,15.67.58q-21.76.06-43.53.1C657.1,130.51,656.21,130.63,655.57,129.87Z"/><path d="M521.41,130.41c.81-.77,1.84-.62,2.82-.63,12.58-.17,25.16.37,37.74-.42.68-.05,2.16-.77,2.32,1Z"/><path d="M644,130.32c.56-1.84,1.67-.88,2.66-.53a2.33,2.33,0,0,0,0,.53Z"/><path d="M565.94,130.32q1.32-2.1,2.64,0Z"/><path d="M646.65,130.32a2.33,2.33,0,0,1,0-.53l.77,0h.91l.77,0a3.13,3.13,0,0,1,0,.53Z"/><path d="M649.15,130.32a3.13,3.13,0,0,0,0-.53c.94-.94.79.07.94.53Z"/><path d="M651.74,130.32c0-.17,0-.34,0-.51l.07-.06,1,.37Z"/><path d="M654.34,130.26l.85-1.33c0,.44,0,.88-.05,1.33l-.4.1Z"/><path d="M652.92,130.22l.23-.72c.11.25.22.5.34.75l-.29.07Z"/><path d="M579.7,65.49c-.62-.1-1.35-.08-1.3-1a.41.41,0,0,1,.27-.27c1-.06.91.68,1,1.3Z"/><path d="M639.75,68.92l.64.9c-1,.28-.41-.61-.64-.9Z"/><path d="M648.36,129.75h-.91C647.75,129.28,648.05,129.28,648.36,129.75Z"/><path d="M651.72,129.81l-.33-.23.4.17Z"/></g></svg>