<svg xmlns="http://www.w3.org/2000/svg" viewBox="0 0 1230.52 500"><g id="Qiwi"><path d="M328,79.36A151.91,151.91,0,0,1,458.34,309a1,1,0,0,1-1.76-.44c-5.3-37.28-28-57.8-61.11-64-2.87-.44-3.31-2.2.44-2.64,10.15-.89,24.49-.67,32,.66a100.39,100.39,0,1,0-99.71,88.68h4.63a135.08,135.08,0,0,1-2-27.13c.22-6.18,1.55-7.06,4.2-2.21,13.89,24.05,33.75,45.67,72.57,54.27,31.77,7.06,63.54,15.22,97.73,58.68,3.09,3.75-1.54,7.72-5.07,4.63-34.86-30.88-66.62-41-95.52-41-32.43.22-54.49,4.41-76.77,4.41a151.78,151.78,0,1,1,0-303.55Zm77.21,239.8a17.19,17.19,0,0,1,11,4.63c6.84,5.74,8.82,12.35,5.29,17.21a11.62,11.62,0,0,1-9,4,15.79,15.79,0,0,1-10.37-3.75c-6.18-5.3-7.94-14.12-4-19A8.53,8.53,0,0,1,405.18,319.16Zm33.53-24.93c5.74,2.21,7.94,10.81,8.38,14.56.88,6.84-1.1,9.49-3.31,9.49s-5.29-2.65-8.6-7.95-4.63-11.25-2.87-14.34C433.41,294,435.84,293.13,438.71,294.23ZM634.17,154.62a78.19,78.19,0,0,1,65.74,120.29l23.49,27.41a2.86,2.86,0,0,1-2.23,4.76H685.92a4.51,4.51,0,0,1-3.64-1.68l-5.87-7.28a78,78,0,1,1-42.24-143.5Zm138.75,3.64a3.82,3.82,0,0,1,3.91,3.91V303.44a3.82,3.82,0,0,1-3.91,3.91H744.1a3.82,3.82,0,0,1-3.91-3.91V162.17a3.82,3.82,0,0,1,3.91-3.91Zm52.59,0a3.75,3.75,0,0,1,3.29,2l.34.79,25.46,83.64,28-83.64a4,4,0,0,1,2.67-2.39l1-.12h22.66a3.65,3.65,0,0,1,3.2,1.61l.43.9,28,83.64,25.45-83.64a4,4,0,0,1,2.83-2.7l.81-.09h32.17a6.72,6.72,0,0,1,3.92,1.67,3.17,3.17,0,0,1,.68,2.66l-.13.7L958.66,304.84a4,4,0,0,1-2.67,2.39l-1,.12H929.29a3.67,3.67,0,0,1-3.21-1.61l-.43-.9L898,222.32l-27.7,82.52a4,4,0,0,1-2.66,2.39l-1,.12H840.89a3.65,3.65,0,0,1-3.2-1.61l-.43-.9L789.7,163.29a3.7,3.7,0,0,1,.56-3.36,3.33,3.33,0,0,1,2.38-1.61l.7-.06Zm224.9,0a4.06,4.06,0,0,1,3.72,3l.2.92V303.44a3.81,3.81,0,0,1-3.11,3.84l-.81.07H1021.6a3.8,3.8,0,0,1-3.84-3.1l-.08-.81V162.17a3.81,3.81,0,0,1,3.11-3.84l.81-.07ZM634.17,189.31c-23.78,0-41.12,20.14-41.12,43.36s17.34,43.07,41.12,43.07a38.67,38.67,0,0,0,19.3-4.75l-15.39-18.74a3.06,3.06,0,0,1,2.24-5h32.45a41.78,41.78,0,0,0,2.52-14.54C675.29,209.45,658,189.31,634.17,189.31Z"/></g></svg>