<svg xmlns="http://www.w3.org/2000/svg" viewBox="0 0 1230.52 500"><g id="Paypal"><g id="g8"><path id="path6" d="M218.44,242.53a42.6,42.6,0,0,0-5.89-19.48l-30.81-53.91a46.56,46.56,0,0,1-5-13.14l-1.36,2.27a43,43,0,0,0,0,43l24.92,43a43,43,0,0,1,0,43L199,289.64a46.28,46.28,0,0,0-5-13.14l-22.65-39.41-14.49-25.37a46.28,46.28,0,0,1-5-13.14l-1.35,2.27a43,43,0,0,0,0,43h0l24.91,43a43,43,0,0,1,0,43L174,332.22a46.26,46.26,0,0,0-5-13.14l-31.26-53.9a48,48,0,0,1-5.89-23.56c-33.07,8.61-56.17,27.18-56.17,48.47C75.74,320,120.14,344,175,344s99.2-24,99.2-53.91C274.61,269.71,252,251.13,218.44,242.53Zm93.77,92a61.48,61.48,0,0,1,3.62-19c10.42,5,24,7.25,34,7.25,17.22,0,27.18-5.44,27.18-16.77,0-10.87-7.24-15.85-24.46-23.55L343,278.77c-17.67-7.71-29.45-17.67-29.45-37.15,0-21.29,14.95-34.88,44.85-34.88a102.9,102.9,0,0,1,34,5.43,71.51,71.51,0,0,1-3.63,18.58,98.09,98.09,0,0,0-30.8-5.44c-16.31,0-23.56,6.34-23.56,16.31,0,9.51,7.25,15.4,20.39,20.84l10,4.07c23.56,10,33.52,20.84,33.52,39,0,21.29-16.3,36.24-48,36.24C335.31,341.73,322.62,339.47,312.21,334.48Zm186.18-89.24v93.32h-19l-.9-11.32c-5.44,8.15-13.14,13.59-26.28,13.59-24.46,0-41.22-18.12-41.22-49.38,0-32.62,17.67-51.64,52.09-51.64C476.64,240.26,488,241.62,498.39,245.24Zm-20.39,72V258.83c-4.07-.9-9.06-.9-14.95-.9-21.29,0-31.25,13.13-31.25,34,0,19,7.7,32.62,25.82,32.62A35.58,35.58,0,0,0,478,317.27Zm125.48-41.22v62.51H583.1V279.67c0-14.95-5-21.74-25.37-21.74a107.36,107.36,0,0,0-16.31,1.36v79.27H521V245.24c13.13-3.17,27.63-5.43,37.14-5.43C592.61,240.26,603.48,253.4,603.48,276.05Zm57.08,47.56c5.89,0,11.78-.9,15.85-2.72-.45,5.44-1.35,11.78-2.26,17.22a46.37,46.37,0,0,1-17.21,3.17c-19.94,0-32.62-9.06-32.62-31.71v-98.3a63.63,63.63,0,0,1,20.38-3.17v35.33h32.62c-.45,6.34-.91,12.23-1.81,17.67H644.7v45.75C644.7,318.63,650.59,323.61,660.56,323.61Zm110.08-78.37v93.32h-19l-.9-11.32c-5.44,8.15-13.14,13.59-26.28,13.59-24.46,0-41.22-18.12-41.22-49.38,0-32.62,17.67-51.64,52.09-51.64,13.59.45,24.47,1.81,35.34,5.43Zm-20.84,72V258.83c-4.08-.9-9.06-.9-14.95-.9-21.29,0-31.26,13.13-31.26,34,0,19,7.7,32.62,25.82,32.62C738,324.06,744.82,321.35,749.8,317.27Zm125.93-41.22v62.51H854.89V279.67c0-14.95-5-21.74-25.36-21.74a107.25,107.25,0,0,0-16.31,1.36v79.27H792.83V245.24c13.14-3.17,27.64-5.43,37.15-5.43,34.43.45,45.75,13.59,45.75,36.24Zm103.74-68V338.56h-19l-.9-11.78c-5.44,8.61-13.14,14.05-26.73,14.05-24.46,0-41.22-18.12-41.22-49.38,0-32.62,17.66-51.64,52.09-51.64a84.28,84.28,0,0,1,15.4,1.36V210.36C965.43,208.55,972.67,208.1,979.47,208.1ZM959.08,317.27V259.74a99.3,99.3,0,0,0-16.3-1.81c-20.39,0-29.9,12.68-29.9,34,0,19,7.7,32.62,25.82,32.62a36.82,36.82,0,0,0,20.38-7.25Zm123.67-18.57h-65.68c2.72,16.76,12.23,24.46,30.8,24.46a73.15,73.15,0,0,0,32.62-7.25c-.91,5.44-1.82,12.68-3.17,18.57-9.52,4.08-19,5.89-30.36,5.89-34.42,0-50.73-19-50.73-50.73,0-27.64,12.68-49.83,45.3-49.83,29.44,0,42.13,19,42.13,42.58,0,6.34,0,10.87-.91,16.31Zm-65.68-17.22h46.2c0-15.4-8.15-24.46-22.19-24.46C1026.13,257.47,1018.43,265.63,1017.07,281.48Zm137.71-40.31a92.67,92.67,0,0,1-1.81,17.66c-5-.45-9.52-.9-15.41-.9-5,0-10,.45-14.94.9v79.73h-20.39V245.24c8.61-3.17,23.56-5.43,34.88-5.43C1143,240.26,1150.25,240.26,1154.78,241.17Z"/></g></g></svg>