<svg xmlns="http://www.w3.org/2000/svg" viewBox="0 0 1230.52 500"><g id="ecoVaucher"><path d="M180.79,360.45c-21.67-.94-43.17-3.09-64.39-7.82-5-1.12-7.14-3.1-7-8.5.35-14.33.31-28.67,0-43-.11-5.83,1.56-6.5,6.84-4.6a189.9,189.9,0,0,0,65.47,11.24c9.82,0,19.52-1.19,28.3-6.14,7.32-4.13,11.2-10.36,10-18.89-1.13-8.36-6.87-12.72-14.59-14.4a134.26,134.26,0,0,0-15.41-1.9c-15-1.46-29.64-4.22-43.33-10.6-25.36-11.81-40.36-31.42-41.5-59.7-1.16-28.86,11-51.32,36-66.34,14.44-8.68,30.47-12.52,47-13.54,30.36-1.88,60.26,1,89.41,10.34,5.53,1.78,7.74,4.37,7.54,10.33-.43,13.1-.4,26.23,0,39.33.2,6.57-1.3,7.83-7.64,5.3A187.12,187.12,0,0,0,208,167.8c-7.32,0-14.63.45-21.54,3.36-7.44,3.14-11.93,8.32-11.77,16.74.17,8.64,5.37,13.14,13,15.64s15.66,2.24,23.5,3.23c14.63,1.86,28.8,5.25,42.07,11.77,51.11,25.13,55.63,92.06,8.35,124-19.4,13.11-41.45,17.09-64.33,17.86C191.77,360.61,186.28,360.45,180.79,360.45Z"/><path d="M375.39,292.08c0,19.15-.24,38.31.13,57.45.12,6.27-1.55,8.49-8.1,8.32-16.77-.43-33.56-.35-50.33,0-5.64.11-7.22-1.7-7.21-7.28q.25-107.53,0-215.07c0-5.36,1.66-7.46,6.93-8.39,16.81-3,33.62-6.1,50.27-9.9,7.47-1.7,8.5.78,8.45,7.49-.29,36-.15,72-.12,108,0,2,.24,4.06.5,8.07a193.31,193.31,0,0,0,30.95-50.9c3-7.31,6.51-10,14.58-9.71,18.59.71,37.22.52,55.83.08,7.44-.17,8,2,5.65,8.37-9.51,25.61-21.79,49.73-38.28,71.54-3.68,4.87-3.95,8.44-1,13.8,13.35,24,25.83,48.4,35,74.4,2.83,8,.92,9.76-7.19,9.56-20.12-.51-40.27-.35-60.41-.05-5.74.08-8.45-1.27-10-7.41A232.71,232.71,0,0,0,382.9,300.7c-1.61-3.16-3.45-6.19-5.19-9.29Z"/><path d="M770.6,237.24c0,37.52-.15,75,.15,112.56,0,6.46-1.85,8.32-8.22,8.16-16.16-.42-32.34-.29-48.5,0-5,.07-6.86-1.27-6.85-6.62q.24-108.92,0-217.81c0-4.95,1.56-6.95,6.47-7.73,16.57-2.66,33.14-5.37,49.54-8.85,7-1.49,7.49,1.28,7.47,6.86C770.53,161.58,770.6,199.41,770.6,237.24Z"/><path d="M862.55,236.7c0,37.52-.18,75.05.17,112.57.07,7-2,8.8-8.75,8.6-15.85-.49-31.73-.34-47.59-.06-5.33.09-7.44-1.14-7.43-7q.28-108.45,0-216.9c0-5.49,1.9-7.36,7.07-8.18,16.26-2.59,32.52-5.29,48.62-8.7,7.09-1.5,8.06.85,8,7.13C862.43,161.65,862.55,199.17,862.55,236.7Z"/><path d="M494.7,297.94c0-16.77-.73-33.58.16-50.3,1.77-33.16,19.7-55,51.54-64.37,14.78-4.33,29.93-5.42,45.27-5.15,5.44.09,7.5,2,7.36,7.6-.33,13.11-.21,26.23,0,39.35,0,4.12-1.07,6.28-5.61,6.15a39.07,39.07,0,0,0-8.14,1.06c-18.64,3.53-26,11.14-26.58,30.29-.78,26.52-.49,53.07-.6,79.61-.06,15.53,0,15.53-15.28,15.53-14,0-28.07-.2-42.1.1-5.23.11-6.83-1.62-6.76-6.79.26-17.69.1-35.38.1-53.07Z"/><path d="M617.55,269.21c0-26.81.17-53.62-.12-80.42-.07-6.22,1.51-8.54,8.09-8.36,15.83.44,31.69.34,47.52,0,5.71-.11,8.07,1.29,8.05,7.57q-.33,81.33,0,162.67c0,5.65-1.68,7.32-7.24,7.22-16.45-.32-32.91-.35-49.36,0-5.83.13-7.09-1.95-7-7.39C617.69,323.44,617.55,296.32,617.55,269.21Z"/><path d="M680.08,133.06A31.14,31.14,0,0,1,649.44,164a31.51,31.51,0,0,1-31.57-31.12c0-17.14,14.24-31.5,31.28-31.44A31.17,31.17,0,0,1,680.08,133.06Z"/><path d="M1099.41,338V308.74c0-10.43,7.64-15,16.73-9.07,2.87,1.87,3.46,1.09,5.52,0,10.14-5.27,21.37-2.15,26.47,8,6.06,12.05,6.22,24.74.81,37.06-4.44,10.11-14.62,14.41-25.13,10.11-6.4-2.63-6.56-.12-6.27,4.7.13,2.12,0,4.26,0,6.39,0,11-4.15,14-14.85,11.27-4-1-3.24-3.83-3.26-6.38C1099.37,359.87,1099.42,348.91,1099.41,338Zm18.25-12.18c0,3.16.12,5.61,0,8-.28,4.65,1.41,7.73,6.33,8.35s8.44-1.33,9.55-6.32a31.14,31.14,0,0,0,.88-9.05c-.5-6.47.61-15-8.86-15.3C1114.59,311.2,1118.55,320.52,1117.66,325.78Z"/><path d="M1067.29,297.14c17.4-.11,25.29,7.65,25.63,23.76.21,9.72-1.16,19.55,1.38,29.12,1.21,4.54-.94,5.64-4.62,5.16-4.53-.59-9.5,2-13.52-3-2.38-3-4.7,1.14-6.91,2.18-13.5,6.39-27.61-2.35-26.68-16.61.5-7.72,4.94-12.4,11.89-14.52,4.31-1.31,9-1.4,13.48-2.13,2.45-.39,6,1.16,6.56-3a6.76,6.76,0,0,0-2.68-6.48c-2.76-2-6.46-2.39-8.22.4-3,4.77-7.24,3.68-11.3,3.65-2.58,0-6.18,1.42-7.5-1.56-1.48-3.32.74-6.51,3-9C1053.26,299,1060.63,297.39,1067.29,297.14Zm2.64,34.05c-5.28.13-9.26,1.11-9.22,6.84,0,3.77,2.57,5.47,5.91,5.21,4.36-.34,8.21-1.58,8.3-7.35C1075,331.5,1072.61,331,1069.93,331.19Z"/><path d="M1005.93,323.65c0-6.7-.59-13.47.15-20.1,1-8.71-1.77-12.44-10.85-11.09-2.81.42-7,1.53-8.46-1.44-1.34-2.72-1-6.58-.56-9.82.57-4,4.26-2.61,6.71-2.63,14.94-.12,29.88.12,44.81-.16,5.06-.09,7,1.3,6.91,6.64-.1,5.16-1,8.39-7,7.55-1.2-.16-2.46.15-3.65-.05-7.75-1.27-10.6,1.3-10.13,9.7.8,14.28,0,28.64.33,43,.17,6.63-.2,10.36-8.86,10.4-9,.05-9.92-3.81-9.46-10.93S1005.93,330.66,1005.93,323.65Z"/><path d="M943.37,317.34c0,10-.52,20.09.17,30.06.55,7.89-3.58,7.81-9.35,8-6.4.22-9.33-1.05-9-8.39.61-13.64-.27-27.36.35-41,.35-7.51-1.7-10.76-9.41-9.4-6.53,1.15-8.41-1.88-8.07-8.13.22-4.21,2.41-5.06,5.6-5.57,7.79-1.23,15.64-2.21,23.37-3.75,4.86-1,6.55.33,6.42,5.36C943.18,295.46,943.37,306.4,943.37,317.34Z"/><path d="M973.54,329a79.86,79.86,0,0,0-8.19.05c-5.62.56-8.16-1-8.07-7.43.08-6,2.54-7.15,7.69-6.82s10.31.07,15.47.07c4.76,0,9.47-1.27,9.4,6.84-.07,7.43-3.64,7.73-9,7.32C978.41,328.88,976,329,973.54,329Z"/></g></svg>