<svg xmlns="http://www.w3.org/2000/svg" viewBox="0 0 1230.52 500"><g id="STICPAY"><path d="M546,336.41c-38.26-13.92-54.37-37-54.8-77.73-.39-38.08,7.57-73.69,31.26-104.52,35.94-46.79,100.36-44.78,141.65-19.95,1.61,1,2.82,5.24,2,7.07-5.06,12-10.47,23.89-16.48,35.45-.9,1.73-5.91,2.84-8.33,2.08-11.66-3.67-22.79-9.47-34.65-11.9-16.82-3.44-30.16,4.5-39.54,18.05-17.26,25-22.12,52.89-17.29,82.39,2.32,14.15,12.9,23.27,27.35,21.75,15.08-1.59,29.93-6,44.62-10.05,6-1.65,8.18-1.72,7.93,5.19-.4,10.76-.54,21.56.05,32.3.38,6.84-2.44,10.16-8.6,11.9-9,2.54-17.84,5.3-26.75,8Z"/><path d="M100.82,271.76c14.5,5.58,28.71,12.19,43.59,16.46,15.37,4.41,26.84.7,30.32-7.86,5.32-13-3.78-20.45-12-28-7-6.48-14.46-12.56-20.87-19.58-21.1-23.11-26-49.72-12.8-77.9S167.77,116.2,197,117.57c17.67.83,35.09,7.59,52.53,12,5.3,1.35,6.88,4.81,4.25,10.32-5,10.4-9,21.25-14.23,31.5-1.06,2.07-6.07,3.76-8.68,3.15-11.43-2.67-22.48-7.44-34-8.94-5.24-.68-14.27,3.11-16.15,7.29-2.35,5.22-1.08,14.18,2.2,19.24,4.76,7.33,12.39,13,19.38,18.69,28.67,23.29,37.92,52.62,26.34,84.85-8.53,23.75-27.48,34.74-50.54,40.7H131.11l-30.29-12Z"/><path d="M960.27,335.13c-27.33,0-27.81,0-27.84-27.16,0-9.83-2.77-13.19-12.8-12.6-13.82.81-27.76-.23-41.59.51-3.54.18-8.32,3.26-10,6.36-5.68,10.27-7.53,25.81-15.9,30.58-9.79,5.57-24.88,2.16-37.68,2.28-19.09.18-19.38-.09-11.31-16.76Q849.47,222.55,896.4,127c1.56-3.16,6.59-6.43,10.11-6.55q28.35-1,56.74,0c2.88.1,7.83,4.61,8.07,7.4q8.61,100.23,16,200.54c.15,2.07-3.63,6.08-5.92,6.36C974.46,335.66,967.33,335.12,960.27,335.13Zm-30-167-4,.09c-10.59,24.32-21.12,48.68-31.82,72.95-2.09,4.75-1.56,6.95,4.22,6.8,8.56-.22,17.16.29,25.68-.36,2.12-.16,5.68-3.55,5.71-5.5C930.37,217.47,930.24,192.81,930.24,168.15Z"/><path d="M726.07,119.55c13.34.7,26.85.27,40,2.3,42.84,6.64,63.22,38.68,53.61,82.89-6.89,31.72-32.62,53.87-68,58.18-8.23,1-16.67.55-24.83,1.85-3,.48-7.15,3.73-7.77,6.4-4.32,18.78-7.55,37.81-12,56.56-.7,3-5.53,6.9-8.64,7.07-13.83.77-27.74.59-41.6,0-2-.08-5.68-4.54-5.33-6.35q19.77-100.61,40.57-201c.61-2.91,5.67-6.53,9-6.94,8.2-1,16.61-.33,24.94-.33ZM765.36,188c.12-13-7.43-20.65-19.93-19.44-2.38.23-5.9,3-6.45,5.26-2.94,11.84-5.38,23.83-7.24,35.88-.28,1.82,3.22,5.92,5.23,6.1C752.92,217.2,765.2,204.88,765.36,188Z"/><path d="M1087.65,196.42c13.31-24.1,25.37-46.61,38.28-68.63,2.12-3.63,7.81-7,12.06-7.29,14.57-.89,29.23-.41,43.86-.27,2.39,0,4.77,1,7.16,1.53-.78,2.47-1.07,5.26-2.43,7.36-23,35.34-45.74,70.81-69.3,105.76A94.37,94.37,0,0,0,1102,272.66c-3.09,18.24-7.4,36.29-10.84,54.48-1.13,6-3.81,8.34-10.12,8.13-13.1-.43-26.23-.34-39.34,0-6.33.14-8.51-1.53-7.05-8.24q7.11-32.62,13.22-65.48c1.05-5.7,1.39-12,0-17.59q-14-57.27-29-114.3c-2-7.7.08-9.79,7.62-9.57,12.85.38,25.74.47,38.58,0,7.79-.3,10.43,2.9,11.4,10.23,2.64,19.84,6,39.57,9.13,59.34A69.89,69.89,0,0,0,1087.65,196.42Z"/><path d="M344,120.16c21.18,0,42.37.15,63.54-.08,7-.08,9.55,1.91,7.64,9.27C412.43,140,411.11,151,408,161.57c-.92,3.13-5.49,7-8.73,7.32a169.32,169.32,0,0,1-27.95.25c-7-.4-9.7,2.25-11,8.91-9.51,49.13-19.46,98.17-28.92,147.31-1.37,7.11-3.78,10.4-11.66,10a303,303,0,0,0-35.53,0c-9.22.58-11-2.28-9.23-11,9.93-48,19.15-96.2,29.09-144.22,1.79-8.68-.5-11.41-9.11-10.91s-17.14,0-25.71.09c-5.21.05-7.3-1.75-6-7.31,2.42-10.22,5-20.49,6.21-30.89,1.06-9.16,5.48-11.27,14-11.06C303.67,120.5,323.85,120.15,344,120.16Z"/><path d="M419.57,335.14c-5.8,0-11.64-.45-17.39.11-8.76.86-11.3-1.64-9.39-10.8,11.67-55.86,22.78-111.82,34.08-167.76,2-9.81,3.41-19.78,6.22-29.35.87-2.94,5.37-6.68,8.38-6.84,14.08-.72,28.22-.17,42.34-.4,6.14-.1,7.18,2.57,6.09,7.92-13.59,66.7-27,133.43-40.89,200.07-.58,2.79-5.18,6.26-8.3,6.73C433.8,335.83,426.63,335.13,419.57,335.14Z"/></g></svg>