<svg width="24" height="28" viewBox="0 0 24 28" fill="none" xmlns="http://www.w3.org/2000/svg">
<path d="M16.32 0.666748H11.128C8.776 0.666748 6.912 0.666748 5.45467 0.864081C3.95333 1.06675 2.73867 1.49341 1.78133 2.45475C0.822667 3.41608 0.397333 4.63608 0.196 6.14275C9.93411e-08 7.60675 0 9.47741 0 11.8387V19.6227C0 21.6334 1.22667 23.3561 2.96933 24.0787C2.88 22.8654 2.88 21.1654 2.88 19.7494V13.0694C2.88 11.3614 2.88 9.88808 3.03733 8.70941C3.20667 7.44541 3.588 6.23475 4.56667 5.25208C5.54533 4.26941 6.752 3.88675 8.01067 3.71608C9.184 3.55875 10.6507 3.55875 12.3533 3.55875H16.4467C18.148 3.55875 19.612 3.55875 20.7867 3.71608C20.4347 2.81791 19.8202 2.04661 19.0235 1.50269C18.2268 0.958774 17.2847 0.667472 16.32 0.666748Z" fill="#2D7CF2"/>
<path d="M4.80005 13.196C4.80005 9.56135 4.80005 7.74402 5.92538 6.61469C7.04938 5.48535 8.85871 5.48535 12.48 5.48535H16.32C19.94 5.48535 21.7507 5.48535 22.876 6.61469C24 7.74402 24 9.56135 24 13.196V19.6227C24 23.2574 24 25.0747 22.876 26.204C21.7507 27.3334 19.94 27.3334 16.32 27.3334H12.48C8.86005 27.3334 7.04938 27.3334 5.92538 26.204C4.80005 25.0747 4.80005 23.2574 4.80005 19.6227V13.196Z" fill="#2D7CF2"/>
</svg>
