<svg width="36" height="36" viewBox="0 0 36 36" fill="none" xmlns="http://www.w3.org/2000/svg">
<path d="M25.4968 30.4167C24.043 31.8415 22.4557 31.6166 20.9277 30.9417C19.3107 30.2517 17.8272 30.2218 16.1212 30.9417C13.985 31.8715 12.8576 31.6016 11.5818 30.4167C4.34243 22.8727 5.41054 11.3841 13.629 10.9642C15.6317 11.0692 17.0262 12.074 18.1981 12.164C19.9486 11.8041 21.6249 10.7692 23.4941 10.9042C25.7342 11.0842 27.4253 11.9841 28.5379 13.6039C23.9095 16.4085 25.0073 22.5727 29.25 24.2975C28.4044 26.5472 27.3066 28.7819 25.482 30.4317L25.4968 30.4167ZM18.0498 10.8742C17.8272 7.52962 20.5123 4.76997 23.598 4.5C24.0282 8.36951 20.1266 11.2491 18.0498 10.8742Z" fill="white"/>
</svg>
