<svg xmlns="http://www.w3.org/2000/svg" viewBox="0 0 1230.52 500"><g id="Kotak"><path id="Path_1" data-name="Path 1" d="M825.15,172h-11a8.23,8.23,0,0,0-8.27,8.26v22h0V296c0,32.13,20.2,56,52.34,56h20.2a8.23,8.23,0,0,0,8.26-8.27v-7.34a8.23,8.23,0,0,0-8.26-8.27H861.87c-21.12,0-28.46-13.77-29.38-42.23h0V228h45a8.23,8.23,0,0,0,8.27-8.26v-8.27a8.23,8.23,0,0,0-8.27-8.26h-45v-22c0-4.59-2.75-8.26-7.34-8.26.91-.92.91-.92,0-.92"/><path id="Path_2" data-name="Path 2" d="M1067.55,202.31h-13.77a48.77,48.77,0,0,0-40.4,17.45A48.78,48.78,0,0,0,973,202.31H959.2c-34,0-54.17,25.71-54.17,57.85v82.63a8.23,8.23,0,0,0,8.26,8.27h11a8.23,8.23,0,0,0,8.26-8.27v-78c0-20.2,9.19-37.65,33.06-37.65s32.14,17.45,32.14,37.65v78a8.23,8.23,0,0,0,8.26,8.27h11a8.23,8.23,0,0,0,8.26-8.27v-78c0-20.2,9.18-37.65,33.06-37.65s32.13,17.45,32.13,37.65v78a8.24,8.24,0,0,0,8.27,8.27h10.1a8.23,8.23,0,0,0,8.26-8.27V260.16c3.67-32.14-16.53-57.85-49.58-57.85"/><path id="Path_3" data-name="Path 3" d="M762.71,202.31c-34,0-54.18,25.71-54.18,57.85v82.63a8.24,8.24,0,0,0,8.27,8.27h11a8.23,8.23,0,0,0,8.26-8.27v-78c0-20.2,9.18-37.65,33-37.65h11a8.23,8.23,0,0,0,8.27-8.26v-7.35a8.23,8.23,0,0,0-8.27-8.26l-17.44-.92Z"/><path id="Path_4" data-name="Path 4" d="M675.48,186.7H662.62c-4.59,0-9.18-4.59-9.18-9.18V164.66c0-4.59,4.59-9.18,9.18-9.18h12.86c4.59,0,9.18,4.59,9.18,9.18v12.86c0,4.59-4.59,9.18-9.18,9.18"/><path id="Path_5" data-name="Path 5" d="M624.06,246.38C607.53,207.82,562.54,189.45,524,206s-56.93,61.52-40.4,100.09a76.16,76.16,0,0,0,70.7,46.82h23c4.59,0,8.27-1.83,8.27-7.34v-10.1c0-4.59-4.6-7.35-8.27-7.35h-22c-26.62-1.83-48.66-23-49.58-50.5-.92-26.63,20.2-49.58,47.75-50.5h1.83a49.74,49.74,0,0,1,41.32,22c4.59,8.26,7.35,16.52,7.35,26.63v67.94a8.23,8.23,0,0,0,8.26,8.27h10.1a8.24,8.24,0,0,0,8.27-8.27V275.77c0-10.11-2.76-20.21-6.43-29.39"/><path id="Path_6" data-name="Path 6" d="M663.54,352h10.1a8.24,8.24,0,0,0,8.27-8.27V211.49a8.23,8.23,0,0,0-8.27-8.26h-11a8.22,8.22,0,0,0-8.26,8.26V343.71c0,4.59,4.59,8.27,9.18,8.27h0"/><path id="Path_7" data-name="Path 7" d="M345.85,217.92c1.83-41.32-23.88-79-63.36-90.9-8.26-1.84-17.45-3.68-25.71-3.68h-5.51c-27.54,1.84-51.42,16.53-67,38.57-21.12-6.43-43.15-4.59-60.6,7.34a77.22,77.22,0,0,0-35.81,54.18C64,238.12,49.27,264.75,51.1,292.29c1.84,39.49,34,69.79,73.46,70.7h37.65c.91,0,.91-.91,1.83-1.83l1.84-19.28c0-.92,0-.92-.92-1.84,0-.92-.92-.92-1.84-.92H121.81A47.92,47.92,0,0,1,86,323.51c-9.19-10.1-13.78-23.87-13.78-37.64a55.93,55.93,0,0,1,31.22-45l3.67-1.83c.92,0,.92-.92.92-1.84l.92-8.26c.92-15.61,11-30.3,24.79-38.57a47.86,47.86,0,0,1,26.63-8.26,53.82,53.82,0,0,1,20.2,4.59l9.18,4.59h1.84v-.92l6.43-11c11-19.28,31.22-31.21,53.25-33a100.31,100.31,0,0,1,23.87,2.75A68.88,68.88,0,0,1,322,220.67l-1.83,11.94a2,2,0,0,0,1.83,1.84l11,2.75a49.38,49.38,0,0,1,35.81,49.58c.92,27.55-21.12,51.42-48.66,51.42H287.08c-.92,0-.92,0-1.83.92,0,.92-.92.92-.92,1.84l1.83,19.28a2,2,0,0,0,1.84,1.84h33.05c40.41-.92,72.54-34.9,71.62-75.3C391.76,256.48,374.31,229.86,345.85,217.92Z"/><path id="Path_8" data-name="Path 8" d="M210.87,302.39a77.46,77.46,0,0,1-35.81,5.51L169.55,408c0,4.59,2.76,8.26,7.35,8.26h96.41a8.83,8.83,0,0,0,8.26-6.43V408l-6.43-98.25C254,315.25,231.07,312.49,210.87,302.39Zm16.53,79.89v7.34a2.76,2.76,0,1,1-5.51,0h0v-7.34A22,22,0,0,1,209,377.69,4.8,4.8,0,0,1,207.2,374a4.34,4.34,0,0,1,4.59-4.59c1.84,0,1.84,0,2.75.92a18.5,18.5,0,0,0,10.1,2.75c4.6,0,7.35-1.83,7.35-5.51,0-2.75-1.84-4.59-7.35-4.59h-2.75c-10.1-1.83-14.69-5.51-14.69-13.77A13.52,13.52,0,0,1,221,335.45V329a2.93,2.93,0,0,1,2.76-2.75,2.43,2.43,0,0,1,2.75,2.75v5.51c3.67,0,7.35,1.84,11,2.75,1.84.92,2.75,2.76,1.84,4.6,0,1.83-1.84,4.59-3.68,4.59h0a3.36,3.36,0,0,1-2.75-.92,17.28,17.28,0,0,0-7.35-1.84h-1.83c-2.76,0-5.51,1.84-5.51,4.59v.92c0,2.76,1.83,4.59,7.34,4.59h2.76c10.1,1.84,14.69,5.51,14.69,13.77a14.51,14.51,0,0,1-14.69,14.7Z"/><path id="Path_9" data-name="Path 9" d="M1144.68,183v18.36h-4.59V183h-7.35v-3.68h18.36V184l-6.42-.92Zm31.22,18.36V186.7l-6.43,13.77h-3.67l-6.43-13.77v13.77h-4.59V179.35h6.43l6.42,15.61,6.43-15.61h5.51v23l-3.67-.92Z"/></g></svg>