<svg xmlns="http://www.w3.org/2000/svg" viewBox="0 0 1230.52 500"><defs><style>.cls-1{fill-rule:evenodd;}</style></defs><g id="Paypal"><g id="g44"><g id="g42"><path id="path4" d="M152.21,127.17c-.52,0-1,0-1.58,0-10.33.36-19.84,3.52-29,7.88-13.08,6.22-25.22,13.86-34.57,25.17-8.33,10.08-8.51,19.27-.82,29.72,4.67,6.35,9.53,12.56,14.29,18.8-.58.73-1.33.69-2,.86-9.37,2.5-18.74,5-27.91,8.2C59,221.9,52,229.71,50.53,242.21a99.42,99.42,0,0,0,.81,28.72C53.5,283.5,57,295.67,63.91,306.55c4,6.34,9.37,11,17.31,11.72,4.38.39,8.42-1,12.44-2.37,6.89-2.39,13.75-4.86,20-7,0,7.16.13,14.38,0,21.6a81.83,81.83,0,0,0,1,17.48c1.83,9.54,8.5,14.86,16.68,18.76,14.91,7.11,30.79,9.47,47.12,9.27,6.94-.09,13.84-.77,20.48-3.14,10.26-3.66,15.15-10.46,15.1-21.27q0-9.07-.21-18.15c0-2.31-.27-4.61-.43-7.31,1.88.74,3.24,1.3,4.61,1.82,8.15,3.06,16.31,6.1,24.62,8.72,12.2,3.83,22.52,1.41,31.33-8.1A101.56,101.56,0,0,0,291.05,303c5.28-11.07,9.33-22.53,9.73-34.95s-4.77-19.72-16.66-23.48c-6.79-2.15-13.63-4.14-20.5-6-2.23-.61-2.75-1-1-3,6.56-7.94,13.15-15.88,18.75-24.57,5.82-9,6.28-18.19,1.44-27.86-6.67-13.34-16.45-24-28-33.11-7.39-5.87-15.16-11.16-24.4-13.83-10.74-3.09-18.85-.27-25.15,8.81-4.13,5.94-8.27,11.87-12.25,17.92-1.37,2.08-2.25,2.41-3.37,0a5.88,5.88,0,0,0-.44-.77c-5.73-8.69-11.13-17.6-18-25.5-5.09-5.87-11.25-9.19-19-9.33ZM176,168.39a87.59,87.59,0,0,1,9.41.42c3.4.32,3.39.36,1.68,3.2-4.44,7.4-8.61,14.94-11,23.78-4.11-7.41-10.55-7.9-17.48-6.82-4.91.76-9.55,2.55-14.22,4.19a33.45,33.45,0,0,1-8.35,2.05c-3.7.31-6.3-1.18-7.48-4.11-1-2.6-.3-5.26,2.56-7.58a64.61,64.61,0,0,1,17.53-9.91A76.8,76.8,0,0,1,176,168.39Zm44.33,16.23a7.58,7.58,0,0,1,4.32,1.38,63.3,63.3,0,0,1,14.9,13.57c8.4,10.12,13.48,21.84,16.35,34.6.47,2.09,0,2.28-2,1.84-8.61-1.93-17.25-3.82-26.84-3.28,5.7-6.36,4.32-12.59,1.07-18.86a75.73,75.73,0,0,0-7.53-11,36,36,0,0,1-5.48-8.81c-1.28-3.3-.73-5.88,1.56-7.86A5.83,5.83,0,0,1,220.37,184.62ZM176.45,204.3c9.61,16.37,24.6,26.23,42.69,31.3-12.74,14.26-17.42,31.61-16.56,50.28-17.47-7.58-35.43-6.89-53-.26,1.8-19-4.4-35.89-16.24-50.54C152,231.32,165.85,219.94,176.45,204.3ZM104,212.76c6.49,7.08,12.62,14.44,21.08,20-9.14,2.26-11.15,9.06-11.93,16.76-.65,6.32.33,12.68-.49,19a16.93,16.93,0,0,1-.58,2.9c-1,3.21-3.22,5.17-6.11,5.2-3,0-5-1.73-6.12-4.39a57.89,57.89,0,0,1-3.63-14.36c-2.19-15.38.73-30,7-44A9.31,9.31,0,0,1,104,212.76ZM245.53,267.3a6,6,0,0,1,3.16.87c2.61,1.51,3.6,4.22,2.66,8.11a53.87,53.87,0,0,1-5.07,12.31C239.23,302,228.77,312.16,215.89,320c-2.08,1.26-3,1.41-3.16-1.48-.58-8.59-1.74-17.1-4.89-25.9,7.46,3.24,12.82.36,17.64-4.36,3.49-3.41,6.2-7.45,9-11.44a40.43,40.43,0,0,1,5.66-6.85A8.39,8.39,0,0,1,245.53,267.3ZM144.75,292.77c-.8,8.58,4.23,12.75,10.76,15.89,4.67,2.24,9.68,3.49,14.57,5.08,2.93.95,5.82,2,8.23,4a6.13,6.13,0,0,1,2.24,6.36,5.68,5.68,0,0,1-4.87,4.59c-5.25,1.05-10.48.2-15.65-.69-15.79-2.74-29.19-10.17-41.14-21.32C128,302.74,136.77,299,144.75,292.77Z"/><path id="path6" d="M411.45,179.83c-1.07,0-2.15,0-3.23,0-2.87,0-5.75.1-8.62.21a291.37,291.37,0,0,0-30.8,2.45c-2,.29-2.51.93-2.51,2.92q.1,63.56,0,127.1c0,2,.45,2.84,2.52,3,5.43.35,10.85,1,16.29,1.29,17.05.86,34.08,1,50.93-2.41,11.72-2.37,22.29-6.85,30-16.58,11.91-15.05,9.39-36.77-5.62-48.15-4.32-3.27-9.24-5.3-14.78-7a56,56,0,0,0,9.08-4.43c16.59-10.22,19-32.17,4.75-45.48-7.11-6.67-16.08-9.58-25.46-11.16a140.81,140.81,0,0,0-22.54-1.74ZM412.72,203a45,45,0,0,1,12.91,1.79c6.91,2.09,10.36,6.27,10.7,12.61.32,5.79-3.12,10.77-9.34,13.48-4.71,2.06-9.72,2.71-14.78,3-4,.19-8.13,0-12.19.08-1.57,0-2.06-.49-2-2,.09-4.37,0-8.73,0-13.1s.06-8.53,0-12.79c0-1.31.28-2.09,1.67-2.22C404,203.33,408.38,202.93,412.72,203Zm-6.54,53.5c6.68-.06,13.36,0,19.87,2,6.91,2.16,12.35,6,13.48,13.76,1.39,9.59-4.44,17.3-14.94,20A47.9,47.9,0,0,1,409,293.5c-2.87,0-5.74-.05-8.61,0-1.73,0-2.4-.53-2.38-2.41.08-10.9,0-21.8,0-32.71,0-1.07,0-1.93,1.48-1.91,2.22,0,4.45,0,6.68,0Z"/><path id="path8" class="cls-1" d="M844.93,217.41c15.88-12.48,39.5-12.11,51.8,4.42,6.33-5.9,13.58-10.22,22.08-12,11.42-2.39,22.52-1.62,32.63,4.77,9.29,5.86,13.47,15,15.25,25.42a68.78,68.78,0,0,1,.71,11.56c0,20.44,0,40.88.05,61.33,0,2.15-.42,2.86-2.73,2.81-7.33-.16-14.68-.14-22,0-2.24,0-3-.44-3-2.87.11-18.36.07-36.72,0-55.08a45.68,45.68,0,0,0-1-10c-1.94-8.78-6.79-12.86-15.5-13-7.93-.14-13.91,4.46-16,12.39a40.18,40.18,0,0,0-1.22,10.31c0,18.45,0,36.91.06,55.37,0,2.35-.6,3-2.92,2.92q-11-.22-22,0c-2.23.05-2.77-.55-2.76-2.77.1-18.66.05-37.32.05-56a39.75,39.75,0,0,0-1.29-10.59c-2.1-7.69-7.7-11.87-15.49-11.71-8.3.17-13.87,4.59-15.8,12.59a37.61,37.61,0,0,0-.94,8.85c0,18.75-.06,37.51.08,56.26,0,2.83-.85,3.41-3.47,3.35-7.34-.17-14.69-.11-22,0-1.77,0-2.36-.36-2.36-2.26q.11-50.16,0-100.33c0-2.15.85-2.34,2.6-2.33,7.44.08,14.89.16,22.32,0,2.47-.06,3.15.76,2.88,3a33.66,33.66,0,0,0,0,3.67Z"/><path id="path10" d="M750.46,208.4c-12.18.1-24.11,3.7-35.75,10.12-1.37.76-.8,1.44-.32,2.3,2.89,5.19,5.84,10.34,8.59,15.6,1,1.85,1.83,2,3.55,1a49.56,49.56,0,0,1,22.72-6.11c12.16-.32,20.52,4.22,18.33,18.14a9,9,0,0,1-1.41-.31c-11.53-4.39-23.26-4.47-35-1.33-15.25,4.07-25.14,15.71-25.88,30-.91,17.63,7.18,31.33,22.45,37.09,14.11,5.33,27.56,4.08,40.14-5.73a22.38,22.38,0,0,1,0,3.12c-.46,2.75.66,3.47,3.35,3.4,7.24-.19,14.49-.16,21.73,0,2.22.05,2.82-.53,2.81-2.78-.09-22.83.13-45.65-.12-68.47-.15-14.29-6.27-25.6-19.83-31.08a65.8,65.8,0,0,0-25.32-5Zm-1.08,59a40.79,40.79,0,0,1,17,3.64,2.19,2.19,0,0,1,1.52,2.47c-.09,1.68,0,3.37,0,5.05,1.23,9.3-4.14,11.47-9.8,14a22.45,22.45,0,0,1-15.39,1c-6.46-1.77-9.92-6.65-9.69-13.47.21-6.46,3.88-10.8,10.53-12.08a33.92,33.92,0,0,1,5.88-.61Z"/><path id="path12" d="M533.51,208.44c-12.63-.24-25,3.28-37,9.93-1.59.87-1.13,1.59-.49,2.72,2.86,5.08,5.74,10.16,8.44,15.33,1,1.85,1.76,2,3.53,1a49.07,49.07,0,0,1,27.17-5.95c10.8.83,15.52,6.93,13.86,18a6.21,6.21,0,0,1-1.14-.22,54.67,54.67,0,0,0-34.73-1.52c-13,3.53-22.77,11.1-25.55,24.91-2.85,14.12.3,26.86,11.7,36.57,11.92,10.15,34.34,13.06,50-.09a21.69,21.69,0,0,1,0,3.39c-.47,2.72.7,3.27,3.25,3.21,7.34-.17,14.69-.14,22,0,2.11,0,2.63-.59,2.62-2.66-.07-23,.17-46.05-.12-69.07-.19-14.47-6.75-25.59-20.51-30.89A67.35,67.35,0,0,0,533.51,208.44Zm-2.23,59a45.49,45.49,0,0,1,14.93,2.86c2.41.85,3.54,2.13,3.11,4.75a27.25,27.25,0,0,0,0,4c-.52,2.29,1,5.25-1.33,7.79A23.2,23.2,0,0,1,534.65,294a25.48,25.48,0,0,1-8.58.06c-7.23-1.09-11.63-6.13-11.68-13.42,0-7.09,4.26-11.72,11.75-12.83a33.27,33.27,0,0,1,5.14-.37Z"/><path id="path14" class="cls-1" d="M626.35,217.43c14.81-12.42,37.22-10,47.91-3,9.66,6.36,13.56,15.87,14.91,26.82.88,7.11.46,14.26.48,21.4.05,16.66,0,33.33.08,50,0,2.58-.74,3.06-3.14,3-7.33-.16-14.68-.14-22,0-2.25.05-2.79-.59-2.77-2.8.09-19.15.05-38.3.05-57.44,0-4.93-.67-9.73-3.5-13.9-4-6-10-7.3-16.7-6.57s-11.3,4.44-13.75,10.69a26,26,0,0,0-1.55,9.62c0,19,0,38.09.07,57.14,0,2.56-.54,3.36-3.24,3.29-7.43-.22-14.88-.14-22.31,0-1.83,0-2.3-.45-2.3-2.3q.09-50.14,0-100.29c0-2.16.84-2.36,2.59-2.34,7.44.08,14.89.14,22.32,0,2.43-.06,3.18.72,2.9,3a31.3,31.3,0,0,0,0,3.69Z"/><path id="path16" d="M1030.7,208.54c-14.91-.25-30.71,6.86-40,23.64-7.47,13.45-8.9,27.94-6.72,42.93,3.27,22.51,17.62,40.5,43.39,42.58,15.81,1.28,29.75-3.21,41.05-14.75,1.1-1.12,2-2,.27-3.56-3.94-3.46-7.67-7.17-11.53-10.72-3.38-3.11-3.33-3-7.11-.15-7.63,5.7-16.12,7.69-25.2,4.36-8.35-3.06-12.22-9.81-13.64-18.31-.35-2.15.27-2.44,2.17-2.42,9.72.08,19.44,0,29.16,0s19.45-.05,29.17,0c1.93,0,2.8-.38,2.85-2.55.19-7.25.18-14.48-1.25-21.62-2.52-12.6-7.62-23.76-18.27-31.61a42.46,42.46,0,0,0-24.3-7.89Zm-1.23,24.19A19.18,19.18,0,0,1,1036,234c7.11,2.67,10.12,9.81,11,16,.26,1.82-1.12,1.26-1.93,1.27-5.25,0-10.49,0-15.74,0h0c-5.35,0-10.7,0-16,0-1.31,0-1.94-.15-1.79-1.76.93-10.15,8.83-17,18-16.83Z"/><path id="path18" class="cls-1" d="M1080.66,210.79c10.48,0,20.86,0,31.24,0,1.6,0,1.93,1.17,2.49,2.14,4.4,7.62,9.1,15.05,13.18,23.11,4.52-7.78,8.93-15.24,13.16-22.79a4.33,4.33,0,0,1,4.46-2.48c9.79.12,19.58.05,30,.05-2.82,4.35-5.37,8.32-8,12.25q-11.09,16.89-22.22,33.73a3.34,3.34,0,0,0,0,4.4c11.43,17.25,22.74,34.58,34.08,51.89.47.72.93,1.45,1.65,2.58h-14.31c-2.88,0-5.75,0-8.63,0-3.27,0-7.16,1-9.64-.42s-3.88-5.29-5.62-8.14c-5-8.28-10.2-16.5-14.72-25.37-5.79,10.81-12.28,21-18.43,31.33a4.58,4.58,0,0,1-4.64,2.65c-9.8-.14-19.61-.06-30-.06,1.66-2.58,3.06-4.8,4.5-7q15.64-23.83,31.33-47.65a3,3,0,0,0,0-3.95q-14.12-21.28-28-42.69c-.68-1-1.62-2-1.82-3.57Z"/></g></g></g></svg>