<svg id="Layer_1" data-name="Layer 1" xmlns="http://www.w3.org/2000/svg" viewBox="0 0 500 260"><defs><style>.cls-1,.cls-2{fill:#00b62a;}.cls-2{font-size:80px;font-family:Ubuntu-Medium, Ubuntu;font-weight:500;}.cls-2,.cls-6{letter-spacing:-0.01em;}.cls-3{letter-spacing:-0.02em;}.cls-4{letter-spacing:-0.01em;}.cls-5{font-family:Ubuntu-Bold, Ubuntu;font-weight:700;letter-spacing:-0.02em;}</style></defs><path class="cls-1" d="M110.12,200.81a70.83,70.83,0,1,0-71.73-70.76,70.72,70.72,0,0,0,71.73,70.76ZM131.37,120a13.21,13.21,0,0,1,8.29,3.89,15,15,0,0,1,3.18,5.7,18,18,0,0,1-.33,13.21,16.86,16.86,0,0,1-7.92,8.15,71.13,71.13,0,0,1-9.55,4l-.38.16c.6,4.29,2,8.41,3,12.7a79.26,79.26,0,0,1-7.79,2c-1.22-4.11-2.05-8.24-3.23-12.36-2.09,0-4,.85-6,1.24.77,4.31,2.19,8.37,3,12.68-2.48.82-5.08,1.06-7.62,2-1.35-4.17-2.2-8.42-3.29-12.75-5.19,1-10.29,2.32-15.46,3.73-.54-3.19-.53-6.37-.88-9.52a3,3,0,0,1,1.71-.68c1-.2,1.93-.33,2.89-.52,2.73-.55,3.65-1.92,3.12-4.66-.47-2.37-1.28-4.64-1.86-7q-1.27-5.14-2.54-10.28c-.71-2.85-1.44-5.69-2.15-8.53-.61-2.43-1.17-4.87-1.83-7.29a3.65,3.65,0,0,0-4.06-3,10.34,10.34,0,0,0-2.46.44c-1.43.36-2.78,1-4.32,1.23-1-2.67-1.39-5.49-2.3-8.32,5.17-1.41,10.37-2.62,15.6-3.92C87.13,98,86.08,93.8,85,89.6c2.57-.81,5.17-1.26,7.78-2,1.12,4.09,2.13,8.17,3.08,12.35,2-.5,3.85-.91,5.81-1.55-.48-4.17-2-8.08-2.78-12.25,2.53-.75,5-1.41,7.64-1.94,1.38,4.15,2.13,8.38,3.35,12.53l4.45-.36a26.47,26.47,0,0,1,9.09.56,11.48,11.48,0,0,1,7.06,5.43,15.24,15.24,0,0,1,2.47,8.18,11.86,11.86,0,0,1-3.61,8.38c-.19.19-.36.38-.54.58,0,0,0,.08-.06.21.87.11,1.74.19,2.6.3Zm-19.54,28.35a47,47,0,0,0,9.76-3.16,11.65,11.65,0,0,0,5.47-4.73,7,7,0,0,0-2.71-9.81,12,12,0,0,0-6.11-1.18,51.11,51.11,0,0,0-11.5,2.17c-.87.23-1.72.5-2.69.78,1.73,5.55,2.79,11.2,4.33,16.79l3.45-.86Zm-9.51-23.82c.85-.19,1.61-.34,2.37-.52a30.13,30.13,0,0,0,10.07-4.1,9.17,9.17,0,0,0,3.34-3.62c1.18-2.49.45-4.72-1.07-6.75s-3.76-2.66-6.18-2.77a25.76,25.76,0,0,0-7.35,1c-1.66.41-3.3.91-5.06,1.4,1.16,5.23,2.44,10.29,3.88,15.36Z"/><text class="cls-2" transform="translate(194.41 120.84)">Bi<tspan class="cls-3" x="72.4" y="0">tc</tspan><tspan class="cls-4" x="139.6" y="0">oin</tspan><tspan class="cls-5"><tspan x="2" y="80">C</tspan><tspan class="cls-6" x="51.95" y="80">ash</tspan></tspan></text></svg>