<svg id="Layer_1" data-name="Layer 1" xmlns="http://www.w3.org/2000/svg" viewBox="0 0 500 260"><defs><style>.cls-1{fill:#00b700;}</style></defs><path class="cls-1" d="M379.16,196.92c-1.88,5.44-6.51,6.26-11.29,6.36-9.13.17-18.26.12-27.38.1a127,127,0,0,1-13.52-.25c-.54-.06-1.08-.14-1.61-.25-5.33-1.15-6.93-4.51-4.35-9.39,1.79-3.4,4.64-6,7.08-8.9,7-8.27,14-16.47,21-24.7.23-.28.43-.59.82-1.14H331.83a18.07,18.07,0,0,1-6.23-1,7.17,7.17,0,0,1-5.11-7.16c0-3.5,1.69-5.86,5.09-7.15a22.32,22.32,0,0,1,8-1.14q15.74-.09,31.47,0a35.85,35.85,0,0,1,8.57.77c3.19.79,4.55,3,3.74,6.23a15.77,15.77,0,0,1-3.64,6.28Q361,170.42,348.3,185.26c-.27.31-.68.55-.66,1.22h2.05c5.65,0,11.31,0,17,0a27.35,27.35,0,0,1,4.7.38c3.73.61,6.56,2.39,7.81,6.15Z"/><path class="cls-1" d="M120.85,163v-28.7a21.12,21.12,0,0,1,.67-5.31,8.37,8.37,0,0,1,6.46-6.42,18.44,18.44,0,0,1,4.66-.7c8.26,0,16.53-.12,24.79.08a33.58,33.58,0,0,1,14.71,3.73c9.17,4.71,13.73,12.32,14.1,22.52.19,5.33-.53,10.54-3.15,15.29-4.11,7.44-10.79,11.2-18.86,12.88-6.18,1.29-12.45.75-18.68.87-1.34,0-3.07-.58-3.92.28s-.23,2.59-.27,3.93c-.13,4.56.26,9.13-.33,13.68-.61,4.82-3.21,8.19-7.36,8.83-6.36,1-11.17-.9-12.51-8.69a24.63,24.63,0,0,1-.32-4.38Q120.87,176.93,120.85,163Zm20.5-13.5c0,3,.07,6.09,0,9.13,0,1.31.25,1.83,1.67,1.75,2.22-.13,4.46,0,6.68-.05a24.39,24.39,0,0,0,8.17-1.25c2.73-1.06,4.87-2.81,5.62-5.69,1.74-6.64-.27-12.43-8-13.95-4.2-.83-8.45-.39-12.67-.55-1.2,0-1.44.39-1.42,1.49C141.4,143.41,141.35,146.45,141.35,149.49Z"/><path class="cls-1" d="M253.49,172.81c-.18,7,.18,14-.21,21a16.78,16.78,0,0,1-.59,3.36c-1,3.61-3.05,6.19-6.85,6.8-4,.65-7.7-.12-10.31-3.67a12.39,12.39,0,0,1-1-1.5c-.33-.65-.64-.77-1.18-.19-7.67,8.36-24.45,7.69-34,0-17.5-14.08-15.7-42.59,3.66-53.93a27.67,27.67,0,0,1,24.3-2.24A15,15,0,0,1,232.9,146c.87.87,1.29,1,2.11-.14a10.05,10.05,0,0,1,10.1-4.28c4.9.64,7.74,4.14,8.14,9.85C253.73,158.57,253.29,165.7,253.49,172.81Zm-20.36-.3a16.17,16.17,0,0,0-1.43-7.38,12.17,12.17,0,0,0-19.88-3.31c-4.71,4.92-5.17,14.12-1.35,20.19,4.42,7,16.95,7.46,21-1.39A17.79,17.79,0,0,0,233.13,172.51Z"/><path class="cls-1" d="M287.27,177.33c4.1-9.7,8-19,12-28.28a22.17,22.17,0,0,1,1.63-3.18c2.94-4.62,7.33-5.42,12.75-3.36,3.69,1.4,5.22,5.62,4,10.4-.91,3.67-2.83,6.93-4.4,10.32q-13.55,29.33-27.2,58.6a28,28,0,0,1-1.72,2.95c-3.28,5.3-9.49,5-13.45,2.42-2.91-1.89-4-5.53-3.11-9.41a30.71,30.71,0,0,1,2.8-6.57c2-3.93,3.93-7.87,6-11.76a2.88,2.88,0,0,0,.08-2.88c-6.32-13.33-12.58-26.69-18.89-40a12.46,12.46,0,0,1-1.42-7.71c.89-4.87,5.84-8,11.11-7.26a8.33,8.33,0,0,1,7,5.14c3,7,5.91,14,8.85,21C284.56,170.8,285.84,173.89,287.27,177.33Z"/><path class="cls-1" d="M299.77,57.83A92,92,0,0,0,288.59,50a102.24,102.24,0,0,0-34.95-11.82,120.16,120.16,0,0,0-21.25-1.54c-17.81.34-34.94,3.67-50.84,12.06a62.25,62.25,0,0,0-20,16c-10.66,13.32-11.11,29-1.24,42.87a6.42,6.42,0,0,1,.78,1.35,23.34,23.34,0,0,1-4.9-3.91c-5.58-5.3-9.92-11.41-11.62-19-2.16-9.79.47-18.49,6.44-26.3,6.47-8.46,15.11-14.09,24.66-18.45a115,115,0,0,1,34.11-9.24c2.5-.3,5.05-.19,7.5-.92h18.27c1.57.66,3.26.45,4.9.63,18,2,35,6.68,50,17.23a47,47,0,0,1,9.6,8.72Z"/><path class="cls-1" d="M204.8,93.26c-6.72,0-12.32,0-17.91,0-1.31,0-1.46.44-1.17,1.5,1.41,5.12,5.16,7.56,10,8.69,5.23,1.23,10.23.08,15.12-1.78,2.63-1,5.24-2,7.88-3a9,9,0,0,1,4.32-.49c5.24.65,7.83,5.24,5.52,10a16.33,16.33,0,0,1-7.81,7.34,46.65,46.65,0,0,1-19.63,4.67c-6.63.22-13-.74-18.89-3.9-12.26-6.58-18.67-18.16-17-32.56a32.13,32.13,0,0,1,26.25-27.27c12-1.92,22.66.76,31.39,9.53a25.6,25.6,0,0,1,7.88,16.19c.56,6.32-2.5,10.21-8.85,10.86C215.86,93.61,209.76,93.09,204.8,93.26Zm-6.74-12c3.21,0,6.41,0,9.61,0,1.16,0,2.93.55,3.34-.26.6-1.19-.34-2.69-1-4a6.87,6.87,0,0,0-.79-1.22c-3.52-4.51-8.27-5.81-13.65-4.84-5.2.94-8.52,4.19-10.12,9.24-.3.94,0,1.09.85,1.08C190.25,81.22,194.16,81.24,198.06,81.24Z"/><path class="cls-1" d="M357.1,87.78c0,18.72-13.84,32.49-32.15,32.64-7.45,0-14.52-1.14-20.78-5.36-10.46-7-14.94-17-14.25-29.55.85-15.55,13.56-29.6,32.52-29.79,8.13-.08,15.77,1.46,22.33,6.56A30.68,30.68,0,0,1,357,85.43C357,86.35,357.07,87.27,357.1,87.78Zm-46.65.66a16.71,16.71,0,0,0,1.5,7.1c2.16,4.54,5.55,7.44,10.77,7.7,4.95.24,9-1.51,11.48-5.93a17.75,17.75,0,0,0-.23-18.7c-2.39-4-6.16-5.85-10.79-5.74a11.77,11.77,0,0,0-11,7A18.4,18.4,0,0,0,310.45,88.44Z"/><path class="cls-1" d="M268,56a36.62,36.62,0,0,1,14.76,2.83c2.8,1.26,5.21,3,6.25,6.06,2,5.88-2.82,11.38-9.13,10.42a27.36,27.36,0,0,1-5-1.38,20.14,20.14,0,0,0-11.05-1c-5.75,1.22-9.71,6.2-10.25,12.75a21,21,0,0,0,.73,8.07c2,6.23,7.66,9.74,14.79,9.2a28,28,0,0,0,7.28-1.58,12.62,12.62,0,0,1,6.68-1,7.63,7.63,0,0,1,4.83,12,14.19,14.19,0,0,1-6.76,4.92c-11.05,4.11-22.12,4.32-32.58-1.47-10.89-6-15.64-15.91-15.53-28.14.1-11.45,4.7-20.61,14.56-26.78C253.59,57.13,260.33,55.93,268,56Z"/><path class="cls-1" d="M300.1,58.15l-.33-.32.31-.25.27.34Z"/><path class="cls-1" d="M300.35,57.92l0,.39-.3-.16Z"/></svg>