<svg xmlns="http://www.w3.org/2000/svg" viewBox="0 0 1230.52 500"><defs><style>.cls-1{fill:#020202;}</style></defs><g id="ecoVaucher"><path class="cls-1" d="M189.16,262.8a26.07,26.07,0,0,1-1.42,7.41,17.14,17.14,0,0,1-5.91,8.46c-4.27,3-9.89,3.12-15.14,3.1-4,0-7.94,0-11.92,0H142.85c-4,0-7.95,0-11.93,0s-7.9,0-11.84-.14c-1.94-.07-3.87-.29-5.81-.43-1-.07-2-.13-2.94-.14-.75,0-2.39-.05-2.73.84a1.14,1.14,0,0,0,.15.89,21.82,21.82,0,0,0,2.89,4.25,43.78,43.78,0,0,0,3.64,3.95l.15.15a26.37,26.37,0,0,0,10,6.25c14.4,4.67,27.24-6.34,41.22-7.44,6.6-.52,14.31,2.11,16.32,8.41s-2.72,12.87-8,17c-8.06,6.3-17.91,10-28,12-12.9,2.55-26.6,2.34-38.83-2.49a60.78,60.78,0,0,1-27.92-23.14c-6.27-9.48-10.14-20.75-9.74-32.1a52.74,52.74,0,0,1,10.12-28.48,61.44,61.44,0,0,1,30.05-22.12,58.62,58.62,0,0,1,41.94,1.56,81.58,81.58,0,0,1,25.68,17.39c4.85,4.86,9.17,10.53,10.92,17.16A26,26,0,0,1,189.16,262.8Zm-38.4-4.54c.07-12.31-16.78-17.91-22.39-17.35s-19.09,5.51-22.3,17.19C121.3,260.26,147.31,258.26,150.76,258.26Z"/><path class="cls-1" d="M194.45,254.9A50.34,50.34,0,0,1,209,231.65a77.47,77.47,0,0,1,10.51-8c8.27-5.27,17.62-8.94,27.45-9.66a49.73,49.73,0,0,1,36.46,12.51c2.83,2.55,5.49,5.7,5.91,9.48.61,5.44-3.8,10.45-8.95,12.27s-10.83,1.13-16.2.11-10.79-2.4-16.23-1.87A24.76,24.76,0,0,0,227.76,262a25.92,25.92,0,0,0,4.1,25.18,27.21,27.21,0,0,0,23.76,9.58c4.37-.5,8.54-2,12.85-2.88s9-1,12.83,1.22c6.27,3.58,7.89,12.61,4.71,19.09-4.41,9-14.34,12.32-23.65,13.48-15.57,1.94-33.94,3.05-47.36-6.5a48,48,0,0,1-14.65-16.48,70.53,70.53,0,0,1-7.88-39.4A55.27,55.27,0,0,1,194.45,254.9Z"/><path class="cls-1" d="M883.1,327.06a4.9,4.9,0,0,1-1.38-1.38,9.21,9.21,0,0,1-1.13-3.66c-4.87-30.82-1.87-61.54-2.57-92.53-.18-7.9-.72-15.79-1.18-23.68-.4-6.78.07-14,2.35-20.42a33,33,0,0,1,2.54-5.5c3.14-5.35,9.27-8.85,15.57-7.52a21.43,21.43,0,0,1,10.59,6.26,26.4,26.4,0,0,1,4.16,5.26c1.77,3.09,1.69,6.22,1.69,9.67,0,8.58,0,17.16.06,25.74a.9.9,0,0,0,.14.59.84.84,0,0,0,.57.21c3.18.3,6.54-.34,9.7-.67,3.38-.35,6.75-.72,10.14-1,5.57-.45,11.1-1.49,16.7-.9a38.81,38.81,0,0,1,16.68,5.73,33.39,33.39,0,0,1,14,17.36c2.18,6.61,1.89,13.7,1.29,20.54-.61,7,.12,14.23.12,21.27,0,8,.51,16.08.29,24.12-.18,6.66-1.33,12.81-6.71,17.35a19,19,0,0,1-15.92,4,9.22,9.22,0,0,1-4.16-1.84,11,11,0,0,1-2.61-3.86c-4.33-9.33-5.65-19.78-5.86-30.07s.63-20.57.39-30.85c-.06-2.62-.21-5.33-1.43-7.65-1.56-3-4.65-4.9-7.78-6.17-9.74-3.94-19.6.05-23.75,9.81-2.72,6.4-2.7,13.57-2.64,20.51l.2,23.8c.07,7.87-.36,15-6.54,20.51a25.17,25.17,0,0,1-18.95,6.38A9.83,9.83,0,0,1,883.1,327.06Z"/><path class="cls-1" d="M458.13,325.73a20.79,20.79,0,0,1-1.95-1.48C449,318,445.8,307.38,441.93,299q-7.06-15.31-14.09-30.67c-9.23-20.27-18.09-40.69-26.85-61.18-.26-.62-.53-1.25-.8-1.87-3.57-8.31-1.75-14.85,5.51-20.24,5.16-3.83,13.65-7,19.38-2.51a8.71,8.71,0,0,1,1.52,1.69c9.69,13,15.52,28.08,21.07,43.18,2.75,7.48,5.47,15,8.65,22.3,1.64,3.77,3.4,7.48,5.33,11.1,1.84,3.44,4.26,6.6,6.18,10,12.16-25,20.68-51.56,32.55-76.69,4.3-9.11,10.17-14.33,20.94-11.42,10,2.72,16.44,11,12.08,21Q521,232.08,508.63,260.45q-7.8,17.76-15.92,35.38-4.14,9-8.32,17.92c-2.18,4.66-3.94,10.48-8.49,13.4C470.54,330.6,463.27,329.16,458.13,325.73Z"/><path class="cls-1" d="M327.8,324.42c-34-14.08-48.84-58.83-24.31-88.12,15-18,41.5-25.82,64-19.55,32.8,9.15,53.18,49.14,37.49,80.29-12.28,24.38-42.29,36.48-68.49,30.19A57.26,57.26,0,0,1,327.8,324.42Zm22.05-79c-30.79,3.08-29.94,47.83-1.19,52.74C380.62,297.59,381.57,247.24,349.85,245.44Z"/><path class="cls-1" d="M557.76,326a39.4,39.4,0,0,1-4.23-1.83C532.1,313.37,519.8,283.93,524.15,261c4.59-24.14,25-42.76,49.24-45.75,17.11-2.11,34.14,3.43,48.52,12.49,26.58,20.29,26.11,65,1.62,86.69a51.27,51.27,0,0,1-12.7,8.21c-9.25,4.25-19.5,6-29.67,6.34C573.26,329.28,565.14,328.7,557.76,326Zm.74-53.85c.46,12.62,11,25.13,24.16,25.17,11.2,0,17.39-7.71,20.93-17.41,2.45-6.71,3.23-12.79.09-19.34a26.58,26.58,0,0,0-12.75-12.95c-13.3-5.95-27.92,3.68-31.55,16.94A25.33,25.33,0,0,0,558.5,272.16Z"/><path class="cls-1" d="M1034,324.74a56.13,56.13,0,0,1-31.52-27.08,53,53,0,0,1-6.21-19.52c-1.15-11.1,2.11-23.28,7.35-33,8.89-16.47,24.17-27.63,42.83-29.73,26.13-2.94,63.7,14.14,65.3,43.89.27,5-.72,11.43-4,15.49s-8.94,4.84-13.79,5c-15.65.44-30.94.54-46.42-1.81-3.53-.53-10.92-1.17-12.41,3.13-1.19,3.43,2.59,7.48,4.69,9.73,7.45,8,16.66,8.05,26.52,5.61l19.72-4.88c4.75-1.17,10-2.29,14.32,0a13,13,0,0,1,6.08,8.45,14.68,14.68,0,0,1-1.74,11.67c-2,2.91-5.1,4.82-8.22,6.45C1077.07,328.34,1053.68,331.57,1034,324.74Zm43.31-66.35a4.47,4.47,0,0,0,0-3.75c-1.55-3.54-5.5-6-8.47-8.19-3.57-2.66-7.58-5-12.1-5.39-6-.56-11.19,2.36-16,5.56-2.86,1.91-8.74,5.73-7.18,9.95a4,4,0,0,0,2.41,2.19c4.74,1.74,11.44,1.05,16.47,1.41l17.12,1.25a10.7,10.7,0,0,0,5.39-.71A5,5,0,0,0,1077.35,258.39Z"/><path class="cls-1" d="M677.86,326.28a28.65,28.65,0,0,1-5.24-2.23c-28.47-15.69-20.7-60.58-20-86.83.15-5.46-.06-9.25,3.53-13.56a18.05,18.05,0,0,1,10.45-6.46c8.84-1.68,16.74,4.14,20.43,11.85,2.51,20.23-6.24,46.32,5.84,63.15,7.38,9.77,21.57,6,26.91-2.52,9.71-15.52-.65-37.72,3.75-54.85,3.5-13.62,18.9-25.61,30.3-11.23,5.43,6.85,3.12,16.34,3.39,24.42.33,9.87,1.15,19.74,1,29.63-.2,10.18-.5,21.19-5.84,30.2-5,8.51-14,14.26-23.27,17.23-10.6,3.4-21.94,3.62-33.07,3.42C689.91,328.4,683.62,328.12,677.86,326.28Z"/><path class="cls-1" d="M803.75,325.12a55.64,55.64,0,0,1-29.13-25.86,57.43,57.43,0,0,1-6.6-27.64c.26-19.27,10.18-37.86,26.83-47.83a45.39,45.39,0,0,1,8.85-4.27c18.47-8.46,71-7.8,62.69,23.54-12.81,15.27-29.16-2.33-44.66,2.8-17.34,6.44-23.87,30.08-11,42.67,8.8,8.59,16.47,9.47,28.26,7.17,9.63-1.88,24.44-5.59,28.07,7.13,6,21-32.46,27.24-45.82,26.24A60.7,60.7,0,0,1,803.75,325.12Z"/><path class="cls-1" d="M1128.53,327.27c-4.82-4.34-4.31-13.86-4.59-19.73-.43-9-.23-18-.24-27,0-13.07-2.37-26.2-1.73-39.29.56-11.29,7.14-25.06,20.54-23.07a26.33,26.33,0,0,1,10.34,4.25,13.36,13.36,0,0,0,4.84,2.42c2.75.46,3.87-1.56,5.61-3.17,5.82-5.37,14.88-6.86,22.34-4.63,7.22,2.17,15.47,8.52,13.84,17-.81,4.2-4.17,7.54-8,9.44-5.18,2.56-11,2.81-16.22,5.24a33.59,33.59,0,0,0-13.38,10.43c-4.46,6.18-4.49,12.28-4.49,19.61q0,12.32.85,24.61c.35,5.2.69,10.14-2.73,14.51-2.3,2.95-5.63,4.89-8.92,6.66-4.16,2.24-9.43,5.26-14.35,4.47A7,7,0,0,1,1128.53,327.27Z"/><path class="cls-1" d="M52.61,296.53c-.49.07-1.16-.24-2.08-1.08C35,281.33,25.89,262.88,33.65,242.08c14-37.56,55.89-56.66,92.29-64.74,7.9-1.75,15.88-3.12,23.9-4.21,32-4.38,65.38-2.92,96,8,2.54.9,17.24,8,9.26,10.58-4.1,1.32-9.65-1.84-13.59-2.75-21.74-5-44.06-8.32-66.37-6.8a192.09,192.09,0,0,0-62.91,15.27q-4.18,1.81-8.27,3.82-6.25,3.08-12.26,6.6C81,214.11,70.76,221.59,62.92,231.26c-11.31,13.94-16.29,33-11.29,50.45C52.08,283.27,55.37,296.11,52.61,296.53Z"/></g></svg>