<svg id="Layer_1" data-name="Layer 1" xmlns="http://www.w3.org/2000/svg" viewBox="0 0 500 260"><defs><style>.cls-1{fill:#00b700;}</style></defs><g id="polygon161"><polygon class="cls-1" points="309.81 139.39 223.09 125.81 234.59 177.48 309.81 139.39"/></g><g id="polygon163"><polygon class="cls-1" points="309.81 139.39 244.47 48.61 223.11 125.82 309.81 139.39"/></g><g id="polygon165"><polygon class="cls-1" points="221.08 124.78 152.62 37.27 242.27 47.99 221.08 124.78"/></g><g id="polygon167"><polygon class="cls-1" points="189.9 88.21 151.88 52.38 161.89 52.38 189.9 88.21"/></g><g id="polygon169"><polygon class="cls-1" points="328.3 95.26 312.21 138.9 286.13 102.83 328.3 95.26"/></g><g id="polygon171"><polygon class="cls-1" points="244.71 174.86 307.85 149.5 310.5 141.44 244.71 174.86"/></g><g id="polygon173"><polygon class="cls-1" points="194.22 222.72 221.26 127.85 234.98 189.58 194.22 222.72"/></g><g id="polygon175"><polygon class="cls-1" points="330.82 95.6 324.18 113.62 348.12 113.23 330.82 95.6"/></g></svg>