<svg xmlns="http://www.w3.org/2000/svg" viewBox="0 0 1230.52 500"><g id="EPS"><g id="EPS-2" data-name="EPS"><path d="M855.26,256.83h-54a10.81,10.81,0,0,1-10.89-10.77c0-6,4.88-11.26,10.89-11.26h82.15V194.28H801.3a52,52,0,1,0,0,104h53.23A10.79,10.79,0,0,1,865.41,309c0,6-4.88,10.39-10.88,10.39H740.38c-9.69,18.5-19.11,34.36-38.24,42.29H855.26c28.19-.41,51.25-24.27,51.25-52.62s-23.06-51.82-51.25-52.22"/><path d="M648.39,194.28c-45.73,0-83,37.47-83,83.52V451.53h41.41V361.67h41.5c45.74,0,82.86-38,82.86-84s-37-83.37-82.78-83.37m0,125.1H606.81V277.65c0-23.32,18.57-42.29,41.58-42.29s41.74,19,41.74,42.29a41.58,41.58,0,0,1-41.74,41.73"/><path d="M434.31,361.67c-39.15,0-72.07-27.9-81-64.35,0,0-2.58-12.05-2.58-20s2.44-20.11,2.44-20.11a83.53,83.53,0,0,1,80.93-63.44c46,0,83.7,37.38,83.7,83.35v20.21H395.69c7.21,14.1,21.8,22,38.62,22h109.8l.15-119.22a32.42,32.42,0,0,0-32.32-32.32H356.32A32,32,0,0,0,324,199.72V355.34c0,17.78,14.54,32.76,32.31,32.76H511.94a32.18,32.18,0,0,0,31.83-26.43Z"/><path d="M504.61,117.24c0-38-31.56-68.77-70.5-68.77-38.29,0-69.43,29.78-70.46,66.89,0,.16,0,.31,0,.47V136.5a4.88,4.88,0,0,0,4.55,4.91h25.94a5.06,5.06,0,0,0,4.75-4.91V117.24c0-19,15.8-34.4,35.24-34.4s35.24,15.43,35.24,34.4V136.5a4.92,4.92,0,0,0,4.59,4.91H499.9a5,5,0,0,0,4.71-4.91V117.24Z"/></g></g></svg>