<svg id="Layer_1" data-name="Layer 1" xmlns="http://www.w3.org/2000/svg" viewBox="0 0 500 260"><defs><style>.cls-1{fill:#00b62a;}</style></defs><path class="cls-1" d="M239.8,134.89v43.86H225.89V70.44h36.9a33.38,33.38,0,0,1,23.9,9.37,30.15,30.15,0,0,1,10,22.86,30,30,0,0,1-10,23q-9.69,9.22-23.9,9.22h-23Zm0-51.12v37.81h23.34a18.85,18.85,0,0,0,14.13-31.7c-.12-.13-.24-.25-.37-.37a18.16,18.16,0,0,0-13.76-5.75H239.8Z"/><path class="cls-1" d="M329.27,102.53q15.44,0,24.36,8.24t8.92,22.61v45.67H349.24V168.77h-.61q-8.64,12.71-23,12.7-12.24,0-20.49-7.26a23.14,23.14,0,0,1-8.24-18.14q0-11.5,8.69-18.3T328.82,131q12.39,0,20.41,4.54v-3.18A15.85,15.85,0,0,0,343.48,120a19.68,19.68,0,0,0-13.43-5.07q-11.66,0-18.45,9.83L299.34,117Q309.46,102.54,329.27,102.53Zm-18,53.84a11.1,11.1,0,0,0,4.62,9.07,16.91,16.91,0,0,0,10.81,3.63,22.15,22.15,0,0,0,15.65-6.5q6.91-6.51,6.91-15.27-6.51-5.18-18.15-5.18-8.48,0-14.13,4.08c-3.82,2.77-5.71,6.13-5.71,10.17Z"/><path class="cls-1" d="M438.4,104.64,391.94,211.42H377.58l17.24-37.36-30.55-69.42h15.12l22.09,53.24h.3l21.47-53.24Z"/><path class="cls-1" d="M183.57,125.44a73.6,73.6,0,0,0-1.07-12.66H123.82v24h33.61A28.81,28.81,0,0,1,145,155.66v15.56h20.06C176.81,160.39,183.57,144.37,183.57,125.44Z"/><path class="cls-1" d="M123.82,186.24c16.79,0,30.93-5.51,41.24-15L145,155.67c-5.58,3.78-12.77,5.94-21.18,5.94-16.23,0-30-10.94-34.93-25.68H68.22v16A62.22,62.22,0,0,0,123.82,186.24Z"/><path class="cls-1" d="M88.89,135.93a37.21,37.21,0,0,1,0-23.82v-16H68.22a62.25,62.25,0,0,0,0,55.88Z"/><path class="cls-1" d="M123.82,86.42a33.8,33.8,0,0,1,23.87,9.34h0L165.45,78a59.78,59.78,0,0,0-41.63-16.21,62.23,62.23,0,0,0-55.6,34.29l20.67,16C93.81,97.37,107.59,86.42,123.82,86.42Z"/></svg>