<svg width="38" height="37" viewBox="0 0 38 37" fill="none" xmlns="http://www.w3.org/2000/svg">
<path d="M0.938232 36.3666H37.3371V0H0.938232V36.3666Z" fill="black"/>
<path d="M8.86334 26.3478C8.66161 26.4054 7.69135 26.6741 6.81717 26.6741C5.70281 26.6741 4.57886 26.3382 4.57886 23.7276C4.57886 21.1265 6.07747 20.6946 7.21103 20.6946C8.04679 20.6946 8.64239 20.9922 8.64239 20.9922V21.7792C8.64239 21.7792 7.9123 21.4913 7.21103 21.4913C6.48094 21.4913 5.60675 21.8272 5.60675 23.6892C5.60675 25.5992 6.2696 25.8967 6.85559 25.8967C7.27828 25.8967 7.82584 25.7815 7.82584 25.7815V23.8332H6.90362L6.85559 23.0653H8.85374C8.86334 23.0557 8.86334 26.3478 8.86334 26.3478ZM9.48776 20.6946H13.7819L13.6666 21.616H12.264V26.6645H11.1401V21.6448H9.49737V20.6946H9.48776ZM14.7041 20.7138L16.6926 20.6754C19.1999 20.6754 19.1327 23.3533 17.6725 23.5164C19.2575 23.766 19.1903 26.1079 17.6725 26.6549H14.6945C14.7041 26.6549 14.7041 20.7138 14.7041 20.7138ZM15.8184 21.616V23.1421H16.8655C17.4803 23.1037 17.7974 21.7792 16.904 21.616H15.8184ZM15.8184 23.9867V25.7047H16.8655C18.0279 25.7047 17.7974 24.0251 16.904 23.9867H15.8184ZM19.9396 22.3743C21.4574 21.6832 23.1866 21.8368 23.446 22.9789V26.6741H22.3989V26.0791C21.4766 27.0773 19.2864 26.8853 19.5746 24.8409C19.7475 23.9003 20.785 23.622 22.3028 23.7276C22.4565 22.4127 20.7369 23.0269 19.9396 23.2573C19.9396 23.2669 19.9396 22.3743 19.9396 22.3743ZM20.8234 24.6682C20.1606 25.7911 21.4959 26.1846 22.322 25.3016V24.5242C21.8225 24.3802 21.054 24.3706 20.8234 24.6682ZM25.617 23.43L25.5978 26.6741H24.4354V22.0095H25.5402V22.5374C27.1541 21.5968 28.4798 21.8368 28.7391 23.2381V26.6645H27.5767V23.43C27.3462 22.5758 25.8956 23.1325 25.617 23.43ZM29.6037 26.6741V20.6946H30.7565V26.6741H29.6037ZM32.3608 22.0095H33.7345L32.1206 24.0923L33.8498 26.6645H32.5721L30.8718 24.0251L32.3608 22.0095ZM21.7264 14.312H30.8237V5.22275H21.7264V14.312Z" fill="white"/>
</svg>
