<svg id="Layer_1" data-name="Layer 1" xmlns="http://www.w3.org/2000/svg" viewBox="0 0 500 260"><defs><style>.cls-1{fill:#00b62a;}</style></defs><path class="cls-1" d="M336.29,173.51H294.16c-1,0-1,0-.73-1,1.21-4.38,2.44-8.75,3.61-13.14.21-.76.49-1,1.35-1q37.41,0,74.82,0c.86,0,1.2-.22,1.43-1.06,1.2-4.55,2.48-9.08,3.74-13.61.27-1,.26-1-.75-1l-67.91,0a6.19,6.19,0,0,1-4.52-1.45c-1.8-1.71-2-3.83-1.38-6.07,2.08-7.62,4.2-15.23,6.3-22.84.75-2.71,1.51-5.42,2.24-8.13a11,11,0,0,1,10.36-8q41.64.09,83.28,0c.94,0,.94,0,.68.93-1.22,4.43-2.47,8.85-3.66,13.29-.19.7-.45.92-1.19.92q-37.24,0-74.49,0c-1.53,0-1.54,0-1.93,1.42-1.29,4.64-2.56,9.28-3.88,13.91-.22.75,0,.86.67.86q33.87,0,67.75,0c1.69,0,3.32.1,4.65,1.27,1.95,1.7,2.22,3.89,1.57,6.24-2.63,9.6-5.3,19.19-7.94,28.78-.54,1.93-1,3.9-2.3,5.5a10.56,10.56,0,0,1-8.49,4.19C363.72,173.49,350,173.51,336.29,173.51Z"/><path class="cls-1" d="M195.78,96.56c-.35,1.27-.69,2.48-1,3.7q-7.26,26.19-14.5,52.38-2.79,10.1-5.57,20.18c-.14.55-.38.71-.94.7q-7,0-13.91,0c-.62,0-.77-.09-.59-.75q4.84-17.47,9.64-35c.07-.25.23-.49.1-.78-.27,0-.38.19-.53.33l-20.71,18.91q-9.27,8.47-18.53,16.94c-.64.59-.73.09-.95-.28L116,152l-11.3-19.28c-.13-.22-.19-.5-.52-.67-.67,2.41-1.34,4.79-2,7.17q-4.67,16.84-9.31,33.7c-.14.52-.4.64-.91.64-4.63,0-9.27,0-13.9,0-.74,0-.76-.22-.59-.82q6-21.78,12.07-43.55Q94,113.05,98.46,97c.06-.21,0-.54.35-.57s.32.26.43.44q10.41,17.25,20.83,34.5c3.72,6.17,7.46,12.33,11.16,18.51.37.62.58.55,1.06.14l37.88-32,24.9-21A1.06,1.06,0,0,1,195.78,96.56Z"/><path class="cls-1" d="M240,127.55c5.69,0,11.39.06,17.08,0,6.8-.09,13.61,0,20.41,0a1,1,0,0,0,1.14-.9q1.95-7.2,4-14.38c.19-.69.11-.87-.63-.87-3,0-6,0-9,0H207c-1.06,0-1.07,0-.78-1.05,1.24-4.45,2.48-8.91,3.69-13.37a.8.8,0,0,1,.93-.72q41.93,0,83.85,0c4.23,0,6.71,3.14,5.62,7.31-1.49,5.7-3.12,11.37-4.69,17l-3.84,13.93a10.73,10.73,0,0,1-10.71,8.14H215.39a16.46,16.46,0,0,1-1.86,0c-.65-.06-.88.22-1,.8q-3,10.95-6.05,21.9c-.7,2.5-1.41,5-2.07,7.5-.13.48-.31.66-.82.66-4.69,0-9.38,0-14.07,0-.8,0-.63-.35-.49-.84q3.81-13.68,7.6-27.36c1.57-5.63,3.14-11.25,4.67-16.89.19-.7.49-.9,1.22-.9Q221.23,127.58,240,127.55Z"/><path class="cls-1" d="M54.42,173.51c-2.3,0-4.61,0-6.91,0-.64,0-.84-.08-.64-.78q3-10.86,6-21.74l13-46.91c.66-2.39,1.33-4.79,2-7.19a.63.63,0,0,1,.72-.55c4.75,0,9.49,0,14.24,0,.85,0,.49.47.4.81-1.13,4.12-2.28,8.24-3.42,12.35q-8.76,31.63-17.5,63.27a.84.84,0,0,1-1,.74C59,173.48,56.72,173.51,54.42,173.51Z"/><path class="cls-1" d="M419.24,156.41c-1.92,1.6-3.66,3.38-5.47,5.08-4,3.78-8,7.59-12,11.38l-.82.72c7.14-25.74,14.23-51.28,21.39-77.06l2.28,4.55,6.26,12.4a3.87,3.87,0,0,0,.21.34c.2.44.38.89.6,1.32q4.86,9.72,9.75,19.43a.66.66,0,0,1-.14,1q-8.26,7.78-16.53,15.6C422.89,152.88,421,154.55,419.24,156.41Z"/><path class="cls-1" d="M419.24,156.41c1.73-1.86,3.65-3.53,5.49-5.28q8.25-7.83,16.53-15.6a.66.66,0,0,0,.14-1q-4.9-9.7-9.75-19.43c-.22-.43-.4-.88-.6-1.32q2.38-8.55,4.77-17.1c.31.12.34.4.45.6q9.32,18.54,18.64,37.06a.9.9,0,0,1-.23,1.3q-13.83,13-27.62,26.12l-12,11.32c-.11.11-.25.2-.53.42.47-1.74.9-3.29,1.33-4.85Q417.55,162.56,419.24,156.41Z"/></svg>