<svg xmlns="http://www.w3.org/2000/svg" viewBox="0 0 1230.52 500"><g id="Paypal"><path d="M40.32,298.4c6-9.55,5.71-20.72,7.42-31.16,1.44-8.73,5.09-10.82,13.09-10.4,8.9.47,17.84.1,26.77.11,17.38,0,17.39,0,13.94,17.19-1.45,7.26-3.94,14.49-4.13,21.79-.29,10.79-4.81,14.35-15.65,13.6-13.76-.95-27.62-.47-41.44-.61Z"/><path d="M337.48,250.84c3.65-19.17,7.15-38.36,11.08-57.47.69-3.36-.77-9,5.22-9.17a186,186,0,0,1,26.72.89c2.18.26.22,4.66-.24,7.15-6.64,36.12-13.45,72.21-19.75,108.38-1.14,6.56-3.72,9.29-10.42,8.66a45.39,45.39,0,0,0-10.74,0c-9.47,1.41-14.1-2.21-17-11.36A394.07,394.07,0,0,0,299.49,242c-3.69,18.94-8.11,37.8-10.75,56.88-1.19,8.64-4.35,10.57-12.56,10.49-21.18-.21-21.43.12-17.89-19.24,6-32.69,12.63-65.26,18.22-98,1.21-7.09,4.21-8.2,10.42-8.43,22.53-.82,22.53-1,30.09,19.63q8.78,24,17.52,47.93Z"/><path d="M1009.69,242.41c15,7.26,21.73,19.17,20.31,35.15-1.57,17.69-12,29.33-30.55,30.7-20.9,1.55-42,.62-63,1-5.48.1-6.76-2.36-6.74-7.13.11-36.73.18-73.45-.06-110.18,0-6.62,2.87-8.06,8.86-8,17.88.25,35.77-.19,53.64.2,17.07.36,26.19,6.61,30.87,20C1028.13,218.79,1023.88,231.37,1009.69,242.41Zm-32.44,40c9.41,0,18.93-1.12,18.34-13.21-.7-14.18-12.72-11.29-22.05-12.36-14.22-1.62-9.39,8.51-10.45,15.33C961.19,284.45,969.67,282.69,977.25,282.39Zm-4-49.66c9.71.56,18.85-.1,18.57-11.84-.26-10.8-9.27-10.75-17.63-11.5-9-.81-11.76,2.47-11.23,11.07C963.4,227.92,962.23,235.35,973.23,232.73Z"/><path d="M703.18,246.85c0-17.49.32-35-.14-52.48-.21-7.71,1.8-11.11,10.4-10.69,12.93.64,25.93-.14,38.89.29,28,.94,41.38,11.39,47.6,38.5,4.15,18.06,4.24,36.53-1.14,54.45-6.26,20.83-21.2,31.66-43.36,32.19-13.86.32-27.77-.57-41.57.34-9.72.64-11-3.56-10.81-11.43C703.48,281,703.18,263.91,703.18,246.85Zm33.74-2.14c0,7.41-.59,14.88.21,22.21.49,4.48-4.08,11.83,3.77,13.05,7.14,1.1,15.24,1.68,21.25-4.68,9.49-10,9.17-47.85-.79-57.08-5.92-5.49-14-7.59-21.09-5.4-6.87,2.11-2.62,9.77-3.21,14.91C736.42,233.32,736.92,239,736.92,244.71Z"/><path d="M820.29,247.09c0-17.53.31-35.08-.15-52.6-.19-7.42.91-11.11,10-10.86,23.29.64,46.62.75,69.9,0,13.34-.43,9.51,8.23,10,14.94.54,7.39,1,13.92-10.54,13-12.47-1-25.1.17-37.62-.37-8-.34-8.34,3.85-8.43,9.77-.1,6.24,1,9.9,8.7,9.57,12.08-.51,24.2,0,36.3-.15,13.23-.12,6.75,9.67,7.75,15.26,1,5.37,1.85,11.49-7.89,10.9-12.06-.72-24.22.31-36.28-.3-10.78-.55-8.27,6.63-8.39,12.28-.12,5.88-2,12.73,8.55,12.27,13-.56,26,.28,39-.28,7.89-.34,11,1.49,10.92,10-.19,18.67.34,18.67-19.16,18.67-20.61,0-41.24-.46-61.83.22-9.09.3-11.28-2.7-11-11.07C820.72,281.3,820.29,264.19,820.29,247.09Z"/><path d="M681.89,246.88c0,16.21-.93,32.49.31,48.61.94,12.28-3.82,15.66-15.09,13.91a24.32,24.32,0,0,0-6.71,0c-7.28.93-11.16-1.39-9.88-9.21,1.44-8.77-2.67-10.93-11.32-11.16-13.28-.35-24.76,0-28.61,15.78-1,4-28.1,7.11-30.93,4.05-2-2.12-.09-4,.76-5.87q26.12-56.69,52.32-113.33c1.52-3.28,3.4-5.92,7.89-5.84,11.64.21,23.29.15,34.93.06,7-.06,6.31,4.73,6.32,9.11Q681.93,219.94,681.89,246.88Zm-50,13.49c18.47,2.15,18.47,2.15,18.48-14.52V227.1l-2.65-.52Z"/><path d="M442.66,182.6c26.41,0,41.25,9.7,44.69,28.49,1.13,6.22.26,8.86-6.85,8.52-10.67-.5-22.83,5.15-28.42-10.55-1.74-4.89-9.41-5.92-15.58-3.49-3.58,1.4-6.41,3.61-6.79,7.42-.66,6.48,4.4,9,9.23,11.43,7.15,3.58,14.55,6.72,21.48,10.67,16.15,9.21,24,24.08,20.62,40.66-3.51,17-13,29.6-31.3,33.88C434.08,313.29,418.61,313,404,306c-13.64-6.53-17.35-19.11-19.15-32.54-.6-4.47,1.69-6.41,6.08-6.6,6.26-.27,12.58-.22,18.74-1.14,5.28-.78,7,.73,7.65,5.84,1,7.34,4.31,13.35,13.13,14.25,7.72.78,15-.49,18-8.09,3.25-8.23-2.23-13-9.41-16.25-6.49-2.92-13.08-5.65-19.34-9-19.33-10.32-26.24-24.84-20.94-43.25,4.79-16.67,19.56-26.52,39.91-26.61Z"/><path d="M1149.57,183.84c13.42,0,26.86.35,40.26-.13,7.46-.27,11,1.91,9.82,9.53a15.62,15.62,0,0,0,0,5.24c2.68,14-3.6,18.86-17.21,16.49-12.63-2.2-17.12,2.32-16.49,15.32,1.11,22.71-.09,45.52.51,68.27.24,8.87-2.85,10.94-11.46,10.87-22.79-.2-22.8.2-22.8-21.54,0-20.57-.53-41.16.24-61.71.35-9.58-3.07-12.67-12.15-11.22a8.55,8.55,0,0,1-1.34,0c-21.35-.09-24.5-4.27-20.78-25.26,1.18-6.67,5.46-5.81,9.77-5.83C1121.82,183.79,1135.7,183.84,1149.57,183.84Z"/><path d="M557,183.84c14.31,0,28.62.2,42.93-.08,6.59-.13,9.28,2,7.11,8.46a20.21,20.21,0,0,0-.71,2.53c-3.87,19.86-3.92,20.72-24.59,19.55-11.66-.66-15.3,3.51-17,13.86-3.86,24.11-9.22,48-12.94,72.13-1.18,7.62-4.26,8.95-11.15,9.08-25.58.46-25.4.71-20.48-23.42,4.17-20.52,7.71-41.16,11.86-61.69,1.53-7.62-1-10.72-8.84-9.64a17.12,17.12,0,0,1-2.68,0c-21.57-.18-21.25-.12-17.22-20.82,1.56-8,5.24-10.57,13.43-10.16C530.14,184.33,543.58,183.84,557,183.84Z"/><path d="M214.76,309.22c-17.89,0-17.63,0-14.5-16.42,6-31.76,11.64-63.6,17.63-95.36.91-4.82-.28-12.23,6.09-13.08,9.16-1.21,18.86-2.06,27.91.73,3.41,1,1.39,5.61.89,8.36-6.47,36.12-13.18,72.2-19.76,108.29C230.69,314.58,220.25,307,214.76,309.22Z"/><path d="M158.8,235.81c-26.67,0-26.67,0-22.12-25,5-27.55,5-27.55,32.93-27.55,25.73,0,25.73,0,21.67,24.8C186.73,235.81,186.73,235.81,158.8,235.81Z"/><path d="M156.45,257c27,0,27,0,21.8,26.56-5,25.61-5,25.61-31.11,25.92-27.62.33-27.62.33-23.43-26.15C127.89,257,127.89,257,156.45,257Z"/><path d="M1081.78,270.74c0,6.12.31,12.26-.09,18.35-.41,6.39,3.38,15.6-1.91,18.53-7.87,4.37-18.23,1.53-27.52,1.32-4.74-.11-3.6-4.25-3.61-7.05-.09-21.42.1-42.84-.14-64.26-.07-5.95,2.62-7,8.07-7.34,25.21-1.52,25.2-1.69,25.2,23.4Z"/><path d="M1065.85,184.33c14.41-3.94,15.56,3.45,16.53,15.8,1.26,16.1-7.62,13.93-18.23,15.24-15.67,1.93-15.19-6-16-17.21C1047.13,183.69,1054.14,182.11,1065.85,184.33Z"/></g></svg>