<svg xmlns="http://www.w3.org/2000/svg" viewBox="0 0 1230.52 500"><g id="Kotak"><path d="M616.89,470.73c-121.71,0-220.73-99-220.73-220.73s99-220.73,220.73-220.73,220.73,99,220.73,220.73S738.6,470.73,616.89,470.73Zm0-417.39c-108.44,0-196.66,88.22-196.66,196.66s88.22,196.66,196.66,196.66S813.55,358.44,813.55,250,725.33,53.34,616.89,53.34Z"/><path d="M616.89,470.73c-121.71,0-220.73-99-220.73-220.73s99-220.73,220.73-220.73,220.73,99,220.73,220.73S738.6,470.73,616.89,470.73Zm0-417.39c-108.44,0-196.66,88.22-196.66,196.66s88.22,196.66,196.66,196.66S813.55,358.44,813.55,250,725.33,53.34,616.89,53.34Z"/><path d="M604.69,305.75l13.55-51L650.34,243l7.95-30-.28-.75-31.58,11.55,22.76-85.71H584.67L554.86,249.92,530,259l-8.21,30.92,24.83-9.06L529.1,346.78H700.88l11-41H604.57"/></g></svg>