<svg width="90" height="17" viewBox="0 0 90 17" fill="none" xmlns="http://www.w3.org/2000/svg">
<path d="M87.5693 2.16165C86.44 1.38497 84.7307 0.993259 82.4902 0.993259H76.6227L74.4414 12.8809H66.7547L67.2487 10.1838H71.8791L72.4277 7.15462L67.8 7.16131L68.2955 4.47629H73.0649L73.6995 0.993953H64.0138L61.9429 12.2701H58.3885L60.4733 0.99336H55.4102L53.3394 12.2695H49.8768L51.9636 0.99336H46.9032L44.7192 12.881H36.9772L37.4666 10.1839H42.1156L42.6649 7.17192L38.0204 7.16725L38.5132 4.47689H43.3361L43.9667 0.993073H13.7842L12.0662 10.4131L8.64503 0.993073H3.39196L0.564697 16.3666H5.58143L7.29271 6.68675L10.6126 16.3666H28.5921L30.7781 4.47541H33.5901L31.4041 16.3666H78.7118L80.0835 8.86044L82.3021 16.3666H87.3215L85.0223 10.2331L85.5483 10.1195C86.7069 9.8702 87.6105 9.3348 88.2397 8.53205C88.8683 7.72194 89.1886 6.68187 89.1886 5.43255C89.1886 3.97808 88.6586 2.90796 87.5679 2.16076L87.5693 2.16165ZM24.2265 12.8809H16.5472L17.0433 10.1838H21.86L22.406 7.14602H17.6357L18.0951 4.47705H25.7632L24.2251 12.8809L24.2265 12.8809ZM83.4335 7.70261C82.9288 8.05686 82.197 8.22931 81.1962 8.22931H80.2041L80.9651 4.10376H81.6949C82.5259 4.10376 83.1319 4.23744 83.55 4.51015C83.8763 4.72404 84.2645 5.14716 84.2645 5.94724C84.2633 6.9151 83.8117 7.43513 83.4322 7.70249L83.4335 7.70261Z" fill="black"/>
</svg>
