<svg xmlns="http://www.w3.org/2000/svg" viewBox="0 0 1230.52 500"><defs><style>.cls-1{fill-rule:evenodd;}</style></defs><g id="PAYEER"><path id="a" class="cls-1" d="M1055.85,321.59l-2.94-4.17a3.82,3.82,0,0,0,1-.41c3.7-1.42,5.42-4.05,5-7.51a6.44,6.44,0,0,0-6.58-6.11c-3.35-.15-6.69-.19-10-.1-1.46,0-2.93,0-4.41,0v26.24c1.14-.13,2.28-.22,3.42-.28V318.17c4.94-1.22,8.36.13,10.76,4.2.4.7.87,1.36,1.33,2a20.14,20.14,0,0,1,1.62,2.53c1.22,2.36,2.94,3.31,6,2.09C1059.34,326.53,1057.62,324.08,1055.85,321.59Zm-4.31-7.15c-2.32.15-4.65.12-7.08.09l-3.06,0v-8.34l2.95,0c2.39,0,4.7-.06,7,.09,2.48.2,4.12,1.69,4.05,4.2A3.82,3.82,0,0,1,1051.54,314.44Zm4.31,7.15-2.94-4.17a3.82,3.82,0,0,0,1-.41c3.7-1.42,5.42-4.05,5-7.51a6.44,6.44,0,0,0-6.58-6.11c-3.35-.15-6.69-.19-10-.1-1.46,0-2.93,0-4.41,0v26.24c1.14-.13,2.28-.22,3.42-.28V318.17c4.94-1.22,8.36.13,10.76,4.2.4.7.87,1.36,1.33,2a20.14,20.14,0,0,1,1.62,2.53c1.22,2.36,2.94,3.31,6,2.09C1059.34,326.53,1057.62,324.08,1055.85,321.59Zm-4.31-7.15c-2.32.15-4.65.12-7.08.09l-3.06,0v-8.34l2.95,0c2.39,0,4.7-.06,7,.09,2.48.2,4.12,1.69,4.05,4.2A3.82,3.82,0,0,1,1051.54,314.44Zm4.31,7.15-2.94-4.17a3.82,3.82,0,0,0,1-.41c3.7-1.42,5.42-4.05,5-7.51a6.44,6.44,0,0,0-6.58-6.11c-3.35-.15-6.69-.19-10-.1-1.46,0-2.93,0-4.41,0v26.24c1.14-.13,2.28-.22,3.42-.28V318.17c4.94-1.22,8.36.13,10.76,4.2.4.7.87,1.36,1.33,2a20.14,20.14,0,0,1,1.62,2.53c1.22,2.36,2.94,3.31,6,2.09C1059.34,326.53,1057.62,324.08,1055.85,321.59Zm-4.31-7.15c-2.32.15-4.65.12-7.08.09l-3.06,0v-8.34l2.95,0c2.39,0,4.7-.06,7,.09,2.48.2,4.12,1.69,4.05,4.2A3.82,3.82,0,0,1,1051.54,314.44Zm4.31,7.15-2.94-4.17a3.82,3.82,0,0,0,1-.41c3.7-1.42,5.42-4.05,5-7.51a6.44,6.44,0,0,0-6.58-6.11c-3.35-.15-6.69-.19-10-.1-1.46,0-2.93,0-4.41,0v26.24c1.14-.13,2.28-.22,3.42-.28V318.17c4.94-1.22,8.36.13,10.76,4.2.4.7.87,1.36,1.33,2a20.14,20.14,0,0,1,1.62,2.53c1.22,2.36,2.94,3.31,6,2.09C1059.34,326.53,1057.62,324.08,1055.85,321.59Zm-4.31-7.15c-2.32.15-4.65.12-7.08.09l-3.06,0v-8.34l2.95,0c2.39,0,4.7-.06,7,.09,2.48.2,4.12,1.69,4.05,4.2A3.82,3.82,0,0,1,1051.54,314.44Zm18.3-21.29a30.61,30.61,0,1,0,9,21.83A30.47,30.47,0,0,0,1069.84,293.15Zm-22.41,48.61a27.26,27.26,0,0,1-19.22-8.27,26.74,26.74,0,0,1-7.55-19.39c.27-14.71,12.73-26.44,27.94-26.16,14.72.26,26.92,12.8,26.5,27.31A27.14,27.14,0,0,1,1047.43,341.76Zm5.48-24.34a3.82,3.82,0,0,0,1-.41c3.7-1.42,5.42-4.05,5-7.51a6.44,6.44,0,0,0-6.58-6.11c-3.35-.15-6.69-.19-10-.1-1.46,0-2.93,0-4.41,0v26.24c1.14-.13,2.28-.22,3.42-.28V318.17c4.94-1.22,8.36.13,10.76,4.2.4.7.87,1.36,1.33,2a20.14,20.14,0,0,1,1.62,2.53c1.22,2.36,2.94,3.31,6,2.09-1.72-2.48-3.44-4.93-5.21-7.42Zm-1.37-3c-2.32.15-4.65.12-7.08.09l-3.06,0v-8.34l2.95,0c2.39,0,4.7-.06,7,.09,2.48.2,4.12,1.69,4.05,4.2A3.82,3.82,0,0,1,1051.54,314.44Zm4.31,7.15-2.94-4.17a3.82,3.82,0,0,0,1-.41c3.7-1.42,5.42-4.05,5-7.51a6.44,6.44,0,0,0-6.58-6.11c-3.35-.15-6.69-.19-10-.1-1.46,0-2.93,0-4.41,0v26.24c1.14-.13,2.28-.22,3.42-.28V318.17c4.94-1.22,8.36.13,10.76,4.2.4.7.87,1.36,1.33,2a20.14,20.14,0,0,1,1.62,2.53c1.22,2.36,2.94,3.31,6,2.09C1059.34,326.53,1057.62,324.08,1055.85,321.59Zm-4.31-7.15c-2.32.15-4.65.12-7.08.09l-3.06,0v-8.34l2.95,0c2.39,0,4.7-.06,7,.09,2.48.2,4.12,1.69,4.05,4.2A3.82,3.82,0,0,1,1051.54,314.44Zm4.31,7.15-2.94-4.17a3.82,3.82,0,0,0,1-.41c3.7-1.42,5.42-4.05,5-7.51a6.44,6.44,0,0,0-6.58-6.11c-3.35-.15-6.69-.19-10-.1-1.46,0-2.93,0-4.41,0v26.24c1.14-.13,2.28-.22,3.42-.28V318.17c4.94-1.22,8.36.13,10.76,4.2.4.7.87,1.36,1.33,2a20.14,20.14,0,0,1,1.62,2.53c1.22,2.36,2.94,3.31,6,2.09C1059.34,326.53,1057.62,324.08,1055.85,321.59Zm-4.31-7.15c-2.32.15-4.65.12-7.08.09l-3.06,0v-8.34l2.95,0c2.39,0,4.7-.06,7,.09,2.48.2,4.12,1.69,4.05,4.2A3.82,3.82,0,0,1,1051.54,314.44ZM576.07,157.5c-1.36-2.71-4-2.71-6.5-2.71h-3.7l-3,0c-5.53,0-11.08.05-16.6-.09a8.34,8.34,0,0,0-7.88,4.14q-20.76,30.54-41.71,60.95c-.43-.59-5.43-7.87-12.09-17.55q-15-21.82-30-43.61c-1.09-1.56-3.15-3.52-4.85-3.59q-14-.52-28.1-.14c-3.77.08-5.68,3.67-4.18,7.12.31.79,17.05,25.72,34,51l.06.09c9.36,13.94,18.8,28,25.57,38.12a10.48,10.48,0,0,1,1.71,5.63q.07,41,.07,82c0,5,1.64,6.72,6.71,6.72h20.89c5.76,0,7.33-1.56,7.33-7.19q0-40.11-.06-80.27A13.43,13.43,0,0,1,516.2,250q29.31-42.74,58.51-85.55C576.21,162.25,577.44,160.15,576.07,157.5ZM437.52,336.74Q396.87,248,356.29,159.26c-1.51-3.31-3.57-4.54-7.13-4.47s-4.93,2-6.23,4.75Q322,204.81,301.07,250.05l-1.6,3.46-.09.21L296.92,259c-17.09,36.92-32.53,70.29-36.05,78-2.53,5.42-.41,8.54,5.55,8.54h19.87c6,0,7.87-1.23,10.13-6.65l1.95-4.61,1.08-2.56c2.78-6.53,5.54-13.07,8.21-19.67.95-2.37,2.12-3.39,4.93-3.39,23.69.13,47.32.07,71,0h2.28c2.53,0,3.83.6,4.79,3.05,2.52,6.28,5.17,12.54,7.82,18.78l.07.17.2.47.18.44,3.24,7.65h0c1.78,4.34,4.59,6.78,9.65,6.37,3.16-.27,16.44-.06,19.87,0C438.14,345.62,440.19,342.57,437.52,336.74ZM322.45,279.86q13.19-29.55,26.51-59,13.47,29.55,27.05,59ZM283.23,211.4c-1.44-32.21-25.63-56.13-58.15-56.82-15.93-.33-31.85-.26-47.78-.19h0q-10,0-20,.06c-3.9,0-5.61,1.69-5.61,5.57V339.65c0,4,1.78,5.91,5.75,5.91,7.74.06,15.55.06,23.29,0,3.9-.07,5.83-2,5.83-5.91,0-4.29,0-22.56,0-38.66v-21.8l2.24,0c6.8.08,26.68.31,36.46-.09,17.73-.68,32.87-7.32,44.24-21.08C280.69,244.48,284,228.54,283.23,211.4Zm-43.57,29.22a26.25,26.25,0,0,1-21.5,10c-6.92-.05-13.8,0-20.79,0l-10.72,0c0-22.71,0-45,.07-67.73h30.14c15.07,0,26.16,8.14,30.06,22.65C250.35,218.32,248.15,230.24,239.66,240.62Z"/><path id="b" class="cls-1" d="M965.69,269.23c1,1.83,1.78,3.46,2.61,5q16.44,30.69,32.89,61.45a13.52,13.52,0,0,1,1.57,3.41c.82,3.13-1,5.85-4.25,5.92-9.59.13-19.18.06-28.77.06-2.88,0-3.77-2.18-4.73-4.21-10.75-22-21.58-43.92-32.2-65.94-1.3-2.72-2.81-3.88-6-3.81q-11,.3-21.93,0c-3-.08-3.9.95-3.9,3.94.07,20.87.07,41.68.07,62.55,0,6.52-1,7.47-7.46,7.47H873.76c-5.28,0-6.72-1.36-6.72-6.59V160.73c0-4.7,1.58-6.33,6.3-6.33,25,0,50-.13,75,0,27.95.15,50.76,18.29,55.7,45,5.28,28.42-6.58,54.65-34.4,67.91C968.31,267.9,967,268.54,965.69,269.23Zm-64.05-25.76c1.51,0,29.73-.08,42.75,0a22.79,22.79,0,0,0,14-4.7c10.27-7.62,15.07-22.16,11.5-35-3.77-13.66-13.76-21.28-28-21.28H901.64Zm-273.86-61V236h64c5.42,0,7,1.57,7,6.8v15c0,4.7-1.64,6.33-6.37,6.33H627.84v53.5h76.81c5.89,0,7.19,1.29,7.19,7.14V339c0,5.09-1.58,6.66-6.71,6.66-32.41,0-103.25.07-106.19,0-3.39-.06-5.12-1.35-5.62-4.17-.07-.43-.14-120.65-.14-179.11,0-6.79,1.17-7.88,7.88-7.88h103c6.51,0,7.67,1.16,7.67,7.75v13.59c0,5.3-1.44,6.73-6.92,6.73-24.18-.08-75.29-.08-77.07-.08Zm103,67.37V161.14c0-5.57,1.24-6.8,6.79-6.8H842.41c5.34,0,6.71,1.37,6.71,6.54v15.29c0,4.83-1.37,6.25-6.31,6.25h-73c-5,0-5,0-5,4.9,0,15,.08,29.9-.07,44.86,0,3,.9,3.81,3.91,3.81,19.72-.13,39.53-.07,59.26-.07,7.19,0,8.15,1,8.15,7.88v14.28c0,4.29-1.57,5.92-6,5.92-10.41.07-51.45.07-61.66,0-2.53,0-3.62.48-3.62,3.33q.19,23.46,0,46.91c0,2.78,1,3.32,3.62,3.32,24.46-.06,48.85-.06,73.31-.06,6.44,0,7.4.95,7.4,7.48v14.28c0,4.82-1.44,6.32-6.24,6.32H738.07c-6.11,0-7.19-1.09-7.19-7.07q-.12-44.26-.08-88.65Z"/></g></svg>