<svg xmlns="http://www.w3.org/2000/svg" viewBox="0 0 1230.52 500"><g id="Paypal"><path d="M479.22,186H419.5a8.29,8.29,0,0,0-8.19,7L387.16,346.14a5,5,0,0,0,4.92,5.75h28.51a8.31,8.31,0,0,0,8.2-7l6.51-41.3a8.29,8.29,0,0,1,8.19-7h18.9c39.33,0,62-19,68-56.75,2.67-16.51.12-29.47-7.61-38.55C514.25,191.3,499.2,186,479.22,186ZM486.1,242c-3.26,21.42-19.63,21.42-35.46,21.42h-9l6.32-40a5,5,0,0,1,4.92-4.2H457c10.78,0,20.95,0,26.21,6.15C486.34,229,487.3,234.42,486.1,242Z"/><path d="M657.7,241.26H629.11a5,5,0,0,0-4.92,4.2l-1.26,8-2-2.89c-6.19-9-20-12-33.77-12-31.6,0-58.59,23.93-63.84,57.5-2.74,16.75,1.15,32.76,10.65,43.93,8.71,10.26,21.18,14.54,36,14.54,25.46,0,39.58-16.37,39.58-16.37l-1.27,7.95a5,5,0,0,0,4.9,5.76H639a8.31,8.31,0,0,0,8.2-7L662.6,247A5,5,0,0,0,657.7,241.26Zm-39.85,55.65c-2.76,16.33-15.73,27.3-32.26,27.3-8.31,0-14.94-2.66-19.2-7.71s-5.84-12.14-4.49-20.09c2.57-16.2,15.76-27.52,32-27.52,8.12,0,14.72,2.7,19.07,7.79S619.09,289,617.85,296.91Z"/><path d="M810,241.26H781.26a8.33,8.33,0,0,0-6.88,3.64l-39.63,58.37L718,247.18a8.33,8.33,0,0,0-8-5.92H681.76a5,5,0,0,0-4.73,6.58l31.65,92.88-29.75,42a5,5,0,0,0,4.06,7.85h28.7a8.28,8.28,0,0,0,6.82-3.56l95.57-137.95A5,5,0,0,0,810,241.26Z"/><path d="M905.12,186H845.4a8.3,8.3,0,0,0-8.19,7L813.06,346.14a5,5,0,0,0,4.91,5.75h30.65a5.8,5.8,0,0,0,5.72-4.91l6.86-43.4a8.29,8.29,0,0,1,8.19-7h18.89c39.34,0,62-19,68-56.75,2.68-16.51.11-29.47-7.62-38.55C940.15,191.3,925.11,186,905.12,186ZM912,242c-3.26,21.42-19.63,21.42-35.46,21.42h-9l6.33-40a5,5,0,0,1,4.91-4.2h4.13c10.77,0,21,0,26.21,6.15C912.26,229,913.21,234.42,912,242Z"/><path d="M1083.6,241.26H1055a4.94,4.94,0,0,0-4.9,4.2l-1.27,8-2-2.89c-6.19-9-20-12-33.76-12-31.6,0-58.58,23.93-63.83,57.5-2.73,16.75,1.14,32.76,10.64,43.93,8.73,10.26,21.18,14.54,36,14.54,25.46,0,39.57-16.37,39.57-16.37l-1.27,7.95a5,5,0,0,0,4.92,5.76h25.75a8.3,8.3,0,0,0,8.19-7L1088.53,247A5,5,0,0,0,1083.6,241.26Zm-39.86,55.65c-2.74,16.33-15.72,27.3-32.26,27.3-8.28,0-14.94-2.66-19.2-7.71s-5.81-12.14-4.48-20.09c2.59-16.2,15.76-27.52,32-27.52,8.12,0,14.72,2.7,19.07,7.79S1045,289,1043.74,296.91Z"/><path d="M1117.31,190.22,1092.8,346.14a5,5,0,0,0,4.91,5.75h24.64a8.29,8.29,0,0,0,8.2-7l24.17-153.11a5,5,0,0,0-4.91-5.75h-27.59A5,5,0,0,0,1117.31,190.22Z"/><path d="M297.17,252.13c-9.43,48.45-41.74,65.22-83,65.22h-6.37a10.24,10.24,0,0,0-10.13,8.73l-.52,2.79-8,50.9-.44,2.19a10.24,10.24,0,0,1-10.13,8.64H135.9a6.15,6.15,0,0,1-6-7.16l3.49-22.09,12.31-78.05a11.59,11.59,0,0,1,11.53-9.87h24c47.15,0,84.16-19.12,94.9-74.56.35-1.66.62-3.23.88-4.8a41.18,41.18,0,0,1,11.61,9C299.09,214.93,301.09,231.87,297.17,252.13Z"/><path d="M260.58,188.22c-1.74-.35-3.58-.7-5.41-1a120.54,120.54,0,0,0-15.54-1.49,121.07,121.07,0,0,1,15.54,1.4C257,187.52,258.84,187.87,260.58,188.22Z"/><path d="M277,194.07a51.4,51.4,0,0,0-8.91-3.76c-.78-.26-1.57-.52-2.44-.78-1.57-.44-3.32-.88-5.07-1.31s-3.58-.7-5.41-1a120.54,120.54,0,0,0-15.54-1.49c-1.84-.09-3.76-.09-5.68-.09H169.78a10.36,10.36,0,0,0-4.37,1,10.55,10.55,0,0,0-5.76,7.69L146,280.76l-.35,2.54-12.31,78.05H82.82a7,7,0,0,1-7-8.12L110,137a11.66,11.66,0,0,1,11.53-9.87h81.89c28.21,0,50.3,5.94,62.52,19.91C277,159.58,280.23,173.55,277,194.07Z"/></g></svg>