<svg xmlns="http://www.w3.org/2000/svg" viewBox="0 0 1230.52 500"><g id="Paypal"><g id="g122"><path id="path10364" d="M175.94,319.53a47.7,47.7,0,0,0,3.56-19.35,39.84,39.84,0,0,0-9.41-26.69c-7-7.73-19.05-14.15-35.7-19a56.87,56.87,0,0,1-9.4-3.36,23.85,23.85,0,0,1-7-5.16,12,12,0,0,1-3-8.54,12.47,12.47,0,0,1,6.68-10.87,32.36,32.36,0,0,1,26.05,0,66.88,66.88,0,0,1,10.64,5l14-27.86a80.25,80.25,0,0,0-20.05-8.86,89,89,0,0,0-22.27-2.84,59.08,59.08,0,0,0-21,3.46,46.78,46.78,0,0,0-16,10.42,48.43,48.43,0,0,0-10.63,16,52.16,52.16,0,0,0-3.57,19.32A41,41,0,0,0,91.3,269a68.15,68.15,0,0,0,24.83,13.88c4.36,1.66,9.18,3.16,12.26,4.33a46,46,0,0,1,9,4.57,15.44,15.44,0,0,1,4.8,5.57,12.26,12.26,0,0,1,1.05,6.75,13.52,13.52,0,0,1-4.68,9,22.26,22.26,0,0,1-15.14,4.16,45.8,45.8,0,0,1-18.38-4.39,139.63,139.63,0,0,1-14.65-8.14l-16.69,28.7a74.68,74.68,0,0,0,46.65,17,79.61,79.61,0,0,0,24.83-3.95A57.73,57.73,0,0,0,164,336,49,49,0,0,0,175.94,319.53Z"/><path id="path10370" d="M266.08,310.56a24.29,24.29,0,1,1-3.8-34.16,26.28,26.28,0,0,1,3.8,3.73l21.76-21.84a54.78,54.78,0,0,0-40.7-18c-30.34-.11-56.51,21.57-56.51,55s26.45,55.15,56.79,55.15a55.07,55.07,0,0,0,40.76-18Z"/><path id="path10352" d="M344.29,240.18a55.17,55.17,0,1,0,55.07,55.15A55.12,55.12,0,0,0,344.29,240.18Zm0,79.45a24.33,24.33,0,1,1,17.32-7.06A24.33,24.33,0,0,1,344.29,319.63Z"/><path id="path10354" d="M469.58,242.79h-15V210.27h-33v32.52h-15v29.87h15v75.16h33V272.66h15Z"/><path id="path10358" d="M501.14,191.93a18.39,18.39,0,1,0,18.32,18.38A18.38,18.38,0,0,0,501.14,191.93Z"/><path id="path10356" d="M484.66,242.79h32.92v105H484.66Z"/><path id="path10372" d="M646.35,347.94V242.79H614.28v11.14l-3-2.6a40,40,0,0,0-27.82-11.15c-28.35,0-52.29,25.24-52.29,55.11s24,55.15,52.29,55.15a40.08,40.08,0,0,0,27.82-11.14l3-2.63v11.15Zm-57.56-27.86a24.86,24.86,0,1,1,17.63-7.19A24.81,24.81,0,0,1,588.79,320.08Z"/><path id="path10376" d="M726.31,240.29a40.11,40.11,0,0,0-27.84,11.15l-3,2.62v-59.5H663.39V347.94h32.13V336.8l3,2.6a40.11,40.11,0,0,0,27.84,11.15c28.34,0,52.27-25.24,52.27-55.15S754.65,240.29,726.31,240.29ZM744,304.71a24.83,24.83,0,1,1-5.44-27.12A24.83,24.83,0,0,1,744,304.71Z"/><path id="path10374" d="M905,347.94V242.79H872.91v11.14l-3-2.6a40.14,40.14,0,0,0-27.84-11.15c-28.34,0-52.27,25.24-52.27,55.11s24,55.15,52.27,55.15A40.13,40.13,0,0,0,869.9,339.3l3-2.63v11.15Zm-57.35-27.86a24.86,24.86,0,1,1,24.77-24.85A24.84,24.84,0,0,1,847.63,320.08Z"/><path id="path10360" d="M973.31,271.1a19.65,19.65,0,0,1,19.57,19.62v57.22h32.93v-61.3c0-27.86-16.1-46-41.55-46-10.46,0-21.48,4.57-30.56,19.28V243.19h-33V347.94h32.69V290.72a19.65,19.65,0,0,1,19.88-19.62Z"/><path id="path10362" d="M1145.78,347.82l-40.42-52.49,37.58-52.54h-38.47l-30.24,42.53V194.56h-32.9V347.82h32.9V304.54l33.18,43.28Z"/><path id="path10366" d="M1169,311.11a18.39,18.39,0,1,0,18.26,18.43A18.39,18.39,0,0,0,1169,311.11Zm0,33a14.65,14.65,0,1,1,10.36-4.31,14.67,14.67,0,0,1-10.36,4.31Z"/><path id="path10368" d="M1169,332.51h-3v7h-3.56V319.42h7.62A6.56,6.56,0,0,1,1172.9,332l4.23,7.52h-4.34Zm-3-3.35h4.23a3.07,3.07,0,0,0,0-6.13H1166Z"/></g></g></svg>