<svg xmlns="http://www.w3.org/2000/svg" viewBox="0 0 1230.52 500"><g id="Kotak"><path d="M616.89,470.73c-121.71,0-220.73-99-220.73-220.73s99-220.73,220.73-220.73,220.73,99,220.73,220.73S738.6,470.73,616.89,470.73Zm0-417.39c-108.44,0-196.66,88.22-196.66,196.66s88.22,196.66,196.66,196.66S813.55,358.44,813.55,250,725.33,53.34,616.89,53.34Z"/><path d="M639.13,269.26h0c-1.43.1-8.89.54-25.46.54-13.26,0-22.54-.36-25.84-.54h0c-51-2.25-89-11.11-89-21.74s38.06-19.5,89-21.75v34.67c3.32.23,12.88.81,26.08.81,15.9,0,23.75-.68,25.22-.81V225.81c50.86,2.29,88.78,11.13,88.78,21.75S690,267,639.13,269.3m0-47.09v-31h71V143.94H516.89v47.27h71v31c-57.64,2.67-101,14.08-101,27.83s43.39,25.1,101,27.83v99.38h51.3V277.83C696.81,275.18,740,263.77,740,250s-43.27-25.1-100.85-27.83"/></g></svg>