<svg xmlns="http://www.w3.org/2000/svg" viewBox="0 0 1230.52 500"><g id="Euteller"><path d="M443.15,313.85V174.27H393V141.11H529.31v33.16H479.2V313.85Z"/><path d="M523.62,313.85V188.53h33.17v19.84c7.85-16.84,18-19.84,28.82-19.84h12.81v33.58H587.57c-15.6,0-29.54,9-29.54,36.46V314H523.62v-.1Z"/><path d="M614,268V188.53h34.3v71.7c0,14.67,7.13,25.52,21.8,25.52,14.15,0,23.14-10.85,23.14-25.32v-71.9h34.3V314H694.91V298.14c-8.26,12.5-20.56,18.7-36.16,18.7C631.27,316.74,614,297.83,614,268Z"/><path d="M742.23,278.62l29.85-6.82c1.45,9.71,9.2,17,24.18,17,11.57,0,18-4.75,18-10.64,0-4.75-2.59-8.26-14.47-10.84l-19.63-4.24C755,257.64,744.4,246.07,744.4,225c0-21.49,17.77-38.85,51.14-38.85,35.43,0,49.69,21.29,51.13,35.23L816.61,228c-1.44-7.33-6.82-15.39-21.8-15.39-9.5,0-16.53,4.24-16.53,10.44,0,5.16,3.52,8.05,9.71,9.5l28.62,6.61c21.8,5,31.92,18,31.92,36.47,0,19.84-15.8,40.71-52.06,40.71C756.59,316.22,743.57,292.36,742.23,278.62Z"/><path d="M914.45,313.85c-22.22,0-37.09-12.3-37.09-36.68V218.49H856.28V188.43h21.08v-27.9l34.3-9.91v37.81H937v30.06H911.66V271c0,9.2,4.75,12.81,13.94,12.81h13.23v30.07Z"/><path d="M957.42,313.85V141.21h34.3V314h-34.3Z"/><path d="M1095.14,188.53h36.67l-52.27,170.36h-36.68L1057.32,314h-18.9l-34.51-125.42h36.68l25.83,97Z"/><polygon points="98.71 216.84 179.19 216.84 179.19 152.58 243.45 216.84 179.19 280.99 179.19 313.85 257.19 313.85 257.19 216.84 328.78 216.84 328.78 141.21 98.71 141.21 98.71 216.84"/></g></svg>