<svg id="Layer_1" data-name="Layer 1" xmlns="http://www.w3.org/2000/svg" viewBox="0 0 500 260"><defs><style>.cls-1{fill:#000;}</style></defs><g id="g126"><path id="path128" class="cls-1" d="M349.52,180.2H329.44L357.37,79.34h20.08Z"/></g><g id="g130"><path id="path132" class="cls-1" d="M339.1,82.53c-1.39-1.92-3.54-2.89-6.46-2.89H222.23L216.76,99.4h20.09v0h80.36l-5.85,21.11H231v0H210.93l-16.67,60.17h20.09l11.19-40.38h90.33a12.86,12.86,0,0,0,8-2.89,13.43,13.43,0,0,0,4.92-7.14l11.18-40.39q1.23-4.41-.84-7.29"/></g><g id="g134"><path id="path136" class="cls-1" d="M182.56,173.9a9.23,9.23,0,0,1-8.89,6.76H70.06a7.22,7.22,0,0,1-6.3-2.89q-2.07-2.88-.88-7.14l25.28-91h20.09L85.68,160.91h80.39l22.58-81.27h20.09Z"/></g><g id="g138"><path id="path140" class="cls-1" d="M412.13,79.53l25.42,50.56-53.44,50.54Z"/></g><g id="g142"><g id="path144"><polygon class="cls-2" points="394.85 85.06 417.26 129.66 370.1 174.24 394.85 85.06"/><path class="cls-1" d="M395.39,90.59l19.41,38.64L374,167.85l21.44-77.26m-1.08-11.06-28.06,101.1,53.46-50.54-25.4-50.56Z"/></g></g></svg>