<svg width="63" height="60" viewBox="0 0 63 60" fill="none" xmlns="http://www.w3.org/2000/svg">
<path d="M56.7 -3.8147e-06H53.55V41.0526H56.7C58.3709 41.0526 59.9733 40.3872 61.1548 39.2028C62.3363 38.0183 63 36.4119 63 34.7368V6.31579C63 4.64074 62.3363 3.03429 61.1548 1.84985C59.9733 0.665409 58.3709 -3.8147e-06 56.7 -3.8147e-06ZM6.3 41.0526H28.35L24.8157 51.6884C24.5003 52.6376 24.4144 53.6484 24.565 54.6374C24.7157 55.6264 25.0985 56.5654 25.682 57.3771C26.2655 58.1887 27.0331 58.8498 27.9213 59.3058C28.8096 59.7618 29.7933 59.9997 30.7912 60H31.5L47.25 42.8274V-3.8147e-06H12.6L0.277195 27.1453L0 28.4211V34.7368C0 36.4119 0.663746 38.0183 1.84523 39.2028C3.02671 40.3872 4.62914 41.0526 6.3 41.0526Z" fill="#C11D1D"/>
</svg>
