<svg width="63" height="60" viewBox="0 0 63 60" fill="none" xmlns="http://www.w3.org/2000/svg">
<path d="M6.3 60H9.45V18.9474H6.3C4.62914 18.9474 3.02671 19.6128 1.84523 20.7972C0.663748 21.9817 0 23.5881 0 25.2632V53.6842C0 55.3593 0.663748 56.9657 1.84523 58.1502C3.02671 59.3346 4.62914 60 6.3 60ZM56.7 18.9474H34.65L38.1843 8.31158C38.4997 7.36236 38.5856 6.35162 38.435 5.36259C38.2843 4.37357 37.9015 3.43457 37.318 2.62293C36.7345 1.81129 35.9669 1.15024 35.0787 0.694218C34.1904 0.238198 33.2067 0.000259304 32.2088 0H31.5L15.75 17.1726V60H50.4L62.7228 32.8547L63 31.5789V25.2632C63 23.5881 62.3363 21.9817 61.1548 20.7972C59.9733 19.6128 58.3709 18.9474 56.7 18.9474Z" fill="#008A5E"/>
</svg>
