<svg id="Layer_1" data-name="Layer 1" xmlns="http://www.w3.org/2000/svg" viewBox="0 0 500 260"><defs><style>.cls-1{fill:#00b700;}</style></defs><path class="cls-1" d="M29.12,161.6c1.95-6,3.63-11.35,5.45-16.68,7.42-21.7,15-43.35,22.25-65.09,1.14-3.39,2.58-5.2,6.31-4.5a17.54,17.54,0,0,0,3.16,0c8.8,0,8.86,0,11.69,8.21q13,37.85,26,75.74c.18.54.34,1.09.71,2.28-5.44,0-10.5.18-15.52-.14-1.08-.07-2.52-1.78-3-3q-3.44-9.27-6.37-18.72c-.81-2.59-2.14-3.54-4.86-3.45-5.72.2-11.45.18-17.16,0-2.59-.08-3.71.91-4.44,3.31-1.91,6.3-4.16,12.51-6.11,18.8-.72,2.33-1.75,3.46-4.41,3.31C38.51,161.42,34.17,161.6,29.12,161.6ZM66.59,99.12c-2.82,8.33-5.23,15.49-7.69,22.75H74.38C71.83,114.45,69.44,107.45,66.59,99.12Z"/><path class="cls-1" d="M302.12,76.79c11.89-1.8,23.74-3.24,35.48-.28,12.57,3.16,19.36,11.95,19.66,24.22.32,13.08-6.09,23-18.4,26.85-6.35,2-13.16,2.52-20.36,3.82v29.88H302.12Zm16.17,38.9c3.24,0,5.93.23,8.57,0,9.27-.93,14.26-6.16,13.93-14.36-.31-7.58-5.64-12-14.82-12.35-1.5,0-3,0-4.5,0-2.22-.08-3.25.74-3.22,3.14C318.36,99.71,318.29,107.35,318.29,115.69Z"/><path class="cls-1" d="M294,134.79c-.14,7.22-4.2,17.51-15.22,23.77-10.73,6.1-21.91,6.24-32.61,0C234.93,152,231.45,141.12,231.53,129c.11-18.28,13.42-32,30.79-32.18C281.53,96.55,294,109.53,294,134.79Zm-44.63-10.27a24.72,24.72,0,0,0,.33,12.26,25.9,25.9,0,0,0,2,5.25c5.07,9.41,16.63,9.51,22.28.41,4.26-6.87,4.29-14.21,1.78-21.64-2.19-6.48-6.7-10-12.46-10-6.12,0-10.68,3.36-12.93,10A35.46,35.46,0,0,0,249.32,124.52Z"/><path class="cls-1" d="M409.47,98c5.47,0,10.55-.18,15.6.13,1.13.07,2.66,1.68,3.14,2.92,4.1,10.62,8,21.32,12,32,.3.8.71,1.56,1.44,3.16,3.64-10.63,7.09-20.43,10.32-30.31,2.58-7.86,2.46-7.9,10.53-7.9h9.69c-3.05,8-5.88,15.63-8.94,23.23-6.12,15.14-12,30.42-18.7,45.28-5.2,11.44-13.93,19.39-27.27,21.67L413,174.05c8.13-2,14.07-6.65,17.57-13.9a9.76,9.76,0,0,0,.48-7c-6.65-17.19-13.62-34.25-20.46-51.37C410.17,100.75,409.94,99.59,409.47,98Z"/><path class="cls-1" d="M360.54,103.5c9.4-5.8,19-8.1,29.34-6,10.91,2.19,17.25,9.54,18,20.64.4,6,.19,12,.24,18,0,4.22-.14,8.44.08,12.64s.82,8.36,1.32,13.18c-5.54-1.13-11.66,2.35-17-2.65-3.58,1-7.89,2.92-12.36,3.43-11.19,1.28-19.9-4.67-22.33-14.53-2.69-10.86,2.46-21.1,13.56-25.23,6.25-2.32,13-3.32,19.7-5,.16-4.49-2.84-7.88-8.74-7.3s-11.4,2.66-17.76,4.25C363.48,111.93,362.08,107.9,360.54,103.5Zm31.25,28.08c-4.79,1.19-9.42,1.85-13.64,3.53s-5.53,6.22-3.85,10.21c1.43,3.38,4.67,4.62,9.12,3.48C390.4,147,392.93,142.28,391.79,131.58Z"/><path class="cls-1" d="M111,144.14c4.5,1.67,8.48,3.47,12.65,4.54a12.23,12.23,0,0,0,7-.45c1.63-.62,3.55-2.58,3.76-4.16a6.63,6.63,0,0,0-2.38-5.19c-2.36-1.74-5.34-2.66-8.09-3.86-6.67-2.93-12.65-6.72-14.57-14.29-2.36-9.3,2.74-18.3,12.13-22,8.17-3.21,16.23-2.35,24.16.94,3.15,1.31,4.29,3.22,2.64,6.66a76.42,76.42,0,0,0-3,8.75c-3.42-1.39-6.65-3-10.06-4a9.85,9.85,0,0,0-5.69,0c-1.62.55-3.87,2.14-4,3.44a6.33,6.33,0,0,0,2.64,5c3.71,2.22,7.94,3.57,11.77,5.61,9.39,5,13,13.44,10.27,23.42A17.28,17.28,0,0,1,140.15,160c-10.26,4.59-20.47,3.78-30.51-1.07-2.2-1.06-2.79-2.43-2-4.63C108.77,150.88,109.91,147.48,111,144.14Z"/><path class="cls-1" d="M191.86,112.33h-14.5c0,10.51-.11,20.69.06,30.86.06,3.56,2.1,5.58,5.94,5,2.37-.37,4.71-.86,7.42-1.35.37,4.39.74,8.84,1.11,13.17-14.85,8.5-30.52,0-30.94-16.65-.26-10.07-.16-20.15-.23-30.23,0-.12-.16-.24-.52-.76h-8V98.21l8.56-.52V88.13l16.3-5V97.75h14.8Z"/><path class="cls-1" d="M198.08,98.18h14.09c.26,1.07.54,2.29.87,3.66a4.68,4.68,0,0,0,1.3-.48A19.51,19.51,0,0,1,229,96.75c2.57.17,3.81,1,3.69,3.79-.19,4.17-.05,8.35-.05,12.58a8.41,8.41,0,0,1-1.6.18c-10.94-1.26-16,3-16.31,14-.24,9.61-.07,19.23-.07,28.85,0,1.62,0,3.24,0,5.13H198.08Z"/><path class="cls-1" d="M87.82,100.38c-1.53-4.27-3.26-8.38-4.34-12.66-.26-1,1.3-3.16,2.54-3.87a83.79,83.79,0,0,1,31-10.29c15.8-2.11,31.49-1.38,46.82,3.44a51.53,51.53,0,0,1,8.76,3.71c-5.06,1.76-9.58,3.77-15.51,2.62C131.65,78.39,108.06,82,87.82,100.38Z"/></svg>