<svg xmlns="http://www.w3.org/2000/svg" viewBox="0 0 1230.52 500"><g id="Paypal"><path d="M61.69,306l16.16-10.77L94,306,61.69,327.56ZM216.81,194l-16.16,10.76L184.49,194l32.32-21.56Zm0,81.85-77.56,51.71L61.69,275.85l92.11-61.4L170,225.23,95.63,274.78l45.24,30.16,21-14-16.16-10.78,38.78-25.86,32.32,21.55ZM61.69,224.16l77.57-51.7,77.56,51.7-92.11,61.39-16.16-10.77,74.33-49.55-45.24-30.16-21,14,16.16,10.76L94,245.71,61.69,224.16ZM247.83,268v33.72h42.29c10.13,0,35.32-1.15,35.32-27.36a50,50,0,0,0-.37-6.37H298.82a25.41,25.41,0,0,1,.18,3.22c0,14.46-12,14.61-17.29,14.61h-7.85V268h-26v0Zm88.52,0L326,301.67h21.27l5.31-18.74h22.83l5.18,18.74h22.56L393.05,268H371.57l.48,1.94H355.72l.43-1.94Zm71.81,0v33.71h18.25V268Zm27.74,0L450,301.67h25.37V268H457.06v3.8l-1.59-3.8Zm48.15,0c.24,21.14,2.93,36.2,32.13,36.2,18.69,0,29.62-7.41,29.62-30.49H524.53c-.26,6.8-.37,17.57-8.35,17.57s-9.94-4.26-10.29-23.3Zm68.12,0c.46,19.35,4.05,36.2,32.87,36.2S617.46,287.31,617.9,268H595.83c-.41,16.16-2.48,23.29-10.8,23.29s-10.39-7.12-10.79-23.3Zm89.2,0v33.71h32.15c27.13,0,31-19.35,31.46-33.7H683.15c-.62,14.9-3.38,20.8-12.18,20.8h-8.18V268Zm71.7,0c.43,19.32,4,36.2,32.89,36.2s32.44-16.88,32.88-36.22l-22.09,0c-.41,16.2-2.46,23.33-10.8,23.33s-10.42-7.13-10.82-23.33Zm88.1,0v33.72h42.3c10.14,0,35.32-1.15,35.32-27.36a56.14,56.14,0,0,0-.35-6.37H852.53a30.21,30.21,0,0,1,.18,3.37c0,14.46-9.77,14.62-14.1,14.62H827.23v-18l-26.06,0Zm84.73,0v33.7H908V268Zm31.1,0,14.66,33.7h35.27l5.33-18.75h22.82l5.17,18.75h51.27c14.16,0,28.51-1.88,28.51-23.8a20.52,20.52,0,0,0-2.35-9.89l-31.94,0c6.56,3.1,11.64,6.26,11.64,11.26,0,5.74-3.07,9.63-9.37,9.63h-29.07L1012.68,268H991.2l.5,2H975.34l.45-2h-20l-8.08,26.1L935.94,268Zm171,0v33.71h21.53V268Zm34.15,0v33.71h46.66v-12.8H1143.7V268Z"/><path d="M273.87,268V256.59l5.2-.16h3.32c11.08,0,15.52,4.29,16.44,11.53h26.26c-1.34-10.74-6.74-18-21-19.83,13-2.58,19.48-11.16,19.48-23,0-22.05-15-26.77-33.26-26.77H247.83V268h26Zm82.28,0,7.34-32.67L371.57,268H393l-15.29-50.89H352L336.35,268Zm70.27,0V245.24L435.9,268h19.57l-21.31-50.89h-26V268Zm48.92,0V217.07H457.06V268Zm30.55,0q-.08-4.2-.06-8.39c0-27.11,2.07-31.68,9.95-31.68,5.68,0,8.22,4.3,8.22,15.77h21.14c.79-18.52-9.5-28.69-29.87-28.69C484.92,215,484,234.24,484,259.55c0,2.88,0,5.68,0,8.37l21.84,0Zm68.35,0c-.07-2.57-.09-5.36-.09-8.39,0-22.12,1.25-31.68,10.89-31.68s10.88,9.56,10.88,31.68c0,3,0,5.82-.09,8.37l22.07,0c.07-2.75.07-5.57.07-8.39C618,236.74,618,215,585,215s-32.93,21.76-32.93,44.59c0,2.82,0,5.64.06,8.4Zm88.57,0V230h8.75c11.75,0,11.75,13.74,11.75,29.39q0,4.69-.14,8.56H705c.12-3.47,0-6.65,0-9.2,0-26.45-4.84-42-30.72-42H641.37V268h21.44Zm72.35,0c-.06-2.74-.09-5.47-.09-8.21,0-22,1.26-31.53,10.89-31.53s10.88,9.52,10.88,31.53c0,3,0,5.69-.09,8.21h22.09c.06-2.71.06-5.44.06-8.21,0-22.72,0-44.39-32.94-44.39S713,237,713,259.75c0,2.75,0,5.5.07,8.19l22.09,0Zm92.09,0V256.75l6.56-.16h5.35c9,0,12.59,4.24,13.38,11.4h25.9c-1.34-10.73-6.76-18-21-19.83,13-2.58,19.48-11.17,19.48-23.05,0-22-15-26.77-33.27-26.77H801.18V268ZM908,268v-37.9h7.32c6.22,0,11.63,4.53,11.63,12.86,0,7.05-3.53,12.85-9.2,12.48l-6.15.09L917,268h19l-3.17-7c11-2,15.34-9,15.38-21.76,0-14.4-8.55-22.14-21.9-22.14H885.9V268H908Zm67.82,0,7.35-32.62L991.2,268h21.48l-15.27-50.91H971.6L955.82,268Zm101.87,0c-8.07-15.06-34.3-15.35-34.3-28.92,0-5.86,3.58-9,9.61-9h19.61V217H1045c-22.66,0-28.25,10.23-28.25,23.47,0,16.29,17,21.8,29,27.48l31.92,0Zm31.87,0V217.07H1088V268Zm34.15,0V217.07h-21.53V268ZM273.87,240.62V214.2h9.34c8.49,0,14.48,5.58,14.48,13.17,0,10-7.66,13.17-13.14,13.17h-8.76Zm553.38.16V214.36h12.59c6.9,0,11.78,5.59,11.78,13.17,0,10-6.23,13.17-10.7,13.17h-7.13Z"/></g></svg>