<svg xmlns="http://www.w3.org/2000/svg" viewBox="0 0 1230.52 500"><g id="Banorte"><path d="M225.4,328.62c-.16-3.55.38-7.32-.67-10.58s-.42-6.59-.64-9.86c-.24-3.59.71-7.42-.21-10.78-2-7.28-.14-14.68-1.38-21.8-1.51-8.64-.94-17.25-1.24-25.87,0-.55-.68-1.08-1.3-2l2.37-1.13c1.12.17,2.94.45,4.77.7,3.89.53,7.78-.6,11.8,1.15,3.24,1.41,7.52-.91,10.94,1.56,3.86-1,7.34,1,11,1.48a85.05,85.05,0,0,1,13.62,3.24c7.87,2.36,15.87,4.47,23.42,7.62a55.5,55.5,0,0,1,21,14.88c1.46,1.71,2.15,4.07,3.41,6.55v8.62c-1.46,2.41-2.67,4.66-4.12,6.75-2.53,3.67-6.55,5.48-10.17,7.81a91.64,91.64,0,0,1-29,12.23c-3.51.77-6.64,3.07-10.48,2.66-2.42,2.93-6.12,1-9.24,2.41-3.77,1.72-8.58,1.13-12.93,1.68-2.33.3-4.61,1-6.95,1.29s-4.49.15-6.73.29c-.18,0-.32.72-.48,1.11Z"/><path d="M1160.79,229.67l-1.94,2.33c-4.94,2.4-10.51,1.71-16,1.73-7.73,0-15.45,0-23.28,0l-5-2.87V203l1.79-1.78h41.12l3.31,4Zm-8.31-22.82h-29.59v21.46c8.5,0,16.67,0,24.83,0,1.9,0,3.6,0,4.76-2Z"/><path d="M353.71,211.36A38.31,38.31,0,0,1,338.87,225c-10,5.23-20.9,7.78-31.42,11.46-6.39-.23-12.25,3.15-18.67,2.71-3.9,2.2-8.54.2-12.25,1.72-4.08,1.66-8.07,0-11.86,1.06-8.86,2.48-17.86.61-26.76,1.31-4.14.33-8.36-1-12.5,1.15-1.21.63-3.56-.89-5.55-1.46.81-12-2.3-23.66-1.29-35.48-2.17-7.31-1.14-14.87-1.9-22.44-5.06,9.18-7.82,19.19-11.66,28.75s-6.92,19.73-11.13,29.52c-1-.62-1.68-1.34-2.36-1.37-3-.13-5.93.12-8.87-.11-2.56-.19-5.07-1.05-7.63-1.24s-5.13-.27-7.67-1.31c-2.12-.87-5,1-6.9-1.46-5.26.09-10.2-1.63-15.26-2.7a102.59,102.59,0,0,1-21-6.87c-5.42-2.45-11.35-4.25-15.29-9.18-4.47-.54-3.68-5.37-6.2-7.5-.31-9,.76-10,8.64-15.91,8.2-6.17,17.73-8.88,27.13-12,6.28-2.06,12.86-3.17,19.37-4.48s13.3-1.21,19.54-3.74a2.2,2.2,0,0,1,.68,0L198,174.09c6.63-.45,13.27-1.08,19.91-1.3,6.82-.23,13.66-.21,20.48,0,4.15.13,8.26,1,12.41,1.25s8.4-.75,12.23.26c4.21,1.1,8.3.91,12.46,1.16,3.26.2,6.28,1.61,9.69,1.46,3-.14,6,.79,9,1.23,3.23.46,6.74.25,9.61,1.51,4.57,2,9.49,2.24,14.1,3.86,4.37,1.53,8.91,2.75,13.22,4.32a63.91,63.91,0,0,1,15.53,8.49C351.46,199.9,354.47,205,353.71,211.36Z"/><path d="M192.37,246.12c-10.12,27.31-20.06,54.14-30.17,81.41-4-.32-8.15,0-11.87-1.13s-7.36.56-10.91-1.67c-1.74-1.1-4.51-.44-6.91-1.32s-5-.57-7.57-1.5a43.63,43.63,0,0,0-6.91-1.42c-7.24-1.39-29.74-10.33-35.25-15.08-4.54-3.91-9.25-7.78-11-14.4a13.8,13.8,0,0,1,1.43-11A29.18,29.18,0,0,1,82,270.73a99.13,99.13,0,0,1,27.85-13.41c6.44-2,13-4.18,19.91-4.88,3.86-.39,7.91-1.84,11.87-2.28s7.82-1.24,11.64-1.83c5.1-.78,10.33,0,15.12-1.24,7.38-1.86,14.69-.64,22-1.14A12.41,12.41,0,0,1,192.37,246.12Z"/><path d="M462.61,251.56c1.43,1.05,3.27,2.21,4.88,3.63a10.31,10.31,0,0,1,3.75,8.61c-.19,4.5,0,9,0,13.53-1.33,4.07-4.32,6.44-9,7l.58,1.33,5.86,3.07c5,6.47,4.16,14.06,3.84,21.39-.15,3.44-6.56,9.41-10.25,10.28a39.72,39.72,0,0,1-9,1.35c-23.39.11-46.79.06-70.49.06V251.56Zm-11,40.67H403.25v15.9h46l4.3-3.1C453.2,300.44,454.32,296.17,451.62,292.23Zm-48.56-13.77h47l3.19-3.18v-8.57c-1.19-1.18-2.15-2.14-3-3H403.06Z"/><path d="M732.7,316.48c-2.8-6.21-2-11.77-2-17.25-.07-9.24,0-18.49,0-27.74,0-4.59-.62-9.25,2.17-14.58l5.11-4.36c4.36-2,10.41-1.16,16.36-1.17,20.67-.06,41.35,0,62,0a25.31,25.31,0,0,1,7,1.11,7.9,7.9,0,0,1,5.68,4.66c1.44,3.12,2.74,6.18,2.72,9.73-.08,12.63,0,25.26-.05,37.89s-4.75,17-17.16,17.06c-22.72.1-45.44.05-68.16,0C740.69,321.82,735.78,320,732.7,316.48Zm18.43-52.82v44.39c19.81.81,54.45.53,59.85-.43v-44Z"/><path d="M945,286.18l-5.7,7.14L919,296.73l35,24.79H925.13l-31-25.26H875.51v25.3H856.43v-70.2h5.84q30,0,60,0c5.52,0,11.13-.76,17.55,2.1l5.24,6.29Zm-67.33-22.53-2.29,1.82v15.06c.68.66,1.32,1.3,2,2H922l3.81-3.16V267.75c-1.46-2-2.39-3.25-3-4.1Z"/><path d="M688.51,298.07V251.49h17.32v70.16c-2.12.06-4.52.15-6.91.18s-4.55,0-6.8,0l-65.76-48.26c2.59,5.84,1.79,10.84,1.86,15.78.07,5.42,0,10.83,0,16.25v16.23H609.31V251.68h15.62Z"/><path d="M1156.56,308.05v13.59h-82.85V251.53H1155v12h-62.27V278c-.1-.1,0,.09.21.21a1.11,1.11,0,0,0,.58.23c12.26,0,24.51,0,37,0v12.05h-35.81l-2.07,2.05v15.49Z"/><path d="M595.91,321.66H574c-1.63-2-3.81-4.43-5.61-7.09-1.66-2.44-2.91-5.15-4.23-7.55H513.07l-9,14.62H485c-.55-3.71,2.48-5.46,4-7.84,8.06-12.52,16.36-24.9,24.5-37.38,4.75-7.28,9.35-14.67,14-22,.56-.88,1-1.84,1.59-2.92h20.55Zm-57-56c-2.91,5-5.16,9.6-8.07,13.72-3,4.3-6.15,8.44-8,13.68H555C550.3,283.5,544.51,275.19,539,265.68Z"/><path d="M961.55,263.78V251.56h94c.3,3.68,0,7.62.15,11.77H1019v58.28H998.52V263.78Z"/><path d="M428.86,215c0,2.93-.11,5.61,0,8.28.26,4.77-.94,8.6-7.56,10.47-8.84,0-19.26-.06-29.68,0a9.26,9.26,0,0,1-7.7-3.34V203.09l1.67-1.66h40.45l2.53,5.91c-2.21,1.23-4.52,2.87-7.52,1.73-.28-.79-.57-1.57-.84-2.29H392.18V228h26.75l1.6-1.59v-6H405.92L405.6,215Z"/><path d="M649.4,201.2l1.89,1.88v27.61a15.21,15.21,0,0,1-9.08,3.06c-9.31,0-18.62.09-27.92-.09-2.52,0-5-1-8.14-1.62a70.09,70.09,0,0,1-1.08-8c-.16-6.3-.05-12.61-.05-19.7l5.44-3.14Zm-36.17,25.17c3.12,3.38,6.72,1.58,9.92,1.87a91.28,91.28,0,0,0,10.2.06c3.31-.07,6.65.31,9.68-.2V207h-29.8Z"/><path d="M486.17,233.73H476c-2.71-2.22-5.39-4.48-8.13-6.66s-5.54-4.29-8.72-6.75h-6.91c-3.12,4-.67,8.69-1.83,13.15h-7.76v-32h37.73l3,3.41V217l-4.3,3.49h-8.7c2.41,3.64,6.17,4.24,8.32,6.65S484.7,230.1,486.17,233.73Zm-11.12-19.41v-7.26l-1.63-1.61H452.58c-.66.66-1.14,1.14-1.75,1.73v7.75c7.39,2.58,15.07.38,22.31,1.29Z"/><path d="M1075.88,220.18c-2.86.27-5.75-1.08-7.92,2.12v11.2h-7.8c.1.1-.08-.05-.2-.24a1.17,1.17,0,0,1-.21-.58c0-10.34,0-20.68,0-31.25h37.81l3.11,3.26v12.23l-4.15,3.34h-8.6c.83,1.24,1.14,2.13,1.77,2.6,4.59,3.37,9.24,6.65,14.86,10.67h-11.73Zm16.42-5.88v-7.21l-1.51-1.5h-22.66v8.69l1.74,1.72h20.71Z"/><path d="M766.2,210.59v22.9h-7.79c.09.09-.1,0-.22-.22a1.1,1.1,0,0,1-.22-.58c0-10.35,0-20.7,0-31.27h7.58l30.23,22.1c.9-7.63.09-14.74.56-22.05h6.56v31.88c-5.36,1.94-8.62-2.22-12.1-4.53-6.51-4.32-12.45-9.46-18.67-14.21C770.41,213.31,768.56,212.19,766.2,210.59Z"/><path d="M878.17,210.46v23h-6.43c.1.09-.2-.06-.2-.22,0-10.54,0-21.08,0-31.85h6.18l30,22.12c.91-7.65.09-14.76.56-22.07h6.56v31.94c-3.57,1.09-6.23-.5-8.92-2.52-6-4.54-12.16-8.95-18.25-13.42C884.71,215.29,881.74,213.09,878.17,210.46Z"/><path d="M930.4,231c0-9.73,0-18.92.06-28.1,0-.48.9-.95,1.5-1.54h35.88c.59.83,1.51,2.1,3,4.14v4.7c-1.85,3-4.83,1.59-7.76,1.94-.15-1.72-.3-3.41-.46-5.28H938.52v21.32h22.41l1.81-1.8v-5.56l8.49,1.18c-.37,3.3-.76,6.64-1.1,9.67-8.85,3.51-17.41,1.64-25.79,2.1a36.78,36.78,0,0,1-6.12,0,30,30,0,0,1-5.56-1.34A10,10,0,0,1,930.4,231Z"/><path d="M532.85,233.73c-7,0-15.88,0-24.73,0-6.58,0-7.36-.45-10.78-5.79v-26.6h8c0,7.41,0,14.78,0,22.15,0,1.82-.28,3.7,2.84,4.7h22.9V201.55h9.78c0,7.49.25,15.1-.1,22.69C540.55,228.26,539.72,232.49,532.85,233.73Z"/><path d="M1017.55,218.58v9.57h29.6v5.43h-37.67V201.65c-.12.12,0-.07.18-.2a1.13,1.13,0,0,1,.58-.24h37v3.91h-29.64v8.21H1035v5.26Z"/><path d="M564,220.18v13.35h-7.85V201.38h37.42l3,3v10.93l-1.69,3.43c-1.55.4-3.58,1.32-5.62,1.37C581.11,220.28,572.93,220.18,564,220.18Zm.16-5.42c7.18,0,13.73.07,20.28-.06,1.39,0,2.77-.79,4-1.18v-6.65c-8-3.2-16.21-.88-24.32-1.64Z"/><path d="M831.92,201.31h9c7.45,9.8,14.07,20.71,21.88,32.06l-8.61.51-6.61-8.24H824.25l-5,7.81h-8.14ZM827.74,220h16.57c-2-5.11-5.35-8.95-7.75-14Z"/><path d="M727.78,201.44v3.65H700.11l-2,2v7.62H714v5c.09-.09-.07.21-.24.21-4.71,0-9.42,0-13.65,0L698,222.12v11.35h-8.16v-32Z"/><path d="M735,201.32h7.74v32.05H735Z"/><path d="M984.85,201.33h7.76v32.06h-7.76Z"/></g></svg>