<svg xmlns="http://www.w3.org/2000/svg" viewBox="0 0 1230.52 500"><g id="Paypal"><path d="M289.16,256.14a88.07,88.07,0,0,1,11,4.73,59.87,59.87,0,0,1,18.89,17.32q9.46,15.74,9.43,37.75,0,75.54-91.26,75.52h-118c-3.15,0-4.73-1.57-4.73-4.73V144.42q0-4.72,4.73-4.73H243.55q33.06,0,53.49,18.1t20.46,48q0,17.34-7.85,30.69T289.16,256.14Zm-53.49,99.12q26.75,0,39.33-8.64t12.58-29.9q0-21.24-12.58-29.89t-39.33-8.64H161.72c-4.21,0-6.3,1.57-6.3,4.72v67.68c0,3.15,2.09,4.73,6.3,4.73h73.95ZM161.72,175.89q-4.72,0-4.73,4.73v56.64q0,4.73,4.73,4.73h72.37Q275,242,275,208.94t-40.91-33.05Zm382.36,80.25a39.85,39.85,0,0,1,9.43,4.73q12.56,6.33,18.89,17.32,11,15.74,11,37.75,0,75.54-91.26,75.52h-118c-3.15,0-4.73-1.57-4.73-4.73V144.42q0-4.72,4.73-4.73H498.45q31.47,0,52.73,18.1t21.25,48q0,17.34-7.86,30.69T544.08,256.14ZM415,175.89q-4.73,0-4.73,4.73v56.64q0,4.73,4.73,4.73H489q40.89,0,40.91-33.05T489,175.89Zm75.53,179.37q26.74,0,39.33-8.64t12.58-29.9q0-21.24-12.58-29.89t-39.33-8.64H415q-4.73,0-4.73,4.72v67.68q0,4.73,4.73,4.73h75.53ZM808.41,142.84c1-2.09,2.09-3.15,3.15-3.15h40.91a4.64,4.64,0,0,1,3.15,1.58,2,2,0,0,1,0,3.15L725,389.89a5.73,5.73,0,0,1-7.88,0L586.56,144.42c-1.06-1-1.33-2.09-.79-3.15s1.82-1.58,3.94-1.58H629a5.09,5.09,0,0,1,4.73,3.15L717.15,300.2c0,1.06,1,1.58,3.15,1.58A6.42,6.42,0,0,0,725,300.2Zm47.21,209.3a5,5,0,0,1-4.73,3.15H810a2.51,2.51,0,0,1-2.37-1.58,6.72,6.72,0,0,1-.79-3.15L937.45,105.09a6.45,6.45,0,0,1,4.73-1.57,6.55,6.55,0,0,1,4.73,1.57l130.56,245.47a7,7,0,0,1-.79,3.15,2.54,2.54,0,0,1-2.36,1.58h-40.91a5,5,0,0,1-4.72-3.15L946.85,194.78a5.08,5.08,0,0,0-4.73-3.15,5,5,0,0,0-4.72,3.15Z"/></g></svg>