<svg xmlns="http://www.w3.org/2000/svg" viewBox="0 0 1230.52 500"><defs><style>.cls-1,.cls-2{fill:#231f20;}.cls-2{fill-rule:evenodd;}</style></defs><g id="Kotak"><rect class="cls-1" x="347.87" y="111.41" width="29.53" height="122.18"/><rect class="cls-1" x="386.71" y="111.41" width="9.15" height="122.18"/><rect class="cls-1" x="403.84" y="111.41" width="16.38" height="122.18"/><rect class="cls-1" x="436.02" y="111.41" width="9.15" height="122.18"/><rect class="cls-1" x="449.15" y="111.41" width="7.05" height="122.18"/><polygon class="cls-2" points="325.41 111.42 334.56 111.42 334.56 387.96 325.41 387.96 325.41 111.42 325.41 111.42"/><polygon class="cls-2" points="305.23 111.42 321.61 111.42 321.61 387.96 305.23 387.96 305.23 111.42 305.23 111.42"/><rect class="cls-1" x="505.12" y="111.41" width="29.53" height="122.18"/><rect class="cls-1" x="543.96" y="111.41" width="9.15" height="122.18"/><rect class="cls-1" x="561.09" y="111.41" width="16.38" height="122.18"/><rect class="cls-1" x="593.27" y="111.41" width="9.15" height="122.18"/><rect class="cls-1" x="606.4" y="111.41" width="7.06" height="122.18"/><rect class="cls-1" x="482.66" y="111.41" width="9.15" height="122.18"/><rect class="cls-1" x="462.48" y="111.41" width="16.38" height="122.18"/><rect class="cls-1" x="625.06" y="111.41" width="16.38" height="122.18"/><rect class="cls-1" x="657.24" y="111.41" width="9.15" height="122.18"/><rect class="cls-1" x="670.37" y="111.41" width="7.05" height="122.18"/><rect class="cls-1" x="703.88" y="111.41" width="9.15" height="122.18"/><rect class="cls-1" x="683.69" y="111.41" width="16.39" height="122.18"/><rect class="cls-1" x="725.2" y="111.41" width="9.15" height="122.18"/><rect class="cls-1" x="738.33" y="111.41" width="7.06" height="122.18"/><rect class="cls-1" x="771.84" y="111.41" width="9.15" height="122.18"/><rect class="cls-1" x="751.66" y="111.41" width="16.38" height="122.18"/><rect class="cls-1" x="788.97" y="111.41" width="29.54" height="122.18"/><rect class="cls-1" x="827.81" y="111.41" width="9.16" height="122.18"/><rect class="cls-1" x="844.94" y="111.41" width="16.39" height="122.18"/><rect class="cls-1" x="877.12" y="111.41" width="9.15" height="122.18"/><rect class="cls-1" x="890.25" y="111.41" width="7.06" height="122.18"/><polygon class="cls-2" points="908.91 111.42 925.29 111.42 925.29 387.96 908.91 387.96 908.91 111.42 908.91 111.42"/><path class="cls-1" d="M349.31,382.64V242.41h52.62q16.05,0,25.78,4.24a33,33,0,0,1,15.18,13.12,34.28,34.28,0,0,1,5.52,18.51,31.88,31.88,0,0,1-4.87,16.91q-4.85,7.94-14.68,12.83,12.72,3.72,19.55,12.73A33.9,33.9,0,0,1,455.26,342a41.08,41.08,0,0,1-4.17,18.35,35.59,35.59,0,0,1-10.29,13.06,43.61,43.61,0,0,1-15.34,6.92,93.73,93.73,0,0,1-22.65,2.35Zm18.6-81.28h30.33c8.22,0,14.13-.56,17.69-1.63,4.73-1.41,8.29-3.76,10.67-7a20.23,20.23,0,0,0,3.59-12.28,22.38,22.38,0,0,0-3.36-12.3,16.86,16.86,0,0,0-9.56-7.31q-6.22-2-21.32-2h-28v42.5Zm0,64.82h34.93a79.08,79.08,0,0,0,12.67-.68,30,30,0,0,0,10.7-3.82,20.55,20.55,0,0,0,7.08-7.83A24.35,24.35,0,0,0,436.07,342,23.23,23.23,0,0,0,432,328.32a21.14,21.14,0,0,0-11.16-8.16c-4.73-1.57-11.59-2.35-20.5-2.35H367.91v48.37Z"/><path class="cls-1" d="M472.11,331.81q0-28.15,15.7-41.71c8.71-7.51,19.39-11.26,31.95-11.26q20.91,0,34.25,13.71t13.28,37.83q0,19.58-5.87,30.78a41.67,41.67,0,0,1-17.14,17.43,49.83,49.83,0,0,1-24.52,6.2q-21.35,0-34.5-13.64t-13.15-39.34Zm17.62,0q0,19.48,8.52,29.15a28.54,28.54,0,0,0,42.89,0q8.52-9.73,8.52-29.67,0-18.8-8.58-28.46a28.56,28.56,0,0,0-42.83-.07q-8.52,9.64-8.52,29.09Z"/><polygon class="cls-1" points="587.1 382.64 587.1 242.41 604.34 242.41 604.34 382.64 587.1 382.64 587.1 382.64"/><path class="cls-1" d="M700.34,349.73l17.82,2.35q-4.15,15.53-15.54,24.13t-29,8.58q-22.22,0-35.25-13.71t-13-38.42q0-25.56,13.15-39.69t34.18-14.13q20.33,0,33.2,13.84t12.89,39c0,1,0,2.55-.1,4.57H643c.66,11.13,3.79,19.68,9.47,25.59a28.13,28.13,0,0,0,21.18,8.88,26.08,26.08,0,0,0,16.13-5q6.71-5,10.61-16Zm-56.41-27.61h56.6c-.75-8.55-2.93-14.95-6.49-19.23a26.32,26.32,0,0,0-21.28-9.95,27.28,27.28,0,0,0-19.91,7.93q-8,7.94-8.92,21.25Z"/><path class="cls-1" d="M777.34,367.26l2.35,15.21a63.67,63.67,0,0,1-13,1.54c-6.23,0-11.06-1-14.52-3a16.64,16.64,0,0,1-7.25-7.8q-2.1-4.86-2.09-20.37V294.31H730.14V281h12.73V255.85l17.24-10.34V281h17.23v13.32H760.11v59.54c0,4.93.29,8.09.91,9.49a7.15,7.15,0,0,0,2.94,3.37,11.63,11.63,0,0,0,5.87,1.24,53.68,53.68,0,0,0,7.51-.69Z"/><path class="cls-1" d="M787.88,331.81q0-28.15,15.71-41.71,13.06-11.27,31.95-11.26,20.91,0,34.24,13.71t13.29,37.83q0,19.58-5.88,30.78a41.65,41.65,0,0,1-17.13,17.43,49.83,49.83,0,0,1-24.52,6.2q-21.35,0-34.5-13.64t-13.16-39.34Zm17.63,0q0,19.48,8.52,29.15a28.54,28.54,0,0,0,42.89,0q8.52-9.73,8.52-29.67,0-18.8-8.58-28.46a28.56,28.56,0,0,0-42.83-.07q-8.52,9.64-8.52,29.09Z"/></g></svg>