<svg xmlns="http://www.w3.org/2000/svg" viewBox="0 0 1230.52 500"><defs><style>.cls-1{fill-rule:evenodd;}</style></defs><g id="Elo"><path class="cls-1" d="M353.39,168.49a87.76,87.76,0,0,1,27.37-4.32c41.78,0,76.66,29.06,84.64,67.71L524.6,220C511,154.36,451.8,105,380.77,105a149,149,0,0,0-46.54,7.39Z"/><path class="cls-1" d="M284.65,358.79,325.17,314a84.19,84.19,0,0,1,0-128l-40.51-44.79C253.9,167.83,234.52,206.7,234.52,250s19.38,82.18,50.13,108.8"/><path class="cls-1" d="M465.41,268.13c-8,38.64-42.85,67.68-84.59,67.68a87.41,87.41,0,0,1-27.41-4.35l-19.18,56.2A149.17,149.17,0,0,0,380.81,395C451.76,395,511,345.68,524.6,280Z"/><path class="cls-1" d="M692.19,297.64l0,.05-1.68-1.14a47.32,47.32,0,0,1-21.87,18.38c-18.08,7.89-34.83,5.87-46.86-4.73l-1.1,1.69s0,0,0,0l-20.52,30.83a88,88,0,0,0,16.31,9c22.67,9.47,45.86,9,68.7-1,16.54-7.19,29.49-18.16,38.36-32.06Zm-64.06-76.07C609,229.8,599.2,247.8,601.22,268.89l80.89-35C668.19,217.5,650.1,212.07,628.13,221.57ZM574.44,315.5a105.74,105.74,0,0,1-6.14-11.87,87.51,87.51,0,0,1-1.9-65.9c8.67-23.71,25.21-41.86,46.61-51.1,26.88-11.63,56.61-9.33,82.38,6,16.37,9.43,28,24,36.79,44.59,1.13,2.63,2.11,5.45,3.08,7.85L574.44,315.49Zm217-174.28V312.65L818,323.45l-15.08,35.34-29.28-12.25a33.31,33.31,0,0,1-14.44-12.18c-3.24-5-5.66-11.94-5.66-21.25V141.22ZM860.2,269a48.57,48.57,0,0,0,16.47,36.55l-27.19,30.52a89.83,89.83,0,0,1,.09-134.15l27.22,30.49A48.57,48.57,0,0,0,860.2,269Zm48.37,48.65A48.46,48.46,0,0,0,956,278.87l40,8.2a89.11,89.11,0,0,1-115.73,66.87l13-38.82A48.93,48.93,0,0,0,908.57,317.63Zm.12-138.18c43.14,0,79.09,30.87,87.31,71.76l-40,8.13a48.46,48.46,0,0,0-47.39-38.95,49,49,0,0,0-15.34,2.49L880.42,184A88.47,88.47,0,0,1,908.69,179.45Z"/></g></svg>