<svg id="Layer_1" data-name="Layer 1" xmlns="http://www.w3.org/2000/svg" viewBox="0 0 500 260"><defs><style>.cls-1{fill:#000;}</style></defs><path class="cls-1" d="M269.64,230.42c23,1.67,45.31-2.83,59.31-12.16a27.35,27.35,0,0,0,3.33-2.83c.83-1,1.66-1.83,2.5-2.83a41.63,41.63,0,0,0,7.66-13.16,21.44,21.44,0,0,0,1.17-4.67l.16-.5a12.27,12.27,0,0,0,.17-2.49v-1.67a10.48,10.48,0,0,0-.5-3.16,127,127,0,0,1-9.83,9c-29.65,24-62.14,25.82-80,24.49A90.42,90.42,0,0,1,236,217.6a105.88,105.88,0,0,1-35.48-17.66,101.87,101.87,0,0,0,20,15.82c14,8.17,30.82,13.16,49.14,14.66M175.69,67.67c-15.33,14-25.15,31.65-27.49,49-.16,1.33-.33,2.66-.5,3.83v.16h0c-.16,1.84-.16,3.84-.33,5.67A110.31,110.31,0,0,0,249.65,240.08H252c.34,0,.67.17,1.17.17,21.32,1.67,41.15-1.83,57.14-9.33a124.47,124.47,0,0,1-40.81,3.67c-19-1.5-36.65-6.83-51.15-15.49-28.31-17-38-40-42.14-49.65l-.5-1c-6.66-14.16-9.5-30.65-8.16-48.8l.16-2.17h.17c3.17-32,23.16-59.3,50.47-73.13a122.07,122.07,0,0,0-42.64,23.32m98.95,36c-.5,6.33-4.33,21-29.32,19.16-.83,0-1.66-.17-2.5-.17,2.5,6,9.5,16.66,29.15,18.16,24,1.83,41.48-14.49,42.65-31a23.49,23.49,0,0,0-.5-6.83,8.53,8.53,0,0,1-.5-1.17,3.28,3.28,0,0,0-.67-1.33,3.39,3.39,0,0,0-.66-1c-.17-.33-.5-.83-.67-1.17s-.5-.66-.66-1a3.31,3.31,0,0,1-.67-1c-.33-.33-.5-.66-.83-.83-.34-.33-.5-.67-.84-.83-.33-.34-.5-.5-.83-.83L307,93c-.34-.33-.67-.5-.84-.66-.33-.17-.5-.5-.83-.67s-.67-.5-1-.67a2.83,2.83,0,0,1-.83-.66l-1-.5c-.33-.17-.5-.34-.83-.5l-1-.5a4,4,0,0,1-.84-.5l-1-.34a2.9,2.9,0,0,0-.83-.33l-1-.33-.83-.33c-.33-.17-.67-.17-1-.34l-.83-.16-.84-.17-1-.17-.83-.16-.83-.17c-.5,0-1-.17-1.33-.17h-.17a32,32,0,0,0-5.66-.16h-1a34.29,34.29,0,0,0-4.17.33h-.33a25.63,25.63,0,0,0-3.83.67l-1,.16a37.05,37.05,0,0,0-4,1.17l-.67.16a32.12,32.12,0,0,0-3.5,1.34l-.83.33-.5.33c6.5,1.34,11.33,7.33,10.83,13.66m-6.33,61.14c-1.33-.17-2.83-.33-4.16-.5h0c-38.15-5.16-54.31-22.49-61-36.32A50.69,50.69,0,0,1,199,115.65l-.17-1c0-.34-.16-.5-.16-.83a44.34,44.34,0,0,1-.67-6.67,69.42,69.42,0,0,0-3.5,16.49,62.47,62.47,0,0,0,57.47,67h1.67a32.46,32.46,0,0,0,5.66.17c25-3.17,41.82-14.5,53-27.66A91.51,91.51,0,0,0,321,150.8a60,60,0,0,0,4.16-8,63.61,63.61,0,0,1-56.8,22m-31-45.31c.83-10.16,5.16-20,11.66-25.65h0a8.06,8.06,0,0,1,1.16-1,55.19,55.19,0,0,1,36-12.33c1.67,0,3.5.17,5.17.33.33,0,.5.17.83.17.5.16,1.17.16,1.67.33l1,.17c.5.16,1,.16,1.5.33l1,.33,1.33.34c.33.16.66.16,1,.33s.83.33,1.16.5l1,.5c.34.17.84.33,1.17.5l1,.5,1.16.67.84.5.66.5c-7.66-9.83-21.32-18-42.31-19.66C239.49,65,217.84,74.67,205,93.66a21.63,21.63,0,0,0-2.33,8.83v1.16a42.15,42.15,0,0,0,.5,9.17,46.67,46.67,0,0,0,4.33,13.82c5.33,10.5,16.66,23.16,40.64,30-6.83-6.5-12.32-17.66-10.82-37.15m25.82-84.63c-2.5-.16-4.84-.33-7.33-.33h-7.33c-1.34,0-2.5.17-3.83.17-1,0-1.84.16-2.84.16-.83,0-1.66.17-2.66.17l-3.83.5c-.5,0-1,.17-1.5.17a47.34,47.34,0,0,0-4.83.83l-.5.17c-30.82,6-55.31,23-70.13,43.64C177.36,41,218.83,16,266,19.7h1l2.33.16a98.81,98.81,0,0,1,51.31,21l.5.5c22,18.16,33.48,44,31.31,71-2.66,35.81-27.48,64.13-61.8,74.63a89.26,89.26,0,0,0,22.66-18.33,96,96,0,0,0,11-15c11.66-19.33,13.49-36,13.49-37.65a48.63,48.63,0,0,0,.84-6.66c2.66-34.32-24.49-65.8-63.3-73-1.84-.33-5.17-.66-7.5-1v-.16L265.48,35H264c0-.17-.5-.17-.83-.17"/></svg>
