<svg xmlns="http://www.w3.org/2000/svg" viewBox="0 0 1230.52 500"><g id="Euteller"><path d="M192.53,270.05l-22.24-.27V183.25a11.33,11.33,0,0,1,12.08-12.08,22.82,22.82,0,0,1,6,.82,26.4,26.4,0,0,1,4.12,1.37Zm-22.24-32.41h22.24V336c-.73.19-2.1.6-4.12,1.24a19.84,19.84,0,0,1-6,1,11.62,11.62,0,0,1-8.79-3.43,12,12,0,0,1-3.29-8.65Zm12.08-47.52v-19h91.19a13.1,13.1,0,0,1,1.65,3.57A16.4,16.4,0,0,1,276,180a11.72,11.72,0,0,1-2.2,7.28,7.48,7.48,0,0,1-6.32,2.88Zm0,71.69V243.13h82.68a13.4,13.4,0,0,1,1.65,3.57,16.4,16.4,0,0,1,.82,5.22,11,11,0,0,1-2.2,7.14,7.58,7.58,0,0,1-6.31,2.75Zm0,76.36V319.49h92.57a13.46,13.46,0,0,1,1.65,3.44,16,16,0,0,1,.82,5.35,11.06,11.06,0,0,1-2.2,7.15,7.6,7.6,0,0,1-6.31,2.74Z"/><path d="M332.9,281h-22V211.82a33.08,33.08,0,0,1,4.26-1.24,27,27,0,0,1,6.18-.68q5.77,0,8.65,2.33t2.89,7.83Zm-22,10.71v-25h22v23.89q0,17.58,9.34,25.27t25.82,7.69a64.8,64.8,0,0,0,18.67-2.33,61.62,61.62,0,0,0,12.09-4.81V266.76h22v48.89a23.18,23.18,0,0,1-1.51,9.2q-1.51,3.43-7.28,6.73-6,3.57-17.3,6.87t-26.92,3.29q-18.13,0-30.9-5.35a39.57,39.57,0,0,1-19.37-16.48Q310.93,308.78,310.92,291.75ZM420.79,281h-22V211.82a32.12,32.12,0,0,1,4.26-1.24,25.79,25.79,0,0,1,5.9-.68q6,0,8.93,2.33t2.88,7.83Z"/><path d="M484.24,273.9h-22V174.46a34.09,34.09,0,0,1,4.26-1.23,26.47,26.47,0,0,1,6.18-.69q5.76,0,8.65,2.33t2.88,7.56Zm-22-8.24h22v37.9q0,11,6.32,15.52t17.3,4.53A38.61,38.61,0,0,0,518.3,322a43.6,43.6,0,0,0,9.62-3.85,18.86,18.86,0,0,1,3,4.12,11.75,11.75,0,0,1,1.37,5.77q0,6-7.14,9.89t-19.78,3.84q-19.23,0-31.17-8.51t-12-28.29Zm11.26-33.51V214h55.76a13.1,13.1,0,0,1,1.65,3.57,16.4,16.4,0,0,1,.82,5.22,9.92,9.92,0,0,1-2.2,6.86,7.66,7.66,0,0,1-6,2.48Z"/><path d="M568,288.73l-1.1-17.31,83-11.26q-1.1-15.11-10.43-24.86t-25.82-9.75q-17,0-28.16,12.23t-11.12,35v6q1.9,22,14.42,33.38T623,323.61a54.24,54.24,0,0,0,20.88-3.84,61,61,0,0,0,14.83-8.24,16.25,16.25,0,0,1,4.81,4.53,10.23,10.23,0,0,1,1.79,5.91c0,3.48-2,6.73-5.91,9.75s-9.16,5.45-15.66,7.28a80.94,80.94,0,0,1-21.83,2.74q-21.17,0-36.67-7.69a54,54,0,0,1-23.9-22.93q-8.38-15.25-8.38-37.22A79.88,79.88,0,0,1,557.44,246a59.7,59.7,0,0,1,12.64-20.74,54.31,54.31,0,0,1,19.36-13.05,64.93,64.93,0,0,1,24.45-4.53q16.75,0,29.53,7.14a51.77,51.77,0,0,1,20.05,19.91q7.28,12.78,7.28,29.26,0,6-2.75,8.65a12.89,12.89,0,0,1-7.69,3.16Z"/><path d="M726.78,279.39l-22-3V160.18a32.35,32.35,0,0,1,4.25-1.24,25.88,25.88,0,0,1,5.91-.68q6,0,8.93,2.33t2.88,7.55Zm-22-13.73,22,3.29v68.67a34.22,34.22,0,0,1-4.12,1.24,25.24,25.24,0,0,1-6,.69c-3.85,0-6.78-.79-8.79-2.34s-3-4.07-3-7.55Z"/><path d="M795.17,279.39l-22-3V160.18a32.35,32.35,0,0,1,4.25-1.24,25.88,25.88,0,0,1,5.91-.68c4,0,7,.78,8.93,2.33s2.88,4.08,2.88,7.55Zm-22-13.73,22,3.29v68.67a34.22,34.22,0,0,1-4.12,1.24,25.24,25.24,0,0,1-6,.69c-3.85,0-6.78-.79-8.79-2.34s-3-4.07-3-7.55Z"/><path d="M846.53,288.73l-1.1-17.31,83-11.26Q927.28,245.06,918,235.3t-25.82-9.75q-17,0-28.15,12.23t-11.13,35v6q1.92,22,14.42,33.38t34.2,11.39a54.19,54.19,0,0,0,20.87-3.84,61.11,61.11,0,0,0,14.84-8.24,16.33,16.33,0,0,1,4.8,4.53,10.23,10.23,0,0,1,1.79,5.91q0,5.22-5.91,9.75T922.21,339a81,81,0,0,1-21.84,2.74q-21.15,0-36.67-7.69a54,54,0,0,1-23.9-22.93q-8.37-15.25-8.37-37.22A79.88,79.88,0,0,1,836,246a59.83,59.83,0,0,1,12.63-20.74A54.35,54.35,0,0,1,868,212.23a64.91,64.91,0,0,1,24.44-4.53q16.76,0,29.53,7.14A51.71,51.71,0,0,1,942,234.75q7.28,12.78,7.28,29.26c0,4-.92,6.91-2.74,8.65a13,13,0,0,1-7.69,3.16Z"/><path d="M1003.1,234.89v43.4h-22V236.54q0-6.31,2.33-10a25.24,25.24,0,0,1,7.83-7.27q7.14-4.68,19.5-8.11a102.51,102.51,0,0,1,27.47-3.43q22,0,22,11a15.16,15.16,0,0,1-.82,5.08,12.7,12.7,0,0,1-2.2,4q-2.74-.54-7.14-1.1a72,72,0,0,0-8.79-.55,85.31,85.31,0,0,0-22.25,2.61A69.71,69.71,0,0,0,1003.1,234.89Zm-22,30.77,22,3.29v68.67a34.22,34.22,0,0,1-4.12,1.24,25.3,25.3,0,0,1-6,.69c-3.85,0-6.78-.79-8.79-2.34s-3-4.07-3-7.55Z"/></g></svg>