<svg id="Layer_1" data-name="Layer 1" xmlns="http://www.w3.org/2000/svg" viewBox="0 0 500 260"><defs><style>.cls-1{fill:#000;}</style></defs><g id="JetonGo"><g id="jeton-logo"><g id="Logo"><path class="cls-1" d="M114.89,80.67V80h27v66.67a33.78,33.78,0,0,1-67.55,0h27a6.76,6.76,0,0,0,13.51,0Zm97.58,35.12a32.45,32.45,0,0,1,6.85,11.54,45.06,45.06,0,0,1,2.31,14.8c0,1.3,0,2.49-.15,3.52a7.2,7.2,0,0,1-.54,2.6l-.75,1.48H173.46a13.09,13.09,0,0,0,1,3,15.11,15.11,0,0,0,8.1,7.55,15.59,15.59,0,0,0,5.81,1.07c4.09,0,7.2-.88,9.25-2.62l1.1-.93,19.81,5.45-2.12,3.07a30.32,30.32,0,0,1-7,7.17,33.18,33.18,0,0,1-9.42,4.79A37.35,37.35,0,0,1,188.39,180a38.39,38.39,0,0,1-13.81-2.52A34,34,0,0,1,163,170.1,36,36,0,0,1,155,158.3a39.81,39.81,0,0,1-3-15.77,38.51,38.51,0,0,1,2.84-15,36.1,36.1,0,0,1,7.66-11.58,34.94,34.94,0,0,1,11.13-7.51,33.34,33.34,0,0,1,13.09-2.69,39.25,39.25,0,0,1,14.59,2.6A30.62,30.62,0,0,1,212.47,115.79Zm-38.38,17.28H200a15.33,15.33,0,0,0-.56-1.78,10.51,10.51,0,0,0-2.43-3.67,12.29,12.29,0,0,0-4.11-2.62,16.25,16.25,0,0,0-6-1,13.63,13.63,0,0,0-5.46,1,13,13,0,0,0-4.08,2.75,14.22,14.22,0,0,0-2.73,3.93A12.66,12.66,0,0,0,174.09,133.07ZM341.5,116.33a35.52,35.52,0,0,1,7.74,11.74A38.59,38.59,0,0,1,352,142.8a39.24,39.24,0,0,1-2.76,14.79,35.44,35.44,0,0,1-7.75,11.81,36.13,36.13,0,0,1-11.68,7.79,39.65,39.65,0,0,1-29.32,0,34.94,34.94,0,0,1-11.7-7.8,36,36,0,0,1-7.67-11.8,39.2,39.2,0,0,1-2.76-14.79,38.52,38.52,0,0,1,2.77-14.73,36,36,0,0,1,7.66-11.73,35.09,35.09,0,0,1,11.7-7.8,39.65,39.65,0,0,1,29.32,0A36.29,36.29,0,0,1,341.5,116.33Zm-12,34.46a22.11,22.11,0,0,0,1.32-8,21.74,21.74,0,0,0-1.31-7.91,16.21,16.21,0,0,0-3.47-5.5,13.87,13.87,0,0,0-4.92-3.24,17.1,17.1,0,0,0-12,0,13.31,13.31,0,0,0-4.83,3.22,17.49,17.49,0,0,0-3.5,5.56,20.83,20.83,0,0,0-1.36,7.87,21.45,21.45,0,0,0,1.36,7.95,17.36,17.36,0,0,0,3.5,5.61,14.07,14.07,0,0,0,4.87,3.3,16,16,0,0,0,11.88,0,14.52,14.52,0,0,0,5-3.32A15.8,15.8,0,0,0,329.48,150.79ZM424,123.47a35.54,35.54,0,0,1,1.61,10.8V178H404.56V136.93a14.46,14.46,0,0,0-2.53-8.65c-1.5-2.07-4.21-3.08-8.27-3.08-3.65,0-6.28,1.12-8.06,3.41a14.62,14.62,0,0,0-2.89,9.26V178H361.74V107.73h20.67v3.88a20.56,20.56,0,0,1,4.73-3,29.55,29.55,0,0,1,23.68-.48,22.61,22.61,0,0,1,8.34,6.28,27.19,27.19,0,0,1,4.87,9.08ZM265.34,159.55c1.36-.17,1.75-.25,1.84-.27l3.36-.84v18l-1.7.67a28,28,0,0,1-10.6,1.66c-6.83,0-12.32-2-16.34-5.83s-6.09-9.32-6.09-16.17v-30h-8.1V107.73h8.1V87.87h20.95v19.86H270.4V126.8H256.76v27.46c0,2.06.41,3.54,1.2,4.29s2.36,1.18,4.47,1.18A23.8,23.8,0,0,0,265.34,159.55Z"/></g></g></g></svg>
