<svg xmlns="http://www.w3.org/2000/svg" viewBox="0 0 1230.52 500"><g id="MuchBetter"><g id="Muchbetter-2" data-name="Muchbetter"><path d="M148.21,322.81a15.06,15.06,0,0,1-12.48-7.06L74.6,210.31a14.83,14.83,0,0,1,25.68-14.83l61.13,104.9A15.21,15.21,0,0,1,156,320.64,14.62,14.62,0,0,1,148.21,322.81Z"/><path d="M302.3,265.47c0-7.59-2.71-14.83-7.05-22.42-6.51-11.94-14.11-19.72-24.6-24.6A51.32,51.32,0,0,0,242.26,213a61.94,61.94,0,0,0,6-21.89c1.08-10.85-2.72-20.8-9.23-32.73a55.44,55.44,0,0,0-15.91-17.55c-6.51-3.8-13-6.51-20.8-7.05a86.89,86.89,0,0,0-23.51,1.63c-2.72.54-5.43,1.62-8.14,2.17l-3.26,1.63c-4.88,1.62-17.54,8.68-21.88,11.39l-21.34,12.48h-.54a17.49,17.49,0,0,0-6,23,16.35,16.35,0,0,0,14.1,8.14,15.36,15.36,0,0,0,8.14-2.17h.55l34.36-19.72a34.28,34.28,0,0,1,9.76-3.25c3.26-.55,6.52,0,9.77.54a37.6,37.6,0,0,1,9.22,4.88,34.63,34.63,0,0,1,7.06,8.14c1.63,3.26,3.25,6.51,3.8,10.31a33,33,0,0,1,0,10.31,17.91,17.91,0,0,1-3.8,8.68,20.34,20.34,0,0,1-7.06,6.51l-20.79,12.48-8.69,4.88-5.42,3.26c-7.6,4.34-9.77,13.56-5.43,21.34a15.49,15.49,0,0,0,13.57,7.6,12.5,12.5,0,0,0,7.59-2.17l11.4-6.51,29.48-15.92c3.25-1.63,6-2.71,9.22-2.71a25.5,25.5,0,0,1,9.23,1.62,27.77,27.77,0,0,1,8.68,4.89,27.07,27.07,0,0,1,10.31,17.9,22.13,22.13,0,0,1-.55,10.31c-.54,3.26-2.17,6-4.34,9.23a34.63,34.63,0,0,1-8.14,7.05l-50.82,28.94h-2.71l-9.22,5.42-18.09,9.77c-7.6,4.34-10.85,14.11-6.51,21.88a15.63,15.63,0,0,0,14.11,8.68,12.43,12.43,0,0,0,7.59-2.17l43.77-23.51,35.45-19.17A95.15,95.15,0,0,0,284,305.63a58.14,58.14,0,0,0,13-19.18A34,34,0,0,0,302.3,265.47Z"/><path d="M754.27,293.87c-3.26,0-7,0-9.77-2.71s-2.71-6.51-2.71-9.77V199.46c0-3.25,0-7.05,2.71-9.77S751,187,754.27,187h30.57c21.34,0,33.27,11.94,33.27,30,0,11.94-7.59,19.72-13.56,22.43,6.51,3.26,14.83,9.77,14.83,24.06,0,20.25-13.57,31.1-32.74,31.1H754.45v-.72Zm8.86-88.44V230h20.8c8.68,0,13.57-4.89,13.57-12.48s-4.89-12.48-13.57-12.48h-20.8Zm21.71,69.81c9.22,0,14.1-6,14.1-13s-4.34-13-14.1-13H763v26.22h21.89Zm67.82-14.65c0,10.31,6,17.54,17.54,17.54,4.88,0,9.77-1.08,13.57-4.34,3.25-2.17,4.88-2.71,7.05-2.71,3.8,0,7.59,3.8,7.59,8.14,0,3.8-3.25,7-7.59,9.77-5.43,3.79-12.48,5.42-21.34,5.42-18.63,0-36.54-8.14-36.54-40.33,0-25.68,13.57-40.33,34.37-40.33,21.34,0,33.27,15.37,34.36,34.9,0,3.26-.54,6.52-2.71,8.69-2.72,2.71-5.43,2.71-8.68,2.71H852.66v.54Zm28.39-21.88c-2.17-4.89-6.51-8.14-13-8.14s-10.85,3.25-13,8.14a20.56,20.56,0,0,0-1.63,8.68h30A41.84,41.84,0,0,0,881.05,238.71Zm39.79-6h-2.17c-3.8,0-4.88,0-6.51-1.09a6.9,6.9,0,0,1-3.8-6.51c0-2.71,1.09-5.42,3.8-6.51,1.63-1.08,2.71-1.08,6.51-1.08h2.17V207.24c0-4.89,0-6.51,1.09-8.68a9.58,9.58,0,0,1,8.68-4.89c3.8,0,7,1.63,8.68,4.89,1.08,2.17,1.08,3.79,1.08,8.68v10.31h6c3.8,0,4.89,0,6.51,1.08a6.92,6.92,0,0,1,3.8,6.51c0,2.72-1.08,5.43-3.8,6.51-1.62,1.09-2.71,1.09-6.51,1.09h-6v37.62c0,3.8,1.09,6.51,6.51,7.05a16.52,16.52,0,0,1,6,1.09c2.17,1.08,3.8,3.25,3.8,7.05a7.77,7.77,0,0,1-3.8,7.05c-1.62,1.09-4.34,1.09-8.14,1.09h-1.08c-16.46,0-23-10.85-23-22.43l.18-38.52Zm53,0h-2.17c-3.8,0-4.88,0-6.51-1.09a6.9,6.9,0,0,1-3.8-6.51c0-2.71,1.09-5.42,3.8-6.51,1.63-1.08,2.71-1.08,6.51-1.08h2.17V207.24c0-4.89,0-6.51,1.09-8.68a9.59,9.59,0,0,1,8.68-4.89c3.8,0,7,1.63,8.68,4.89,1.09,2.17,1.09,3.79,1.09,8.68v10.31h6c3.8,0,4.89,0,6.51,1.08a6.9,6.9,0,0,1,3.8,6.51c0,2.72-1.08,5.43-3.8,6.51-1.62,1.09-2.71,1.09-6.51,1.09h-6v37.62c0,3.8,1.08,6.51,6.51,7.05a16.5,16.5,0,0,1,6,1.09c2.18,1.08,3.8,3.25,3.8,7.05,0,3.26-1.62,6-3.8,7.05-1.62,1.09-4.34,1.09-8.13,1.09h-1.09c-16.46,0-23-10.85-23-22.43l.18-38.52Zm63.3,27.85c0,10.31,6,17.54,17.55,17.54,4.88,0,9.76-1.08,13.56-4.34,3.26-2.17,4.88-2.71,7-2.71,3.8,0,7.6,3.8,7.6,8.14,0,3.8-3.25,7-7.6,9.77-5.42,3.79-12.47,5.42-21.34,5.42-18.63,0-36.53-8.14-36.53-40.33,0-25.68,13.56-40.33,34.36-40.33,21.34,0,33.28,15.37,34.37,34.9,0,3.26-.55,6.52-2.72,8.69-2.71,2.71-5.42,2.71-8.68,2.71h-37.62v.54Zm28.4-21.88c-2.17-4.89-6.51-8.14-13-8.14s-10.86,3.25-13,8.14a20.72,20.72,0,0,0-1.62,8.68h30C1066.61,243.59,1066.61,241.42,1065.53,238.71Zm73.79-24.6c6,0,9.77,1.09,13.56,3.8,2.72,2.17,4.89,4.88,4.89,8.14a10.31,10.31,0,0,1-2.72,7,10,10,0,0,1-6.51,2.71c-2.17,0-3.8-.54-6.51-2.17a17.72,17.72,0,0,0-7.59-2.17c-6.52,0-13,4.34-13,14.11v34.91c0,4.88,0,6.51-1.08,8.68a9.6,9.6,0,0,1-8.68,4.88c-4.34,0-7.06-1.63-8.68-4.88-1.09-2.17-1.09-3.8-1.09-8.68v-53c0-4.88,0-6.51,1.63-8.68a9.57,9.57,0,0,1,8.14-4.34,8.72,8.72,0,0,1,6,2.17,7.81,7.81,0,0,1,2.71,6C1124.49,218.45,1131.54,214.11,1139.32,214.11Z"/><path d="M417,265.47l-17.54-34.36v48.11c0,4.88,0,6.51-1.63,9.22a11.15,11.15,0,0,1-18.45,0c-1.09-2.71-1.63-4.34-1.63-9.22v-80.3c0-4.34.54-7.6,3.26-9.77a10.3,10.3,0,0,1,7-2.71,9.73,9.73,0,0,1,6,1.63c2.17,1.08,3.8,3.8,5.43,6.51l26.76,50.82L453,194.58a15.81,15.81,0,0,1,5.43-6.51,10.85,10.85,0,0,1,6-1.63,11.41,11.41,0,0,1,7.06,2.71c2.71,2.72,3.25,5.43,3.25,9.77v80.84c0,4.89,0,6.51-1.63,9.23a11.15,11.15,0,0,1-18.44,0c-1.09-2.72-1.63-4.34-1.63-9.23V231.65L437,265.47c-2.71,4.89-4.88,7.06-9.76,7.06S419.68,270.9,417,265.47Zm104.72,28.4a26.59,26.59,0,0,1-18.63-7.05c-6.51-6.51-8.14-13.57-8.14-22.43V227.31c0-4.88,0-6.51,1.08-8.68a8.93,8.93,0,0,1,8.14-4.34c3.8,0,7.06,1.63,8.14,4.34,1.09,2.17,1.09,3.8,1.09,8.68v34.37c0,10.31,6.51,14.1,13,14.1,6,0,13-3.25,13-14.1V227.31c0-4.88,0-6.51,1.08-8.68a8.94,8.94,0,0,1,8.14-4.34c3.8,0,7.06,1.63,8.14,4.34,1.09,2.17,1.09,3.8,1.09,8.68v52.45c0,4.89,0,6.51-1.63,8.68a9.55,9.55,0,0,1-8.14,4.34,8.67,8.67,0,0,1-6-2.17,10.25,10.25,0,0,1-2.71-5.42C536.52,291.16,528.74,293.87,521.69,293.87Zm104.35-76c4.34,2.17,9.23,6,9.23,10.85,0,2.71-1.09,4.34-2.72,6.51-1.08,1.63-3.8,2.71-6,2.71s-3.79-.54-6.51-2.71c-3.25-2.17-5.42-3.25-9.22-3.25A13.64,13.64,0,0,0,600,236.9c-2.72,3.8-4.34,8.68-4.34,17,0,8.14,1.08,13.56,4.34,17.54a13.65,13.65,0,0,0,10.85,4.89c3.8,0,6-1.09,9.22-3.26,2.72-2.17,4.34-2.71,6.51-2.71a8.71,8.71,0,0,1,6,2.71,9,9,0,0,1,2.72,6.51c0,4.89-4.89,8.68-9.23,10.85-4.34,2.72-9.22,3.8-15.37,3.8-15.37,0-34.91-8.14-34.91-39.79s19.17-39.79,34.91-39.79A24.79,24.79,0,0,1,626,217.91ZM712.31,289a8.93,8.93,0,0,1-8.14,4.34c-3.8,0-7-1.63-8.14-4.34-1.08-2.17-1.08-3.8-1.08-8.68V245.94c0-10.31-6.51-14.1-13-14.1s-13,3.25-13,14.1v34.37c0,4.88,0,6.51-1.08,8.68a8.93,8.93,0,0,1-8.14,4.34c-3.8,0-7-1.63-8.14-4.34-1.08-2.17-1.08-3.8-1.08-8.68V199.46c0-4.88,0-6.51,1.08-8.68a8.93,8.93,0,0,1,8.14-4.34c3.8,0,7.05,1.63,8.14,4.34,1.08,2.17,1.08,3.8,1.08,8.68v23c4.89-4.88,10.31-8.14,19.18-8.14a26.54,26.54,0,0,1,18.62,7.06c6.52,6.51,8.14,13.56,8.14,22.42v37.08C713.94,285.19,713.4,286.82,712.31,289Z"/><path d="M464.9,294.41c-4.34,0-8.14-2.17-9.77-5.42-1.63-2.72-1.63-4.34-1.63-9.23V234.91L437.59,266c-2.72,4.88-4.89,7.59-10.86,7.59-5.42,0-8.13-2.71-10.85-7.59L400,234.91v44.85c0,4.89,0,6.51-1.63,9.23-1.63,3.25-5.43,5.42-9.77,5.42s-8.14-2.17-9.76-5.42c-1.63-2.72-1.63-4.89-1.63-9.23V198.92c0-4.34.54-7.6,3.25-10.85a9.89,9.89,0,0,1,7.6-3.26,11.54,11.54,0,0,1,6.51,1.63c2.71,1.63,4.34,4.88,5.43,6.51l25.68,49.19,25.68-49.37c1.09-1.63,2.71-4.88,5.43-6.51a11.54,11.54,0,0,1,6.51-1.63,9.85,9.85,0,0,1,7.59,3.26c2.72,2.71,3.26,6,3.26,10.85v80.84c0,4.88,0,6.51-1.63,9.23C473,292.24,469.24,294.41,464.9,294.41Zm-9.77-66.55v51.9c0,4.89,0,6.51,1.08,8.68a9.56,9.56,0,0,0,8.14,4.34,8.91,8.91,0,0,0,8.14-4.34c1.09-2.17,1.09-3.79,1.09-8.68V198.92c0-4.34-.55-7-2.72-9.23a9,9,0,0,0-6.51-2.71,12.35,12.35,0,0,0-6,1.63c-1.62,1.08-3.25,3.26-4.88,6l-27.31,51.9L398.88,194.4c-1.63-2.72-3.25-4.89-4.88-6a9.73,9.73,0,0,0-6-1.63,9,9,0,0,0-6.51,2.71c-2.17,2.17-2.71,5.43-2.71,9.23v80.84c0,4.88,0,6.51,1.08,8.68A9.56,9.56,0,0,0,388,292.6a8.91,8.91,0,0,0,8.14-4.34c2.71-2.17,2.71-3.8,2.71-8.68v-51.9l19.17,37.07c2.72,5.43,4.89,7.05,9.23,7.05s6.51-1.62,9.22-7.05ZM521.69,295a29,29,0,0,1-19.18-7.05c-5.42-5.42-8.13-12.48-8.13-23V227.86c0-4.89,0-6.51,1.08-9.23,1.63-3.25,4.88-4.88,9.22-4.88s7.6,1.63,9.23,4.88C515,220.8,515,223,515,227.86v34.36c0,11.94,9.23,13,11.94,13s11.94-1.08,11.94-13V227.86c0-4.89,0-6.51,1.08-9.23,1.63-3.25,4.89-4.88,9.23-4.88s7.59,1.63,9.22,4.88c1.09,2.17,1.09,4.34,1.09,9.23v52.45c0,4.88,0,6.51-1.63,9.22a10.55,10.55,0,0,1-9.23,4.88,9,9,0,0,1-6.51-2.71c-1.63-1.09-2.17-2.71-2.71-4.34C536,292.24,528.74,295,521.69,295ZM505.41,215.2c-3.8,0-6.51,1.62-7.6,4.34-1.08,1.62-1.08,3.79-1.08,8.14v37.07c0,9.77,2.17,16.46,7.59,21.34,4.34,4.34,10.31,6.51,18.09,6.51a26.11,26.11,0,0,0,19.17-8.14l1.09-1.08.54,1.63c.54,2.71,1.08,3.8,2.71,5.42,1.63,1.09,3.26,2.17,5.43,2.17,3.25,0,6.51-1.62,7.59-3.79s1.09-3.26,1.09-8.14V228.22c0-4.89,0-6.51-1.09-8.14-1.08-2.71-4.34-4.34-7.59-4.34s-6.51,1.63-7.6,4.34c-1.08,1.63-1.08,3.8-1.08,8.14v34.36c0,10.85-7.06,14.83-13.57,14.83s-13.56-3.8-13.56-14.83V228.22c0-4.89,0-6.51-1.09-8.14C511.38,216.82,508.66,215.2,505.41,215.2ZM610.13,295a38.71,38.71,0,0,1-24.06-8.13c-7.59-7.06-11.94-18.09-11.94-32.2,0-14.83,3.8-25.14,11.94-32.19,7.6-7.05,17.54-8.14,24.06-8.14a31.88,31.88,0,0,1,15.91,3.8c4.34,2.17,9.77,6,9.77,11.39a11.42,11.42,0,0,1-2.72,7.06,10,10,0,0,1-6.51,2.71,10.57,10.57,0,0,1-7.05-2.71c-3.26-2.17-5.43-3.26-8.68-3.26a12.59,12.59,0,0,0-10.31,4.89c-2.71,3.79-4.34,8.68-4.34,16.45,0,8.14,1.08,13,4.34,17a12.59,12.59,0,0,0,10.31,4.89,13.31,13.31,0,0,0,8.68-3.26c2.71-1.63,4.34-3.25,7.05-3.25a10,10,0,0,1,6.51,2.71,9,9,0,0,1,2.72,7.05c0,4.34-3.26,8.14-9.77,11.94A36.2,36.2,0,0,1,610.13,295Zm.54-79.75c-10.31,0-33.82,3.79-33.82,38.7,0,35.45,23.51,39.25,33.82,39.25,6,0,10.31-1.09,14.83-3.8,6-3.26,8.68-6.51,8.68-10.31,0-2.17-1.09-3.8-2.71-6A8.34,8.34,0,0,0,626,270.9c-2.17,0-3.8.54-6,2.71-3.25,2.72-6,3.26-9.76,3.26-4.89,0-8.68-1.63-11.4-5.43-3.25-3.8-4.34-9.22-4.34-17.54,0-8.14,1.63-13.56,4.34-17.54a14.42,14.42,0,0,1,11.4-5.43c4.34,0,6.51,1.09,9.76,3.26,2.72,1.62,4.34,2.71,6,2.71,2.17,0,3.8-1.09,5.43-2.17a8.75,8.75,0,0,0,2.71-6c0-4.88-5.43-8.68-8.68-10.31h0A31.49,31.49,0,0,0,610.67,215.2Zm93.5,79.21c-4.34,0-7.59-1.63-9.22-4.88-1.09-2.17-1.09-4.34-1.09-9.22V245.94c0-11.93-9.22-13-11.93-13S670,234,670,245.94v34.37c0,4.88,0,6.51-1.09,9.22-1.62,3.25-4.88,4.88-9.22,4.88s-7.6-1.63-9.22-4.88c-1.09-2.17-1.09-4.34-1.09-9.22V199.46c0-4.88,0-6.51,1.09-9.22,1.62-3.26,4.88-4.89,9.22-4.89s7.6,1.63,9.22,4.89c1.09,2.17,1.09,4.34,1.09,9.22V220.8c5.43-4.88,10.85-7.05,18.09-7.05a29,29,0,0,1,19.17,7.05c5.42,5.43,8.14,12.48,8.14,23v37.08c0,4.88,0,6.51-1.09,9.22A13.22,13.22,0,0,1,704.17,294.41Zm-22.42-63.3c6.51,0,13.56,3.8,13.56,14.83v34.37c0,4.88,0,6.51,1.09,8.13,1.08,2.72,4.34,4.34,7.59,4.34s6.51-1.62,7.6-4.34h0c1.08-1.62,1.08-3.79,1.08-8.13V243.23c0-9.77-2.17-16.46-7.59-21.34-4.34-4.34-10.31-6.51-18.09-6.51-7.6,0-13,2.17-18.63,7.59l-1.63,1.63V199.46c0-4.88,0-6.51-1.08-8.14-1.09-2.71-4.34-4.34-7.6-4.34-3.79,0-6.51,1.63-7.59,4.34-1.09,1.63-1.09,3.8-1.09,8.14v81.39c0,4.88,0,6.51,1.09,8.14,1.08,2.71,4.34,4.34,7.59,4.34s6.51-1.63,7.6-4.34c1.08-1.63,1.08-3.8,1.08-8.14V246.48C667.46,234.91,674.51,231.11,681.75,231.11Z"/></g></g></svg>