<svg id="Layer_1" data-name="Layer 1" xmlns="http://www.w3.org/2000/svg" viewBox="0 0 500 260"><defs><style>.cls-1{fill:#000;}</style></defs><path class="cls-1" d="M461.2,97.88c-5.58-3.83-14-5.76-25.12-5.76h-29L396.26,150.7h-38l2.45-13.29h22.9l2.72-14.93-22.9,0,2.45-13.24h23.6l3.14-17.16H344.67l-10.24,55.57H316.84l10.32-55.57H302.11l-10.24,55.57H274.74l10.32-55.57H260L249.22,150.7h-38.3l2.42-13.29h23l2.72-14.84-23,0,2.44-13.26h23.86l3.12-17.17H96.18l-8.49,46.42L70.76,92.12h-26l-14,75.76H55.61l8.46-47.7,16.42,47.7h89l10.81-58.6h13.91l-10.81,58.6h234l6.79-37,11,37H460L448.6,137.65l2.6-.56c5.74-1.22,10.21-3.86,13.32-7.82s4.69-9.12,4.69-15.27c0-7.17-2.62-12.44-8-16.13ZM147.84,150.7h-38l2.46-13.29h23.83l2.7-15h-23.6l2.27-13.15h37.94l-7.61,41.41Zm292.9-25.52c-2.49,1.75-6.11,2.6-11.07,2.6h-4.9l3.76-20.33h3.61c4.11,0,7.11.66,9.18,2a8,8,0,0,1,3.53,7.08c0,4.77-2.24,7.34-4.11,8.65Z"/></svg>
