<svg xmlns="http://www.w3.org/2000/svg" viewBox="0 0 1230.52 500"><defs><style>.cls-1{fill-rule:evenodd;}</style></defs><g id="Paypal"><path class="cls-1" d="M527.79,29.31C406,29.31,307.1,128.19,307.1,250S406,470.69,527.79,470.69,748.48,371.81,748.48,250,649.6,29.31,527.79,29.31ZM423.32,346.89c-11.46-.54-22.18-1-33.67-1-10.77,0-20.49.37-31.23,1-1.91-1.26-2-4.91-.35-6.59l5.2-.69c8.13-.56,13.9-3.43,14.59-12.16a140.82,140.82,0,0,0,1-19.77l.28-25.07a99.33,99.33,0,0,0,20.81,1v24.28a107.29,107.29,0,0,0,.69,19.73c.62,4.12,2.13,6.79,4.23,8.53l.37.28q3.12,2.61,11.45,3.14l6.95.69a4.63,4.63,0,0,1,1,3.47A6.52,6.52,0,0,1,423.32,346.89Zm51.52-102c-3.12,5.88-6.59,10.4-10.39,13.17a122.19,122.19,0,0,1-19.07,11.09,101.17,101.17,0,0,1-21.83,5.55,178.67,178.67,0,0,1-49.21.68c-10.4-1-26.69-4.15-48.52-8.65,19.75,2.08,37.77,3.12,54.41,3.45,19.06.36,33.27-.69,43.32-3.12,10.39-2.42,18-7.26,23.22-13.86q8.84-11.42,8.31-28.06c0-12.48-3.46-22.54-10.4-29.81-7.27-7.28-17.32-10.74-30.49-11.09a75.17,75.17,0,0,0-10.05.35,4.55,4.55,0,0,0-3.46,2.41,12.93,12.93,0,0,0-.69,6.59v70.7a206.35,206.35,0,0,1-20.81,0V213c0-7.27-.34-12.82-.69-16.63s-1.38-6.24-3.12-7.62c-1.73-1.75-4.5-2.77-8.31-3.13l-9-1c-1-1-1.74-2.09-1.4-3.46a3.68,3.68,0,0,1,1.74-3.14c6.58-.69,14.21-1,22.53-1.38s17.67-.34,28.07-.34a166.8,166.8,0,0,1,28.08,2.07,71,71,0,0,1,21.48,8c5.9,3.81,10.4,9,14.22,15.59A48.94,48.94,0,0,1,479,224.73C478.66,232.71,477.27,239.29,474.84,244.84ZM693,345.18l-15.32-1H648.35l-15.65,1a4.15,4.15,0,0,1-1.37-3.06c-.34-1.7,0-2.73.68-3.4l7.49-.68c4.43-.35,7.15-1,8.52-2.73,2.33-1.18,3-3.49,3.29-5.92a69.32,69.32,0,0,0,.35-12.56L651,211.76h-.35a60.73,60.73,0,0,0-3.73,7.83c-2,3.74-4.42,8.15-6.8,12.91-2.38,4.42-4.08,8.5-5.77,12.25l-22.1,43.85c-7.59,13.9-14.31,27.71-20.74,42.15-2.47,4.91-4.67,10-6.78,15.1a3.39,3.39,0,0,1-4.77,0c-.21-.73-2.12-7-2.4-7q-1.57-4.28-3.73-9.13C571.07,323.61,568,317.49,565,311q-4.08-9.17-7.14-15.31L535,247.13c-2.72-5.78-5.43-11.91-8.15-18-2.38-6.45-5.1-12.24-7.83-18h-.67c-.36,7.48-.69,15-1,22.43s-1,15-1.36,22.1q-.51,11.73-1,27.55c-.33,10.53-.46,21.07-.68,31.6-.1,5.08-.06,13.27,2,18.09a7.44,7.44,0,0,0,2,2.8c1.7,1.35,4.09,2,7.15,2.38l9.53.68a4.33,4.33,0,0,1,1.37,3.4,3.54,3.54,0,0,1-1.71,3.06c-4.08-.34-8.52-.68-13.61-1H494.12l-12.93,1a4.14,4.14,0,0,1-1.36-3.06c-.35-1.7,0-2.73,1-3.4l5.45-.68a29,29,0,0,0,8.51-2.38,9.71,9.71,0,0,0,4.77-5.46c4.43-11.75,5.89-51.47,6.57-67.77.68-10.54,1.35-20.74,1.71-30.61s.66-18.35,1-25.49a43.76,43.76,0,0,0-.68-12.23,10.18,10.18,0,0,0-4.75-6.81,61.38,61.38,0,0,0-11.22-3l-4.08-.34a4,4,0,0,1-.69-3.4c.34-1.36.69-2.39,1.71-2.73,3.73.34,7.47.34,10.53.69h18.7c3.74-.35,7.48-.35,11.56-.69-.34,5.11.68,11.22,3.06,18.37,2.71,7.14,6.12,15,9.86,23.11l28.89,57.8c5.46,11.64,11,23.41,17,34.77h.68C597,299.44,602.65,287,608.82,274l23.8-47.92c5.44-11.22,9.85-20.74,13.59-28.55,3.06-7.49,5.1-13.95,5.45-19.73,4.4.34,7.8.34,10.87.69h18.35c3.74-.35,7.82-.35,11.91-.69a3.89,3.89,0,0,1,1,2.73c.34,1.7,0,2.72-.68,3.4l-5.11.34c-5.44.67-9.51,1.7-11.89,3a12.57,12.57,0,0,0-4.77,7.48,71.61,71.61,0,0,0-1,13.6v32.31c.33,12.22,1,25.14,1.36,38.75.33,12.67.8,25.52,1.49,38.17a95.58,95.58,0,0,0,.69,10.9,11,11,0,0,0,3.39,6.46c1.72,1.7,4.44,2.73,8.19,3.08l8.16.68a4,4,0,0,1,.68,3.4A3.3,3.3,0,0,1,693,345.18Z"/></g></svg>