<svg width="50" height="22" viewBox="0 0 50 22" fill="none" xmlns="http://www.w3.org/2000/svg">
<path fill-rule="evenodd" clip-rule="evenodd" d="M25.9875 0.840383H23.5108C23.1053 0.797971 22.6101 0.797971 22.1153 0.757307C21.9808 0.797971 21.9342 0.923896 21.8891 1.08917C21.8444 1.25532 21.8891 1.3795 21.9808 1.50324L22.5207 1.54521C23.1947 1.66808 23.69 1.79269 24.007 1.91818C24.3211 2.08302 24.5455 2.37334 24.6367 2.74631C24.7266 3.11928 24.7712 3.61554 24.7266 4.23773C24.6805 5.1074 24.6367 6.14235 24.5916 7.34388C24.5455 8.54673 24.4561 9.78893 24.3653 11.074C24.2765 13.0604 24.0825 17.9002 23.4956 19.333C23.3596 19.6644 23.1353 19.8721 22.8648 19.998C22.5488 20.1205 22.1871 20.2451 21.737 20.2879L21.0145 20.3706C20.88 20.4523 20.8344 20.5783 20.88 20.7855C20.88 20.9101 20.9247 21.0334 21.0602 21.1585C21.6457 21.1174 22.1871 21.0754 22.7736 21.0334H26.3373C27.0127 21.0754 27.5997 21.1174 28.1406 21.1585C28.2765 21.0754 28.3664 20.9512 28.3664 20.7855C28.3664 20.6185 28.3217 20.4947 28.1853 20.3706L26.9234 20.2879C26.5165 20.2451 26.2009 20.1629 25.9761 19.998C25.863 19.9136 25.7722 19.7982 25.7047 19.6574C25.4386 19.0685 25.4329 18.072 25.4466 17.4533C25.4756 16.1691 25.4927 14.8854 25.5369 13.6008C25.5821 12.3166 25.6273 11.1968 25.6715 10.2445C25.7152 9.37486 25.8079 8.46234 25.8516 7.55114C25.8967 6.6408 25.9409 5.72828 25.9875 4.81708H26.0769C26.4376 5.52103 26.7984 6.22543 27.1135 7.01246C27.4742 7.75882 27.834 8.50476 28.1934 9.20959L31.211 15.132C31.4829 15.6309 31.7971 16.2522 32.1564 16.9977C32.5627 17.7847 32.9668 18.5298 33.328 19.2753C33.5186 19.6701 33.6835 20.04 33.8232 20.3881C33.8594 20.3881 34.1117 21.1515 34.1398 21.2402C34.3133 21.402 34.5975 21.3981 34.7714 21.2402C35.0514 20.6229 35.3437 19.998 35.6693 19.4008C36.5224 17.6396 37.4122 15.9575 38.417 14.2636L41.3443 8.91926C41.5701 8.46234 41.7944 7.9652 42.1095 7.4274C42.4251 6.84762 42.7398 6.30894 43.0107 5.85333C43.2355 5.35576 43.4151 5.02477 43.5045 4.90015H43.5501L43.6414 17.703C43.6851 18.3649 43.6414 18.8599 43.5962 19.2333C43.5601 19.5298 43.4693 19.8113 43.1599 19.9561C42.9784 20.1629 42.6181 20.2451 42.032 20.2879L41.0396 20.3706C40.9493 20.4523 40.9046 20.5783 40.9493 20.7855C40.9493 20.9101 40.9949 21.0334 41.1309 21.1585C41.8063 21.1174 42.5268 21.0754 43.2036 21.0334H47.0835C47.7589 21.0754 48.4352 21.1174 49.1134 21.1585C49.2489 21.0754 49.2931 20.9512 49.2931 20.7855C49.3378 20.6185 49.2931 20.4947 49.2033 20.3706L48.1206 20.2879C47.6244 20.2451 47.2636 20.1205 47.0369 19.9132C46.814 19.7064 46.6329 19.4572 46.5877 19.1253C46.5416 18.7528 46.4965 18.295 46.4965 17.7978C46.4043 16.2566 46.3415 14.6904 46.2978 13.1456C46.2522 11.4863 46.1619 9.91354 46.1177 8.42343V4.48609C46.1177 3.78169 46.1619 3.24345 46.2522 2.82851C46.3439 2.45642 46.5687 2.12543 46.8829 1.91818C47.199 1.75246 47.7384 1.62698 48.459 1.54521L49.1353 1.50324C49.2261 1.42016 49.2703 1.29599 49.2261 1.08917C49.2261 0.964122 49.1805 0.840383 49.0906 0.757307C48.5498 0.797971 48.0089 0.797971 47.5141 0.840383H45.0825C44.6761 0.797971 44.225 0.797971 43.6414 0.757307C43.5962 1.46039 43.3258 2.24917 42.9204 3.16081C42.4251 4.11181 41.8405 5.27399 41.1199 6.6408L37.9664 12.4815C37.1489 14.0717 36.4041 15.585 35.4022 17.0926H35.3123C34.5153 15.7092 33.7805 14.2737 33.0575 12.8553L29.2305 5.81136C28.7357 4.81708 28.2846 3.86521 27.9244 2.9951C27.6088 2.12543 27.4742 1.3795 27.5189 0.757307C26.979 0.797971 26.4828 0.797971 25.9875 0.840383ZM7.50856 16.5889C7.50856 17.6439 7.4634 18.4471 7.37167 18.9972C7.28089 20.0623 6.51662 20.4112 5.43912 20.4794L4.749 20.5638C4.52703 20.7689 4.54415 21.2131 4.797 21.3666C6.22003 21.2853 7.50665 21.2394 8.93444 21.2394C10.4568 21.2394 11.876 21.301 13.3937 21.3666C13.4854 21.2822 13.5329 21.1554 13.5785 20.9866C13.5785 20.7754 13.5329 20.6473 13.4402 20.5638L12.5205 20.4794C11.7848 20.4357 11.2795 20.3089 11.0039 20.0973C10.9872 20.0864 10.9706 20.075 10.9544 20.0632C10.6764 19.8507 10.4772 19.5263 10.3936 19.0234C10.3023 18.4743 10.2562 17.6724 10.3023 16.6186V13.6598C9.29186 13.7027 8.37407 13.6598 7.54705 13.5334L7.50856 16.5889ZM4.56221 1.15957C4.51705 1.3279 4.60926 1.45427 4.7471 1.58194L5.94104 1.70699C6.44532 1.75072 6.8132 1.87664 7.04229 2.08826C7.27138 2.2566 7.41017 2.55305 7.45532 3.01696C7.5019 3.48131 7.54705 4.15859 7.54705 5.044V11.2948C8.46532 11.3372 9.38312 11.3372 10.3023 11.2948V2.67898C10.2562 2.34143 10.3023 2.08826 10.3936 1.87664C10.4392 1.75072 10.6232 1.62217 10.8523 1.58194C11.1279 1.53953 11.588 1.53953 12.1845 1.53953C13.9284 1.58194 15.2601 2.00344 16.224 2.8906C17.1423 3.77645 17.601 5.00203 17.601 6.52362C17.6485 7.87426 17.2806 9.01458 16.5002 9.94284C15.8115 10.7469 14.8015 11.3372 13.4236 11.6328C12.0928 11.9288 10.2106 12.0556 7.68489 12.0123C5.48095 11.9725 3.09402 11.8448 0.477051 11.5917C3.37017 12.1404 5.52705 12.5199 6.90541 12.6463C9.15355 12.9012 11.3575 12.8575 13.4236 12.5632C14.4792 12.4351 15.4436 12.1828 16.3162 11.8872C17.1423 11.5497 17.9693 11.0849 18.8415 10.5349C19.3462 10.1977 19.8054 9.64683 20.2194 8.93019C20.5411 8.25422 20.7241 7.45188 20.7693 6.4799C20.7241 5.42353 20.4484 4.49658 19.9442 3.69293C19.4384 2.8906 18.8415 2.2566 18.0606 1.79357C17.2806 1.37032 16.3162 1.03146 15.2145 0.82027C14.1584 0.651933 12.9184 0.567108 11.4958 0.567108C10.1179 0.567108 8.87836 0.567108 7.7771 0.609083C6.67489 0.651933 5.66489 0.693908 4.79177 0.778295C4.65489 0.863557 4.56221 0.989919 4.56221 1.15957Z" fill="black"/>
</svg>
