<svg id="Layer_1" data-name="Layer 1" xmlns="http://www.w3.org/2000/svg" viewBox="0 0 500 260"><defs><style>.cls-1{fill:#000;fill-rule:evenodd;}</style></defs><g id="Page-1"><g id="skrill-logo-web-1-rgb"><path id="Fill-1" class="cls-1" d="M320.3,101.43a13.22,13.22,0,1,0-13.21-13.21,13.21,13.21,0,0,0,13.21,13.21Zm-101.23,7.13a93.49,93.49,0,0,1-15.27,26.19V81l-27.66,5.47v97.4H203.8V153.78c8,12,12,30.11,12,30.11H248.9c-3.28-13.63-17.61-38.75-17.61-38.75a121.45,121.45,0,0,0,19.41-36.58Zm72.72-1c-24.78.79-37.35,11.91-37.35,34v42.34h27V149.37c0-13.24,1.73-18.91,17.43-19.45v-22a37.3,37.3,0,0,0-7.11-.38Zm-162,11.74c-3.39-.22-11.23-.73-11.23-7.79C118.51,103,129.8,103,134,103c7.45,0,17.09,2.2,24,4.26,0,0,3.85,1.35,7.12,2.74l.3.08V86.72L165,86.6C156.89,83.76,147.44,81,129.91,81,99.69,81,89,98.62,89,113.7c0,8.7,3.72,29.16,38.33,31.52,2.94.18,10.72.63,10.72,7.92,0,6-6.37,9.58-17.09,9.58a83.93,83.93,0,0,1-30.07-5.84v24c10.36,2.72,22,4.08,35.73,4.08,29.55,0,42.78-16.66,42.78-33.17,0-18.72-14.8-30.88-39.65-32.54Zm177.16,64.6h26.81V108.65H306.9Zm77.3-98.07v98.07H411V81l-26.81,4.8Zm-39.13,0L371.86,81V183.89H345.07V85.82Z"/></g></g></svg>
