<svg xmlns="http://www.w3.org/2000/svg" viewBox="0 0 1230.52 500"><g id="Paypal"><path d="M311,345.09c-.41-1.38-1.7-1.13-2.68-1.41-24.32-6.87-38.36-24.29-40.15-49.4-1.41-19.61,3.3-37,18.18-50.69,18.36-16.83,52.33-18,71.08,3,1.26-1.4.67-3.07.67-4.54.05-21.89.15-43.78-.06-65.66,0-4.11,1.1-5.32,5.18-5.09,6.17.35,12.37.25,18.55,0,3.18-.1,4.3,1.06,3.94,4.07a29.35,29.35,0,0,0,0,3.25c0,52.46-.06,104.92.11,157.37,0,4.85-1.09,6.81-6.27,6.36a128.45,128.45,0,0,0-15.82-.05c-3.16.11-4.18-1.15-4-4.13a48.21,48.21,0,0,0-.55-10.41c-4.85,6-10.42,10.75-17.45,13.49-3.62,1.42-7.35,2.57-11,3.84Zm-15.46-57c0,18.56,13.43,32.18,31.7,32.18s31.81-13.84,31.82-32.2c0-18.57-14.05-32.83-32.11-32.58S295.57,269.53,295.58,288.1Z"/><path d="M1142.24,341.83c-8,.91-16,.08-24,.45-3.85.18-3.33-2.28-3.33-4.62q0-23.34,0-46.68a109.32,109.32,0,0,0-1-16.76c-1.74-11.18-7.2-17.29-16.72-18.47-10.81-1.35-20.76,4.19-24.65,13.88a34.88,34.88,0,0,0-2.44,13.24c.07,18.1-.09,36.19.12,54.28,0,4-.89,5.45-5.1,5.19-6-.37-12-.22-18,0-3.12.09-4.52-.6-4.51-4.14q.15-81.42,0-162.84c0-3,.8-4.13,4-4,6.36.22,12.75.27,19.11,0,3.62-.16,4.55,1,4.53,4.54-.16,21.71-.08,43.42-.08,65.13v6.87c2-2.4,3.35-4.32,5-6,11.61-12,26-13.06,40.92-9.06,14.34,3.84,22.32,14.17,25.09,28.55.23,1.18-.26,2.6,1.1,3.42Z"/><path d="M590.65,345.09c-2.53-2.33-6-2.1-9-3.07-27.2-8.79-43.25-34.62-38.76-62.67C547.45,250.9,570,231.5,598.71,231c20.39-.32,38,5.53,51,21.91,21.5,27,14.71,80.32-33.9,90.72-1.47.31-3.39-.41-4.4,1.42Zm11-24.81c18.23,0,32.07-13.95,32.12-32.46a32,32,0,0,0-31.86-32.32c-17.94-.17-32.05,14.2-32,32.62C569.92,306.37,583.63,320.24,601.68,320.28Z"/><path d="M186.52,345.09c-1.06-1.93-3.17-1.51-4.79-1.93-28.39-7.33-44.58-29.53-43.24-59.48,1.18-26.26,20.65-47.25,48-51.73,28.24-4.62,53.76,7.21,65.07,30.54,14.55,30,2.07,73.06-40.94,81.43-1.15.22-2.64-.39-3.33,1.17Zm11.28-24.81c18,0,31.83-13.83,32-32s-13.77-32.58-32-32.74c-17.71-.16-31.81,14.09-31.85,32.19C165.89,306.43,179.46,320.3,197.8,320.28Z"/><path d="M851.7,345.09c-1.22-2-3.41-1.73-5.25-2.26C833,339,823.23,328.35,822.2,316.44c-1.41-16.28,4.85-27.64,19.21-34.32,13.5-6.27,28-7.19,42.6-7.6,2.55-.07,5.1,0,7.65,0,6.07,0,6.58-.62,5.54-6.45-1.48-8.26-6.78-13.11-14.56-15.13-12.93-3.37-24.92-.89-35.56,7.1-2.82,2.12-4.61,2.65-7-.41a65,65,0,0,0-6.12-6.19c-5.34-5.31-5.34-5.31.38-10,16.81-13.64,49.83-16.78,68.84-6.6,11.9,6.37,17.46,17,18.23,29.64,1.46,24,.32,48.1.61,72.15,0,3-1.31,3.67-4,3.62-5.46-.12-10.93-.19-16.38,0-3.29.13-4.63-.89-4.36-4.28.25-3,0-6.1,0-9.61-2.57.87-3.31,3.11-4.61,4.61-6,6.89-14.43,9.14-22.53,12.06Zm32.49-51.2c-9.84.35-19.68.83-28.42,6.15-7.94,4.83-8.58,14-1.49,19.95,12.82,10.78,37.47,2.47,40.91-13.79,2.34-11.08,1.21-12.48-9.9-12.31Z"/><path d="M968.57,345.09c-2.93-2.35-6.73-2.1-10.07-3.23a47.21,47.21,0,0,1-18-10.91c-1.9-1.84-2.39-3.2-.09-5.19,4.65-4.05,9.2-8.23,13.57-12.57,2-2,3.1-1.49,4.82.23,5,5.05,10.59,9.38,18,10.57,6.49,1.05,12.75.52,18.34-3.19,7.44-4.95,7-13.64-.87-17.87-6.65-3.57-14.12-4.55-21.36-6.2-1.95-.44-3.9-.87-5.83-1.37-16.31-4.18-24.66-12.77-25.63-26.3-1.11-15.61,6.61-28.18,21.71-34,16.17-6.27,32.37-5.46,48.28,1.39a25,25,0,0,1,3.31,1.86c10.64,6.66,10.8,8.3,1.7,16.51-.81.73-1.6,1.47-2.42,2.19-2.31,2-4.34,5-7,5.85-3.34,1.05-4.3-3.45-6.76-5-7.51-4.87-15.28-6.5-23.81-3.24-4.47,1.7-7.34,4.69-7.38,9.68,0,4.79,3.23,6.93,7.19,8.46,7.32,2.83,15.06,4.05,22.64,5.87a59.31,59.31,0,0,1,10.29,3.47c10.54,4.66,17.54,11.93,18.5,24,1.08,13.66-3.48,24.3-15.51,31.68-6.43,3.94-13.88,4.61-20.65,7.38Z"/><path d="M762.14,345.09c-1.08-1.85-3.14-1.58-4.78-2-27.54-6.91-44.48-29.59-43.24-58C715.31,257.6,734.34,236.46,762,232c17.75-2.88,33.93.29,48,12.14,2.84,2.4,3.35,4,.33,6.75-4.59,4.11-8.9,8.55-13.14,13-2.05,2.17-3.43,2.42-5.68.14-12.81-13.07-29-9.13-38.81-.86-11.89,10-14.51,29-6,42.53,8,12.7,24.26,18.07,37.61,12.48a23.1,23.1,0,0,0,8.4-5.88c1.59-1.78,2.42-1.95,4.12,0,4.32,4.88,8.8,9.65,13.47,14.21,3,2.9,2,4.56-.87,6.67-7.49,5.45-15.88,8.67-24.82,10.72-1,.23-2.27-.19-2.73,1.21Z"/><path d="M476.14,283.79c0-7.42-.16-14.84.07-22.25.1-3.43-.79-4.89-4.51-4.64-4.53.3-9.1-.07-13.64.12-3,.12-4.3-.68-4.16-3.9.22-5.06.2-10.13,0-15.19-.12-3,.89-4.2,4-4.06,4.72.2,9.47-.1,14.19.1,3.06.13,4.16-.89,4.08-4-.19-7.59.07-15.19-.12-22.79-.08-3.32.61-5,4.45-4.81,6.36.28,12.74.19,19.1,0,3.05-.08,4.18,1,4.11,4-.16,7.23.3,14.49-.16,21.7-.32,5.06,1.62,6.14,6.23,5.88,6.53-.36,13.11.12,19.65-.17,3.77-.17,4.63,1.32,4.46,4.69a94.41,94.41,0,0,0,0,13.56c.39,4.34-1.42,5.12-5.29,5-7.09-.28-14.19,0-21.29-.11-2.38,0-3.76.47-3.7,3.24.36,15.18-.8,30.4.6,45.55.92,9.87,4.94,13.06,15,13.33,4.69.12,10.88-2,13.65.85,3,3.11.83,9.28.92,14.1.15,8.24,0,8.3-8.36,8.22-8.71-.08-17.49.68-26.11-1-14.09-2.8-20.85-10.8-22.36-25.45C475.9,305.11,476.22,294.45,476.14,283.79Z"/><path d="M72.51,287.48c0-8.69-.16-17.38.07-26.06.1-3.63-1.16-4.73-4.69-4.52-4.54.28-9.11-.09-13.65.13-3.17.14-4.68-.62-4.48-4.15a143.18,143.18,0,0,0,0-14.65c-.15-3.26.86-4.55,4.28-4.37,4.72.25,9.47-.11,14.19.12,3.43.17,4.4-1.19,4.32-4.43-.17-7.6.08-15.2-.11-22.8-.08-3.28,1-4.49,4.35-4.38q9.54.33,19.11,0c3.51-.13,4.28,1.35,4.21,4.5-.17,7.59.09,15.2-.12,22.79-.1,3.34,1,4.43,4.33,4.32,6.73-.21,13.48.15,20.2-.14,3.9-.17,5.75.69,5.25,5-.67,5.86,2.52,13.55-1.25,17.18-3.47,3.34-11.09.86-16.87.92-11.59.11-11.6,0-11.6,11.6s-.07,23.16,0,34.74c.09,11.39,4.5,15.64,16,15.76,4.33,0,10.08-1.37,12.63.81,3,2.6.89,8.49,1,12.94.18,9.46.05,9.5-9.3,9.44-6.73,0-13.47,0-20.19-.39C83.61,340.93,74,331.68,73,315.14c-.54-9.19-.1-18.44-.1-27.66Z"/><path d="M435.55,288c0,16.26-.12,32.53.09,48.79.05,4-.74,5.83-5.29,5.53-6.16-.42-12.36-.21-18.53-.06-2.83.06-3.78-.92-3.77-3.74q.1-50.42,0-100.82c0-3.29,1.35-3.91,4.22-3.85,6.36.15,12.73.21,19.09,0,3.36-.12,4.31,1,4.28,4.3C435.47,254.78,435.55,271.41,435.55,288Z"/><path d="M421.62,213.54c-10,0-17.75-7.46-17.57-16.87.18-9.2,8-16.35,17.7-16.16,10.11.19,17.92,7.63,17.67,16.84S431.32,213.58,421.62,213.54Z"/><path d="M673.05,249.37a15.33,15.33,0,0,1-15.33-15.57,15.61,15.61,0,1,1,15.33,15.57Zm.11-3.81A11.86,11.86,0,0,0,685.1,234c.26-6.09-5.27-12-11.44-12.16a12,12,0,0,0-12.14,11.95A11.76,11.76,0,0,0,673.16,245.56Z"/><path d="M679,240.53c-1.45-2.27-2.65-4.33-.18-7,1.32-1.44,1-4.26-1-5.87-2.51-2-5.57-1.55-8.37-1-2.55.45-1.49,2.91-1.59,4.53-.16,2.52-.05,5.06,0,7.59,0,.88,0,1.86,1.11,2.24.89.32,2.07.46,2.32-.55.93-3.68,1.87-1.55,3.08-.18S677.15,241.58,679,240.53Z"/><path d="M679,240.53c-1.82,1.05-3.39,1.1-4.64-.32s-2.15-3.5-3.08.18c-.25,1-1.43.87-2.32.55-1.08-.38-1.09-1.36-1.11-2.24,0-2.53-.15-5.07,0-7.59.1-1.62-1-4.08,1.59-4.53,2.8-.5,5.86-1,8.37,1,2,1.61,2.32,4.43,1,5.87C676.32,236.2,677.52,238.26,679,240.53Z"/></g></svg>