<svg xmlns="http://www.w3.org/2000/svg" viewBox="0 0 1230.52 500"><g id="Webmoney"><path d="M251.65,112a141.27,141.27,0,0,1,61.31,14l8.78,4.57-12.8,11.34L289.76,122.1l-33.05,29-19.46-20.83-60.79,54,38.92,42.43L200.2,239.89l38.39,42.44L223.41,295.5l54.92,60.36,32.5-29.51L339.19,358a167.8,167.8,0,0,1-18.3,12.13A140.56,140.56,0,0,1,252.12,388C174.89,387.86,112.24,326,112.24,249.8,112,174.16,174.62,112,251.65,112ZM226,241.37l33.33-29.52,29.86,33L255.9,274.31Zm23.74,56.92,33-29.78L313,301.44,279.63,331Zm-47.45-113,33.31-29.52,29.85,32.95L232.16,218.2Zm61-15.83,24.69-22.13,22.41,24.51-24.69,22.41Zm44.26,101.46,24.7-22.13,22.4,24.76L330,295.65Zm21.95,49.81,24.7-22.14,22.38,24.51L352,345.46Zm10.15-113.77,16.52-14.76,14.93,16.34-16.53,14.76Zm-21.33-48.74,16.52-15,14.94,16.6-16.54,14.76Zm42.38,97.51,16.53-14.76,15.18,16.34L375.69,272ZM286.4,219.07l24.69-22.13,22.39,24.51-24.69,22.13Zm172.36-36.9h13.39l20.9,80h1.06l15.34-80h17.6L502.77,289.24H486.52l-20.45-75.43H465l-19.86,75.43H428.92L404.45,182.07H421.3l16.84,80h1.05Zm89.66,61.56h34.44c-.75-15.87-8.42-22.21-16.47-22.21-9.17,0-16.25,7.11-17.89,22.21M595,272.15v11.49a52.74,52.74,0,0,1-26.53,6.95c-25.26,0-35.64-15.73-35.64-39.6,0-23,11.58-39.6,34.14-39.6,18.8,0,30.39,12.25,30.39,36.88v5.6h-49c0,18.13,7.37,26.16,22.87,26.16,8.12,0,15.55-2.89,23.91-7.87m37.25,6.4c4.81,2.11,10.08,2.44,13.84,2.44,11.13,0,19.55-7,19.55-31.45,0-19.2-6.92-25.4-17-25.4-6,0-10.39,1.67-16.4,5Zm.15-60.61c4.5-2.41,12.17-5.59,20.31-5.59,18.65,0,28.73,13,28.73,37.18,0,28.35-13.53,42-35.34,42a69.38,69.38,0,0,1-29.34-7.41V178.47l15.55-3.78v43Zm120,71.34h-9.62l-30.69-75.88h-1.35v75.88H697.31V182.1H715.6l33.68,84.51H750l32.2-84.51h18.65V289.29H784.46V211.51H783.1ZM867.16,251c0-20.4-8.27-29-18.49-29-9.92,0-18.5,8.61-18.5,29,0,20.71,7.83,29,18.5,29s18.49-8.31,18.49-29m-52.79,0c0-26.46,14.45-39.6,34.3-39.6S883,224.53,883,251c0,25.84-13.69,39.6-34.3,39.6s-34.3-13.77-34.3-39.6m80.29-28.51c6.77-4.09,21.07-11.19,38.36-11.19,18.05,0,24.8,7.1,24.8,22.68V288.7H942.28V237.45c0-11.93-5.86-14.06-13.54-14.06-6,0-13.69,2.73-18.35,5.45V288.7H894.85Zm96.27,21.15h34.44c-.73-15.87-8.41-22.21-16.46-22.21-9.17,0-16.23,7.11-17.9,22.21m46.46,28.42v11.49a52.68,52.68,0,0,1-26.52,6.95c-25.24,0-35.64-15.73-35.64-39.6,0-23,11.58-39.6,34.14-39.6,18.81,0,30.39,12.25,30.39,36.88v5.6h-49c0,18.13,7.38,26.15,22.87,26.15,8.11,0,15.55-2.88,23.91-7.86m64.75-60.77h16l-27.23,75.57c-7.53,20.85-16.7,31.73-34,31.73V306.21c10.25,0,16.47-8.17,20.16-19.36l-28.88-75.57h16.46l19.25,55.62h.92Z"/></g></svg>