<svg width="16" height="17" viewBox="0 0 16 17" fill="none" xmlns="http://www.w3.org/2000/svg">
<g clip-path="url(#clip0_404_656)">
<path d="M16 2.41763C15.4111 2.71959 14.7763 2.91802 14.1185 3.01292C14.7916 2.55567 15.3117 1.83096 15.5564 0.95959C14.9216 1.39096 14.218 1.69292 13.4761 1.86547C12.8719 1.12351 12.0229 0.692139 11.0593 0.692139C9.26195 0.692139 7.7935 2.34861 7.7935 4.39332C7.7935 4.68665 7.82409 4.97135 7.87763 5.23881C5.15488 5.08351 2.7304 3.60822 1.11663 1.37371C0.833652 1.91724 0.67304 2.55567 0.67304 3.22861C0.67304 4.5141 1.24665 5.65292 2.13384 6.29998C1.59082 6.29998 1.08604 6.12743 0.642448 5.86861V5.89449C0.642448 7.689 1.77438 9.19018 3.27342 9.52665C2.79214 9.67522 2.28688 9.69589 1.79732 9.58704C2.00505 10.3225 2.41188 10.9661 2.96062 11.4272C3.50937 11.8884 4.17243 12.144 4.8566 12.158C3.69685 13.1937 2.25927 13.7535 0.780115 13.7455C0.520077 13.7455 0.260038 13.7282 0 13.6937C1.45316 14.7463 3.18164 15.3588 5.03251 15.3588C11.0593 15.3588 14.3709 9.71645 14.3709 4.82469C14.3709 4.66077 14.3709 4.50547 14.3633 4.34155C15.0057 3.8239 15.5564 3.16822 16 2.41763Z" fill="#2D7CF2"/>
</g>
<defs>
<clipPath id="clip0_404_656">
<rect width="16" height="16" fill="white" transform="translate(0 0.0253906)"/>
</clipPath>
</defs>
</svg>
