<svg width="16" height="17" viewBox="0 0 16 17" fill="none" xmlns="http://www.w3.org/2000/svg">
<g clip-path="url(#clip0_404_659)">
<path d="M8.19561 0.692139C8.62283 0.694889 9.69168 0.706806 10.8277 0.759059L11.231 0.779227C12.3742 0.840648 13.5167 0.946988 14.0839 1.12758C14.8399 1.37143 15.4336 2.08098 15.6344 2.9812C15.9544 4.41129 15.9944 7.19996 15.9992 7.87559L16 8.01493V8.17444C15.9944 8.85006 15.9544 11.6397 15.6344 13.0688C15.4312 13.9718 14.8367 14.6823 14.0839 14.9224C13.5167 15.103 12.3742 15.2094 11.231 15.2708L10.8277 15.2919C9.69168 15.3432 8.62283 15.3561 8.19561 15.3579L8.0076 15.3588H7.80359C6.89954 15.3524 3.11856 15.3056 1.9153 14.9224C1.16006 14.6786 0.565628 13.969 0.364818 13.0688C0.0448023 11.6387 0.00480024 8.85006 0 8.17444V7.87559C0.00480024 7.19996 0.0448023 4.41037 0.364818 2.9812C0.568029 2.07823 1.16246 1.36776 1.9161 1.1285C3.11856 0.744392 6.90035 0.697639 7.80439 0.692139H8.19561ZM6.39952 4.8174V11.2345L11.1998 8.02593L6.39952 4.8174Z" fill="#2D7CF2"/>
</g>
<defs>
<clipPath id="clip0_404_659">
<rect width="16" height="16" fill="white" transform="translate(0 0.0253906)"/>
</clipPath>
</defs>
</svg>
