<svg xmlns="http://www.w3.org/2000/svg" viewBox="0 0 1230.52 500"><g id="Apple_Pay" data-name="Apple Pay"><path d="M322,115.31c-10.36,12.26-26.94,21.93-43.52,20.55-2.07-16.58,6.05-34.2,15.54-45.08,10.36-12.6,28.5-21.58,43.18-22.27,1.72,17.27-5,34.19-15.2,46.8m15,23.83c-24-1.38-44.55,13.64-55.95,13.64-11.57,0-29-12.95-48-12.61-24.7.35-47.67,14.34-60.27,36.61-25.91,44.56-6.74,110.52,18.3,146.79,12.26,18,26.94,37.64,46.28,36.95,18.31-.69,25.56-11.91,47.66-11.91,22.28,0,28.67,11.91,48,11.57,20-.35,32.64-18,44.9-35.92A157.33,157.33,0,0,0,398,283c-.34-.35-38.68-15-39-59.24-.34-36.95,30.22-54.57,31.61-55.6-17.27-25.56-44.21-28.32-53.54-29M475.66,89.06V358.28h41.79v-92H575.3c52.84,0,90-36.26,90-88.76s-36.44-88.41-88.59-88.41Zm41.79,35.23h48.18c36.26,0,57,19.34,57,53.36s-20.73,53.53-57.16,53.53h-48ZM741.6,360.35c26.25,0,50.59-13.3,61.65-34.37h.86v32.3h38.68v-134c0-38.85-31.08-63.89-78.92-63.89-44.38,0-77.19,25.38-78.4,60.27h37.65c3.11-16.58,18.48-27.46,39.54-27.46,25.56,0,39.9,11.91,39.9,33.84v14.86L750.4,245c-48.52,2.94-74.77,22.8-74.77,57.34C675.63,337.21,702.74,360.35,741.6,360.35Zm11.22-32c-22.27,0-36.44-10.7-36.44-27.11,0-16.92,13.65-26.77,39.72-28.32L802.56,270v15.2C802.56,310.44,781.14,328.4,752.82,328.4Zm141.6,103.1c40.76,0,59.93-15.55,76.68-62.69L1044.49,163H1002L952.79,322h-.86L902.71,163H859l70.81,196L926,370.88c-6.39,20.21-16.75,28-35.23,28-3.28,0-9.67-.35-12.26-.69v32.29C881,431.15,891.32,431.5,894.42,431.5Z"/></g></svg>