<svg xmlns="http://www.w3.org/2000/svg" viewBox="0 0 1230.52 500"><g id="Kotak"><path d="M592.46,62.3c107.26-.11,194.29,86.74,194.41,194s-86.75,194.29-194,194.4S398.57,364,398.46,256.7a194.21,194.21,0,0,1,194-194.4m0-23.51h0c-120.23.08-217.63,97.61-217.55,217.83a217.7,217.7,0,0,0,20.22,91.49c50.61,109,180,156.41,289.09,105.8S840.63,273.86,790,164.82a217.65,217.65,0,0,0-197.53-126Z"/><path d="M678.22,228.76c3.87-25.9-15.81-39.73-42.72-49l8.73-35-21.31-5.25-8.51,34.09c-5.54-1.39-11.35-2.72-17.07-4l8.55-34.31L584.58,130l-8.64,35-43-10.66-5.66,22.77s15.81,3.7,15.48,3.85c8.62,2.14,10.19,7.86,9.93,12.39L528.8,289.2a7.76,7.76,0,0,1-9.72,5.07l-.05,0c.21.31-15.5-3.88-15.5-3.88L493,314.8l42.93,10.84-8.82,35.42,21.14,5.3,8.73-35.14c5.83,1.59,11.47,3,17,4.42l-8.71,34.87,21.32,5.31,8.83-35.35c36.34,6.88,63.66,4.11,75.14-28.74,9.25-26.47-.44-41.73-19.57-51.7,13.93-3.21,24.42-12.37,27.21-31.29m-48.55,68.45c-6.6,26.47-51.14,12.17-65.58,8.56l11.7-46.9c14.37,3.51,60.69,10.6,53.88,38.34m6.6-68.65c-6,24-43.09,11.85-55.13,8.84l10.6-42.54c12,3,50.79,8.6,44.52,33.71"/></g></svg>