<svg xmlns="http://www.w3.org/2000/svg" viewBox="0 0 1230.52 500"><g id="Dineromail"><path d="M259.85,314.8l27.52-129.6h35.41q14.79,0,18.91.45a55.24,55.24,0,0,1,14.57,3.27,40,40,0,0,1,11.65,6.94A43.56,43.56,0,0,1,377,206.6a52.45,52.45,0,0,1,5.87,14.45A73.36,73.36,0,0,1,384.9,239q0,21-8.11,37.17t-20.4,25.77q-9.4,7.42-24.29,11-8.42,1.95-25.9,1.95Zm31.47-20.86H305q14.88,0,21.56-1.82a30.08,30.08,0,0,0,12.24-6.76q8-7.16,13.44-19.1t5.47-28.1q0-13.8-4.53-20.74t-11.16-9.23q-4.67-1.59-16.58-1.59H309.78Z"/><path d="M408.78,220.91h26.93L414.88,314.8H388Zm7.88-35.71h26.93l-5.07,23H411.59Z"/><path d="M457.53,220.91h23.66l-2.44,12.21q8.88-7.78,16.57-11.1a40.62,40.62,0,0,1,16.23-3.31q11.38,0,18,6.63t6.56,17.59q0,4.95-2.87,18.74L522.33,314.8h-25l11-53.31q2.43-11.93,2.43-14.23a10.24,10.24,0,0,0-2.82-7.64c-1.89-1.86-4.51-2.79-7.88-2.79q-5.47,0-12.17,4.68a32.52,32.52,0,0,0-10.53,12.38q-2.78,5.48-6.26,22.37l-7.91,38.54h-25Z"/><path d="M644.34,275.72H577.85c-.06,1-.09,1.77-.09,2.3q0,9.38,5.58,15.12A18.3,18.3,0,0,0,597,298.89q13.21,0,20.6-13.09l23.73,3.8q-6.93,13.71-18.52,20.55a50,50,0,0,1-26,6.86q-19.77,0-32.14-12t-12.37-31.69A56,56,0,0,1,563.44,239q15.24-20.34,43.5-20.33,18,0,28.63,10.65t10.61,29.83A67.85,67.85,0,0,1,644.34,275.72ZM622,260.25c.06-1.12.1-2,.1-2.56q0-10.42-4.9-15.65t-13.11-5.21a21.3,21.3,0,0,0-14.73,5.92q-6.52,5.92-8.82,17.5Z"/><path d="M672.77,220.91h23.56l-3.78,18.22q13.19-20.43,28.56-20.42a29.16,29.16,0,0,1,11.7,2.74l-9.67,20.77a21.48,21.48,0,0,0-7.3-1.24q-6.51,0-13.23,5a33.15,33.15,0,0,0-10.5,13.21q-3.78,8.27-7.48,26.21l-6.15,29.44H653.25Z"/><path d="M721.85,275.81q0-26.07,14.9-41.59t39.15-15.51q21,0,32.84,11.45T820.56,261q0,22.82-14.77,39.43T766.24,317a51.57,51.57,0,0,1-23.81-5.31,34.79,34.79,0,0,1-15.48-15A44.3,44.3,0,0,1,721.85,275.81Zm73.2-18.12q0-9-5.32-14.45A18.41,18.41,0,0,0,776,237.8a23.2,23.2,0,0,0-14.76,5.08q-6.45,5.09-10,14.77a51.85,51.85,0,0,0-3.58,17.81q0,10.08,5.55,16a18.31,18.31,0,0,0,14,5.92q10.56,0,17.72-8.93Q795.05,275.82,795.05,257.69Z"/><path d="M910.06,314.8H882.92l-5-108.29L855.79,314.8H830l29-129.6h40.79L904.08,276l47.44-90.79h41.27L963.66,314.8H937.58L965,207.3Z"/><path d="M1029.85,247.53,1004,245.4a37.48,37.48,0,0,1,15.49-19.62q11.05-7.08,29.27-7.07,19,0,28,7.29t9.06,17.81a56,56,0,0,1-.78,9q-.78,4.77-5.5,25.1-3.9,16.8-3.89,23.52a46.53,46.53,0,0,0,2.22,13.35H1052a47.43,47.43,0,0,1-1.94-10.61,40.45,40.45,0,0,1-13.41,9.5,37.78,37.78,0,0,1-15.26,3.32q-12.21,0-20.16-7.65t-7.95-19.67q0-13.43,8.74-21.48t31.21-9.72q19-1.5,25.34-3.63a30.06,30.06,0,0,0,1.67-8.48,8.38,8.38,0,0,0-3.43-6.81q-3.42-2.74-10.17-2.74-7.12,0-11.23,2.79A13.79,13.79,0,0,0,1029.85,247.53ZM1055.1,271a56.59,56.59,0,0,1-6.39,1.15q-20,2.3-26.07,6.72a10.06,10.06,0,0,0-4.35,8.57,9.73,9.73,0,0,0,3.33,7.47,12.51,12.51,0,0,0,8.78,3.05,24.1,24.1,0,0,0,11.33-2.78,19.53,19.53,0,0,0,8-7.17q2.64-4.37,4.67-13.65Z"/><path d="M1114.86,220.91h24.26l-18.77,93.89H1096.1Zm7.1-35.71h24.26l-4.57,23H1117.4Z"/><path d="M1144,314.8,1170,185.2h24.18l-25.87,129.6Z"/><path d="M170.65,252.4a24.85,24.85,0,0,0-5.21-7.57,32.33,32.33,0,0,0-7.35-5.45,81.79,81.79,0,0,0-8.41-4q-4.32-1.75-8.42-3.28a59.09,59.09,0,0,1-7.35-3.28,18.83,18.83,0,0,1-5.2-4,7.62,7.62,0,0,1-2-5.26,10.52,10.52,0,0,1,.93-4.47,8.24,8.24,0,0,1,3-3.4,16.52,16.52,0,0,1,5.28-2.16,33.12,33.12,0,0,1,7.84-.79,54.88,54.88,0,0,1,5.57.3c1.94.21,3.88.49,5.81.86s3.79.81,5.6,1.31a47.13,47.13,0,0,1,5,1.64V196.11c-1.52-.39-3.2-.78-5-1.15s-3.73-.7-5.7-1-4-.5-6-.67-3.85-.26-5.66-.26V183H132.82v10.88a39.25,39.25,0,0,0-5.79,1.41,31.26,31.26,0,0,0-11,6.12,23.24,23.24,0,0,0-6.28,9,30,30,0,0,0-2,10.9,26.32,26.32,0,0,0,2,10.7,25,25,0,0,0,5.17,7.65,30.06,30.06,0,0,0,7.32,5.37,89.82,89.82,0,0,0,8.34,3.88c2.83,1.15,5.61,2.21,8.35,3.21a45.57,45.57,0,0,1,7.31,3.35,18.75,18.75,0,0,1,5.17,4.29,9.24,9.24,0,0,1,2,6,11.17,11.17,0,0,1-1,4.77,9.31,9.31,0,0,1-3.21,3.73,17.18,17.18,0,0,1-5.7,2.47,35,35,0,0,1-8.49.89,55.26,55.26,0,0,1-6.92-.45c-2.38-.3-4.77-.7-7.17-1.23s-4.79-1.13-7.17-1.83-4.66-1.44-6.85-2.23V290a81.17,81.17,0,0,0,13.56,3,106.09,106.09,0,0,0,10.59.84v9.47h10.55v-9.79a55,55,0,0,0,8.32-1.49,34.59,34.59,0,0,0,12-5.71,26.32,26.32,0,0,0,7.88-9.73,31.87,31.87,0,0,0,2.82-13.88A25,25,0,0,0,170.65,252.4Z"/><path d="M141.85,157.18a87.17,87.17,0,0,0-42.32,10.9l-2.33,1.34-2,4.9,3.07.79q1.89-1.16,3.84-2.21a70,70,0,0,1,33.19-8.38c40.91,0,74.07,35.36,74.07,79s-33.16,79-74.07,79-74.07-35.36-74.07-79a83.65,83.65,0,0,1,3-22.05L73,231.86,90.27,183l-7.58,4.84-14.16,9L62,201.1,45.13,212.73v6.43h13a87.55,87.55,0,1,0,83.74-62Z"/><path d="M45.13,229.41S1.51,315.73,109,342.82C109,342.82,25.84,314.35,45.13,229.41Z"/></g></svg>