<svg xmlns="http://www.w3.org/2000/svg" viewBox="0 0 1230.52 500"><g id="Paypal"><path d="M653.52,375.25c5.78,5.33,4.26,13.81-2.52,17.44a13.71,13.71,0,0,1-15.67-2,8.23,8.23,0,0,1-3-7.4c-.9-6.17,5.53-10.89,10.55-11.28C647,371.71,650.55,372.51,653.52,375.25ZM506.34,325.56c7-5.82,7.09-17.07.92-23a18,18,0,0,0-10.84-5.29c-2.38-.22-4.76-.51-7.15-.62s-4.64,0-7,0v34.18c1.38-.17,2.61-.35,3.83-.42,3.11-.16,6.25-.08,9.35-.4A19.83,19.83,0,0,0,506.34,325.56Zm70.5,45.22a15.73,15.73,0,0,0-14.36.67,6.48,6.48,0,0,0-3.33,6.51H581.7C580.55,373.79,579.39,371.91,576.84,370.78Zm-76.39-10.3c-5.86-2.24-12.1-.91-18.18-2.07v34.15c2.81,0,5.55,0,8.29,0a28.5,28.5,0,0,0,10.79-1.93c8.7-3.4,12.1-11.49,9.61-19.81C509.35,365.53,505.44,362.41,500.45,360.48Zm89.47-63.21c-3.91,0-7.82,0-11.75,0V310.2c3.05,0,5.9,0,8.75,0a13.75,13.75,0,0,0,7.6-2.37c2.42-1.6,3.08-6.12.71-8.13C593.67,298.35,592.09,297.25,589.92,297.27ZM944.74,55.4V439a16.54,16.54,0,0,1-16.55,16.55H318.33A16.55,16.55,0,0,1,301.78,439V55.4a16.54,16.54,0,0,1,16.55-16.55H928.19A16.54,16.54,0,0,1,944.74,55.4ZM467,339c9-.11,18-.34,27-.27a45.47,45.47,0,0,0,17.15-3,27.46,27.46,0,0,0,12.51-9.25,20.16,20.16,0,0,0,2.71-19.29c-2.06-6-6.51-10.14-12-13.08a44.72,44.72,0,0,0-20.93-5c-8.79-.09-17.63,0-26.43,0Zm58,27.22c-4.09-7.28-11-11.05-18.7-13.23a58.59,58.59,0,0,0-16.19-1.75c-7.71,0-15.42,0-23.14,0v49.94q14.93-.14,29.87-.32a37.73,37.73,0,0,0,14.36-3c6.71-2.85,12.39-6.87,15.06-14.06A20.2,20.2,0,0,0,525,366.2Zm33.92,19.08h36.66a22.36,22.36,0,0,0-2.22-12.14c-2.72-5.5-7.53-8.38-13.18-10a34.78,34.78,0,0,0-12.71-1.1c-7.19.68-13.7,2.59-18.91,7.91a16.34,16.34,0,0,0-4.61,15.69c1,4.89,4,8.44,8.06,11.15a30,30,0,0,0,16.34,4.95,90.52,90.52,0,0,0,12.33-.35,81.18,81.18,0,0,0,10.41-2.16A1.71,1.71,0,0,0,592,398c.09-2.59,0-5.15,0-7.68a38,38,0,0,1-5,2.2c-6.63,1.82-13.38,2.49-20.16,1C562.89,392.68,558.73,390,558.9,385.28Zm-8.37-47v-49.4h-15v49.4Zm64.8.19c-5.25-7.88-8.53-16.7-14.43-23.8,3.51-.94,6.84-2.11,9-5.53a13.54,13.54,0,0,0,1.92-8.07,10,10,0,0,0-5.25-8.61c-4.8-2.82-10.17-3.78-15.74-3.73-3.18,0-6.39,0-9.58,0H563.34v49.8h14.83V318.82c2.25,0,4.42-.14,6.53,0a7.22,7.22,0,0,1,6.14,3.65q4.11,7.47,8,15.09a1.64,1.64,0,0,0,1.67,1.1c4.52-.05,9.05,0,13.56,0A8.33,8.33,0,0,0,615.33,338.45Zm56,40.42a17.7,17.7,0,0,0-4.27-8.93,19.72,19.72,0,0,0-13.63-6.39c-7.46-.55-14.93-.22-21.28,5.71v-21.9H617.61v53.72h14.76v-3.69c.32.08.6.06.73.18,3.41,3.26,7.76,4.45,12.2,4.85,5.08.47,10.23.33,15-2a18.81,18.81,0,0,0,9.79-10A20.55,20.55,0,0,0,671.38,378.87Zm-32.94-69.35V297.25h26.25v-8.42H624.84v49.75h39.48V330h-25.9V318.08h24.63v-8.56Zm73.2,55.4H697.28v36.51h14.36Zm0-7.86v-9.38H697.27v9.38Zm-26.57-47.78a14.36,14.36,0,0,1,4.61-7.83c4.15-3.54,9.25-4.53,14.48-4.76a48.61,48.61,0,0,1,7.23.32c3.13.33,6.29.88,9.71,1.38.39-2.11.83-4.49,1.2-6.85.05-.23-.33-.7-.64-.8a39.74,39.74,0,0,0-11.78-2.67c-3.05-.12-6.09-.17-9.12,0a52.46,52.46,0,0,0-8.85,1.19c-5.94,1.43-11.62,3.57-16.27,7.85a20.2,20.2,0,0,0-5.56,7.8A23.41,23.41,0,0,0,674.47,329a30.93,30.93,0,0,0,14.81,8.63,55,55,0,0,0,17.94,2.13,68.38,68.38,0,0,0,14.21-2.21c-.25-2.73-.5-5.4-.74-8.07-2.51.34-4.73.86-7,.94-5.89.16-11.77.21-17.49-1.62-4.55-1.45-8.45-3.7-10.52-8.22C684,316.91,684.12,313.13,685.05,309.28Zm38.8-69.59c2.15-2.1,4.28-4.26,6.23-6.58a96.9,96.9,0,0,0,7.1-9.28,77.64,77.64,0,0,0,8.49-17.71,73.1,73.1,0,0,0,3.69-20.5,70.63,70.63,0,0,0-1-14,69.21,69.21,0,0,0-7-20.71,84.69,84.69,0,0,0-12.58-18.25A112.25,112.25,0,0,0,709.91,116a124.6,124.6,0,0,0-26.78-14.23c-5.23-2-10.53-3.85-15.9-5.27-6.49-1.71-13.12-3-19.72-4.26-3-.61-6.09-1-9.17-1.3-2.6-.26-5.2-.31-8.18-.48.67,1.32-.72,2.86,1.45,3.42,4.89,1.27,9.88,2.33,14.57,4.16a114.19,114.19,0,0,1,16.9,8,71.86,71.86,0,0,1,20.26,17.36,63.68,63.68,0,0,1,8.5,13.35,137.75,137.75,0,0,1,5.48,14.09,65.06,65.06,0,0,1,2.2,10.26,111.6,111.6,0,0,1,1.56,12.74,124.07,124.07,0,0,1-.31,14.81,104.49,104.49,0,0,1-2,13.64,78.08,78.08,0,0,1-11.71,27.48,81.73,81.73,0,0,1-14.68,16.41,79.3,79.3,0,0,1-17.78,11.63,86.23,86.23,0,0,1-27.84,8,107.12,107.12,0,0,1-15.52.37c-5.42-.2-10.87-.62-16.25-1.32a140.4,140.4,0,0,1-16.71-3.08,119.29,119.29,0,0,1-26.9-9.93c-5.28-2.82-10.53-5.68-15.52-8.94A76.82,76.82,0,0,1,520,229.07c-5.06-5.78-9.08-12.09-10.75-19.69a21.8,21.8,0,0,1,1.6-14.92c3.05-6,7.8-10.47,13.21-14.32a94.53,94.53,0,0,1,17.85-9.76,134.7,134.7,0,0,1,28-8.71c6.41-1.22,12.84-2.46,19.32-3.26,6.15-.75,12.37-1.13,18.58-1.33,5.09-.17,10.2.17,15.33.27.52,0,1.07,0,1.69-.08V90.21h-9.91c-.17.1-.33.3-.5.31-4.54.24-9.06.42-13.61.7-2.49.15-5,.36-7.45.72q-5.79.84-11.51,1.94c-5.11,1-10.3,1.83-15.31,3.25-6.82,2-13.58,4.12-20.17,6.73a132.2,132.2,0,0,0-16.12,7.8,94.7,94.7,0,0,0-17.36,12.51A88.52,88.52,0,0,0,500.34,138a75.53,75.53,0,0,0-10.06,19.12,56.64,56.64,0,0,0-2.4,8.21c-.77,4.2-1.11,8.48-1.73,12.71-.86,5.92-.18,11.79.85,17.56a68.47,68.47,0,0,0,4.7,15.23,76.92,76.92,0,0,0,12.09,19.46,100.57,100.57,0,0,0,10.87,11.17,126.44,126.44,0,0,0,14.67,11.11,185.23,185.23,0,0,0,16.84,9.18,86.81,86.81,0,0,0,12.08,5c6,2,12.13,3.69,18.29,5.19,5.34,1.3,10.77,2.33,16.2,3.12a143,143,0,0,0,14.62,1.32c4.63.23,9.29.23,13.92,0,6.65-.29,13.31-.72,19.92-1.34A109.55,109.55,0,0,0,655.31,273c6.35-1.42,12.56-3.33,18.85-5.05a109,109,0,0,0,19.94-7.88c5-2.52,9.78-5.51,14.57-8.42A86.4,86.4,0,0,0,723.85,239.69ZM622.29,161.34c-3.59.46-7.26.63-10.78,1.41a64.44,64.44,0,0,0-16.46,6A57.77,57.77,0,0,0,577,183.51a43.91,43.91,0,0,0-7.17,12.38c-1.31,3.62-2.61,7.22-2.61,11.14,0,3.7-.28,7.45.22,11.09a32.23,32.23,0,0,0,3.71,10.77,44.19,44.19,0,0,0,9.29,11.87,76,76,0,0,0,9.78,7.2,61.5,61.5,0,0,0,17.38,7.68c3.5.91,7,1.81,10.51,2.57,2,.44,4.06.56,6.25.82V161C623.56,161.11,622.93,161.27,622.29,161.34Zm151,233.39c-3.45.75-6.74.93-9.85-.65a4.26,4.26,0,0,1-2.73-4.38c.15-2.54,0-5.07,0-7.61v-9.4h12.11v-8H760.67v-9.4H745.74v9.51H734.33v7.89h11.49v2c0,6.12-.05,12.23,0,18.35a8.89,8.89,0,0,0,2.56,6.15,15.73,15.73,0,0,0,8.89,4.25l3.43.67h5.62a40.3,40.3,0,0,0,4.4-.7c.91-.24,2.47.32,2.54-1.33C773.34,399.66,773.28,397.19,773.28,394.73ZM779.57,289H725.38v8.29h20.17v41.59h14.17V297.33h19.83C779.57,294.55,779.57,291.79,779.57,289Z"/></g></svg>