<svg xmlns="http://www.w3.org/2000/svg" viewBox="0 0 1230.52 500"><g id="Paypal"><path d="M796.32,300.16c-15.24,0-26.49-7.46-29.71-20.7-3,13.24-14.36,20.7-29.5,20.7-25,0-37.39-16.47-37.39-38.84V194.54h24.37v68.22c0,10.8,3.79,18,15.14,18,10.79,0,15.13-7.23,15.36-18V194.54h24.26v68.22c0,10.8,4.45,18,15.36,18,11.35,0,15.14-7.23,15.14-18V194.54h24.37v66.78c0,22.37-12.35,38.84-37.4,38.84"/><path d="M484.47,220.92a45.59,45.59,0,0,0,8.35-26.38H414.24v18.58h48.53l-42,59a45.52,45.52,0,0,0-8.35,26.38H491V279.9H442.51Z"/><path d="M1161.27,231.15v33.06c0,4.23.67,7.9,2.22,10.68l.11.34a10.44,10.44,0,0,0,1.9,2.45,7.69,7.69,0,0,0,1.44,1.22,6.91,6.91,0,0,0,.89.56l.12.11.33.22a19.57,19.57,0,0,0,10,2.34,28.48,28.48,0,0,0,5.34-.56v18.37a43.36,43.36,0,0,1-5.34.22c-19.26,0-34.17-9.57-39.07-24.82l-.11-.22a48,48,0,0,1-1.45-9.13c0-.56-.11-1.22-.11-1.78V231.15h-14.69v-18h14.69V194.54h23.71V213h22.37v18.14Z"/><path d="M527.32,248.74c0-14.14,8.79-17.59,16.91-17.59,8.35,0,17.14,3.45,17.14,17.59ZM575,224.25a17.16,17.16,0,0,0-1.44-1.33,36.59,36.59,0,0,0-7.57-5.12,43.69,43.69,0,0,0-4.12-1.78c-.45-.11-.89-.34-1.34-.45A50.21,50.21,0,0,0,544.23,213c-1.55,0-3.11.11-4.56.23a20.1,20.1,0,0,1-2.56.22,41,41,0,0,0-9.35,2.22h0c-1.11.34-2.11.78-3.22,1.23s-2,1-3,1.45a33.44,33.44,0,0,0-7.79,5.67c-6.46,6.23-10.24,14.92-10.24,25.27v14.46c0,.34.11.56.11.9a42.34,42.34,0,0,0,1.11,8.56v.23c4.34,16.36,19.7,26.6,39.74,26.6,16.47,0,29.83-7,36.39-18.7v-.11a34.15,34.15,0,0,0,2.45-5.46H558.48a13.62,13.62,0,0,1-8,5.46,21.92,21.92,0,0,1-6,.67c-3.45,0-7.13-.56-10-2.34l-.33-.22a12.1,12.1,0,0,1-5.23-6.24,13.94,13.94,0,0,1-.67-2.11c-.11-.45-.22-1-.34-1.56a23.6,23.6,0,0,1-.44-5V264H585.3V249.3A34.83,34.83,0,0,0,575,224.25"/><path d="M903.39,271.56a6.81,6.81,0,0,1-1,3c-2.23,3.67-8,7.68-17,7.68-6.23,0-11.68-3.56-11.68-10.13s5-10.68,13.8-10.68h15.91v5.34a23.23,23.23,0,0,1,0,4.79m23.37-23.49c0-1.33-.11-2.56-.22-3.89l-.33-2.67a5.79,5.79,0,0,1-.23-1.34c0-.45-.22-.89-.22-1.22v-.23c-4.23-16-19.25-26.15-39-26.15-10.46,0-19.59,2.78-26.49,7.9a36,36,0,0,0-6,5.68l17.92,11.46a13.09,13.09,0,0,1,8.68-6.57l1.45-.33a29.11,29.11,0,0,1,4.45-.33,20.29,20.29,0,0,1,5.12.55c.44.11.78.22,1.22.34a13.68,13.68,0,0,1,3.45,1.55l.34.23.11.11c.22.11.44.33.67.44a9.71,9.71,0,0,1,3.45,3.9,3.21,3.21,0,0,1,.44.89c.11.33.22.56.33.89a11.09,11.09,0,0,1,.67,2.11c.11.45.22,1,.34,1.45s.11.78.22,1.11v.12a15.12,15.12,0,0,1,.22,2.33v1.78H881.47c-16.92,0-31.17,7.35-31.17,25.49,0,17.14,14.92,26.49,30.16,26.49,8.35,0,17.26-2.45,22.93-8.57v7h23.37V249.52a3,3,0,0,0,0-1.45"/><path d="M344.23,248.74c0-14.14,8.8-17.59,16.92-17.59,8.35,0,17.14,3.45,17.14,17.59Zm47.64-24.49a17.35,17.35,0,0,0-1.45-1.33,36.06,36.06,0,0,0-7.57-5.12,43.49,43.49,0,0,0-4.11-1.78c-.45-.11-.89-.34-1.34-.45A50.25,50.25,0,0,0,361.15,213c-1.56,0-3.12.11-4.56.23a20.1,20.1,0,0,1-2.56.22,40.85,40.85,0,0,0-9.35,2.22h0c-1.11.34-2.12.78-3.23,1.23s-2,1-3,1.45a33,33,0,0,0-7.79,5.67c-6.46,6.23-10.24,14.92-10.24,25.27v14.46c0,.34.11.56.11.9a41.64,41.64,0,0,0,1.11,8.56v.23c4.34,16.36,19.7,26.6,39.73,26.6,16.48,0,29.83-7,36.4-18.7v-.11c.22-.45.55-1,.78-1.45a31.85,31.85,0,0,0,1.67-4H375.4a13.64,13.64,0,0,1-8,5.46,21.87,21.87,0,0,1-6,.67c-3.45,0-7.12-.56-10-2.34l-.34-.22a12.1,12.1,0,0,1-5.23-6.24c-.22-.66-.55-1.44-.78-2.11-.11-.45-.22-1-.33-1.56a22.93,22.93,0,0,1-.45-5V264h57.88V249.3a34.35,34.35,0,0,0-10.24-25.05"/><path d="M623.92,248.74c0-14.14,8.8-17.59,16.92-17.59,8.35,0,17.14,3.45,17.14,17.59Zm47.64-24.49a17.35,17.35,0,0,0-1.45-1.33,36.06,36.06,0,0,0-7.57-5.12,43.49,43.49,0,0,0-4.11-1.78c-.45-.11-.89-.34-1.34-.45A50.25,50.25,0,0,0,640.84,213c-1.56,0-3.12.11-4.56.23a20.1,20.1,0,0,1-2.56.22,40.85,40.85,0,0,0-9.35,2.22h0c-1.11.34-2.12.78-3.23,1.23s-2,1-3,1.45a35.44,35.44,0,0,0-7.79,5.67c-6.46,6.23-10.24,14.92-10.24,25.27v14.46c0,.34.11.56.11.9a41.64,41.64,0,0,0,1.11,8.56v.23c4.34,16.36,19.7,26.6,39.73,26.6,16.48,0,29.83-7,36.4-18.7v-.11a34.15,34.15,0,0,0,2.45-5.46H655a13.64,13.64,0,0,1-8,5.46,21.87,21.87,0,0,1-6,.67c-3.45,0-7.12-.56-10-2.34l-.34-.22a12.1,12.1,0,0,1-5.23-6.24c-.22-.66-.56-1.44-.78-2.11-.11-.45-.22-1-.33-1.56a22.93,22.93,0,0,1-.45-5V264h57.88V249.3a33.84,33.84,0,0,0-10.13-25.05"/><path d="M1054.09,248.74c0-14.14,8.79-17.59,16.92-17.59,8.34,0,17.14,3.45,17.14,17.59Zm47.63-24.49a17.16,17.16,0,0,0-1.44-1.33,36.59,36.59,0,0,0-7.57-5.12,43.69,43.69,0,0,0-4.12-1.78c-.44-.11-.89-.34-1.34-.45A50.19,50.19,0,0,0,1071,213c-1.56,0-3.12.11-4.57.23a20.1,20.1,0,0,1-2.56.22,41,41,0,0,0-9.35,2.22h0c-1.11.34-2.11.78-3.22,1.23s-2,1-3,1.45a33.44,33.44,0,0,0-7.79,5.67c-6.46,6.23-10.24,14.92-10.24,25.27v14.46c0,.34.11.56.11.9a42.34,42.34,0,0,0,1.11,8.56v.23c4.35,16.36,19.7,26.6,39.74,26.6,16.47,0,29.83-7,36.39-18.7v-.11a34.15,34.15,0,0,0,2.45-5.46h-24.82a13.62,13.62,0,0,1-8,5.46,21.92,21.92,0,0,1-6,.67c-3.45,0-7.13-.56-10-2.34l-.33-.22a12.1,12.1,0,0,1-5.23-6.24A13.94,13.94,0,0,1,1055,271c-.11-.45-.22-1-.34-1.56a23.6,23.6,0,0,1-.44-5V264h57.87V249.3a34.83,34.83,0,0,0-10.35-25.05"/><path d="M956.37,298.49H970v-104H946.24v93.93a10,10,0,0,0,10.13,10"/><path d="M997.55,298.49h13.58v-104H987.42v93.93a10.07,10.07,0,0,0,10.13,10"/><path d="M122,273.78A13.21,13.21,0,0,0,135.22,287H241V260.65H135.22A13,13,0,0,0,122,273.78"/><path d="M240.84,207.67H135.11a13.25,13.25,0,1,0,0,26.49H240.84Z"/><path d="M88.25,198.54a23.41,23.41,0,0,0-2.78,11.25c-.11,10,6.12,17.58,14.35,22.7,6.13,4,12,8.68,12,16.25S106,261,99.82,265c-8.12,5.12-14.35,12.69-14.35,22.7a23.37,23.37,0,0,0,2.78,11.24c5.9,11.13,18.25,14.36,29.94,14.36H254v39.62H110.29C94,353,77,349.35,64,339.11a49.61,49.61,0,0,1-16.48-22.48c-7.56-20.37-3-40.29,12.69-55.09,1.56-1.56,3.23-3,4.68-4.68a16.47,16.47,0,0,0,3.67-6.12,6.23,6.23,0,0,0,0-4,16.59,16.59,0,0,0-3.67-6.13c-1.45-1.66-3.12-3.11-4.68-4.67C44.51,221.14,40,201.1,47.51,180.85A50.43,50.43,0,0,1,64.1,158.37c13-10.13,30.05-13.92,46.3-13.8H254.08v39.62H118.3c-11.8,0-24.15,3.22-30,14.35"/></g></svg>