<svg xmlns="http://www.w3.org/2000/svg" viewBox="0 0 1230.52 500"><defs><style>.cls-1{fill:#0a0b09;}</style></defs><g id="Kotak"><path class="cls-1" d="M1050.9,285.94a24.31,24.31,0,0,0-24.22,24.4v.05a24.32,24.32,0,0,0,24.17,24.44h.05a24.45,24.45,0,0,0,0-48.89Zm-79.69-18.87c0-18.49-15.65-33.46-35-33.46s-35,15-35,33.46,15.67,33.43,35,33.43,34.94-15,34.94-33.43Zm.14-65h38.57v130H971.35v-8.31a67.28,67.28,0,0,1-38.26,11.9c-37.55,0-68-30.71-68-68.6s30.44-68.61,68-68.61a67.12,67.12,0,0,1,38.26,11.91ZM662.59,219V202.05h-39.5v130h39.59V271.36c0-20.49,22-31.48,37.25-31.48h.46V202.05C684.71,202.05,670.34,208.82,662.59,219Zm-98.41,48.09c0-18.49-15.65-33.46-35-33.46s-35,15-35,33.46,15.68,33.43,35,33.43,34.93-15,34.93-33.43Zm.14-65h38.59v130H564.32v-8.31a67.3,67.3,0,0,1-38.25,11.9c-37.55,0-68-30.71-68-68.6s30.44-68.61,68-68.61a67.09,67.09,0,0,1,38.25,11.91Zm232.23-3.47c-15.41,0-30,4.81-39.76,18.12V202.05H718.38v130h38.89V263.75c0-19.76,13.13-29.46,29-29.46,16.95,0,26.72,10.22,26.72,29.19v68.6h38.52V249.39c0-30.25-23.85-50.83-54.92-50.83ZM401.88,332.08h40.39v-188H401.88Zm-177.42.05h42.78V144.06H224.49ZM374.07,144.06A150.23,150.23,0,0,1,330.32,250.8l59.11,81.33H336.61L272.4,243.76,289,231.22a108.32,108.32,0,0,0,43.2-87.16h41.89Z"/></g></svg>