<svg xmlns="http://www.w3.org/2000/svg" viewBox="0 0 1230.52 500"><defs><style>.cls-1,.cls-2{isolation:isolate;}.cls-1{opacity:0.71;}.cls-2{opacity:0.57;}</style></defs><g id="Paypal"><g id="Layer_1" data-name="Layer 1"><path d="M393.2,238.22a16.83,16.83,0,0,1,1.27,2,51.82,51.82,0,0,0-4.68-12.39c-17.17-31.48-64.93-22.07-112.56,13.62a180.32,180.32,0,0,0-33.53,32.65,137.88,137.88,0,0,1,16.47,11.64,70.28,70.28,0,0,0,10,6.09q4.53-5.25,9.46-10.32C322.1,237.76,376.1,215.46,393.2,238.22Z"/><path d="M396.2,264.93l.89-.26c1.53-9.85.9-18.38-2.62-24.49A78.62,78.62,0,0,1,396.2,264.93Z"/><path d="M394.37,240a16.91,16.91,0,0,0-1.28-2l-.19-.22c.39,1.19.73,2.4,1,3.65a19.1,19.1,0,0,1,1.36,2.76C395,242.82,394.71,241.41,394.37,240Z"/><path d="M276.75,243.33c47.51-36,95.18-45.64,112.5-14.25a49.55,49.55,0,0,1,3.71,8.64,1.37,1.37,0,0,0,.2.22,21.17,21.17,0,0,1,1.27,2,52.84,52.84,0,0,0-4.73-12.37c-17.27-31.4-65-21.7-112.51,14.25a175.35,175.35,0,0,0-43.73,47.8,3.07,3.07,0,0,1,.28.35A175.39,175.39,0,0,1,276.75,243.33Z"/><path d="M263.19,274.47c-4.31-3.71-8.85-7.21-12.95-11.23A214,214,0,0,1,223,290.15c-42.49,35.1-88.29,46.74-102.26,25.91-.22-.33-.41-.67-.61-1a43.59,43.59,0,0,1-5.93-12.95,49,49,0,0,1,.43-26.69c-6.48,13.13-8.29,26.1-4.17,37.2,10.8,29.32,59,34.27,107.62,11,22.62-10.8,41.32-25.91,53.78-41.83C268.94,279.37,266.11,276.82,263.19,274.47Z"/><path d="M160.22,230.51a30,30,0,0,0-6.69,1.34l.13.32-.39-.19c-9.37,6.69-9.7,6.73.39.19a107.34,107.34,0,0,0-16.56,12.68,115.33,115.33,0,0,0-20.84,27.46h0q-.87,1.62-1.68,3.24a49.09,49.09,0,0,0-.44,26.69,43.62,43.62,0,0,0,5.94,12.95,44,44,0,0,1-5.68-21.29c.18-18.48,15.83-42.92,26.43-52a29,29,0,0,1,16.65-7.58A13.66,13.66,0,0,1,160.22,230.51Z"/><path class="cls-1" d="M200.75,306.36C220.66,294,238.58,277,244.17,269.65l3.22-3.54c2.53-2.37,5.66-7.19,8.14-9.5,6.35-3.3,18.14-11.55,30.49-19.75,5.31-3.52,10.66-7,13.69-8.64l14.51,24c-9.05,5.87-32.22,25.41-40.4,32.39-2.57,2.16.49-2.64-1.92-.35L254.62,299.8a172.4,172.4,0,0,1-39.34,25Z"/><path d="M386.55,223c35.35,66.93-45.11,98.28-87.32,52.12-17.7-22.26-19.76-33.49-30.85-44.89-47.51-46.1-115.8-17.45-151.34,40.33,4.73-5.65,34.76-39.92,78.44-34.54,33.77,4.31,39.28,47.5,89.22,73C341.38,338,443.27,298.83,386.55,223Z"/><path class="cls-2" d="M286.21,307.35c-49.94-25.52-55.47-68.74-89.22-73-41.67-5.27-70.93,25.73-77.62,33.59h0c8.85-9.76,37-36.7,76.11-31.8,33.77,4.21,39.28,47.5,89.22,72.94,35.11,17.92,87.51,9.71,108.89-17.15C371.35,317.42,320.5,324.87,286.21,307.35Z"/><path d="M388.28,225.2c-.56-.8-1.13-1.6-1.73-2.4,34.55,65.51-41.85,97-84.66,54.87C344.14,321.07,421.42,290.32,388.28,225.2Z"/><path d="M567.81,212.22a10.47,10.47,0,0,0-1.83-.56c-5-1.28-17.27-1.69-21.25,1.55l-.21.2a7,7,0,0,0-1.58,2.16,511.52,511.52,0,0,0-32,47.78l-29.73-47.7-.11-.23a6.74,6.74,0,0,0-1.62-2.16l-.21-.18c-3.46-2.87-13.8-2.78-19.43-1.81a15.48,15.48,0,0,0-3.91.93,6.16,6.16,0,0,0-3.74,5.55V318.39c0,2,.93,5.53,7.15,6.48a44.87,44.87,0,0,0,6.24.38c4.32,0,13.41,0,13.41-6.86v-58c1.94,3.06,5.63,9.07,9.71,16.6q8.52,15.75,11.43,20.58l1.14,2.16a15,15,0,0,0,3.84,4,14.74,14.74,0,0,0,10.8,1.69,7.07,7.07,0,0,0,2.51-1.26,17.5,17.5,0,0,0,4.31-4.1l2.59-4.53q1.89-3.31,8.81-16.35t10.56-19c3.63-6,0,10.9,0,11.53v46.83c0,6.87,9,6.87,13.39,6.87s13.41,0,13.41-6.87V217.77A6.15,6.15,0,0,0,567.81,212.22Z"/><path d="M600.35,252.17c-8.63,0-9.71,1.53-9.71,3.19v64.26c0,1.66,1.16,3.19,9.71,3.19s9.72-1.53,9.72-3.19V255.36C610.07,253.7,608.88,252.17,600.35,252.17Z"/><path d="M600.35,326.49c-4.32,0-13.41,0-13.41-6.87V255.36c0-6.87,9-6.87,13.41-6.87s13.39,0,13.39,6.87v64.26C613.74,326.49,604.69,326.49,600.35,326.49Zm-6-7.84a38.78,38.78,0,0,0,12.07,0V256.33a38.78,38.78,0,0,0-12.07,0Z"/><path d="M698.25,215.8h-56c-5.88.2-8.86.74-8.86,3.16V319.62c0,1.66,1.17,3.19,9.65,3.19s9.66-1.53,9.66-3.19V278.05h40c3.08,0,5.07-3.52,5.07-8.93s-2-8.94-5.07-8.94h-40V233.66h45.51c3.09,0,5.1-3.5,5.1-8.92S701.36,215.8,698.25,215.8Z"/><path d="M643.08,326.49c-4.31,0-13.34,0-13.34-6.87V219c0-6.48,7.49-6.68,12.44-6.83h56.14c4,0,8.76,3.31,8.76,12.61s-4.73,12.61-8.76,12.61H656.41v19.16h36.34c4,0,8.76,3.3,8.76,12.61s-4.73,12.6-8.76,12.6H656.41v37.9C656.41,326.49,647.4,326.49,643.08,326.49Zm-6-7.84a38.14,38.14,0,0,0,12,0V274.47h43.68c.38-.13,1.4-1.68,1.4-5.25s-1-5.11-1.38-5.27H649.06V230h49.19c.24,0,1.4-1.4,1.4-5.25s-1.16-5.18-1.36-5.26v0h-56a31.34,31.34,0,0,0-5.21.47Z"/><path d="M844.58,215.8c-8.51,0-9.65,1.67-9.65,3.29v66.39l-45.84-67.8-.22-.26c-2.16-2.16-14.1-1.79-16.84-.64a2.47,2.47,0,0,0-1.81,2.31v100.4c0,1.08,0,3.28,9.67,3.28s9.65-2.16,9.65-3.28v-66.4l45.84,67.72c1.08,1.49,5,2,8.92,2a31.16,31.16,0,0,0,7.58-.75c1.94-.63,2.35-1.75,2.35-2.57V219.09C854.23,217.47,853.09,215.8,844.58,215.8Z"/><path d="M844.3,326.49c-8.4,0-10.8-2-11.9-3.55L793.26,265.1v54.39c0,7-9,7-13.33,7s-13.34,0-13.34-7V219.09a6.2,6.2,0,0,1,4.08-5.73c2.76-1.14,16.84-2.54,20.86,1.45l.67.82,39.08,57.83V219.09c0-7,9.35-7,13.34-7s13.33,0,13.33,7v100.4a6.49,6.49,0,0,1-4.91,6.07A34.74,34.74,0,0,1,844.3,326.49Zm-6.09-8.08a18.17,18.17,0,0,0,6.09.71,31.26,31.26,0,0,0,6.26-.52V220a34.81,34.81,0,0,0-12,0v77.5l-52.27-77.35a34.56,34.56,0,0,0-12.42,0v98.55a34.69,34.69,0,0,0,11.94,0V241.11Z"/><path d="M889.47,215.78c-8.53,0-9.72,1.54-9.72,3.18V319.62c0,1.66,1.19,3.19,9.72,3.19s9.72-1.53,9.72-3.19V219C899.19,217.32,898,215.78,889.47,215.78Z"/><path d="M889.47,326.49c-4.32,0-13.39,0-13.39-6.87V219c0-6.87,9-6.87,13.39-6.87s13.41,0,13.41,6.87V319.62C902.88,326.49,893.83,326.49,889.47,326.49Zm-6-7.84a38.78,38.78,0,0,0,12.07,0V219.93a27.92,27.92,0,0,0-6-.48,26.42,26.42,0,0,0-6,.48Z"/><path d="M734.57,215.78c-8.53,0-9.72,1.54-9.72,3.18V319.62c0,1.66,1.19,3.19,9.72,3.19s9.72-1.53,9.72-3.19V219C744.29,217.32,743.12,215.78,734.57,215.78Z"/><path d="M734.57,326.49c-4.32,0-13.39,0-13.39-6.87V219c0-6.87,9.05-6.87,13.39-6.87S748,212.09,748,219V319.62C747.91,326.49,738.91,326.49,734.57,326.49Zm-6.05-7.84a39,39,0,0,0,12.1,0V219.93a39,39,0,0,0-12.1,0Z"/><path d="M1002.7,215.8H924.28c-1.67,0-3.2,1.17-3.2,9.66s1.53,9.65,3.2,9.65h29.53v84.51c0,1.66,1.17,3.19,9.66,3.19s9.65-1.53,9.65-3.19V235.11h29.58c1.64,0,3.17-1.17,3.17-9.65S1004.32,215.8,1002.7,215.8Z"/><path d="M963.47,326.49c-4.32,0-13.33,0-13.33-6.87V238.8H924.23c-6.88,0-6.88-9-6.88-13.34s0-13.33,6.88-13.33h78.47c6.86,0,6.86,9,6.86,13.33s0,13.34-6.86,13.34H976.79v80.82C976.79,326.49,967.81,326.49,963.47,326.49Zm-6-7.84a38.08,38.08,0,0,0,12,0V231.44h32.26a38.08,38.08,0,0,0,0-12H925.23a37.49,37.49,0,0,0,0,12h32.26Z"/><path d="M1114.72,216.8c-3.61-1.25-17.15-1.58-19.72,1.62l-24.42,38-24.48-38c-2.35-3.15-15.85-2.91-19.43-1.68-2,.67-2.47,1.81-2.47,2.67V220l36.71,57.24v42c0,.91,0,3.65,9.72,3.65s9.71-2.74,9.71-3.65v-42L1117.05,220v-.54C1117.14,218.61,1116.64,217.49,1114.72,216.8Z"/><path d="M1070.54,326.57c-3.32,0-13.39,0-13.39-7.32v-41L1020.45,221v-1.6a6.48,6.48,0,0,1,5-6.18c3.54-1.18,19.54-2.44,23.6,3l.15.22,21.4,33.19,21.59-33.54c4.32-5.33,20.43-4,23.76-2.78h0a6.49,6.49,0,0,1,4.79,6.11V221L1084,278.25v41C1083.93,326.57,1074,326.57,1070.54,326.57Zm-6-8a27.62,27.62,0,0,0,12.07,0V276.13L1112.65,220c-3.78-.77-12.74-.56-14.77.74l-27.27,42.51-27.4-42.45c-2-1.29-10.8-1.53-14.67-.73l36,56.14Z"/><rect x="585.78" y="213.06" width="28.22" height="28.42" rx="10.52"/></g></g></svg>