<svg xmlns="http://www.w3.org/2000/svg" viewBox="0 0 1230.52 500"><g id="NEOSURF"><path d="M154.1,353.3V180.06c0-15.68,12.3-27.06,28.9-27.06s26.29,6.46,33.67,20.76l43.5,86.54h.61V156.23h48.73V327.78c0,18-13.52,28.75-25.82,28.75-12.61,0-21.83-5.84-34.74-30.9L203.6,237.86H203V353.15H154.1Zm244-54.11L379.76,270,419,243.85a31.2,31.2,0,0,0-18.45-5.23c-19.67,0-30.43,20.45-30.43,38,0,18.3,12.91,37.36,32.28,37.36,18,0,35.51-16.14,42.73-33.21l34.28,18c-13.68,33.51-44.27,57.8-80.39,57.8-40,0-75-35-75-77.48,0-42.58,34.9-77.47,75-77.47,33.51,0,55.49,18.29,71.17,47.19Zm127.44-20.14c0-17.06,12.3-31.36,29-31.36s29.05,14.3,29.05,31.36-12.29,31.36-29.05,31.36-29-14.29-29-31.36Zm-46.12,0c0,42.58,35,77.48,75.17,77.48s75.17-35,75.17-77.48c0-42.58-35.05-77.47-75.17-77.47S479.37,236.47,479.37,279.05Zm160.18,32h45.34c5.54,0,8.31-2.77,8.31-6.61,0-13.84-52.12-8.61-52.12-56.88,0-27.52,23.52-41.35,46-41.35h45.8v38.89H696c-5.53,0-9.68,2.92-9.68,6.92,0,11.68,55,14.6,55,53.8,0,29.67-18.29,45.81-49.19,45.81H639.39V311Zm162.94-20.76c0,12.61,6.3,20.45,16.6,20.45s16.6-7.84,16.6-20.45V206.34h46.58v83.93c0,38-22,66.41-63.18,66.41-41,0-63.18-28.28-63.18-66.41V206.34h46.58v83.93Zm135.12-59.64h.61c7.07-20.6,20.6-24.29,41-24.29V250c-32.59,1.23-35.51,8.3-35.51,33.51v68.25h-47V206.34h40.89ZM989.1,351.76v-156c0-30.13,23.37-52.42,60.26-52.42h27.06v43.5h-22.75c-12.3,0-15.38,6.92-15.38,19.06h28.6v43.51h-28.6V351.76Z"/></g></svg>