<svg xmlns="http://www.w3.org/2000/svg" viewBox="0 0 1230.52 500"><defs><style>.cls-1{fill-rule:evenodd;}</style></defs><g id="Paysafe"><g id="Paysafe-UI-KIT-logos"><g id="Logos-white"><g id="b2b-logo-full-colour-white"><path id="Fill-1" class="cls-1" d="M1087.26,217.81a27,27,0,1,1-27-27,27,27,0,0,1,27,27"/><path id="Fill-3" class="cls-1" d="M1087.26,302.43a27,27,0,1,1-27-27,27,27,0,0,1,27,27"/><path id="Fill-5" class="cls-1" d="M207.41,229.72H185.86V178.31h21.55c15.33,0,23.9,10.63,23.9,26C231.31,220.65,221.7,229.72,207.41,229.72Zm4.69-82.59H143.26V326.35h42.6V260.89H212.1c34.53,0,60.51-21.55,60.51-58.18C272.61,171,253.13,147.13,212.1,147.13Zm284.5,46.75L468,273l-32.81-79.16H392.67l56,126.24-17.48,43.4h39.55l67.12-169.64Zm307-5.45v5.45H781.49V222.2h22.08V326.35h41.3V222.2h28.57V193.88H844.87v-7c0-11.69,4.68-20,17.4-20a46.08,46.08,0,0,1,12.21,1.82V139.08a74.18,74.18,0,0,0-19.74-2.6C821.23,136.48,803.57,157,803.57,188.43ZM728,297.26a28.49,28.49,0,0,1-16.36,5.2c-10.39,0-17.4-6-17.4-15.59,0-10.91,8.59-21.58,33.76-17.4Zm-8-106.49c-25.71,0-46,8-58.44,15.84L673,230.25c7.53-3.38,23.38-9.35,36.88-9.35,9.61,0,18.18,3.38,18.18,13.51v8.83c-57.28-4.08-73.75,21.12-73.75,44.4,0,22.74,19.26,41.83,44.6,41.83,10,0,20.85-3.78,29.15-9v5.87h41.56v-92.2C769.59,204.28,750.63,190.77,720,190.77ZM350.11,297.26a28.49,28.49,0,0,1-16.36,5.2c-10.39,0-17.4-6-17.4-15.59,0-10.91,8.59-21.58,33.76-17.4Zm-9.6-106.49c-25.71,0-46,8-58.44,15.84l11.43,23.64c7.53-3.38,23.38-9.35,36.88-9.35,9.61,0,18.18,3.38,18.18,13.51v8.83c-57.28-4.08-73.74,21.12-73.74,44.4,0,22.74,19.25,41.83,44.59,41.83,10,0,20.85-3.78,29.15-9v5.87h41.56v-92.2C390.12,204.28,371.16,190.77,340.51,190.77Zm240.14,40.52c0-6.23,6.23-10.13,16.62-10.13,10.91,0,22.34,3.9,30.65,7.53l11.69-27.27c-10.91-5.46-27.54-10.65-44.42-10.65-30.91,0-55.84,14-55.84,42.08,0,44.15,62.33,36.1,62.33,55.58,0,7.27-7.27,10.91-19.48,10.91-12.46,0-24.41-4.16-33.76-8.83l-13.25,26.75c15.59,8.31,33.77,12.21,50.65,12.21,30.13,0,56.1-15.58,56.1-44.16C641.94,241.68,580.65,249,580.65,231.29Zm361.49-11.43c11.43,0,20.52,9.09,22.08,26.75H920.06C921.62,229,930.71,219.86,942.14,219.86Zm64.05,48.57V258.08c0-38.84-27.16-67.31-64.05-67.31s-65.45,29.35-65.45,70.13c0,41.82,27,68.57,70.13,68.57,12,0,35.79-2.17,54.13-14.86l-11.59-25.75c-12.43,7.05-25,10.22-36.31,10.22-1,0-1.94,0-2.9-.09l-.64,0c-.91-.07-1.8-.16-2.68-.27l-.59-.09c-.71-.11-1.41-.23-2.1-.38l-.73-.14c-.71-.16-1.4-.35-2.09-.56l-1.1-.34c-.49-.16-1-.34-1.46-.52s-1.08-.44-1.6-.68l-.45-.21c-.85-.41-1.66-.84-2.43-1.3l-.07,0a26.74,26.74,0,0,1-4.64-3.58l-.07-.06c-.56-.55-1.1-1.12-1.61-1.71-.2-.23-.39-.46-.58-.7s-.59-.74-.86-1.12c-.47-.64-.92-1.3-1.34-2l0-.06a39.84,39.84,0,0,1-5-16.76h86.13Z"/></g></g></g></g></svg>