<svg xmlns="http://www.w3.org/2000/svg" viewBox="0 0 1230.52 500"><g id="Kotak"><path d="M597.19,242.43h49.45v78.7c-6.74,3.36-15.74,4.48-22.48,4.48-18,0-27-9-27-29.23Z"/><path d="M621.91,60.29c-114.44,0-207.23,92.79-207.23,207.24s92.79,207.23,207.23,207.23S829.15,382,829.15,267.53,736.36,60.29,621.91,60.29Zm95.46,172.82a3.31,3.31,0,0,1,0,.63,5.31,5.31,0,0,1-5.61,5H685.89V399.38a7.26,7.26,0,0,1-6.74,6.74H663a17.77,17.77,0,0,1-17.54-18v-36A77.67,77.67,0,0,1,614,357.79c-36,0-57.33-23.62-57.33-64.08v-54H540.89a14.87,14.87,0,0,1-14.53-14.52V214c0-.22,0-.42,0-.64a5.31,5.31,0,0,1,5.61-5H634.28l-67.45-64.09a5.29,5.29,0,0,1-.89-1.59,5,5,0,0,1,3.14-6.27l21.37-6.64c9.08-2.33,18,0,23.6,6.75l61.82,70.81h27a14.85,14.85,0,0,1,14.61,14.52Z"/></g></svg>