<svg xmlns="http://www.w3.org/2000/svg" viewBox="0 0 1230.52 500"><defs><style>.cls-1{fill:none;}</style></defs><g id="Paypal"><circle cx="479.68" cy="49.94" r="5.07"/><circle cx="496.56" cy="49.94" r="5.07"/><circle cx="513.45" cy="49.94" r="5.07"/><circle cx="547.22" cy="49.94" r="5.07"/><circle cx="580.98" cy="49.94" r="5.07"/><circle cx="614.75" cy="49.94" r="5.07"/><circle cx="479.68" cy="66.83" r="5.07"/><circle cx="496.56" cy="66.83" r="5.07"/><circle cx="513.45" cy="66.83" r="5.07"/><circle cx="547.22" cy="66.83" r="5.07"/><circle cx="479.68" cy="83.71" r="5.07"/><circle cx="496.56" cy="83.71" r="5.07"/><circle cx="513.45" cy="83.71" r="5.07"/><circle cx="530.33" cy="83.71" r="5.07"/><circle cx="564.1" cy="83.71" r="5.07"/><circle cx="614.75" cy="83.71" r="5.07"/><circle cx="496.56" cy="100.6" r="5.07"/><circle cx="530.33" cy="100.6" r="5.07"/><circle cx="547.22" cy="100.6" r="5.07"/><circle cx="564.1" cy="100.6" r="5.07"/><circle cx="479.68" cy="117.48" r="5.07"/><circle cx="513.45" cy="117.48" r="5.07"/><circle cx="530.33" cy="117.48" r="5.07"/><circle cx="580.98" cy="117.48" r="5.07"/><circle cx="614.75" cy="117.48" r="5.07"/><circle cx="496.56" cy="134.36" r="5.07"/><circle cx="513.45" cy="134.36" r="5.07"/><circle cx="530.33" cy="134.36" r="5.07"/><circle cx="564.1" cy="134.36" r="5.07"/><circle cx="614.75" cy="134.36" r="5.07"/><circle cx="479.68" cy="151.25" r="5.07"/><circle cx="513.45" cy="151.25" r="5.07"/><circle cx="547.22" cy="151.25" r="5.07"/><circle cx="580.98" cy="151.25" r="5.07"/><circle cx="614.75" cy="151.25" r="5.07"/><circle cx="513.45" cy="168.13" r="5.07"/><circle cx="530.33" cy="168.13" r="5.07"/><circle cx="564.1" cy="168.13" r="5.07"/><circle cx="597.87" cy="168.13" r="5.07"/><circle cx="344.6" cy="185.02" r="5.07"/><circle cx="395.26" cy="185.02" r="5.07"/><circle cx="412.14" cy="185.02" r="5.07"/><circle cx="429.03" cy="185.02" r="5.07"/><circle cx="445.91" cy="185.02" r="5.07"/><circle cx="462.79" cy="185.02" r="5.07"/><circle cx="479.68" cy="185.02" r="5.07"/><circle cx="530.33" cy="185.02" r="5.07"/><circle cx="580.98" cy="185.02" r="5.07"/><circle cx="597.87" cy="185.02" r="5.07"/><circle cx="614.75" cy="185.02" r="5.07"/><circle cx="631.64" cy="185.02" r="5.07"/><circle cx="682.29" cy="185.02" r="5.07"/><circle cx="716.06" cy="185.02" r="5.07"/><circle cx="732.94" cy="185.02" r="5.07"/><circle cx="749.83" cy="185.02" r="5.07"/><circle cx="361.49" cy="201.9" r="5.07"/><circle cx="378.37" cy="201.9" r="5.07"/><circle cx="429.03" cy="201.9" r="5.07"/><circle cx="462.79" cy="201.9" r="5.07"/><circle cx="479.68" cy="201.9" r="5.07"/><circle cx="496.56" cy="201.9" r="5.07"/><circle cx="513.45" cy="201.9" r="5.07"/><circle cx="547.22" cy="201.9" r="5.07"/><circle cx="564.1" cy="201.9" r="5.07"/><circle cx="580.98" cy="201.9" r="5.07"/><circle cx="597.87" cy="201.9" r="5.07"/><circle cx="665.41" cy="201.9" r="5.07"/><circle cx="682.29" cy="201.9" r="5.07"/><circle cx="699.18" cy="201.9" r="5.07"/><circle cx="716.06" cy="201.9" r="5.07"/><circle cx="732.94" cy="201.9" r="5.07"/><circle cx="344.6" cy="218.79" r="5.07"/><circle cx="361.49" cy="218.79" r="5.07"/><circle cx="395.26" cy="218.79" r="5.07"/><circle cx="412.14" cy="218.79" r="5.07"/><circle cx="429.03" cy="218.79" r="5.07"/><circle cx="445.91" cy="218.79" r="5.07"/><circle cx="513.45" cy="218.79" r="5.07"/><circle cx="564.1" cy="218.79" r="5.07"/><circle cx="597.87" cy="218.79" r="5.07"/><circle cx="614.75" cy="218.79" r="5.07"/><circle cx="631.64" cy="218.79" r="5.07"/><circle cx="648.52" cy="218.79" r="5.07"/><circle cx="665.41" cy="218.79" r="5.07"/><circle cx="699.18" cy="218.79" r="5.07"/><circle cx="749.83" cy="218.79" r="5.07"/><circle cx="361.49" cy="235.67" r="5.07"/><circle cx="547.22" cy="235.67" r="5.07"/><circle cx="580.98" cy="235.67" r="5.07"/><circle cx="597.87" cy="235.67" r="5.07"/><circle cx="648.52" cy="235.67" r="5.07"/><circle cx="699.18" cy="235.67" r="5.07"/><circle cx="716.06" cy="235.67" r="5.07"/><circle cx="732.94" cy="235.67" r="5.07"/><circle cx="749.83" cy="235.67" r="5.07"/><circle cx="361.49" cy="252.55" r="5.07"/><circle cx="378.37" cy="252.55" r="5.07"/><circle cx="412.14" cy="252.55" r="5.07"/><circle cx="429.03" cy="252.55" r="5.07"/><circle cx="445.91" cy="252.55" r="5.07"/><circle cx="479.68" cy="252.55" r="5.07"/><circle cx="496.56" cy="252.55" r="5.07"/><circle cx="513.45" cy="252.55" r="5.07"/><circle cx="530.33" cy="252.55" r="5.07"/><circle cx="547.22" cy="252.55" r="5.07"/><circle cx="614.75" cy="252.55" r="5.07"/><circle cx="648.52" cy="252.55" r="5.07"/><circle cx="665.41" cy="252.55" r="5.07"/><circle cx="749.83" cy="252.55" r="5.07"/><circle cx="344.6" cy="269.44" r="5.07"/><circle cx="429.03" cy="269.44" r="5.07"/><circle cx="462.79" cy="269.44" r="5.07"/><circle cx="479.68" cy="269.44" r="5.07"/><circle cx="580.98" cy="269.44" r="5.07"/><circle cx="597.87" cy="269.44" r="5.07"/><circle cx="614.75" cy="269.44" r="5.07"/><circle cx="631.64" cy="269.44" r="5.07"/><circle cx="682.29" cy="269.44" r="5.07"/><circle cx="732.94" cy="269.44" r="5.07"/><circle cx="344.6" cy="286.32" r="5.07"/><circle cx="361.49" cy="286.32" r="5.07"/><circle cx="378.37" cy="286.32" r="5.07"/><circle cx="445.91" cy="286.32" r="5.07"/><circle cx="462.79" cy="286.32" r="5.07"/><circle cx="496.56" cy="286.32" r="5.07"/><circle cx="513.45" cy="286.32" r="5.07"/><circle cx="530.33" cy="286.32" r="5.07"/><circle cx="547.22" cy="286.32" r="5.07"/><circle cx="564.1" cy="286.32" r="5.07"/><circle cx="580.98" cy="286.32" r="5.07"/><circle cx="597.87" cy="286.32" r="5.07"/><circle cx="614.75" cy="286.32" r="5.07"/><circle cx="648.52" cy="286.32" r="5.07"/><circle cx="682.29" cy="286.32" r="5.07"/><circle cx="699.18" cy="286.32" r="5.07"/><circle cx="716.06" cy="286.32" r="5.07"/><circle cx="732.94" cy="286.32" r="5.07"/><circle cx="749.83" cy="286.32" r="5.07"/><circle cx="344.6" cy="303.21" r="5.07"/><circle cx="378.37" cy="303.21" r="5.07"/><circle cx="412.14" cy="303.21" r="5.07"/><circle cx="429.03" cy="303.21" r="5.07"/><circle cx="479.68" cy="303.21" r="5.07"/><circle cx="496.56" cy="303.21" r="5.07"/><circle cx="530.33" cy="303.21" r="5.07"/><circle cx="597.87" cy="303.21" r="5.07"/><circle cx="631.64" cy="303.21" r="5.07"/><circle cx="665.41" cy="303.21" r="5.07"/><circle cx="699.18" cy="303.21" r="5.07"/><circle cx="716.06" cy="303.21" r="5.07"/><circle cx="749.83" cy="303.21" r="5.07"/><circle cx="344.6" cy="320.09" r="5.07"/><circle cx="412.14" cy="320.09" r="5.07"/><circle cx="429.03" cy="320.09" r="5.07"/><circle cx="445.91" cy="320.09" r="5.07"/><circle cx="513.45" cy="320.09" r="5.07"/><circle cx="580.98" cy="320.09" r="5.07"/><circle cx="614.75" cy="320.09" r="5.07"/><circle cx="631.64" cy="320.09" r="5.07"/><circle cx="648.52" cy="320.09" r="5.07"/><circle cx="665.41" cy="320.09" r="5.07"/><circle cx="682.29" cy="320.09" r="5.07"/><circle cx="716.06" cy="320.09" r="5.07"/><circle cx="732.94" cy="320.09" r="5.07"/><circle cx="479.68" cy="336.98" r="5.07"/><circle cx="496.56" cy="336.98" r="5.07"/><circle cx="513.45" cy="336.98" r="5.07"/><circle cx="530.33" cy="336.98" r="5.07"/><circle cx="547.22" cy="336.98" r="5.07"/><circle cx="564.1" cy="336.98" r="5.07"/><circle cx="614.75" cy="336.98" r="5.07"/><circle cx="682.29" cy="336.98" r="5.07"/><circle cx="716.06" cy="336.98" r="5.07"/><circle cx="732.94" cy="336.98" r="5.07"/><circle cx="479.68" cy="353.86" r="5.07"/><circle cx="496.56" cy="353.86" r="5.07"/><circle cx="513.45" cy="353.86" r="5.07"/><circle cx="530.33" cy="353.86" r="5.07"/><circle cx="614.75" cy="353.86" r="5.07"/><circle cx="648.52" cy="353.86" r="5.07"/><circle cx="682.29" cy="353.86" r="5.07"/><circle cx="749.83" cy="353.86" r="5.07"/><circle cx="479.68" cy="370.74" r="5.07"/><circle cx="513.45" cy="370.74" r="5.07"/><circle cx="547.22" cy="370.74" r="5.07"/><circle cx="580.98" cy="370.74" r="5.07"/><circle cx="597.87" cy="370.74" r="5.07"/><circle cx="614.75" cy="370.74" r="5.07"/><circle cx="682.29" cy="370.74" r="5.07"/><circle cx="732.94" cy="370.74" r="5.07"/><circle cx="749.83" cy="370.74" r="5.07"/><circle cx="479.68" cy="387.63" r="5.07"/><circle cx="513.45" cy="387.63" r="5.07"/><circle cx="547.22" cy="387.63" r="5.07"/><circle cx="564.1" cy="387.63" r="5.07"/><circle cx="580.98" cy="387.63" r="5.07"/><circle cx="597.87" cy="387.63" r="5.07"/><circle cx="614.75" cy="387.63" r="5.07"/><circle cx="631.64" cy="387.63" r="5.07"/><circle cx="648.52" cy="387.63" r="5.07"/><circle cx="665.41" cy="387.63" r="5.07"/><circle cx="682.29" cy="387.63" r="5.07"/><circle cx="732.94" cy="387.63" r="5.07"/><circle cx="749.83" cy="387.63" r="5.07"/><circle cx="479.68" cy="404.51" r="5.07"/><circle cx="513.45" cy="404.51" r="5.07"/><circle cx="580.98" cy="404.51" r="5.07"/><circle cx="597.87" cy="404.51" r="5.07"/><circle cx="614.75" cy="404.51" r="5.07"/><circle cx="631.64" cy="404.51" r="5.07"/><circle cx="648.52" cy="404.51" r="5.07"/><circle cx="732.94" cy="404.51" r="5.07"/><circle cx="749.83" cy="404.51" r="5.07"/><circle cx="513.45" cy="421.4" r="5.07"/><circle cx="547.22" cy="421.4" r="5.07"/><circle cx="580.98" cy="421.4" r="5.07"/><circle cx="597.87" cy="421.4" r="5.07"/><circle cx="614.75" cy="421.4" r="5.07"/><circle cx="682.29" cy="421.4" r="5.07"/><circle cx="699.18" cy="421.4" r="5.07"/><circle cx="716.06" cy="421.4" r="5.07"/><circle cx="732.94" cy="421.4" r="5.07"/><circle cx="749.83" cy="421.4" r="5.07"/><circle cx="496.56" cy="438.28" r="5.07"/><circle cx="513.45" cy="438.28" r="5.07"/><circle cx="580.98" cy="438.28" r="5.07"/><circle cx="631.64" cy="438.28" r="5.07"/><circle cx="648.52" cy="438.28" r="5.07"/><circle cx="665.41" cy="438.28" r="5.07"/><circle cx="682.29" cy="438.28" r="5.07"/><circle cx="716.06" cy="438.28" r="5.07"/><circle cx="732.94" cy="438.28" r="5.07"/><circle cx="749.83" cy="438.28" r="5.07"/><circle cx="479.68" cy="455.17" r="5.07"/><circle cx="496.56" cy="455.17" r="5.07"/><circle cx="513.45" cy="455.17" r="5.07"/><circle cx="564.1" cy="455.17" r="5.07"/><circle cx="580.98" cy="455.17" r="5.07"/><circle cx="614.75" cy="455.17" r="5.07"/><circle cx="699.18" cy="455.17" r="5.07"/><circle cx="749.83" cy="455.17" r="5.07"/><rect class="cls-1" x="353.89" y="59.23" width="82.73" height="82.73"/><path d="M436.62,41.5H336.16V159.69H454.35V41.5Zm0,100.46H353.89V59.23h82.73Z"/><rect class="cls-1" x="657.81" y="59.23" width="82.73" height="82.73"/><path d="M740.54,41.5H640.08V159.69H758.27V41.5Zm0,100.46H657.81V59.23h82.73Z"/><rect class="cls-1" x="353.89" y="363.15" width="82.73" height="82.73"/><path d="M436.62,345.42H336.16V463.61H454.35V345.42Zm0,100.46H353.89V363.15h82.73Z"/><rect x="369.93" y="75.27" width="50.65" height="50.65"/><rect x="673.85" y="75.27" width="50.65" height="50.65"/><rect x="369.93" y="379.19" width="50.65" height="50.65"/></g></svg>