<svg xmlns="http://www.w3.org/2000/svg" viewBox="0 0 1230.52 500"><g id="Webmoney"><g id="layer1"><g id="g9996"><path id="path2868" d="M683.69,251.93c-13.74-11.39-31.52-18.75-47.21-25.24-21.62-8.94-40.31-16.66-40.31-31a20.26,20.26,0,0,1,8.24-16.14c5.61-4.37,13.45-6.78,22.05-6.78,27,0,48.61,19.13,48.81,19.3l5.27,4.81,24-44.95-2.74-2.9c-1-1.11-26.29-27.17-75-27.17-23.36,0-44.85,7.47-60.52,21a69.85,69.85,0,0,0-24.69,53.47c0,20.2,7.84,36.53,23.94,49.93,13.54,11.24,30.4,18.51,46.72,25.55,22.25,9.59,41.49,17.88,41.49,32.63,0,11.24-7.61,23.25-28.94,23.25-30.6,0-55.15-23.29-55.39-23.53l-4.6-4.47L535,341l3,3.33c.34.34,8,8.85,22.51,17.31a126.06,126.06,0,0,0,63.63,17c25,0,46.26-7.66,61.56-22.13,14.39-13.64,22.31-32.47,22.31-53,0-21.16-7.94-38-24.28-51.58"/><path id="path2870" d="M935.59,375h55.84V125.6H935.59Z"/><path id="path2874" d="M826.45,328.26H784v-156h37.48c16.79,0,26.43,9.4,26.43,25.78,0,16.54-8.67,24.92-25.77,24.92H809.18v45.9h17.27c9.44,0,17.31,2.94,22.75,8.54,5.72,5.87,8,11.68,8,20.05,0,19-11.8,30.79-30.79,30.79m74.14-65.37a57,57,0,0,0-22.11-20.21c14.55-11.65,22.77-29.55,22.77-50,0-20.67-7.87-37.91-22.77-49.89-14-11.26-33.53-17.23-56.39-17.23H731.24V374.93H823.1c24.38,0,45.46-6.15,61-17.82,17.6-13.23,26.89-32.92,26.89-57a69.11,69.11,0,0,0-10.36-37.25"/><path id="path2878" d="M368,121.13c-71.19,0-128.91,57.85-128.91,129.21A129.1,129.1,0,0,0,354.81,378.87V285a37.13,37.13,0,1,1,26.37,0v93.86A129.09,129.09,0,0,0,496.91,250.34C496.91,179,439.2,121.13,368,121.13"/></g></g></g></svg>