<svg xmlns="http://www.w3.org/2000/svg" viewBox="0 0 1230.52 500"><g id="Paypal"><g id="_003772ff" data-name="#003772ff"><path d="M581.41,42.74a7.89,7.89,0,0,1,4.46-.27c34.89,9.13,68.81,21.64,102,35.75,3.18,1.42,6.47,2.6,9.55,4.25-2.54,18-5.28,36.06-7.57,54.13,3-1.4,5.76-3.21,8.65-4.8q22.53-12.78,46-23.75c1.36-.57,2.94-1.73,4.41-.75,26.18,13.08,51.64,27.56,76.84,42.43,2.69,1.63,5.44,3.16,8.07,4.9-8.15,5.93-16.43,11.69-24.5,17.74q-39.17,29.12-75.76,61.5c-1.44,1.49-3.54.23-5.24,0Q663.76,219,598.25,208.63c-4.37-.58-8.7-1.5-13.1-1.84a41.92,41.92,0,0,0,5.24,4.06c29.83,21.75,59.2,44.14,87.83,67.44.88.72,1.73,1.46,2.6,2.2-3.37,3.56-7.15,6.69-10.59,10.17q-42,39.94-83.92,79.91l-1.9,1.64a81.44,81.44,0,0,1-6.42-6c-48.51-46.73-97.48-93-148.34-137.21.85-2.05,1.85-4,2.89-6,13.33-26.14,26.83-52.21,41.59-77.58,1.48-2.65,3.27-5.13,4.52-7.9a76.43,76.43,0,0,0-7.1,3.88c-27.22,15.68-53.92,32.25-80.19,49.49-1.42.88-2.72,2.06-4.37,2.52a38.81,38.81,0,0,1-4.28-3.31c-14.06-11.25-28.62-21.87-43.46-32.06-1.46-1-2.9-2-4.31-3.07,3-2.2,6.34-3.84,9.5-5.8,42-24.78,85.09-47.95,129.63-67.94,1.87-.86,3.77-1.88,5.89-1.87q46.83,0,93.56,3.53a89.36,89.36,0,0,0,9.39.5,22.1,22.1,0,0,0-2.76-1.47C561.7,74.33,543,67.48,524.08,61.18,527,59.84,530,59,533,58c16-5.44,32.08-10.82,48.42-15.24m1.73,41.56c-26.73,11.81-52.93,24.81-78.66,38.67-8.35,4.59-16.78,9.05-25,13.92,2,1.34,4.16,2.55,6.26,3.8,17.8,10.65,35.23,21.92,52.43,33.53,15.62,10.47,30.93,21.41,46.29,32.27,2.52-1.61,4.87-3.45,7.32-5.17,29.82-21.33,60.15-42,91.65-60.8a54.16,54.16,0,0,0,6-3.73A782.6,782.6,0,0,0,585.87,84.24,3,3,0,0,0,583.14,84.3Z"/><path d="M573.76,103.06a102.59,102.59,0,0,1,35.3,2.66,69.44,69.44,0,0,1,20.88,9A36.56,36.56,0,0,1,641.3,126.2,21.48,21.48,0,0,1,644,142.4c-1.57,6.48-6,11.83-11.19,15.87-7.88,6.09-17.35,9.78-27,11.93a101.9,101.9,0,0,1-48.29-1.11c-9.53-2.64-18.82-7-26-13.83-4.83-4.81-8.55-11.32-8.24-18.33.18-7.43,4.63-14,10.13-18.74C544.66,108.76,559.38,104.58,573.76,103.06Z"/><path d="M334.33,395.73c6.28-.31,12.57,0,18.85-.13,4.58-.07,9.34-.11,13.63,1.75a13.77,13.77,0,0,1,8,8.61c1.6,5.31,1,11.6-2.71,15.94-1.93,2.34-4.8,3.52-7.54,4.62,1.5.83,3.18,1.57,4.19,3a26.38,26.38,0,0,1,3.06,6.93c2.12,6.85,4.31,13.66,6.46,20.49-5,.06-10.08,0-15.11,0-1.8-5.57-3.25-11.24-4.93-16.84-.77-2.36-1.44-5-3.35-6.69-1.67-1.42-4-1.23-6-1.24-.12,8.26,0,16.52-.05,24.77-4.84,0-9.67,0-14.5,0q0-30.61,0-61.22m14,10.36c-.1,5.25-.14,10.5,0,15.74,3.18,0,6.67.34,9.48-1.43,3.89-2.58,4.51-8.77,1.44-12.18C356.38,405.44,352,406,348.34,406.09Z"/><path d="M491.46,395.68c4.28-.15,8.57-.13,12.86,0,.1,3.79.19,7.59-.05,11.37H491.48C491.41,403.26,491.43,399.47,491.46,395.68Z"/><path d="M595.26,395.67q17-.18,34,0c.13,3.53.14,7.06,0,10.58-6.68.19-13.37,0-20.06.09-.13,4.72-.09,9.45,0,14.17,6.45.14,12.9-.05,19.35.08v10.72c-6.45.12-12.9-.07-19.35.08-.12,8.53,0,17.06,0,25.59q-6.9,0-13.81,0c-.2-7.4,0-14.82-.08-22.24C595.24,421.71,595.09,408.69,595.26,395.67Z"/><path d="M696.14,395.68c4.29-.15,8.57-.13,12.86,0,.17,14,0,27.94.07,41.91.07,6.46-.16,12.93.2,19.38-4.08,0-8.16.07-12.23,0-.21-2-.38-4.09-.53-6.13-1.36,1.79-2.65,3.72-4.57,5a13.66,13.66,0,0,1-10,1.55c-4-.83-7.19-4-9-7.57-2.39-4.77-3.1-10.21-3-15.5s.94-11.2,4.27-15.65c3.67-5,11-6.22,16.46-3.73,2.35,1,3.86,3.18,5.35,5.16.18-8.12,0-16.24.08-24.36M687.24,423c-2.13,1-3,3.45-3.4,5.63a56,56,0,0,0-.33,9.86c.12,2.65.5,5.45,2,7.7a4.92,4.92,0,0,0,7,1.07,9,9,0,0,0,2.76-4.82,31.85,31.85,0,0,0,.34-12.9,11.16,11.16,0,0,0-2.23-5.43A5.48,5.48,0,0,0,687.24,423Z"/><path d="M820,395.68q6.42-.21,12.85,0c.17,11.43,0,22.87.07,34.31,0,9,.09,18-.07,27-4.28,0-8.57,0-12.86,0-.15-13.74,0-27.49-.06-41.23C820,409.05,819.83,402.36,820,395.68Z"/><path d="M513.84,405.49c4.18-1.27,8.34-2.65,12.53-3.93,0,4.26-.1,8.52.06,12.78,2.75.05,5.51,0,8.26,0a86.77,86.77,0,0,1,0,9c-2.75.08-5.5.06-8.25.06-.2,6.14,0,12.29-.1,18.44.07,2,0,4.6,1.94,5.84,2.08,1.13,4.52.26,6.7-.1,0,3.16,0,6.31,0,9.46a45.92,45.92,0,0,1-10.41.51,11.56,11.56,0,0,1-8.52-3.82c-2-2.38-2.59-5.54-2.68-8.54-.11-7.26.13-14.52-.1-21.77-3-.05-5.95-.06-8.92,0,0,11.16.13,22.34-.06,33.5-4.29,0-8.57,0-12.86,0q0-21.3,0-42.59c7.43-.06,14.85.07,22.28-.05C513.79,411.38,513.72,408.43,513.84,405.49Z"/><path d="M388,415.86c4.2-2.35,9.27-2.66,13.93-1.76a15,15,0,0,1,10.05,7c3.27,5.36,3.56,11.86,3.34,18-8.37.2-16.74-.07-25.1.12a9.72,9.72,0,0,0,3.42,7.4c2.87,2.38,6.82,2.29,10.34,2.18a33.5,33.5,0,0,0,8.89-1.49c0,3.27.2,6.53.15,9.8a74.45,74.45,0,0,1-10.45.67c-5,0-10.21-.18-14.72-2.56a18,18,0,0,1-9-11.85,29.21,29.21,0,0,1,1.05-18,18.74,18.74,0,0,1,8.1-9.45m4.39,7.74c-1.91,2.32-2,5.47-2.13,8.33,4.46.2,8.92.14,13.37.05-.13-2.89-.32-6.06-2.25-8.39A5.92,5.92,0,0,0,392.38,423.6Z"/><path d="M424.72,418.9a20.44,20.44,0,0,1,13.48-5.23,79.5,79.5,0,0,1,11.33.67,74.52,74.52,0,0,1-.58,9.78c-3.71-.3-7.59-1-11.2.2s-5.53,5.33-5.88,9c-.52,4.39,0,9.62,3.75,12.52,4,3.11,9.37,2.08,14,1.67a80,80,0,0,1,.32,9.54c-4.5.93-9.13.73-13.7.5a18,18,0,0,1-11.49-4.66c-4.71-4.34-6.62-11-6.52-17.22C418.17,429.57,420.17,423.16,424.72,418.9Z"/><path d="M454.35,421.46a17.27,17.27,0,0,1,12.34-7.64,22.25,22.25,0,0,1,10.36,1.09,15.06,15.06,0,0,1,8.25,7.84c2.35,5.06,2.69,10.78,2.39,16.27-8.33.19-16.66,0-25,.09a9.12,9.12,0,0,0,8.73,9.54,37.09,37.09,0,0,0,13.78-1.39c.16,3.27.29,6.54.15,9.81a88.7,88.7,0,0,1-15.37.52c-4.88-.17-9.88-1.71-13.49-5.1-3.5-3.23-5.31-7.92-5.88-12.57-.84-6.32.1-13.11,3.73-18.46M464.47,424c-1.6,2.33-1.8,5.25-1.77,8q6.6.15,13.21,0c0-2.85-.23-5.91-2-8.27C471.71,420.75,466.47,420.82,464.47,424Z"/><path d="M541.7,414.42c6.73-.37,13.53-1.36,20.24-.26,3.55.64,7.28,2.11,9.35,5.23,1.85,2.68,2.29,6,2.4,9.19.18,9.46-.19,18.93.24,28.39-3.9,0-7.8,0-11.69,0-.18-1.59-.36-3.18-.57-4.76a23.8,23.8,0,0,1-4.79,3.82,16.19,16.19,0,0,1-11,1.14,11.85,11.85,0,0,1-8.64-8.83c-.9-4.05-.41-8.7,2.32-12,2.5-3,6.29-4.52,10-5.26,4-.87,8.16-.68,12.24-.72,0-2.07-.27-4.33-1.82-5.85-2-2.14-5.16-2-7.82-1.86a30.74,30.74,0,0,0-10.5,2.46c-.08-3.56-.11-7.14,0-10.7m9.58,24.17c-2.89,1.9-3.48,6.29-1.55,9.05,2.7,3.08,8.2,2.07,10.3-1.23,2-2.9,1.91-6.56,1.73-9.9C558.21,436.45,554.34,436.55,551.28,438.59Z"/><path d="M634.05,421.17a17.29,17.29,0,0,1,12.61-7.4,20.73,20.73,0,0,1,11.54,1.89,15.28,15.28,0,0,1,6.76,7.41c2.23,5,2.53,10.57,2.25,15.95-8.39.18-16.79,0-25.17.07.34,2.38.87,4.9,2.62,6.68a10,10,0,0,0,6.28,2.88,37.16,37.16,0,0,0,13.79-1.38c.14,3.26.28,6.53.14,9.8a89.3,89.3,0,0,1-15.85.49c-5-.24-10.18-2-13.7-5.76a21,21,0,0,1-5.24-12.35c-.76-6.29.28-13,4-18.28m10.13,2.54c-1.77,2.36-2,5.42-2,8.27q6.6.15,13.21,0c0-2.85-.22-5.91-2-8.27A6,6,0,0,0,644.18,423.71Z"/><path d="M717.37,420a17.11,17.11,0,0,1,11-6.12c4.61-.6,9.6-.05,13.54,2.6a17.18,17.18,0,0,1,6.74,10.33,41.92,41.92,0,0,1,1,12.24c-8.38.17-16.76,0-25.14.09.17,2.79,1.12,5.69,3.44,7.43,2.87,2.42,6.84,2.29,10.37,2.18a33.16,33.16,0,0,0,8.88-1.49c0,3.27.15,6.53.11,9.81a82.57,82.57,0,0,1-15.64.5c-4.94-.25-10-1.81-13.6-5.39-4.18-4.15-5.82-10.24-5.8-16-.14-5.74,1.39-11.71,5.11-16.18m9.34,3.61c-1.89,2.34-2.06,5.5-2.24,8.38,4.49.11,9,.13,13.46,0-.21-2.87-.34-6-2.23-8.37A5.92,5.92,0,0,0,726.71,423.59Z"/><path d="M782.1,414.41c4.71-.32,9.43-.71,14.16-.77,4.79.14,10.08.63,13.84,3.94,3.21,2.83,4,7.35,4,11.42.12,9.32-.11,18.66.15,28-3.88,0-7.77,0-11.66,0-.15-1.73-.32-3.45-.49-5.17a14.19,14.19,0,0,1-7,5.1c-4.73,1.47-10.45.9-14.16-2.62-3.43-3.16-4.31-8.28-3.48-12.71a11.85,11.85,0,0,1,6.28-8.32c5.61-3.05,12.18-2.9,18.37-2.87.08-2.3-.43-4.82-2.3-6.35-2.06-1.66-4.9-1.43-7.39-1.35a30.53,30.53,0,0,0-10.41,2.46c0-3.57,0-7.15,0-10.72m10.07,23.83c-3.31,1.77-4.16,6.71-1.88,9.59,2.79,2.78,8,1.82,10.1-1.39,2-2.88,2-6.51,1.89-9.85C798.86,436.34,795.25,436.58,792.17,438.24Z"/><path d="M752.63,414.39c3.9,0,7.8,0,11.7,0a62.38,62.38,0,0,0,.62,6.82c1.65-1.87,2.82-4.31,5.12-5.52,2.59-1.48,5.67-1.35,8.55-1.31q0,5.4,0,10.79c-3.14.12-6.73-.57-9.39,1.53-2.81,2.24-3.16,6.11-3.37,9.45-.15,6.94,0,13.89-.06,20.84q-6.43,0-12.86,0C752.62,442.78,753.18,428.58,752.63,414.39Z"/></g></g></svg>