<svg width="16" height="17" viewBox="0 0 16 17" fill="none" xmlns="http://www.w3.org/2000/svg">
<g clip-path="url(#clip0_404_653)">
<path d="M11.6923 0.0253906H4.30769C3.1656 0.0266123 2.07063 0.48085 1.26304 1.28843C0.455459 2.09602 0.00122171 3.19099 0 4.33308V11.7177C0.00122171 12.8598 0.455459 13.9548 1.26304 14.7623C2.07063 15.5699 3.1656 16.0242 4.30769 16.0254H11.6923C12.8344 16.0242 13.9294 15.5699 14.737 14.7623C15.5445 13.9548 15.9988 12.8598 16 11.7177V4.33308C15.9988 3.19099 15.5445 2.09602 14.737 1.28843C13.9294 0.48085 12.8344 0.0266123 11.6923 0.0253906ZM8 11.7177C7.26973 11.7177 6.55586 11.5011 5.94866 11.0954C5.34147 10.6897 4.86822 10.1131 4.58875 9.43838C4.30929 8.76369 4.23617 8.0213 4.37864 7.30506C4.52111 6.58882 4.87277 5.93091 5.38914 5.41454C5.90552 4.89816 6.56343 4.5465 7.27967 4.40403C7.9959 4.26156 8.7383 4.33468 9.41299 4.61414C10.0877 4.89361 10.6643 5.36686 11.07 5.97405C11.4758 6.58125 11.6923 7.29512 11.6923 8.02539C11.6913 9.00434 11.302 9.9429 10.6097 10.6351C9.91751 11.3273 8.97895 11.7167 8 11.7177ZM12.6154 4.33308C12.4328 4.33308 12.2544 4.27895 12.1026 4.17752C11.9508 4.07609 11.8324 3.93192 11.7626 3.76325C11.6927 3.59458 11.6744 3.40898 11.71 3.22992C11.7457 3.05086 11.8336 2.88639 11.9627 2.75729C12.0918 2.6282 12.2562 2.54028 12.4353 2.50467C12.6144 2.46905 12.8 2.48733 12.9686 2.55719C13.1373 2.62706 13.2815 2.74537 13.3829 2.89717C13.4843 3.04897 13.5385 3.22744 13.5385 3.41001C13.5385 3.65482 13.4412 3.88961 13.2681 4.06272C13.095 4.23583 12.8602 4.33308 12.6154 4.33308ZM10.4615 8.02539C10.4615 8.51224 10.3172 8.98815 10.0467 9.39295C9.77622 9.79775 9.39178 10.1132 8.94199 10.2996C8.4922 10.4859 7.99727 10.5346 7.51978 10.4396C7.04229 10.3447 6.60368 10.1102 6.25943 9.76596C5.91518 9.42171 5.68074 8.9831 5.58576 8.50561C5.49078 8.02812 5.53953 7.53319 5.72583 7.0834C5.91214 6.63361 6.22764 6.24917 6.63244 5.9787C7.03724 5.70822 7.51315 5.56385 8 5.56385C8.65284 5.56385 9.27894 5.82319 9.74057 6.28482C10.2022 6.74645 10.4615 7.37255 10.4615 8.02539Z" fill="#2D7CF2"/>
</g>
<defs>
<clipPath id="clip0_404_653">
<rect width="16" height="16" fill="white" transform="translate(0 0.0253906)"/>
</clipPath>
</defs>
</svg>
